<?xml version="1.0" encoding="UTF-8"?>
<svg fill="none" viewBox="0 0 529 489" xmlns="http://www.w3.org/2000/svg">
<path d="m291.22 255-147.44 85.62c-2.26 1.32-3.39 3.05-3.39 4.78v9.5c0 1.75 1.14 3.51 3.44 4.85l219.9 127c0.27 0.16 0.56 0.31 0.86 0.46 0.088 0.039 0.178 0.073 0.27 0.1 0.18 0.09 0.35 0.17 0.55 0.25h0.06c0.4 0.15 0.83 0.29 1.26 0.41 0.029 0.01 0.061 0.01 0.09 0l0.29 0.08c0.25 0.05 0.49 0.13 0.74 0.19 0.066-5e-3 0.133-5e-3 0.2 0 0.092 0.026 0.185 0.046 0.28 0.06 0.21 0 0.42 0.08 0.63 0.1 0.083 0.01 0.167 0.01 0.25 0h0.28c0.191 0.037 0.385 0.061 0.58 0.07h3.66c0.1 5e-3 0.2 5e-3 0.3 0h0.09l1.35-0.18h0.06l0.34-0.07c0.22 0 0.46-0.09 0.69-0.16 0.153-0.029 0.303-0.069 0.45-0.12l0.6-0.16h0.13l0.23-0.09c0.3-0.11 0.61-0.21 0.89-0.34l0.34-0.14c0.377-0.164 0.745-0.351 1.1-0.56l147.4-85.49v-9.54l-236.48-136.62z" fill="#B7C0EB"/>
<path d="m143.82 345.34c-2.29-1.33-3.44-3.08-3.44-4.83v9.54c0 1.76 1.14 3.51 3.44 4.84l219.9 127v-9.54l-219.9-127.01z" fill="#EFF1FE"/>
<path d="m291.22 250.12 236.52 136.62-147.45 85.63c-4.54 2.64-12 2.63-16.57 0l-219.9-127c-4.57-2.64-4.58-7 0-9.6l147.4-85.65z" fill="#FDFCFF"/>
<path d="m380.29 472.37c-0.35 0.2-0.72 0.37-1.09 0.55-0.11 0.05-0.22 0.08-0.34 0.14-0.29 0.12-0.6 0.24-0.91 0.34l-0.34 0.12-0.62 0.18-0.45 0.12-0.64 0.14-0.45 0.09c-0.44 0.07-0.89 0.13-1.33 0.18-0.14-0.01-0.28-0.01-0.42 0l-0.8 0.05h-2.28-0.56c-0.191-0.013-0.381-0.037-0.57-0.07-0.18 0-0.36 0-0.53-0.06l-0.64-0.11-0.47-0.1c-0.247-0.047-0.487-0.107-0.72-0.18l-0.43-0.11c-0.41-0.12-0.83-0.27-1.24-0.42l-0.6-0.26-0.28-0.13c-0.295-0.125-0.583-0.269-0.86-0.43v9.54c0.27 0.16 0.56 0.31 0.86 0.46 0.08 0 0.18 0.06 0.27 0.1 0.178 0.095 0.361 0.179 0.55 0.25h0.06c0.4 0.16 0.83 0.29 1.26 0.42 0.03 6e-3 0.06 6e-3 0.09 0l0.29 0.07 0.74 0.2c0.066-9e-3 0.134-9e-3 0.2 0 0.093-9e-3 0.187-9e-3 0.28 0 0.21 0 0.42 0.08 0.63 0.1l0.25 0.05h0.28l0.58 0.06h0.53 0.63 1.68l0.82-0.07h0.39l1.35-0.18h0.06l0.34-0.08 0.69-0.14c0.153-0.036 0.303-0.083 0.45-0.14 0.204-0.039 0.404-0.093 0.6-0.16h0.13c0.075-0.034 0.152-0.064 0.23-0.09 0.303-0.097 0.6-0.21 0.89-0.34l0.34-0.14c0.378-0.164 0.745-0.351 1.1-0.56l147.41-85.48v-9.54l-147.41 85.63z" fill="#E4E7FB"/>
<path d="m296.39 278.01-6.04 3.51-12.17-7.03 6.05-3.51 12.16 7.03z" fill="#EFF1FE"/>
<path d="m296.39 278.01v1.91l-6.05 3.51 0.01-1.91 6.04-3.51z" fill="#E4E7FB"/>
<path d="m290.35 281.52-0.01 1.91-12.16-7.03v-1.91l12.17 7.03z" fill="#EFF1FE"/>
<path d="m286.07 284.01-12.09 7.02-12.17-7.03 12.11-7.03 12.15 7.04z" fill="#EFF1FE"/>
<path d="m286.07 284.01v1.91l-12.1 7.02 0.01-1.91 12.09-7.02z" fill="#E4E7FB"/>
<path d="m273.98 291.03-0.01 1.91-12.16-7.04v-1.9l12.17 7.03z" fill="#EFF1FE"/>
<path d="m310.72 286.27-6.04 3.52-12.18-7.03 6.04-3.51 12.18 7.02z" fill="#EFF1FE"/>
<path d="m310.72 286.27-0.01 1.91-6.04 3.53 0.01-1.92 6.04-3.52z" fill="#E4E7FB"/>
<path d="m304.68 289.79-0.01 1.92-12.18-7.04 0.01-1.91 12.18 7.03z" fill="#EFF1FE"/>
<path d="m300.39 292.28-12.09 7.03-12.18-7.05 12.1-7.01 12.17 7.03z" fill="#EFF1FE"/>
<path d="m300.39 292.28v1.9l-12.09 7.03v-1.9l12.09-7.03z" fill="#E4E7FB"/>
<path d="m288.3 299.31v1.9l-12.18-7.03v-1.92l12.18 7.05z" fill="#EFF1FE"/>
<path d="m325.04 294.54-6.05 3.52-12.18-7.02 6.05-3.53 12.18 7.03z" fill="#EFF1FE"/>
<path d="m325.04 294.54-0.01 1.92-6.04 3.51v-1.91l6.05-3.52z" fill="#E4E7FB"/>
<path d="m318.99 298.06v1.91l-12.18-7.02v-1.91l12.18 7.02z" fill="#EFF1FE"/>
<path d="m314.71 300.53-12.09 7.03-12.18-7.02 12.11-7.03 12.16 7.02z" fill="#EFF1FE"/>
<path d="m314.71 300.53v1.93l-12.1 7.02 0.01-1.92 12.09-7.03z" fill="#E4E7FB"/>
<path d="m302.62 307.56-0.01 1.92-12.18-7.02 0.01-1.92 12.18 7.02z" fill="#EFF1FE"/>
<path d="m339.36 302.82-6.05 3.52-12.18-7.04 6.04-3.52 12.19 7.04z" fill="#EFF1FE"/>
<path d="m339.36 302.82-0.01 1.91-6.04 3.51v-1.9l6.05-3.52z" fill="#E4E7FB"/>
<path d="m333.31 306.34v1.9l-12.18-7.03v-1.91l12.18 7.04z" fill="#EFF1FE"/>
<path d="m329.04 308.81-12.1 7.03-12.18-7.03 12.1-7.04 12.18 7.04z" fill="#EFF1FE"/>
<path d="m329.04 308.81-0.02 1.9-12.08 7.04v-1.91l12.1-7.03z" fill="#E4E7FB"/>
<path d="m316.94 315.84v1.91l-12.18-7.04v-1.9l12.18 7.03z" fill="#EFF1FE"/>
<path d="m353.67 311.09-6.05 3.51-12.17-7.04 6.05-3.5 12.17 7.03z" fill="#EFF1FE"/>
<path d="m353.67 311.09v1.91l-6.05 3.51v-1.91l6.05-3.51z" fill="#E4E7FB"/>
<path d="m347.62 314.6v1.91l-12.17-7.02v-1.93l12.17 7.04z" fill="#EFF1FE"/>
<path d="m343.35 317.08-12.09 7.02-12.17-7.01 12.1-7.03 12.16 7.02z" fill="#EFF1FE"/>
<path d="m343.35 317.08-0.01 1.92-12.1 7.03 0.02-1.93 12.09-7.02z" fill="#E4E7FB"/>
<path d="m331.26 324.1-0.02 1.93-12.17-7.05 0.02-1.89 12.17 7.01z" fill="#EFF1FE"/>
<path d="m367.99 319.37-6.04 3.5-12.17-7.02 6.04-3.52 12.17 7.04z" fill="#EFF1FE"/>
<path d="m367.99 319.37-0.01 1.9-6.05 3.51 0.02-1.91 6.04-3.5z" fill="#E4E7FB"/>
<path d="m361.95 322.87-0.02 1.91-12.16-7.04 0.01-1.89 12.17 7.02z" fill="#EFF1FE"/>
<path d="m357.68 325.35-12.11 7.03-12.16-7.03 12.09-7.02 12.18 7.02z" fill="#EFF1FE"/>
<path d="m357.68 325.35-0.01 1.92-12.11 7.02 0.01-1.91 12.11-7.03z" fill="#E4E7FB"/>
<path d="m345.57 332.38-0.01 1.91-12.17-7.02 0.02-1.92 12.16 7.03z" fill="#EFF1FE"/>
<path d="m382.3 327.62-6.04 3.52-12.17-7.02 6.05-3.52 12.16 7.02z" fill="#EFF1FE"/>
<path d="m382.3 327.62v1.92l-6.05 3.51 0.01-1.91 6.04-3.52z" fill="#E4E7FB"/>
<path d="m376.26 331.14-0.01 1.91-12.16-7.03v-1.9l12.17 7.02z" fill="#EFF1FE"/>
<path d="m371.99 333.62-12.1 7.03-12.17-7.03 12.1-7.03 12.17 7.03z" fill="#EFF1FE"/>
<path d="m371.99 333.62-0.01 1.91-12.1 7.02 0.01-1.9 12.1-7.03z" fill="#E4E7FB"/>
<path d="m359.89 340.65-0.01 1.9-12.17-7.02 0.01-1.91 12.17 7.03z" fill="#EFF1FE"/>
<path d="m279 296.41-12.1 7.02-19.42-11.22 12.1-7.03 19.42 11.23z" fill="#EFF1FE"/>
<path d="m279 296.41v1.9l-12.1 7.02v-1.9l12.1-7.02z" fill="#E4E7FB"/>
<path d="m266.9 303.43v1.9l-19.43-11.22 0.01-1.9 19.42 11.22z" fill="#EFF1FE"/>
<path d="m293.32 304.68-12.1 7.03-12.17-7.04 12.1-7.03 12.17 7.04z" fill="#EFF1FE"/>
<path d="m293.32 304.68-0.01 1.9-12.09 7.03v-1.9l12.1-7.03z" fill="#E4E7FB"/>
<path d="m281.22 311.71v1.9l-12.17-7.03v-1.91l12.17 7.04z" fill="#EFF1FE"/>
<path d="m307.64 312.94-12.09 7.02-12.18-7.02 12.1-7.01 12.17 7.01z" fill="#EFF1FE"/>
<path d="m307.64 312.94v1.91l-12.11 7.04 0.02-1.93 12.09-7.02z" fill="#E4E7FB"/>
<path d="m295.55 319.96-0.02 1.93-12.17-7.04 0.01-1.91 12.18 7.02z" fill="#EFF1FE"/>
<path d="m321.96 321.21-12.11 7.03-12.17-7.03 12.1-7.03 12.18 7.03z" fill="#EFF1FE"/>
<path d="m321.96 321.21-0.01 1.92-12.1 7.02v-1.91l12.11-7.03z" fill="#E4E7FB"/>
<path d="m309.85 328.24v1.91l-12.17-7.03v-1.91l12.17 7.03z" fill="#EFF1FE"/>
<path d="m336.28 329.48-12.11 7.03-12.17-7.04 12.11-7.01 12.17 7.02z" fill="#EFF1FE"/>
<path d="m336.28 329.48-0.01 1.92-12.1 7.02v-1.91l12.11-7.03z" fill="#E4E7FB"/>
<path d="m324.17 336.51v1.91l-12.17-7.03v-1.92l12.17 7.04z" fill="#EFF1FE"/>
<path d="m350.6 337.75-12.11 7.03-12.17-7.03 12.1-7.02 12.18 7.02z" fill="#EFF1FE"/>
<path d="m350.6 337.75-0.02 1.91-12.1 7.02 0.01-1.9 12.11-7.03z" fill="#E4E7FB"/>
<path d="m338.49 344.78-0.01 1.9-12.16-7.02v-1.91l12.17 7.03z" fill="#EFF1FE"/>
<path d="m271.93 308.81-12.11 7.04-26.49-15.32 12.11-7.03 26.49 15.31z" fill="#EFF1FE"/>
<path d="m271.93 308.81-0.01 1.9-12.1 7.04v-1.9l12.11-7.04z" fill="#E4E7FB"/>
<path d="m259.82 315.85v1.9l-26.49-15.3v-1.92l26.49 15.32z" fill="#EFF1FE"/>
<path d="m250.52 312.94-12.09 7.02-19.42-11.21 12.1-7.03 19.41 11.22z" fill="#EFF1FE"/>
<path d="m250.52 312.94v1.91l-12.1 7.02 0.01-1.91 12.09-7.02z" fill="#E4E7FB"/>
<path d="m238.43 319.96-0.01 1.91-19.42-11.21 0.01-1.91 19.42 11.21z" fill="#EFF1FE"/>
<path d="m286.25 317.08-12.11 7.03-12.17-7.03 12.11-7.03 12.17 7.03z" fill="#EFF1FE"/>
<path d="m286.25 317.08-0.01 1.91-12.11 7.03 0.01-1.91 12.11-7.03z" fill="#E4E7FB"/>
<path d="m274.14 324.11-0.01 1.91-12.17-7.03 0.01-1.91 12.17 7.03z" fill="#EFF1FE"/>
<path d="m264.85 321.2-12.1 7.03-12.17-7.03 12.09-7.03 12.18 7.03z" fill="#EFF1FE"/>
<path d="m264.85 321.2v1.92l-12.11 7.02 0.01-1.91 12.1-7.03z" fill="#E4E7FB"/>
<path d="m252.75 328.23-0.01 1.91-12.17-7.04 0.01-1.9 12.17 7.03z" fill="#EFF1FE"/>
<path d="m300.56 325.35-12.11 7.03-12.16-7.03 12.1-7.04 12.17 7.04z" fill="#EFF1FE"/>
<path d="m300.56 325.35v1.9l-12.11 7.04v-1.91l12.11-7.03z" fill="#E4E7FB"/>
<path d="m288.45 332.38v1.91l-12.17-7.03 0.01-1.91 12.16 7.03z" fill="#EFF1FE"/>
<path d="m279.17 329.48-12.1 7.02-12.18-7.02 12.11-7.03 12.17 7.03z" fill="#EFF1FE"/>
<path d="m279.17 329.48-0.01 1.91-12.11 7.03 0.02-1.92 12.1-7.02z" fill="#E4E7FB"/>
<path d="m267.07 336.5-0.02 1.92-12.16-7.03v-1.91l12.18 7.02z" fill="#EFF1FE"/>
<path d="m314.88 333.61-12.1 7.03-12.17-7.02 12.1-7.04 12.17 7.03z" fill="#EFF1FE"/>
<path d="m314.88 333.61-0.01 1.93-12.1 7.02 0.01-1.92 12.1-7.03z" fill="#E4E7FB"/>
<path d="m302.78 340.64-0.01 1.92-12.17-7.03 0.01-1.91 12.17 7.02z" fill="#EFF1FE"/>
<path d="m293.49 337.75-12.11 7.02-12.17-7.03 12.09-7.03 12.19 7.04z" fill="#EFF1FE"/>
<path d="m293.49 337.75-0.01 1.91-12.1 7.03v-1.92l12.11-7.02z" fill="#E4E7FB"/>
<path d="m281.38 344.77v1.92l-12.17-7.03v-1.92l12.17 7.03z" fill="#EFF1FE"/>
<path d="m329.2 341.89-12.11 7.03-12.16-7.02 12.1-7.05 12.17 7.04z" fill="#EFF1FE"/>
<path d="m329.2 341.89-0.01 1.91-12.11 7.03 0.01-1.91 12.11-7.03z" fill="#E4E7FB"/>
<path d="m317.09 348.92-0.01 1.91-12.16-7.02 0.01-1.91 12.16 7.02z" fill="#EFF1FE"/>
<path d="m307.8 346.02-12.1 7.03-12.17-7.03 12.1-7.03 12.17 7.03z" fill="#EFF1FE"/>
<path d="m307.8 346.02v1.9l-12.11 7.03 0.01-1.9 12.1-7.03z" fill="#E4E7FB"/>
<path d="m295.7 353.05-0.01 1.9-12.17-7.02 0.01-1.91 12.17 7.03z" fill="#EFF1FE"/>
<path d="m396.63 335.89-6.05 3.51-12.16-7.02 6.04-3.51 12.17 7.02z" fill="#EFF1FE"/>
<path d="m396.63 335.89-0.01 1.91-6.05 3.52 0.01-1.92 6.05-3.51z" fill="#E4E7FB"/>
<path d="m390.58 339.4-0.01 1.92-12.16-7.03 0.01-1.91 12.16 7.02z" fill="#EFF1FE"/>
<path d="m386.31 341.88-12.1 7.03-12.17-7.02 12.09-7.03 12.18 7.02z" fill="#EFF1FE"/>
<path d="m386.31 341.88-0.01 1.91-12.1 7.04 0.01-1.92 12.1-7.03z" fill="#E4E7FB"/>
<path d="m374.21 348.91-0.01 1.92-12.17-7.03 0.01-1.91 12.17 7.02z" fill="#EFF1FE"/>
<path d="m347.8 350.15-0.01 1.91-7.16-4.13 0.01-1.91 7.16 4.13z" fill="#EFF1FE"/>
<path d="m372.08 350.15-0.02 1.91-12.1 7.03 0.02-1.91 12.1-7.03z" fill="#E4E7FB"/>
<path d="m331.41 357.19-0.01 1.9-12.16-7.02v-1.92l12.17 7.04z" fill="#EFF1FE"/>
<path d="m343.52 350.15-12.11 7.04-12.17-7.04 12.11-7.03 12.17 7.03z" fill="#EFF1FE"/>
<path d="m343.52 350.15-0.01 1.91-12.11 7.03 0.01-1.9 12.11-7.04z" fill="#E4E7FB"/>
<path d="m372.08 350.15-12.1 7.03-14.25 8.28-12.17-7.04 14.24-8.27-7.16-4.13 12.11-7.02 7.15 4.13 6.09 3.52 6.09 3.5z" fill="#EFF1FE"/>
<path d="m359.98 357.18-0.02 1.91-14.23 8.27v-1.9l14.25-8.28z" fill="#E4E7FB"/>
<path d="m345.73 365.46v1.9l-12.18-7.02 0.01-1.92 12.17 7.04z" fill="#EFF1FE"/>
<path d="m322.12 354.29-12.09 7.02-12.18-7.02 12.1-7.03 12.17 7.03z" fill="#EFF1FE"/>
<path d="m322.12 354.29v1.91l-12.1 7.02 0.01-1.91 12.09-7.02z" fill="#E4E7FB"/>
<path d="m310.03 361.31-0.01 1.91-12.17-7.02v-1.91l12.18 7.02z" fill="#EFF1FE"/>
<path d="m343.56 366.67-12.1 7.02-19.29-11.13 12.1-7.03 19.29 11.14z" fill="#EFF1FE"/>
<path d="m343.56 366.67-0.01 1.92-12.09 7.02v-1.92l12.1-7.02z" fill="#E4E7FB"/>
<path d="m331.46 373.69v1.92l-19.29-11.14v-1.91l19.29 11.13z" fill="#EFF1FE"/>
<path d="m243.45 325.33-12.1 7.04-26.49-15.31 12.1-7.02 26.49 15.29z" fill="#EFF1FE"/>
<path d="m243.45 325.33v1.92l-12.11 7.03 0.01-1.91 12.1-7.04z" fill="#E4E7FB"/>
<path d="m231.35 332.37-0.01 1.91-26.48-15.3v-1.92l26.49 15.31z" fill="#EFF1FE"/>
<path d="m315.04 366.68-12.1 7.04-69.45-40.11 12.11-7.03 69.44 40.1z" fill="#EFF1FE"/>
<path d="m315.04 366.68v1.91l-12.11 7.04 0.01-1.91 12.1-7.04z" fill="#E4E7FB"/>
<path d="m302.94 373.72-0.01 1.91-69.44-40.12v-1.9l69.45 40.11z" fill="#EFF1FE"/>
<path d="m329.36 374.96-12.11 7.04-12.16-7.03 12.1-7.04 12.17 7.03z" fill="#EFF1FE"/>
<path d="m329.36 374.96-0.01 1.9-12.1 7.04v-1.9l12.11-7.04z" fill="#E4E7FB"/>
<path d="m317.25 382v1.9l-12.17-7.04 0.01-1.89 12.16 7.03z" fill="#EFF1FE"/>
<path d="m423.83 351.61-6.05 3.51-12.17-7.03 6.06-3.52 12.16 7.04z" fill="#EFF1FE"/>
<path d="m423.83 351.61-0.01 1.91-6.04 3.51v-1.91l6.05-3.51z" fill="#E4E7FB"/>
<path d="m417.78 355.12v1.91l-12.17-7.03v-1.91l12.17 7.03z" fill="#EFF1FE"/>
<path d="m413.51 357.6-12.1 7.04-12.16-7.03 12.09-7.04 12.17 7.03z" fill="#EFF1FE"/>
<path d="m413.51 357.6-0.01 1.92-12.09 7.02v-1.9l12.1-7.04z" fill="#E4E7FB"/>
<path d="m401.41 364.64v1.9l-12.17-7.03 0.01-1.9 12.16 7.03z" fill="#EFF1FE"/>
<path d="m438.15 359.88-6.05 3.51-12.17-7.03 6.05-3.5 12.17 7.02z" fill="#EFF1FE"/>
<path d="m438.15 359.88-0.01 1.9-6.05 3.52 0.01-1.91 6.05-3.51z" fill="#E4E7FB"/>
<path d="m432.1 363.39-0.01 1.91-12.17-7.04 0.01-1.9 12.17 7.03z" fill="#EFF1FE"/>
<path d="m427.83 365.88-12.1 7.03-12.17-7.05 12.1-7.01 12.17 7.03z" fill="#EFF1FE"/>
<path d="m427.83 365.88v1.9l-12.11 7.03 0.01-1.9 12.1-7.03z" fill="#E4E7FB"/>
<path d="m415.73 372.91-0.01 1.9-12.16-7.03v-1.92l12.17 7.05z" fill="#EFF1FE"/>
<path d="m399.27 365.88-12.09 7.03-12.18-7.04 12.11-7.03 12.16 7.04z" fill="#EFF1FE"/>
<path d="m399.27 365.88v1.9l-12.1 7.03 0.01-1.9 12.09-7.03z" fill="#E4E7FB"/>
<path d="m387.18 372.91-0.01 1.9-12.17-7.03v-1.91l12.18 7.04z" fill="#EFF1FE"/>
<path d="m413.6 374.14-12.1 7.03-12.18-7.03 12.1-7.03 12.18 7.03z" fill="#EFF1FE"/>
<path d="m413.6 374.14-0.01 1.91-12.1 7.03 0.01-1.91 12.1-7.03z" fill="#E4E7FB"/>
<path d="m401.5 381.17-0.01 1.91-12.17-7.03v-1.91l12.18 7.03z" fill="#EFF1FE"/>
<path d="m461.77 373.53-6.05 3.51-12.17-7.04 6.05-3.5 12.17 7.03z" fill="#EFF1FE"/>
<path d="m461.77 373.53v1.91l-6.05 3.49v-1.89l6.05-3.51z" fill="#E4E7FB"/>
<path d="m455.72 377.04v1.89l-12.17-7.02v-1.91l12.17 7.04z" fill="#EFF1FE"/>
<path d="m451.45 379.52-12.1 7.03-12.16-7.04 12.1-7.02 12.16 7.03z" fill="#EFF1FE"/>
<path d="m451.45 379.52v1.91l-12.1 7.01v-1.89l12.1-7.03z" fill="#E4E7FB"/>
<path d="m439.35 386.55v1.89l-12.17-7.01 0.01-1.92 12.16 7.04z" fill="#EFF1FE"/>
<path d="m476.1 381.79-6.06 3.51-12.16-7.02 6.04-3.51 12.18 7.02z" fill="#EFF1FE"/>
<path d="m476.1 381.79-0.01 1.91-6.05 3.52v-1.92l6.06-3.51z" fill="#E4E7FB"/>
<path d="m470.04 385.3v1.92l-12.17-7.04 0.01-1.9 12.16 7.02z" fill="#EFF1FE"/>
<path d="m465.78 387.78-12.11 7.03-12.16-7.02 12.1-7.03 12.17 7.02z" fill="#EFF1FE"/>
<path d="m465.78 387.78-0.01 1.92-12.11 7.03 0.01-1.92 12.11-7.03z" fill="#E4E7FB"/>
<path d="m453.67 394.81-0.01 1.92-12.16-7.02 0.01-1.92 12.16 7.02z" fill="#EFF1FE"/>
<path d="m490.41 390.07-6.04 3.51-12.18-7.03 6.05-3.51 12.17 7.03z" fill="#EFF1FE"/>
<path d="m490.41 390.07-0.01 1.9-6.04 3.51 0.01-1.9 6.04-3.51z" fill="#E4E7FB"/>
<path d="m484.37 393.58-0.01 1.9-12.17-7.02v-1.91l12.18 7.03z" fill="#EFF1FE"/>
<path d="m480.09 396.05-12.1 7.04-12.17-7.04 12.1-7.02 12.17 7.02z" fill="#EFF1FE"/>
<path d="m480.09 396.05v1.92l-12.11 7.03 0.01-1.91 12.1-7.04z" fill="#E4E7FB"/>
<path d="m467.99 403.09-0.01 1.91-12.16-7.03v-1.92l12.17 7.04z" fill="#EFF1FE"/>
<path d="m437.22 387.78-12.1 7.03-12.17-7.03 12.11-7.03 12.16 7.03z" fill="#EFF1FE"/>
<path d="m437.22 387.78-0.01 1.92-12.1 7.03 0.01-1.92 12.1-7.03z" fill="#E4E7FB"/>
<path d="m425.12 394.81-0.01 1.92-12.16-7.02v-1.93l12.17 7.03z" fill="#EFF1FE"/>
<path d="m451.53 396.06-12.09 7.03-12.17-7.04 12.1-7.02 12.16 7.03z" fill="#EFF1FE"/>
<path d="m451.53 396.06v1.91l-12.09 7.02v-1.9l12.09-7.03z" fill="#E4E7FB"/>
<path d="m439.44 403.09v1.9l-12.18-7.03 0.01-1.91 12.17 7.04z" fill="#EFF1FE"/>
<path d="m465.86 404.33-12.11 7.03-12.17-7.04 12.11-7.02 12.17 7.03z" fill="#EFF1FE"/>
<path d="m465.86 404.33-0.01 1.91-12.1 7.02v-1.9l12.11-7.03z" fill="#E4E7FB"/>
<path d="m453.75 411.36v1.9l-12.17-7.03v-1.91l12.17 7.04z" fill="#EFF1FE"/>
<path d="m422.98 396.05-12.1 7.03-12.17-7.02 12.1-7.03 12.17 7.02z" fill="#EFF1FE"/>
<path d="m422.98 396.05-0.01 1.91-12.09 7.03v-1.91l12.1-7.03z" fill="#E4E7FB"/>
<path d="m410.88 403.08v1.91l-12.18-7.02 0.01-1.91 12.17 7.02z" fill="#EFF1FE"/>
<path d="m437.3 404.32-12.1 7.03-12.18-7.03 12.11-7.03 12.17 7.03z" fill="#EFF1FE"/>
<path d="m437.3 404.32-0.01 1.91-12.1 7.03 0.01-1.91 12.1-7.03z" fill="#E4E7FB"/>
<path d="m425.2 411.35-0.01 1.91-12.17-7.03v-1.91l12.18 7.03z" fill="#EFF1FE"/>
<path d="m451.62 412.6-12.11 7.03-12.16-7.04 12.1-7.03 12.17 7.04z" fill="#EFF1FE"/>
<path d="m451.62 412.6-0.01 1.91-12.1 7.03v-1.91l12.11-7.03z" fill="#E4E7FB"/>
<path d="m439.51 419.63v1.91l-12.18-7.03 0.02-1.92 12.16 7.04z" fill="#EFF1FE"/>
<path d="m408.74 404.31-12.1 7.04-12.17-7.03 12.11-7.02 12.16 7.01z" fill="#EFF1FE"/>
<path d="m408.74 404.31v1.92l-12.1 7.03v-1.91l12.1-7.04z" fill="#E4E7FB"/>
<path d="m396.64 411.35v1.91l-12.18-7.03 0.01-1.91 12.17 7.03z" fill="#EFF1FE"/>
<path d="m423.06 412.59-12.1 7.04-12.17-7.04 12.1-7.02 12.17 7.02z" fill="#EFF1FE"/>
<path d="m423.06 412.59-0.01 1.92-12.1 7.02 0.01-1.9 12.1-7.04z" fill="#E4E7FB"/>
<path d="m410.96 419.63-0.01 1.9-12.16-7.03v-1.91l12.17 7.04z" fill="#EFF1FE"/>
<path d="m408.9 420.9-12.11 7.04-26.55-15.35 12.1-7.03 26.56 15.34z" fill="#EFF1FE"/>
<path d="m408.9 420.9-0.01 1.91-12.1 7.04v-1.91l12.11-7.04z" fill="#E4E7FB"/>
<path d="m396.79 427.94v1.91l-26.55-15.34v-1.92l26.55 15.35z" fill="#EFF1FE"/>
<path d="m437.21 420.97-26.17 15.2-12.17-7.04 26.17-15.18 12.17 7.02z" fill="#EFF1FE"/>
<path d="m437.21 420.97-0.01 1.9-26.16 15.21v-1.91l26.17-15.2z" fill="#E4E7FB"/>
<path d="m411.04 436.17v1.91l-12.18-7.04 0.01-1.91 12.17 7.04z" fill="#EFF1FE"/>
<path d="m335.8 405.47-35.15 20.41-76.44-44.15 35.15-20.41 76.44 44.15z" fill="#EFF1FE"/>
<path d="m335.8 405.47v0.36l-35.15 20.4v-0.35l35.15-20.41z" fill="#E4E7FB"/>
<path d="m300.65 425.88v0.35l-76.44-44.16v-0.34l76.44 44.15z" fill="#EFF1FE"/>
<path d="m300.14 74.91-0.26-0.14-0.33-0.17-0.22-0.1h-0.05c-0.023-0.0076-0.047-0.0076-0.07 0l-0.32-0.16c-0.115-0.0339-0.229-0.074-0.34-0.12-9e-3 0.0045-0.02 0.0068-0.03 0.0068s-0.021-0.0023-0.03-0.0068c-0.083-0.0175-0.163-0.0443-0.24-0.08l-0.33-0.09h-0.34c-0.121-0.0338-0.245-0.0573-0.37-0.07h-1.22c-0.17 0-0.34 0-0.49 0.06-0.045 0.0242-0.092 0.0443-0.14 0.06l-0.42 0.1c-0.218 0.0665-0.426 0.1606-0.62 0.28l-8.32 4.68c0.198-0.1241 0.409-0.2248 0.63-0.3 0.16-0.0591 0.324-0.1092 0.49-0.15 0.04-0.0043 0.08-0.0043 0.12 0 0.205-0.0343 0.412-0.0544 0.62-0.06 0.046-0.0139 0.094-0.0139 0.14 0 0.21-0.0147 0.42-0.0147 0.63 0h0.05c0.24 0 0.48 0.06 0.71 0.1h0.07l0.74 0.21c0.273 0.0911 0.54 0.1979 0.8 0.32 0.288 0.1239 0.568 0.2641 0.84 0.42l219.9 127 8.26-4.81-219.86-126.98z" fill="#EFF1FE"/>
<path d="m511.76 213.15c0.798 0.534 1.462 1.245 1.941 2.078 0.478 0.832 0.759 1.764 0.819 2.722l-0.52 160.89c0 1.71-1.28 2.45-2.78 1.58l-219.9-127c-0.8-0.53-1.465-1.238-1.944-2.07-0.479-0.831-0.759-1.762-0.816-2.72l0.57-160.89c0-1.72 1.28-2.44 2.78-1.58l219.85 126.99z" fill="url(#f)"/>
<path d="m528.32 216v-0.4-0.19-0.08-0.13-0.4l-0.06-0.42c0-0.13 0-0.25-0.07-0.39l-0.09-0.43c6e-3 -0.057 6e-3 -0.113 0-0.17-5e-3 -0.03-5e-3 -0.06 0-0.09-0.02-0.056-0.037-0.112-0.05-0.17 0-0.14-0.07-0.3-0.12-0.43l-0.09-0.36v-0.06c0-0.14-0.1-0.29-0.14-0.45s-0.09-0.28-0.15-0.41c4e-3 -0.033 4e-3 -0.067 0-0.1 0-0.1-0.07-0.19-0.09-0.28l-0.18-0.4c0-0.11-0.08-0.21-0.12-0.32v-0.05l-0.18-0.4c-0.08-0.15-0.15-0.3-0.22-0.45-2e-3 -0.027-2e-3 -0.053 0-0.08-5e-3 -0.023-5e-3 -0.047 0-0.07 0-0.11-0.11-0.23-0.17-0.34s-0.18-0.3-0.25-0.45c-0.048-0.065-0.088-0.136-0.12-0.21-4e-3 -0.027-4e-3 -0.053 0-0.08-0.08-0.13-0.17-0.26-0.24-0.39l-0.33-0.52s0-0.05-0.06-0.08c-0.15-0.24-0.31-0.46-0.47-0.69v-0.05c-0.13-0.15-0.25-0.32-0.37-0.47s-0.2-0.25-0.3-0.36c-0.1-0.12-0.2-0.24-0.32-0.36-0.099-0.127-0.206-0.247-0.32-0.36l-0.05-0.06c-0.09-0.1-0.19-0.18-0.27-0.28s-0.23-0.24-0.35-0.34-0.06-0.07-0.09-0.08c-0.028-0.035-0.062-0.066-0.1-0.09-0.06-0.05-0.12-0.12-0.18-0.16-0.116-0.118-0.24-0.228-0.37-0.33-0.049-0.041-0.096-0.084-0.14-0.13 0 0-0.06-0.05-0.09-0.06l-0.13-0.11c-0.12-0.09-0.24-0.2-0.36-0.28s-0.17-0.11-0.25-0.18c-0.024-0.011-0.045-0.028-0.06-0.05l-0.36-0.23c-0.109-0.08-0.222-0.154-0.34-0.22h-0.09l-8.26 4.79c0.28 0.18 0.56 0.33 0.84 0.54 0.261 0.175 0.512 0.365 0.75 0.57l0.1 0.08c0.24 0.19 0.47 0.4 0.71 0.62l0.07 0.06c0.24 0.22 0.47 0.45 0.7 0.69-3e-3 0.017-3e-3 0.034 0 0.05 0.27 0.27 0.49 0.54 0.73 0.81 0.234 0.266 0.451 0.547 0.65 0.84 0.013 0.026 0.03 0.049 0.05 0.07 0.19 0.27 0.37 0.53 0.53 0.78s0.25 0.37 0.37 0.57l0.25 0.42 0.13 0.22c0.14 0.26 0.29 0.51 0.42 0.78v0.09l0.45 1v0.07c0.13 0.31 0.26 0.61 0.38 0.94-3e-3 0.027-3e-3 0.053 0 0.08 0.12 0.34 0.23 0.66 0.33 1 0.1 0.33 0.19 0.66 0.27 1-3e-3 0.033-3e-3 0.067 0 0.1 0.084 0.329 0.147 0.663 0.19 1 0.05 0.32 0.09 0.65 0.11 1 3e-3 0.017 3e-3 0.034 0 0.05v1l-0.6 170.44 8.26-4.8 0.6-170.45-0.29-0.72z" fill="#E4E7FB"/>
<path d="m511.78 206.79c4.57 2.66 8.3 9.11 8.28 14.36l-0.6 170.44-236.52-136.59 0.6-170.45c0-5.26 3.77-7.4 8.34-4.76l219.9 127zm2.22 172.05 0.52-160.84c-0.06-0.958-0.341-1.89-0.819-2.722-0.479-0.833-1.143-1.544-1.941-2.078l-219.9-127c-1.5-0.86-2.77-0.14-2.78 1.58l-0.57 160.89c0.057 0.958 0.337 1.889 0.816 2.72 0.479 0.832 1.144 1.54 1.944 2.07l219.9 127c1.5 0.87 2.77 0.13 2.78-1.58l0.05-0.04z" fill="#EFF1FE"/>
<path d="m307.57 240.64-0.05 0.07h0.05v-0.1 0.03zm0-2.94-3.84-2.21v3l2.31 1.34 1.54-2.13h-0.01zm3.73 0.34h-1.84l-1.18 1.63h0.85l2.17-1.6v-0.03zm84.44 20-22.08-12.75-1 0.9 24.41 14.09-1.34-2.24h0.01zm-31.74-19.74-3.81-2.2v2.45l-46-0.48-2.17 1.61 48.12 0.53v0.3l3.86 2.19v-1.48l7 4.06 1-0.89-8-4.63v-1.46zm76.89 42.83-20.52-9.08v-1.2l-3.81-2.2v1.46l-19-11 1.35 2.24 17.65 10.2v1.49l3.81 2.19v-1.72l22.09 9.77-1.56-2.17-0.01 0.02zm32.11 12.45v1.75l-30.17-13.33 1.57 2.17 26.71 11.83h1.89v-2.46 0.04z" fill="#6AE1C1"/>
<path d="m382.07 235.34-10 9.05-1 0.89-8.32 7.5-2.56-1.48v2.1l-51-11.54-1.6 1.18 52.59 11.96v0.76l3.8 2.19v-3.85l8.68-7.83 1-0.9 9.34-8.43-0.94-1.55 0.01-0.05zm16.87-15.2-16.09 14.51 0.93 1.54 16.14-14.56-1-1.49h0.02zm21.66-17.71-3.81-2.21v3.83l-17.06 15.39 1 1.49 17.27-15.63 2.59 1.49v-0.93l52.53 44.54v2l3.81 2.2v-4.41l-3.82-2.2v0.94l-52.51-44.55v-1.95z" fill="url(#e)"/>
<path d="m453.58 296.91-1.34-0.05 20.66 28.7v2.86l3.81 2.2v-4.41l-3.51-2-19.63-27.28 0.01-0.02zm-89.32-134.65-3.81-2.2v4.4h0.05l-52.9 73.24-1.6 2.16-2.31-1.34v1.48l2.74 1.59 1.1-0.81v-0.08h-0.05l0.05-0.07 0.72-1 1.18-1.63 52.57-72.66 1.7 1 35.28 53.81 1 1.49 16.74 25.54v3.06l3.5 2 20.77 28.88 1.56 2.17 8.56 11.89 1.33 0.05-8-11.09-1.61-2.14-22.36-31.09v-2.84l-3.22-1.86-16.56-25.26-1-1.49-35.47-54.12v-3.06l0.04-0.02z" fill="#EFF1FE"/>
<path d="m364.15 200.28-3.82-2.2v3.62l-49.02 36.34-2.17 1.6-1.57 1.18-1.1 0.81-2.74-1.59-0.01 2.89v1.52l3.83 2.21 0.01-3.62 1.6-1.18 2.94-2.18 2.17-1.61 47.15-34.96 1.93 1.12 18.73 31.11 0.93 1.55 12.74 21.18 1.35 2.24 19.43 32.29-0.01 3.27 3.81 2.2 0.01-2.42 31.9 1.21 1.34 0.05 19.4 0.73v0.35l3.81 2.2 0.01-4.41-3.81-2.2v2.46l-1.88-0.08-18.73-0.72-1.33-0.05-30.71-1.17 0.01-0.35-3.03-1.75-18.38-30.55-1.35-2.24-13.81-22.94-0.93-1.54-18.71-31.1 0.01-3.27z" fill="url(#d)"/>
<path d="m285.59 40.83-16.16-9.39c0.127-0.0785 0.261-0.1454 0.4-0.2l16.17 9.39c-0.137 0.0586-0.271 0.1254-0.4 0.2h-0.01z" fill="#ccc"/>
<path d="m286 40.63-16.16-9.39c0.11-0.05 0.22-0.08 0.33-0.12l16.16 9.4c-0.113 0.0276-0.223 0.0644-0.33 0.11z" fill="#C7C7C7"/>
<path d="m286.32 40.52-16.16-9.4 0.25-0.05 16.16 9.39-0.25 0.06z" fill="#C2C2C2"/>
<path d="m286.57 40.46-16.16-9.39h0.21l16.16 9.39h-0.21z" fill="#BDBDBD"/>
<path d="m286.78 40.44-16.16-9.39h0.19l16.19 9.39h-0.22z" fill="#B8B8B8"/>
<path d="m287 40.44-16.16-9.39h0.17l16.16 9.39h-0.17z" fill="#B3B3B3"/>
<path d="m287.14 40.46-16.14-9.39h0.16l16.16 9.39h-0.18z" fill="#ADADAD"/>
<path d="m287.3 40.5-16.16-9.39h0.15l16.16 9.39-0.15-0.05v0.05z" fill="#A8A8A8"/>
<path d="m287.45 40.55-16.16-9.39 0.15 0.08 16.16 9.39-0.15-0.08z" fill="#A3A3A3"/>
<path d="m283.58 43-16.16-9.4 16.16 9.4z" fill="#ADADAD"/>
<path d="m283.6 42.92-16.16-9.4 0.15-0.24 16.16 9.39-0.15 0.25z" fill="#B3B3B3"/>
<path d="m283.75 42.67-16.16-9.39 0.16-0.24 16.16 9.39-0.16 0.24z" fill="#B8B8B8"/>
<path d="m283.91 42.43-16.16-9.43 0.19-0.26 16.16 9.39-0.19 0.26v0.04z" fill="#BDBDBD"/>
<path d="m284.1 42.17-16.16-9.39c0.08-0.09 0.15-0.19 0.23-0.27l16.16 9.39-0.23 0.27z" fill="#C2C2C2"/>
<path d="m284.33 41.9-16.16-9.39c0.096-0.1171 0.199-0.2273 0.31-0.33l16.16 9.39c-0.111 0.1027-0.214 0.2129-0.31 0.33z" fill="#C7C7C7"/>
<path d="m284.64 41.57-16.16-9.39c0.282-0.2879 0.602-0.5367 0.95-0.74l16.16 9.39c-0.346 0.2066-0.665 0.4551-0.95 0.74z" fill="#ccc"/>
<path d="m98.63 243.67-16.16-9.39 103.9-59.99 16.16 9.39-103.9 59.99z" fill="url(#c)"/>
<path d="m285.59 40.83c0.286-0.2069 0.622-0.3344 0.973-0.3695s0.706 0.0234 1.027 0.1695c1.12 0.63 1.13 2.7 0 4.62l-81.84 142.16c-0.475 0.865-1.164 1.595-2 2.12l-103.93 60-78.3 134.94c-0.4752 0.86-1.164 1.583-2 2.1-0.2851 0.209-0.6204 0.338-0.9717 0.375s-0.706-0.02-1.0283-0.165c-1.11-0.65-1.11-2.72 0-4.64l79.14-136.37c0.4809-0.856 1.1685-1.578 2-2.1l103.91-60 81.01-140.67c0.467-0.8879 1.16-1.6365 2.01-2.17z" fill="#E4E7FB"/>
<path d="m291.65 49.05 1.57 0.91-28.91-16.7-1.57-0.9 28.91 16.69z" fill="#808080"/>
<path d="m300 1.14c-1-0.58-2.47-0.34-4.18 0.86l-32.51 22.79c-3.41 2.39-3.68 5.79-0.6 7.57l4 2.33-80.4 139.6 16.16 9.39 80.53-139.68 8.69 5c3.08 1.78 5.9-0.15 6.26-4.31l3.48-39.55c0.14-2.02-0.43-3.42-1.43-4z" fill="url(#b)"/>
<path d="M0 376.42L82.3208 234L99 243.498L16.5461 386L0 376.42Z" fill="url(#a)"/>
<path d="m303 6.1-1.56-0.91001-3.48 39.55c0 0.28-0.06 0.55-0.1 0.8 0 0.1-0.05 0.2-0.07 0.29s-0.06 0.29-0.09 0.42-0.12 0.4-0.19 0.58c-0.061 0.1815-0.135 0.3586-0.22 0.53v0.06c-0.082 0.1644-0.172 0.3246-0.27 0.48-0.099 0.1524-0.205 0.2992-0.32 0.44-0.11 0.12-0.22 0.24-0.34 0.35h-0.05c-0.11 0.1049-0.227 0.2018-0.35 0.29h-0.06c-0.123 0.085-0.254 0.1587-0.39 0.22-0.044 0.026-0.091 0.0461-0.14 0.06l-0.3 0.13h-0.17l-0.3 0.07h-1.21l-0.33-0.07-0.2-0.05-0.36-0.14-0.18-0.06c-0.185-0.0835-0.365-0.177-0.54-0.28l1.57 0.91c0.18 0.1 0.36 0.19 0.54 0.27l0.17 0.07c0.121 0.0506 0.244 0.094 0.37 0.13l0.2 0.06 0.33 0.07h1.21c0.095-0.0142 0.188-0.0342 0.28-0.06l0.19-0.05c0.101-0.0296 0.198-0.0698 0.29-0.12l0.15-0.06c0.101-0.0492 0.198-0.106 0.29-0.17h0.12l0.11-0.07c0.068-0.0513 0.132-0.1082 0.19-0.17h0.06l0.08-0.07 0.16-0.17 0.1-0.12 0.15-0.19c0.043-0.069 0.09-0.1357 0.14-0.2l0.12-0.18 0.14-0.26v-0.06l0.09-0.21c0.049-0.1041 0.093-0.211 0.13-0.32 0 0 0.11-0.32 0.16-0.48s0 0 0-0.07 0.07-0.28 0.1-0.43l0.06-0.24c0.05-0.26 0.08-0.52 0.11-0.8l3.61-39.77z" fill="#E4E7FB"/>
<path d="M125.11 345.1L47 390.18L14.9 371.52L93 326.44L125.11 345.1Z" fill="#EFF1FE"/>
<path d="m119.75 345.1-72.69 42-26.76-15.58 72.69-42 26.76 15.58z" fill="#FDFCFF"/>
<path d="m47.03 390.18 0.03 8.5 78.07-45.07-0.02-8.51-78.08 45.08z" fill="#E4E7F2"/>
<path d="m14.93 371.52 0.02 8.51 32.11 18.65-0.03-8.5-32.1-18.66z" fill="#DDE0E8"/>
<path d="m95.58 362.21-19 10.85-32.13-18.66 19-10.85 32.13 18.66z" fill="#F9FAFF"/>
<path d="m95.58 362.21-19 10.85v8.59l19-10.85v-8.59z" fill="#E6EAFE"/>
<path d="m56.28 375.41 2.15 1.24-2.23 1.35-2.14-1.23c-2.4909 1.212-5.2298 1.829-8 1.8l-0.76-2.57c1.9737 0.05 3.938-0.29 5.78-1l-3.75-2.16c-3 1.06-6.58 2.07-9.79 0.21-2.39-1.38-2.55-3.65 0.3-5.69l-2.21-1.27 2.24-1.3 2.25 1.3c2.1665-0.985 4.5107-1.519 6.89-1.57l0.6 2.51c-1.5201 0.033-3.0255 0.306-4.46 0.81l3.34 1.93c3-1 6.7-2.08 9.92-0.23 2.59 1.51 2.94 3.66-0.13 5.87zm-6.14-3.54 3.17 1.82c0.92-0.8 0.82-1.54 0.09-2s-1.92-0.27-3.26 0.14v0.04zm-9.48-1c0.69 0.4 1.73 0.23 3-0.18l-2.88-1.69c-0.92 0.71-0.92 1.38-0.12 1.85v0.02z" fill="#EFF1FE"/>
<path d="m103.52 343 1 0.59-1.06 0.63-1-0.6c-1.197 0.589-2.516 0.887-3.8499 0.87l-0.35-1.21c0.9425 0.023 1.8809-0.14 2.7599-0.48l-1.7899-1c-1.45 0.5-3.15 1-4.69 0.1-1.15-0.67-1.22-1.75 0.14-2.73l-1.05-0.61 1.07-0.62 1.08 0.62c1.0384-0.469 2.1607-0.724 3.3-0.75l0.28 1.2c-0.7264 0.014-1.4457 0.146-2.13 0.39l1.6 0.92c1.4499-0.5 3.1999-1 4.7499-0.1 1.26 0.78 1.42 1.78-0.06 2.78zm-2.94-1.7 1.52 0.88c0.44-0.39 0.39-0.74 0.05-0.94-0.511-0.184-1.074-0.162-1.57 0.06zm-4.5299-0.46c0.4704 0.156 0.9828 0.123 1.43-0.09l-1.38-0.8c-0.44 0.34-0.44 0.67 0 0.89h-0.05z" fill="#EFF1FE"/>
<path d="m123.33 332.21-78.08 45.08-32.11-18.65 78.08-45.09 32.11 18.66z" fill="#EFF1FE"/>
<path d="m118 332.21-72.69 42-26.76-15.54 72.7-42 26.75 15.54z" fill="#FDFCFF"/>
<path d="m45.25 377.29 0.02 8.5 78.08-45.07-0.03-8.51-78.07 45.08z" fill="#E4E7F2"/>
<path d="m13.14 358.64 0.02 8.5 32.11 18.65-0.02-8.5-32.11-18.65z" fill="#DDE0E8"/>
<path d="m93.8 349.32-19 10.85-32.1-18.65 19-10.86 32.1 18.66z" fill="#F9FAFF"/>
<path d="m93.8 349.32-19 10.85v8.59l19-10.84v-8.6z" fill="#E6EAFE"/>
<path d="m54.49 362.52 2.1599 1.24-2.2399 1.3-2.13-1.23c-2.4915 1.211-5.23 1.827-8 1.8l-0.7401-2.52c1.9698 0.041 3.929-0.299 5.7701-1l-3.74-2.17c-3 1.06-6.58 2.07-9.8 0.21-2.39-1.37-2.55-3.65 0.3-5.68l-2.21-1.28 2.24-1.3 2.25 1.3c2.1662-0.985 4.5109-1.515 6.89-1.56l0.61 2.5c-1.5197 0.037-3.0243 0.311-4.46 0.81l3.33 1.93c3.05-1 6.7-2.08 9.92-0.22 2.61 1.52 2.93 3.67-0.15 5.87zm-6.13-3.52 3.17 1.83c0.92-0.81 0.82-1.55 0.08-2s-1.91-0.26-3.25 0.14v0.03zm-9.48-1c0.68 0.39 1.73 0.23 3-0.18l-2.88-1.66c-0.92 0.7-0.91 1.38-0.11 1.85l-0.01-0.01z" fill="#EFF1FE"/>
<path d="m101.74 330.14 1 0.6-1.07 0.62-1-0.59c-1.1967 0.58-2.5103 0.877-3.84 0.87l-0.36-1.22c0.9463 0.029 1.8887-0.134 2.77-0.48l-1.79-1c-1.46 0.5-3.16 1-4.7 0.1-1.14-0.66-1.22-1.75 0.15-2.73l-1.06-0.6 1.07-0.63 1.08 0.63c1.0366-0.476 2.1597-0.735 3.3-0.76l0.29 1.2c-0.7286 0.024-1.4497 0.155-2.14 0.39l1.6 0.93c1.46-0.51 3.21-1 4.75-0.11 1.27 0.7 1.42 1.73-0.05 2.78zm-2.94-1.69 1.52 0.87c0.44-0.39 0.39-0.74 0-0.94-0.251-0.094-0.5191-0.136-0.7871-0.124s-0.5308 0.078-0.7729 0.194h0.04zm-4.54-0.47c0.473 0.162 0.9908 0.129 1.44-0.09l-1.38-0.79c-0.45 0.33-0.44 0.66-0.06 0.88z" fill="#EFF1FE"/>
<path d="m122.78 320-78.08 45.05-32.11-18.67 78.08-45.08 32.11 18.7z" fill="#EFF1FE"/>
<path d="m117.42 320-72.69 42-26.73-15.62 72.69-42 26.73 15.62z" fill="#FDFCFF"/>
<path d="m44.7 365.04 0.02 8.51 78.08-45.08-0.02-8.51-78.08 45.08z" fill="#E4E7F2"/>
<path d="m12.59 346.38 0.03 8.51 32.1 18.66-0.02-8.51-32.11-18.66z" fill="#DDE0E8"/>
<path d="m93.25 337.07-19 10.86-32.11-18.66 19-10.85 32.11 18.65z" fill="#F9FAFF"/>
<path d="m93.25 337.07-19 10.86v8.59l19-10.85v-8.6z" fill="#E6EAFE"/>
<path d="m53.94 350.27 2.16 1.25-2.2301 1.3-2.14-1.24c-2.4886 1.22-5.2285 1.84-8 1.81l-0.75-2.53c1.9734 0.046 3.9369-0.294 5.78-1l-3.7599-2.16c-3 1.06-6.58 2.06-9.79 0.21-2.39-1.38-2.5501-3.66 0.2999-5.69l-2.2099-1.22 2.23-1.31 2.2599 1.31c2.1649-0.99 4.5101-1.524 6.89-1.57l0.6001 2.51c-1.5207 0.028-3.0268 0.301-4.46 0.81l3.34 1.92c3-1.05 6.7-2.08 9.92-0.22 2.63 1.47 2.92 3.62-0.14 5.82zm-6.13-3.54 3.1699 1.83c0.92-0.81 0.8201-1.54 0.0901-2s-1.92-0.26-3.26 0.14v0.03zm-9.48-1c0.69 0.39 1.73 0.23 3-0.18l-2.89-1.67c-0.91 0.7-0.91 1.38-0.11 1.85z" fill="#EFF1FE"/>
<path d="m101.19 317.89 1 0.6-1.07 0.62-1-0.59c-1.1967 0.58-2.5103 0.877-3.84 0.87l-0.35-1.22c0.9419 0.025 1.8797-0.134 2.76-0.47l-1.79-1c-1.45 0.5-3.1499 1-4.6899 0.1-1.15-0.66-1.22-1.75 0.14-2.72l-1.0501-0.61 1.07-0.63 1.07 0.63c1.0372-0.473 2.1604-0.728 3.3001-0.75l0.2899 1.2c-0.7264 0.014-1.4457 0.146-2.13 0.39l1.5901 0.92c1.46-0.5 3.21-1 4.7499-0.11 1.27 0.69 1.43 1.72-0.05 2.77zm-2.94-1.69 1.5201 0.88c0.4399-0.39 0.3899-0.74 0-0.95-0.5094-0.18-1.0689-0.155-1.56 0.07h0.0399zm-4.53-0.47c0.2319 0.082 0.4776 0.117 0.7231 0.103 0.2454-0.014 0.4857-0.076 0.7069-0.183l-1.3799-0.8c-0.44 0.33-0.4401 0.67-0.0501 0.88z" fill="#EFF1FE"/>
<path d="m139 392.65-78.08 45.08-32.11-18.65 78.05-45.08 32.14 18.65z" fill="#EFF1FE"/>
<path d="m133.6 392.65-72.69 42-26.75-15.54 72.69-42 26.75 15.54z" fill="#FDFCFF"/>
<path d="m60.89 437.73 0.02 8.51 78.08-45.08-0.02-8.51-78.08 45.08z" fill="#E4E7F2"/>
<path d="m28.78 419.08 0.03 8.5 32.1 18.66-0.02-8.51-32.11-18.65z" fill="#DDE0E8"/>
<path d="m109.44 409.77-19 10.85-32.13-18.62 19-10.85 32.13 18.62z" fill="#F9FAFF"/>
<path d="m109.44 409.77-19 10.85v8.59l19-10.85v-8.59z" fill="#E6EAFE"/>
<path d="m70.13 423 2.16 1.25-2.23 1.3-2.14-1.23c-2.4911 1.212-5.2298 1.828-8 1.8l-0.74-2.53c1.9737 0.05 3.9379-0.289 5.78-1l-3.75-2.15c-3 1.05-6.58 2.07-9.79 0.21-2.4-1.38-2.55-3.66 0.3-5.69l-2.21-1.28 2.23-1.3 2.26 1.3c2.1671-0.982 4.5113-1.513 6.89-1.56l0.6 2.51c-1.5206 0.028-3.0267 0.301-4.46 0.81l3.34 1.93c3-1.06 6.7-2.09 9.92-0.23 2.61 1.47 2.92 3.62-0.16 5.86zm-6.13-3.58 3.17 1.83c0.92-0.81 0.82-1.54 0.09-2s-1.92-0.26-3.26 0.14v0.03zm-9.48-1c0.69 0.39 1.73 0.23 3-0.18l-2.89-1.67c-0.91 0.7-0.91 1.38-0.11 1.85z" fill="#EFF1FE"/>
<path d="m117.38 390.58 1 0.6-1.07 0.62-1-0.59c-1.195 0.584-2.51 0.882-3.84 0.87l-0.36-1.22c0.945 0.026 1.886-0.133 2.77-0.47l-1.79-1c-1.45 0.5-3.15 1-4.69 0.11-1.15-0.67-1.23-1.76 0.14-2.73l-1.06-0.61 1.07-0.62 1.08 0.62c1.036-0.478 2.16-0.733 3.3-0.75l0.29 1.2c-0.73 0.015-1.452 0.147-2.14 0.39l1.6 0.92c1.46-0.5 3.21-1 4.75-0.11 1.27 0.69 1.42 1.72-0.05 2.77zm-2.94-1.69 1.52 0.88c0.44-0.39 0.39-0.74 0-0.95-0.51-0.175-1.068-0.15-1.56 0.07h0.04zm-4.54-0.47c0.472 0.16 0.988 0.132 1.44-0.08l-1.38-0.8c-0.44 0.33-0.44 0.66-0.06 0.88z" fill="#EFF1FE"/>
<path d="m136.86 381.59-78.08 45.08-32.11-18.67 78.09-45.08 32.1 18.67z" fill="#EFF1FE"/>
<path d="m131.5 381.59-72.69 42-26.76-15.59 72.69-42 26.76 15.59z" fill="#FDFCFF"/>
<path d="m58.78 426.67 0.03 8.5 78.07-45.07-0.02-8.51-78.08 45.08z" fill="#E4E7F2"/>
<path d="m26.68 408.01 0.02 8.51 32.11 18.65-0.03-8.5-32.1-18.66z" fill="#DDE0E8"/>
<path d="m107.33 398.7-19 10.85-32.13-18.65 19-10.86 32.13 18.66z" fill="#F9FAFF"/>
<path d="m107.33 398.7-19 10.85v8.59l19-10.84v-8.6z" fill="#E6EAFE"/>
<path d="m68 411.9 2.16 1.24-2.23 1.3-2.14-1.23c-2.491 1.212-5.2298 1.829-8 1.8l-0.75-2.52c1.9737 0.05 3.9379-0.29 5.78-1l-3.75-2.15c-3 1-6.58 2.06-9.79 0.21-2.39-1.38-2.55-3.66 0.3-5.7l-2.21-1.27 2.23-1.3 2.26 1.3c2.1665-0.985 4.5106-1.519 6.89-1.57l0.6 2.51c-1.5201 0.033-3.0255 0.306-4.46 0.81l3.34 1.93c3-1 6.7-2.08 9.92-0.22 2.64 1.51 2.95 3.65-0.15 5.86zm-6.13-3.54 3.17 1.83c0.92-0.81 0.82-1.55 0.09-2s-1.91-0.26-3.26 0.14v0.03zm-9.48-1c0.69 0.4 1.73 0.24 3-0.17l-2.88-1.67c-0.92 0.7-0.92 1.38-0.12 1.84z" fill="#EFF1FE"/>
<path d="m115.27 379.52 1 0.6-1.06 0.62-1-0.59c-1.196 0.581-2.51 0.876-3.84 0.86l-0.37-1.21c0.943 0.028 1.882-0.136 2.76-0.48l-1.79-1c-1.45 0.5-3.15 1-4.69 0.1-1.15-0.66-1.22-1.75 0.14-2.73l-1.05-0.61 1.07-0.62 1.07 0.63c1.037-0.475 2.16-0.734 3.3-0.76l0.29 1.2c-0.726 0.019-1.444 0.15-2.13 0.39l1.59 0.93c1.46-0.51 3.21-1 4.76-0.11 1.27 0.7 1.42 1.72-0.05 2.78zm-2.94-1.69 1.52 0.87c0.44-0.39 0.39-0.74 0-0.94-0.251-0.094-0.519-0.136-0.787-0.124-0.268 0.013-0.531 0.078-0.773 0.194h0.04zm-4.53-0.47c0.469 0.161 0.982 0.132 1.43-0.08l-1.38-0.8c-0.44 0.33-0.44 0.66 0 0.88h-0.05z" fill="#EFF1FE"/>
<path d="m135.87 369.6-78.08 45.08-32.1-18.68 78.08-45.09 32.1 18.69z" fill="#EFF1FE"/>
<path d="m130.51 369.6-72.69 42-26.76-15.6 72.69-42 26.76 15.6z" fill="#FDFCFF"/>
<path d="m57.79 414.68 0.03 8.51 78.07-45.08-0.02-8.51-78.08 45.08z" fill="#E4E7F2"/>
<path d="m25.69 396.03 0.02 8.5 32.11 18.66-0.03-8.51-32.1-18.65z" fill="#DDE0E8"/>
<path d="m106.35 386.72-19 10.85-32.11-18.66 19-10.85 32.11 18.66z" fill="#F9FAFF"/>
<path d="m106.35 386.72-19 10.85v8.59l19-10.85v-8.59z" fill="#E6EAFE"/>
<path d="m67 399.91 2.15 1.25-2.23 1.3-2.13-1.24c-2.4896 1.218-5.2289 1.837-8 1.81l-0.75-2.53c1.9738 0.052 3.9383-0.288 5.78-1l-3.74-2.16c-3 1-6.58 2.07-9.8 0.21-2.39-1.38-2.55-3.66 0.3-5.69l-2.21-1.28 2.24-1.3 2.25 1.3c2.1671-0.982 4.5113-1.513 6.89-1.56l0.6 2.51c-1.5202 0.033-3.0255 0.306-4.46 0.81l3.34 1.92c3-1 6.7-2.08 9.92-0.22 2.65 1.52 2.96 3.67-0.15 5.87zm-6.14-3.54 3.17 1.83c0.93-0.81 0.82-1.55 0.09-2s-1.91-0.26-3.26 0.14v0.03zm-9.48-1c0.69 0.39 1.73 0.23 3-0.18l-2.88-1.67c-0.92 0.7-0.92 1.38-0.12 1.85z" fill="#EFF1FE"/>
<path d="m114.28 367.53 1 0.6-1.06 0.62-1-0.59c-1.2 0.581-2.517 0.878-3.85 0.87l-0.35-1.22c0.943 0.028 1.882-0.136 2.76-0.48l-1.79-1c-1.45 0.5-3.15 1-4.69 0.1-1.14-0.66-1.22-1.75 0.14-2.72l-1-0.61 1.07-0.63 1.08 0.63c1.035-0.478 2.16-0.734 3.3-0.75l0.28 1.2c-0.726 0.014-1.446 0.146-2.13 0.39l1.6 0.92c1.45-0.5 3.2-1 4.75-0.11 1.22 0.7 1.37 1.73-0.11 2.78zm-2.93-1.69 1.51 0.87c0.45-0.38 0.4-0.73 0-0.94-0.51-0.175-1.068-0.15-1.56 0.07h0.05zm-4.54-0.47c0.469 0.161 0.982 0.132 1.43-0.08l-1.38-0.8c-0.44 0.33-0.44 0.66-0.05 0.88z" fill="#EFF1FE"/>
<defs>
<linearGradient id="f" x1="288.51" x2="514.52" y1="233.29" y2="233.29" gradientUnits="userSpaceOnUse">
<stop stop-color="#424457" offset="0"/>
<stop stop-color="#385876" offset=".17"/>
<stop stop-color="#2B709A" offset=".41"/>
<stop stop-color="#2281B4" offset=".64"/>
<stop stop-color="#1D8BC4" offset=".84"/>
<stop stop-color="#1B8FCA" offset="1"/>
</linearGradient>
<linearGradient id="e" x1="307.56" x2="476.94" y1="229.06" y2="229.06" gradientUnits="userSpaceOnUse">
<stop stop-color="#5FEFC0" offset="0"/>
<stop stop-color="#5CECC6" offset=".13"/>
<stop stop-color="#4CD9ED" offset="1"/>
</linearGradient>
<linearGradient id="d" x1="303.72" x2="476.8" y1="249.13" y2="249.13" gradientUnits="userSpaceOnUse">
<stop stop-color="#437FEC" offset=".17"/>
<stop stop-color="#336CD5" offset=".47"/>
<stop stop-color="#184EAE" offset="1"/>
</linearGradient>
<linearGradient id="c" x1="82.46" x2="202.53" y1="208.98" y2="208.98" gradientUnits="userSpaceOnUse">
<stop stop-color="#fff" offset="0"/>
<stop stop-color="#D7DEF7" offset="1"/>
</linearGradient>
<linearGradient id="b" x1="283.89" x2="213.81" y1="-4.77" y2="187.79" gradientUnits="userSpaceOnUse">
<stop stop-color="#fff" offset=".34"/>
<stop stop-color="#D7DEF7" offset="1"/>
</linearGradient>
<linearGradient id="a" x1="105.97" x2="-71.16" y1="286.03" y2="290.14" gradientUnits="userSpaceOnUse">
<stop stop-color="#fff" offset="0"/>
<stop stop-color="#D7DEF7" offset="1"/>
</linearGradient>
</defs>
</svg>
