<svg width="490" height="324" viewBox="0 0 490 324" fill="none" xmlns="http://www.w3.org/2000/svg">
<g filter="url(#filter0_d)">
<path d="M11.1002 225.18C6.83016 222.71 4.71015 218.6 4.73015 215.36C4.73015 219.13 4.73016 223.75 4.66016 227.5C4.66016 230.75 6.77016 234 11.0202 236.5L139.46 311.31L139.53 300.03L11.1002 225.18Z" fill="#B7C0EB"/>
<path d="M485.21 113.17C485.21 113.39 485.21 113.6 485.16 113.81C485.11 114.02 485.04 114.21 484.99 114.41C484.948 114.615 484.888 114.816 484.81 115.01C484.75 115.2 484.67 115.39 484.59 115.58C484.51 115.77 484.39 116.02 484.27 116.23C484.15 116.44 484.08 116.54 483.98 116.72C483.88 116.9 483.65 117.21 483.46 117.48C483.335 117.617 483.218 117.76 483.11 117.91C482.84 118.25 482.54 119.23 482.2 119.54L481.82 119.93L481.2 120.43C480.98 120.59 480.79 120.78 480.55 120.94C480.31 121.1 479.23 121.82 478.95 121.94L170.21 300.09C169.246 300.636 168.243 301.11 167.21 301.51L166.36 301.83C165.7 302.07 165 302.26 164.36 302.45C163.72 302.64 162.94 302.82 162.19 302.97C161.44 303.12 160.46 303.3 159.56 303.43L158.9 303.51C157.7 303.64 156.49 303.68 155.28 303.69C155.07 303.69 154.88 303.69 154.67 303.69C153.47 303.69 152.27 303.6 151.08 303.47H150.54C149.367 303.319 148.202 303.108 147.05 302.84C146.846 302.81 146.646 302.763 146.45 302.7C145.434 302.445 144.432 302.135 143.45 301.77C143.265 301.72 143.085 301.657 142.91 301.58C141.774 301.151 140.674 300.632 139.62 300.03L139.55 311.31C140.551 311.887 141.594 312.389 142.67 312.81C142.713 312.844 142.765 312.865 142.82 312.87C143.02 312.95 143.24 313.01 143.43 313.08C144.04 313.3 144.65 313.54 145.29 313.72L146.38 313.99C146.59 313.99 146.79 314.08 147 314.15L147.54 314.27C148.25 314.42 148.97 314.55 149.69 314.65L150.48 314.75C150.67 314.75 150.85 314.75 151.05 314.81L151.8 314.9C152.52 314.9 153.23 315 153.94 315.01C154.18 315.01 154.41 315.01 154.65 315.01H156.17C156.98 315.01 157.78 314.94 158.58 314.86H158.88L159.49 314.77C160.12 314.7 160.75 314.63 161.37 314.52L162.81 314.21L163.17 314.14C163.95 313.95 164.73 313.75 165.47 313.5C165.78 313.41 166.06 313.28 166.36 313.17C166.66 313.06 166.91 312.98 167.2 312.86C168.231 312.455 169.233 311.98 170.2 311.44L478.88 133.27L479.14 133.11C479.32 133 479.47 132.88 479.64 132.78C479.81 132.68 480.23 132.41 480.5 132.22L481.07 131.76C481.307 131.58 481.534 131.386 481.75 131.18C481.801 131.158 481.845 131.123 481.88 131.08C481.98 131 482.03 130.92 482.1 130.86C482.45 130.53 482.75 130.2 483.05 129.86C483.115 129.791 483.175 129.718 483.23 129.64C483.3 129.57 483.33 129.5 483.4 129.43C483.58 129.17 483.75 128.92 483.91 128.65C483.97 128.55 484.06 128.46 484.11 128.36C484.16 128.26 484.11 128.24 484.2 128.2C484.32 127.96 484.43 127.73 484.53 127.49C484.63 127.25 484.65 127.24 484.7 127.12C484.75 127 484.7 127.02 484.7 126.98C484.77 126.76 484.85 126.53 484.9 126.3C484.948 126.166 484.988 126.029 485.02 125.89C485.015 125.854 485.015 125.816 485.02 125.78C485.02 125.54 485.09 125.29 485.11 125.04C485.13 124.79 485.11 124.77 485.11 124.65V124.45C485.11 120.69 485.18 116.26 485.2 112.5C485.219 112.723 485.222 112.947 485.21 113.17V113.17Z" fill="#B7C0EB"/>
<path d="M11.0999 222.53C6.82993 220.06 4.71993 215.95 4.73993 212.71C4.73993 216.47 4.68992 221.1 4.66992 224.86C4.66992 228.1 6.76992 231.35 11.0299 233.81L139.47 308.63L139.54 297.34L11.0999 222.53Z" fill="#EFF1FE"/>
<path d="M485.221 110.53C485.214 110.744 485.194 110.958 485.161 111.17C485.161 111.37 485.051 111.57 485.001 111.75C484.957 111.958 484.897 112.162 484.821 112.36C484.762 112.552 484.688 112.739 484.601 112.92C484.491 113.14 484.401 113.36 484.271 113.58C484.141 113.8 484.091 113.89 483.991 114.07C483.891 114.25 483.661 114.57 483.471 114.82C483.281 115.07 483.231 115.11 483.121 115.27C482.841 115.58 482.551 116.57 482.211 116.88C482.091 117.02 481.96 117.15 481.821 117.27C481.631 117.43 481.431 117.61 481.211 117.78C480.991 117.95 480.801 118.12 480.561 118.27C480.321 118.42 479.241 119.17 478.961 119.33L170.221 297.44C169.254 297.983 168.251 298.461 167.221 298.87L166.371 299.18C165.711 299.42 165.021 299.61 164.371 299.79C163.662 300.009 162.941 300.183 162.211 300.31C161.341 300.5 160.471 300.66 159.561 300.78C159.361 300.78 159.131 300.83 158.911 300.86C157.711 300.98 156.501 301.04 155.291 301.05H154.671C153.471 301.05 152.281 300.96 151.091 300.85C150.911 300.85 150.731 300.85 150.551 300.77C149.373 300.634 148.204 300.43 147.051 300.16C146.85 300.125 146.653 300.075 146.461 300.01C145.44 299.773 144.438 299.466 143.461 299.09L142.921 298.9C141.786 298.463 140.687 297.942 139.631 297.34L139.561 308.63C140.558 309.207 141.598 309.709 142.671 310.13L142.831 310.19L143.441 310.4C144.051 310.61 144.661 310.85 145.301 311.03L146.391 311.3L147.011 311.46C147.193 311.497 147.373 311.544 147.551 311.6C148.261 311.74 148.981 311.87 149.701 311.98L150.491 312.06L151.051 312.12C151.302 312.161 151.556 312.188 151.811 312.2C152.531 312.28 153.241 312.31 153.951 312.34H156.181C156.981 312.34 157.791 312.25 158.591 312.19L158.881 312.14L159.501 312.06C160.121 311.99 160.761 311.92 161.381 311.8C162.001 311.68 162.381 311.6 162.811 311.49L163.181 311.42C163.971 311.24 164.731 311.03 165.481 310.8C165.791 310.69 166.081 310.56 166.371 310.46C166.661 310.36 166.921 310.26 167.211 310.14C168.241 309.738 169.243 309.267 170.211 308.73L478.891 130.61C478.981 130.563 479.068 130.509 479.151 130.45C479.331 130.35 479.481 130.22 479.651 130.12C479.821 130.02 480.241 129.75 480.511 129.55L481.081 129.11C481.318 128.93 481.545 128.736 481.761 128.53C481.813 128.511 481.859 128.476 481.891 128.43C481.969 128.358 482.043 128.282 482.111 128.2C482.445 127.884 482.762 127.55 483.061 127.2C483.121 127.13 483.191 127.06 483.241 126.99C483.291 126.92 483.331 126.84 483.411 126.77C483.591 126.51 483.771 126.26 483.921 126C483.981 125.9 484.071 125.79 484.121 125.7C484.147 125.645 484.177 125.591 484.211 125.54C484.331 125.3 484.431 125.07 484.531 124.84C484.597 124.718 484.654 124.591 484.701 124.46C484.705 124.417 484.705 124.373 484.701 124.33C484.771 124.1 484.841 123.88 484.901 123.65C484.961 123.42 484.991 123.37 485.021 123.23C485.016 123.197 485.016 123.163 485.021 123.13C485.021 122.89 485.091 122.64 485.111 122.39C485.131 122.14 485.111 122.12 485.111 121.99V121.79C485.111 118.04 485.181 113.61 485.201 109.86C485.221 110.083 485.228 110.306 485.221 110.53V110.53Z" fill="#E4E7FB"/>
<path d="M155 301.14C149.25 301.253 143.569 299.875 138.51 297.14L12.22 223.63C7.36998 220.81 4.69999 216.93 4.70999 212.71C4.71999 208.49 7.37997 204.71 12.18 201.9L318.51 25.22C323.626 22.6242 329.286 21.2805 335.023 21.2996C340.76 21.3188 346.411 22.7001 351.51 25.33L477.79 98.8C482.63 101.62 485.31 105.5 485.3 109.72C485.29 113.94 482.62 117.72 477.82 120.55L171.47 297.22C166.41 299.925 160.736 301.276 155 301.14V301.14ZM327.46 36.51C325.215 36.4543 322.993 36.9668 321 38L29.68 206C28.41 206.73 27.68 207.62 27.68 208.44C27.68 209.26 28.44 210.19 29.68 210.93L156 284.39C158.011 285.438 160.253 285.964 162.52 285.92C164.79 285.985 167.039 285.465 169.05 284.41L460.31 116.41C461.59 115.68 462.31 114.79 462.31 113.99C462.31 113.19 461.55 112.24 460.31 111.5L334 38.06C331.986 36.9994 329.736 36.4662 327.46 36.51V36.51Z" fill="#FEFEFC"/>
<path d="M476.63 100.78C485.11 105.71 485.11 113.7 476.63 118.56L170.33 295.22C161.89 300.09 148.13 300.06 139.66 295.12L13.3698 221.65C4.89977 216.72 4.87977 208.75 13.3698 203.88L319.66 27.21C328.12 22.35 341.88 22.4 350.36 27.31L476.63 100.78ZM170.19 286.4L461.46 118.4C465.67 115.99 465.66 111.99 461.46 109.52L335.16 36.08C330.94 33.62 324.03 33.58 319.8 36.03L28.5398 204C24.3198 206.44 24.3398 210.45 28.5398 212.9L154.82 286.37C159.04 288.84 165.95 288.86 170.17 286.37L170.19 286.4Z" fill="url(#paint0_linear)"/>
<path d="M461.44 109.54C465.66 112.01 465.67 116.01 461.44 118.42L170.17 286.42C165.95 288.87 159.04 288.85 154.82 286.42L28.5602 212.89C24.3402 210.44 24.3202 206.43 28.5602 203.99L319.8 36C324.03 33.55 330.94 33.59 335.16 36.05L461.44 109.54Z" fill="url(#paint1_linear)"/>
<g style="mix-blend-mode:overlay" opacity="0.2">
<path d="M320.451 199.75L384.641 162.75L349.801 44.6L335.161 36.08C330.941 33.62 324.031 33.58 319.801 36.03L279.101 59.5L320.451 199.75Z" fill="#FEFEFC"/>
</g>
<g style="mix-blend-mode:overlay" opacity="0.2">
<path d="M293.58 215.25L308.98 206.37L267.63 66.12L252.22 75L293.58 215.25Z" fill="#FEFEFC"/>
</g>
<path d="M410.421 68.8801L391.171 57.6801C390.818 57.5001 390.427 57.4062 390.031 57.4062C389.634 57.4062 389.244 57.5001 388.891 57.6801C388.271 58.0401 388.261 58.6201 388.891 59.0001L408.141 70.1901C408.494 70.3701 408.884 70.4639 409.281 70.4639C409.677 70.4639 410.068 70.3701 410.421 70.1901C410.554 70.1399 410.668 70.0503 410.749 69.9333C410.83 69.8163 410.874 69.6774 410.874 69.5351C410.874 69.3928 410.83 69.2539 410.749 69.1368C410.668 69.0198 410.554 68.9303 410.421 68.8801Z" fill="url(#paint2_linear)"/>
<path d="M79.4703 267.23L67.0003 260C66.3203 259.6 65.7903 259.94 65.7803 260.71C65.7967 261.128 65.9145 261.536 66.1235 261.898C66.3326 262.261 66.6266 262.567 66.9803 262.79L79.4603 270C80.1403 270.39 80.6803 270.12 80.7003 269.35C80.677 268.922 80.5535 268.505 80.3399 268.134C80.1263 267.762 79.8284 267.446 79.4703 267.21V267.23Z" fill="url(#paint3_linear)"/>
<path d="M88.9998 272.8C88.3298 272.4 87.7598 272.72 87.7598 273.5C87.7858 273.925 87.9094 274.338 88.1209 274.708C88.3325 275.077 88.6264 275.393 88.9798 275.63C89.6498 276.02 90.2198 275.7 90.2198 274.92C90.1968 274.496 90.0745 274.083 89.8625 273.715C89.6506 273.346 89.3551 273.033 88.9998 272.8V272.8Z" fill="url(#paint4_linear)"/>
<path d="M92.2605 274.66C91.5505 274.26 91.0305 274.59 91.0205 275.36C91.0371 275.788 91.1566 276.207 91.369 276.579C91.5813 276.952 91.8803 277.268 92.2405 277.5C92.9105 277.89 93.4405 277.56 93.4505 276.77C93.431 276.35 93.3131 275.94 93.1065 275.574C92.8998 275.207 92.6101 274.894 92.2605 274.66V274.66Z" fill="url(#paint5_linear)"/>
<path d="M95.45 276.52C94.77 276.13 94.21 276.45 94.21 277.22C94.2313 277.646 94.353 278.061 94.565 278.431C94.777 278.801 95.0733 279.116 95.43 279.35C96.1 279.74 96.66 279.43 96.67 278.65C96.6455 278.225 96.5225 277.811 96.3108 277.441C96.0991 277.072 95.8044 276.756 95.45 276.52V276.52Z" fill="url(#paint6_linear)"/>
<path d="M98.6304 278.38C97.9604 277.98 97.4004 278.3 97.4004 279.08C97.4217 279.505 97.5434 279.918 97.7555 280.287C97.9676 280.655 98.264 280.968 98.6204 281.2C99.2904 281.6 99.8404 281.28 99.8504 280.5C99.8267 280.076 99.704 279.663 99.4921 279.295C99.2803 278.927 98.9852 278.614 98.6304 278.38Z" fill="url(#paint7_linear)"/>
<path d="M101.85 280.24C101.18 279.85 100.62 280.16 100.61 280.95C100.636 281.374 100.76 281.785 100.972 282.153C101.183 282.521 101.477 282.835 101.83 283.07C102.51 283.47 103.04 283.13 103.04 282.36C103.023 281.938 102.906 281.526 102.7 281.157C102.493 280.789 102.202 280.475 101.85 280.24Z" fill="url(#paint8_linear)"/>
<path d="M45.0002 247.15C44.8834 247.044 44.7363 246.978 44.5796 246.96C44.4229 246.943 44.2647 246.975 44.1274 247.052C43.9901 247.13 43.8807 247.249 43.8148 247.392C43.7489 247.535 43.7298 247.695 43.7602 247.85C43.7847 248.277 43.9076 248.692 44.1192 249.063C44.3309 249.434 44.6255 249.752 44.9802 249.99C45.6602 250.37 46.2202 250.05 46.2202 249.27C46.1957 248.846 46.0727 248.434 45.8609 248.066C45.6491 247.698 45.3544 247.384 45.0002 247.15V247.15Z" fill="url(#paint9_linear)"/>
<path d="M48.1804 249C47.4804 248.6 46.9404 248.93 46.9404 249.7C46.9569 250.127 47.0765 250.544 47.2889 250.915C47.5014 251.286 47.8004 251.6 48.1604 251.83C48.8404 252.22 49.3604 251.89 49.3704 251.11C49.3509 250.69 49.2331 250.28 49.0264 249.914C48.8197 249.547 48.53 249.234 48.1804 249V249Z" fill="url(#paint10_linear)"/>
<path d="M51.3599 250.88C50.6999 250.48 50.1299 250.8 50.1299 251.58C50.1536 252.006 50.2762 252.42 50.488 252.789C50.6998 253.159 50.9949 253.474 51.3499 253.71C52.0199 254.09 52.5799 253.78 52.5899 253C52.5651 252.575 52.4408 252.162 52.2272 251.794C52.0136 251.425 51.7165 251.113 51.3599 250.88Z" fill="url(#paint11_linear)"/>
<path d="M54.5603 252.73C53.8803 252.34 53.3203 252.65 53.3203 253.43C53.3452 253.854 53.4673 254.267 53.6771 254.636C53.8869 255.005 54.1788 255.322 54.5303 255.56C55.2103 255.95 55.7703 255.64 55.7703 254.86C55.7508 254.435 55.6311 254.02 55.4208 253.65C55.2105 253.28 54.9156 252.965 54.5603 252.73V252.73Z" fill="url(#paint12_linear)"/>
<path d="M57.77 254.6C57.1 254.21 56.54 254.54 56.54 255.31C56.5614 255.735 56.6831 256.148 56.8951 256.517C57.1072 256.885 57.4036 257.198 57.76 257.43C58.43 257.82 58.96 257.5 58.97 256.72C58.9501 256.297 58.8312 255.885 58.6227 255.517C58.4143 255.149 58.1222 254.835 57.77 254.6Z" fill="url(#paint13_linear)"/>
<path d="M171.65 108.43C173.18 107.13 174.39 106.13 175.65 105.13C189.17 93.63 196.79 75.89 199.25 52.78C199.89 46.63 200.14 40.12 200.41 33.72C200.83 23.72 205.6 18.6301 214.06 20.6401C219.141 21.8174 224.015 23.7524 228.52 26.38C234.485 29.9418 239.878 34.3816 244.52 39.55C252.03 47.74 255.33 56.84 255.52 66.07C255.573 79.6613 256.831 93.2212 259.28 106.59C263.671 128.7 271.19 150.071 281.61 170.06C281.964 170.709 282.281 171.376 282.56 172.06C282.621 172.349 282.648 172.645 282.64 172.94C245.83 151.53 209.09 130.14 171.77 108.44L171.65 108.43ZM228.11 1.19004C223.66 -1.38996 219.68 0.310041 220 5.63004C220.26 9.71004 218.62 9.22002 216.06 8.33002C207.93 5.33002 200.91 5.44004 195.7 10.16C191.18 14.27 189.53 21.16 189.48 29.42C189.4 41.91 187.93 53.28 184.84 63.47C179.84 80.03 171.31 92.05 158.34 98.36C155.81 99.61 155.39 101.41 157.01 105.87C158.835 111.399 162.619 116.069 167.65 119C171.46 121.24 183.91 128.47 198.85 137.17C228.77 154.59 268.73 177.82 269.85 178.47C269.85 178.47 273.71 180.75 278.11 183.3C281.42 185.23 285.03 187.3 287.56 188.75C293.05 191.85 297.56 190.35 298.5 185.48C298.84 183.75 298.57 182.14 297.13 179.89C288.262 165.584 281.186 150.242 276.06 134.21C269.17 112.87 266.13 92.8 266.28 73.82C266.34 64.9117 264.363 56.1074 260.5 48.08C255.581 37.7721 248.325 28.7533 239.31 21.74C236.95 19.87 235.67 18.47 235.9 15.18C236.29 9.96003 232.71 3.95004 228.15 1.25004C228.15 1.25004 228.15 1.25005 228.08 1.20005L228.11 1.19004Z" fill="url(#paint14_linear)"/>
<path d="M246 170.17L208.46 148.33C208.4 160.28 216.73 174.81 227.1 180.84C237.47 186.87 245.91 182.09 246 170.17V170.17Z" fill="url(#paint15_linear)"/>
<path d="M325.59 60.87L288.08 39.05C284.6 37.05 281.74 38.64 281.72 42.65L281.45 85.84C281.559 88.0287 282.184 90.1607 283.273 92.0619C284.363 93.9632 285.887 95.5799 287.72 96.78L325.25 118.61C328.73 120.61 331.59 119.02 331.6 115.01L331.87 71.83C331.766 69.6309 331.143 67.4875 330.052 65.5756C328.96 63.6636 327.431 62.0374 325.59 60.83V60.87Z" fill="url(#paint16_linear)"/>
<path d="M308.31 64.73L308.08 94.41L312.74 97.11L312.72 99.22L301.28 92.57L301.29 90.45L305.96 93.17L306.17 65.71L301.5 62.98L301.51 60.78L308.31 64.73Z" fill="#FEFEFC" stroke="#FEFEFC" stroke-width="0.2" stroke-miterlimit="10"/>
</g>
<defs>
<filter id="filter0_d" x="0.660156" y="0.00488281" width="488.64" height="323.005" filterUnits="userSpaceOnUse" color-interpolation-filters="sRGB">
<feFlood flood-opacity="0" result="BackgroundImageFix"/>
<feColorMatrix in="SourceAlpha" type="matrix" values="0 0 0 0 0 0 0 0 0 0 0 0 0 0 0 0 0 0 127 0"/>
<feOffset dy="4"/>
<feGaussianBlur stdDeviation="2"/>
<feColorMatrix type="matrix" values="0 0 0 0 0 0 0 0 0 0 0 0 0 0 0 0 0 0 0.25 0"/>
<feBlend mode="normal" in2="BackgroundImageFix" result="effect1_dropShadow"/>
<feBlend mode="normal" in="SourceGraphic" in2="effect1_dropShadow" result="shape"/>
</filter>
<linearGradient id="paint0_linear" x1="7.16193" y1="160.436" x2="482.809" y2="162.013" gradientUnits="userSpaceOnUse">
<stop stop-color="#F1F4FE"/>
<stop offset="0.58" stop-color="#F7F9FE"/>
<stop offset="1" stop-color="white"/>
</linearGradient>
<linearGradient id="paint1_linear" x1="25.3902" y1="161.22" x2="464.61" y2="161.22" gradientUnits="userSpaceOnUse">
<stop stop-color="#424457"/>
<stop offset="0.13" stop-color="#424860"/>
<stop offset="0.33" stop-color="#425178"/>
<stop offset="0.59" stop-color="#4261A0"/>
<stop offset="0.89" stop-color="#4376D6"/>
<stop offset="1" stop-color="#437FEC"/>
</linearGradient>
<linearGradient id="paint2_linear" x1="388.385" y1="63.8998" x2="410.885" y2="63.9744" gradientUnits="userSpaceOnUse">
<stop stop-color="#4CD9ED"/>
<stop offset="0.04" stop-color="#4BD3ED"/>
<stop offset="0.32" stop-color="#48AFED"/>
<stop offset="0.58" stop-color="#4595EC"/>
<stop offset="0.82" stop-color="#4485EC"/>
<stop offset="1" stop-color="#437FEC"/>
</linearGradient>
<linearGradient id="paint3_linear" x1="4179.38" y1="6383.25" x2="4401.98" y2="6383.25" gradientUnits="userSpaceOnUse">
<stop stop-color="#4CD9ED"/>
<stop offset="0.04" stop-color="#4BD3ED"/>
<stop offset="0.32" stop-color="#48AFED"/>
<stop offset="0.58" stop-color="#4595EC"/>
<stop offset="0.82" stop-color="#4485EC"/>
<stop offset="1" stop-color="#437FEC"/>
</linearGradient>
<linearGradient id="paint4_linear" x1="820.198" y1="2177.22" x2="826.274" y2="2177.22" gradientUnits="userSpaceOnUse">
<stop stop-color="#4CD9ED"/>
<stop offset="0.04" stop-color="#4BD3ED"/>
<stop offset="0.32" stop-color="#48AFED"/>
<stop offset="0.58" stop-color="#4595EC"/>
<stop offset="0.82" stop-color="#4485EC"/>
<stop offset="1" stop-color="#437FEC"/>
</linearGradient>
<linearGradient id="paint5_linear" x1="822.385" y1="2188.57" x2="828.29" y2="2188.57" gradientUnits="userSpaceOnUse">
<stop stop-color="#4CD9ED"/>
<stop offset="0.04" stop-color="#4BD3ED"/>
<stop offset="0.32" stop-color="#48AFED"/>
<stop offset="0.58" stop-color="#4595EC"/>
<stop offset="0.82" stop-color="#4485EC"/>
<stop offset="1" stop-color="#437FEC"/>
</linearGradient>
<linearGradient id="paint6_linear" x1="842.475" y1="2190.17" x2="848.526" y2="2190.17" gradientUnits="userSpaceOnUse">
<stop stop-color="#4CD9ED"/>
<stop offset="0.04" stop-color="#4BD3ED"/>
<stop offset="0.32" stop-color="#48AFED"/>
<stop offset="0.58" stop-color="#4595EC"/>
<stop offset="0.82" stop-color="#4485EC"/>
<stop offset="1" stop-color="#437FEC"/>
</linearGradient>
<linearGradient id="paint7_linear" x1="850.461" y1="2198.22" x2="856.463" y2="2198.22" gradientUnits="userSpaceOnUse">
<stop stop-color="#4CD9ED"/>
<stop offset="0.04" stop-color="#4BD3ED"/>
<stop offset="0.32" stop-color="#48AFED"/>
<stop offset="0.58" stop-color="#4595EC"/>
<stop offset="0.82" stop-color="#4485EC"/>
<stop offset="1" stop-color="#437FEC"/>
</linearGradient>
<linearGradient id="paint8_linear" x1="855.327" y1="2206.9" x2="861.256" y2="2206.9" gradientUnits="userSpaceOnUse">
<stop stop-color="#4CD9ED"/>
<stop offset="0.04" stop-color="#4BD3ED"/>
<stop offset="0.32" stop-color="#48AFED"/>
<stop offset="0.58" stop-color="#4595EC"/>
<stop offset="0.82" stop-color="#4485EC"/>
<stop offset="1" stop-color="#437FEC"/>
</linearGradient>
<linearGradient id="paint9_linear" x1="671.151" y1="2085.43" x2="677.237" y2="2085.43" gradientUnits="userSpaceOnUse">
<stop stop-color="#4CD9ED"/>
<stop offset="0.04" stop-color="#4BD3ED"/>
<stop offset="0.32" stop-color="#48AFED"/>
<stop offset="0.58" stop-color="#4595EC"/>
<stop offset="0.82" stop-color="#4485EC"/>
<stop offset="1" stop-color="#437FEC"/>
</linearGradient>
<linearGradient id="paint10_linear" x1="670.987" y1="2076.3" x2="676.892" y2="2076.3" gradientUnits="userSpaceOnUse">
<stop stop-color="#4CD9ED"/>
<stop offset="0.04" stop-color="#4BD3ED"/>
<stop offset="0.32" stop-color="#48AFED"/>
<stop offset="0.58" stop-color="#4595EC"/>
<stop offset="0.82" stop-color="#4485EC"/>
<stop offset="1" stop-color="#437FEC"/>
</linearGradient>
<linearGradient id="paint11_linear" x1="689.728" y1="2083.71" x2="695.804" y2="2083.71" gradientUnits="userSpaceOnUse">
<stop stop-color="#4CD9ED"/>
<stop offset="0.04" stop-color="#4BD3ED"/>
<stop offset="0.32" stop-color="#48AFED"/>
<stop offset="0.58" stop-color="#4595EC"/>
<stop offset="0.82" stop-color="#4485EC"/>
<stop offset="1" stop-color="#437FEC"/>
</linearGradient>
<linearGradient id="paint12_linear" x1="698.155" y1="2092.57" x2="704.182" y2="2092.57" gradientUnits="userSpaceOnUse">
<stop stop-color="#4CD9ED"/>
<stop offset="0.04" stop-color="#4BD3ED"/>
<stop offset="0.32" stop-color="#48AFED"/>
<stop offset="0.58" stop-color="#4595EC"/>
<stop offset="0.82" stop-color="#4485EC"/>
<stop offset="1" stop-color="#437FEC"/>
</linearGradient>
<linearGradient id="paint13_linear" x1="703.939" y1="2096.91" x2="709.868" y2="2096.91" gradientUnits="userSpaceOnUse">
<stop stop-color="#4CD9ED"/>
<stop offset="0.04" stop-color="#4BD3ED"/>
<stop offset="0.32" stop-color="#48AFED"/>
<stop offset="0.58" stop-color="#4595EC"/>
<stop offset="0.82" stop-color="#4485EC"/>
<stop offset="1" stop-color="#437FEC"/>
</linearGradient>
<linearGradient id="paint14_linear" x1="157.102" y1="96.7475" x2="299.357" y2="97.2192" gradientUnits="userSpaceOnUse">
<stop stop-color="#5FEFC0"/>
<stop offset="0.13" stop-color="#5CECC6"/>
<stop offset="1" stop-color="#4CD9ED"/>
</linearGradient>
<linearGradient id="paint15_linear" x1="-7613.44" y1="-14478.2" x2="-5959.79" y2="-14478.2" gradientUnits="userSpaceOnUse">
<stop stop-color="#5FEFC0"/>
<stop offset="0.13" stop-color="#5CECC6"/>
<stop offset="1" stop-color="#4CD9ED"/>
</linearGradient>
<linearGradient id="paint16_linear" x1="-5926.76" y1="-42131.2" x2="-2952.49" y2="-42131.2" gradientUnits="userSpaceOnUse">
<stop stop-color="#5FEFC0"/>
<stop offset="0.13" stop-color="#5CECC6"/>
<stop offset="1" stop-color="#4CD9ED"/>
</linearGradient>
</defs>
</svg>
