<svg xmlns="http://www.w3.org/2000/svg" xmlns:xlink="http://www.w3.org/1999/xlink" viewBox="0 0 343.79 317.54"><defs><style>.cls-1{fill:none;}.cls-2{isolation:isolate;}.cls-3{mix-blend-mode:multiply;}.cls-4{fill:#b7c0eb;}.cls-5{fill:#eff1fe;}.cls-6{fill:#fdfcff;}.cls-7{fill:#e4e7fb;}.cls-8{fill:url(#linear-gradient);}.cls-9{fill:#6ae1c1;}.cls-10{fill:url(#linear-gradient-2);}.cls-11{fill:url(#linear-gradient-3);}.cls-12{clip-path:url(#clip-path);}.cls-13{fill:#ccc;}.cls-14{fill:#c7c7c7;}.cls-15{fill:#c2c2c2;}.cls-16{fill:#bdbdbd;}.cls-17{fill:#b8b8b8;}.cls-18{fill:#b3b3b3;}.cls-19{fill:#adadad;}.cls-20{fill:#a8a8a8;}.cls-21{fill:#a3a3a3;}.cls-22{clip-path:url(#clip-path-2);}.cls-23{fill:url(#linear-gradient-4);}.cls-24{fill:url(#linear-gradient-5);}.cls-25{fill:gray;}.cls-26{fill:url(#linear-gradient-6);}.cls-27{fill:#fff;opacity:0;}.cls-28{fill:#fcfdfe;opacity:0.03;}.cls-29{fill:#fafafd;opacity:0.06;}.cls-30{fill:#f7f8fc;opacity:0.1;}.cls-31{fill:#f5f6fc;opacity:0.13;}.cls-32{fill:#f2f4fb;opacity:0.16;}.cls-33{fill:#f0f1fa;opacity:0.19;}.cls-34{fill:#edeff9;opacity:0.23;}.cls-35{fill:#ebedf8;opacity:0.26;}.cls-36{fill:#e8eaf7;opacity:0.29;}.cls-37{fill:#e6e8f6;opacity:0.32;}.cls-38{fill:#e3e6f5;opacity:0.35;}.cls-39{fill:#e1e4f5;opacity:0.39;}.cls-40{fill:#dee1f4;opacity:0.42;}.cls-41{fill:#dcdff3;opacity:0.45;}.cls-42{fill:#d9ddf2;opacity:0.48;}.cls-43{fill:#d7daf1;opacity:0.52;}.cls-44{fill:#d4d8f0;opacity:0.55;}.cls-45{fill:#d2d6ef;opacity:0.58;}.cls-46{fill:#cfd3ee;opacity:0.61;}.cls-47{fill:#cdd1ee;opacity:0.65;}.cls-48{fill:#cacfed;opacity:0.68;}.cls-49{fill:#c8cdec;opacity:0.71;}.cls-50{fill:#c5caeb;opacity:0.74;}.cls-51{fill:#c3c8ea;opacity:0.77;}.cls-52{fill:#c0c6e9;opacity:0.81;}.cls-53{fill:#bec3e8;opacity:0.84;}.cls-54{fill:#bbc1e7;opacity:0.87;}.cls-55{fill:#b9bfe7;opacity:0.9;}.cls-56{fill:#b6bde6;opacity:0.94;}.cls-57{fill:#b4bae5;opacity:0.97;}.cls-58{fill:#b1b8e4;}.cls-59{fill:#1fc6a6;}.cls-60{fill:#9ff7e8;}.cls-61{fill:#87dacc;}.cls-62{fill:#42b4a1;}.cls-63{fill:#f9faff;}.cls-64{fill:#e6eafe;}.cls-65{opacity:0.8;}</style><linearGradient id="linear-gradient" x1="187.73" y1="151.27" x2="334.81" y2="151.27" gradientUnits="userSpaceOnUse"><stop offset="0" stop-color="#424457"/><stop offset="0.17" stop-color="#385876"/><stop offset="0.41" stop-color="#2b709a"/><stop offset="0.64" stop-color="#2281b4"/><stop offset="0.84" stop-color="#1d8bc4"/><stop offset="1" stop-color="#1b8fca"/></linearGradient><linearGradient id="linear-gradient-2" x1="200.13" y1="148.52" x2="310.35" y2="148.52" gradientUnits="userSpaceOnUse"><stop offset="0" stop-color="#5fefc0"/><stop offset="0.13" stop-color="#5cecc6"/><stop offset="1" stop-color="#4cd9ed"/></linearGradient><linearGradient id="linear-gradient-3" x1="197.62" y1="161.58" x2="310.27" y2="161.58" gradientUnits="userSpaceOnUse"><stop offset="0.17" stop-color="#437fec"/><stop offset="0.47" stop-color="#336cd5"/><stop offset="1" stop-color="#184eae"/></linearGradient><clipPath id="clip-path"><path class="cls-1" d="M185.83,26l-10.52-6.11a1.32,1.32,0,0,1,1.31-.13l10.51,6.11A1.32,1.32,0,0,0,185.83,26Z"/></clipPath><clipPath id="clip-path-2"><path class="cls-1" d="M184.52,27.41,174,21.3a3.84,3.84,0,0,1,1.31-1.39L185.83,26A3.76,3.76,0,0,0,184.52,27.41Z"/></clipPath><linearGradient id="linear-gradient-4" x1="53.64" y1="135.45" x2="131.77" y2="135.45" gradientUnits="userSpaceOnUse"><stop offset="0" stop-color="#6fa3c6"/><stop offset="0.99" stop-color="#1c8fca"/><stop offset="1" stop-color="#1b8fca"/></linearGradient><linearGradient id="linear-gradient-5" x1="75.08" y1="176.95" x2="-10.36" y2="226.28" xlink:href="#linear-gradient-4"/><linearGradient id="linear-gradient-6" x1="184.72" y1="-3.65" x2="139.11" y2="121.66" gradientUnits="userSpaceOnUse"><stop offset="0" stop-color="#1b8fca"/><stop offset="0.99" stop-color="#6ea3c6"/><stop offset="1" stop-color="#6fa3c6"/></linearGradient></defs><g class="cls-2"><g id="Layer_2" data-name="Layer 2"><g id="Layer_3" data-name="Layer 3"><path class="cls-4" d="M189.49,165.41,93.54,221.12a3.8,3.8,0,0,0-2.21,3.12h0v0q0,3.09,0,6.18a3.8,3.8,0,0,0,2.24,3.15l143.1,82.66.56.3.18.07.35.16h0a7.69,7.69,0,0,0,.81.27l.07,0,.18.05.49.13.12,0a1.25,1.25,0,0,0,.19,0,3.06,3.06,0,0,0,.4.07.51.51,0,0,0,.17,0l.18,0,.38.05.19,0h.16l.41,0h1.09l.53,0a.68.68,0,0,0,.2,0h0l.89-.12h0l.23,0a4,4,0,0,0,.44-.11l.3-.07.39-.11.08,0,.15-.06c.2-.07.4-.14.58-.22l.22-.1a6,6,0,0,0,.72-.36l95.95-55.73,0-6.21Z"/><path class="cls-5" d="M93.57,224.2a3.82,3.82,0,0,1-2.24-3.15q0,3.1,0,6.21a3.78,3.78,0,0,0,2.24,3.15l143.1,82.66,0-6.21Z"/><path class="cls-6" d="M189.49,162.23l153.92,88.91-96,55.72a11.91,11.91,0,0,1-10.78,0L93.57,224.2c-3-1.72-3-4.53,0-6.25Z"/><path class="cls-7" d="M247.46,306.86c-.23.13-.47.24-.71.36l-.22.09c-.19.08-.39.16-.6.23l-.21.07-.41.12-.29.08-.42.09-.29.06-.87.12a1.23,1.23,0,0,0-.27,0l-.52,0h-1.11l-.38,0-.36,0-.37,0-.35-.05a2.93,2.93,0,0,1-.41-.07l-.31-.06a3.59,3.59,0,0,1-.47-.12l-.27-.07a7,7,0,0,1-.81-.27l-.39-.17-.19-.08a4.77,4.77,0,0,1-.55-.29l0,6.21c.18.11.37.2.56.3l.18.07.35.16h0c.26.11.54.19.81.28l.07,0,.18,0,.49.13a.27.27,0,0,1,.12,0,1.25,1.25,0,0,1,.19,0l.4.07.17,0,.18,0,.38,0,.19,0h.16l.41,0h1.09l.53,0a.68.68,0,0,0,.2,0h0c.3,0,.59-.08.89-.12h0l.23-.05.44-.1a1.71,1.71,0,0,0,.3-.09,2.79,2.79,0,0,0,.39-.1l.08,0,.15-.06c.2-.07.4-.14.58-.22l.22-.09c.25-.12.49-.23.72-.37l95.95-55.72,0-6.21Z"/><g class="cls-2"><polygon class="cls-5" points="192.86 180.38 188.93 182.66 181 178.09 184.94 175.8 192.86 180.38"/><polygon class="cls-7" points="192.86 180.38 192.86 181.62 188.92 183.91 188.93 182.66 192.86 180.38"/><polygon class="cls-5" points="188.93 182.66 188.92 183.91 181 179.33 181 178.09 188.93 182.66"/></g><g class="cls-2"><polygon class="cls-5" points="186.14 184.28 178.27 188.85 170.35 184.28 178.23 179.7 186.14 184.28"/><polygon class="cls-7" points="186.14 184.28 186.14 185.52 178.26 190.09 178.27 188.85 186.14 184.28"/><polygon class="cls-5" points="178.27 188.85 178.26 190.09 170.35 185.52 170.35 184.28 178.27 188.85"/></g><g class="cls-2"><polygon class="cls-5" points="202.18 185.75 198.25 188.04 190.32 183.47 194.25 181.19 202.18 185.75"/><polygon class="cls-7" points="202.18 185.75 202.18 187 198.24 189.29 198.25 188.04 202.18 185.75"/><polygon class="cls-5" points="198.25 188.04 198.24 189.29 190.32 184.71 190.32 183.47 198.25 188.04"/></g><g class="cls-2"><polygon class="cls-5" points="195.46 189.66 187.59 194.24 179.67 189.65 187.54 185.09 195.46 189.66"/><polygon class="cls-7" points="195.46 189.66 195.46 190.9 187.59 195.47 187.59 194.24 195.46 189.66"/><polygon class="cls-5" points="187.59 194.24 187.59 195.47 179.66 190.9 179.67 189.65 187.59 194.24"/></g><g class="cls-2"><polygon class="cls-5" points="211.5 191.14 207.56 193.43 199.64 188.86 203.57 186.56 211.5 191.14"/><polygon class="cls-7" points="211.5 191.14 211.5 192.39 207.56 194.67 207.56 193.43 211.5 191.14"/><polygon class="cls-5" points="207.56 193.43 207.56 194.67 199.64 190.1 199.64 188.86 207.56 193.43"/></g><g class="cls-2"><polygon class="cls-5" points="204.78 195.03 196.91 199.61 188.98 195.04 196.86 190.47 204.78 195.03"/><polygon class="cls-7" points="204.78 195.03 204.78 196.29 196.9 200.85 196.91 199.61 204.78 195.03"/><polygon class="cls-5" points="196.91 199.61 196.9 200.85 188.98 196.29 188.98 195.04 196.91 199.61"/></g><g class="cls-2"><polygon class="cls-5" points="220.82 196.52 216.88 198.81 208.96 194.23 212.89 191.94 220.82 196.52"/><polygon class="cls-7" points="220.82 196.52 220.81 197.76 216.88 200.05 216.88 198.81 220.82 196.52"/><polygon class="cls-5" points="216.88 198.81 216.88 200.05 208.95 195.47 208.96 194.23 216.88 198.81"/></g><g class="cls-2"><polygon class="cls-5" points="214.1 200.42 206.23 205 198.3 200.42 206.18 195.84 214.1 200.42"/><polygon class="cls-7" points="214.1 200.42 214.09 201.66 206.23 206.24 206.23 205 214.1 200.42"/><polygon class="cls-5" points="206.23 205 206.23 206.24 198.3 201.66 198.3 200.42 206.23 205"/></g><g class="cls-2"><polygon class="cls-5" points="230.13 201.91 226.2 204.19 218.28 199.61 222.22 197.33 230.13 201.91"/><polygon class="cls-7" points="230.13 201.91 230.13 203.15 226.2 205.43 226.2 204.19 230.13 201.91"/><polygon class="cls-5" points="226.2 204.19 226.2 205.43 218.28 200.87 218.28 199.61 226.2 204.19"/></g><g class="cls-2"><polygon class="cls-5" points="223.42 205.8 215.55 210.38 207.63 205.81 215.5 201.23 223.42 205.8"/><polygon class="cls-7" points="223.42 205.8 223.41 207.05 215.53 211.63 215.55 210.38 223.42 205.8"/><polygon class="cls-5" points="215.55 210.38 215.53 211.63 207.62 207.04 207.63 205.81 215.55 210.38"/></g><g class="cls-2"><polygon class="cls-5" points="239.45 207.3 235.52 209.57 227.6 205 231.53 202.71 239.45 207.3"/><polygon class="cls-7" points="239.45 207.3 239.45 208.53 235.51 210.81 235.52 209.57 239.45 207.3"/><polygon class="cls-5" points="235.52 209.57 235.51 210.81 227.59 206.23 227.6 205 235.52 209.57"/></g><g class="cls-2"><polygon class="cls-5" points="232.74 211.19 224.86 215.76 216.95 211.19 224.81 206.62 232.74 211.19"/><polygon class="cls-7" points="232.74 211.19 232.73 212.44 224.86 217 224.86 215.76 232.74 211.19"/><polygon class="cls-5" points="224.86 215.76 224.86 217 216.94 212.44 216.95 211.19 224.86 215.76"/></g><g class="cls-2"><polygon class="cls-5" points="248.77 212.66 244.84 214.95 236.92 210.38 240.85 208.1 248.77 212.66"/><polygon class="cls-7" points="248.77 212.66 248.77 213.91 244.83 216.2 244.84 214.95 248.77 212.66"/><polygon class="cls-5" points="244.84 214.95 244.83 216.2 236.91 211.62 236.92 210.38 244.84 214.95"/></g><g class="cls-2"><polygon class="cls-5" points="242.05 216.57 234.18 221.14 226.26 216.57 234.14 212 242.05 216.57"/><polygon class="cls-7" points="242.05 216.57 242.05 217.81 234.18 222.38 234.18 221.14 242.05 216.57"/><polygon class="cls-5" points="234.18 221.14 234.18 222.38 226.25 217.81 226.26 216.57 234.18 221.14"/></g><g class="cls-2"><polygon class="cls-5" points="181.54 192.35 173.66 196.92 161.02 189.62 168.9 185.04 181.54 192.35"/><polygon class="cls-7" points="181.54 192.35 181.54 193.59 173.66 198.16 173.66 196.92 181.54 192.35"/><polygon class="cls-5" points="173.66 196.92 173.66 198.16 161.02 190.86 161.02 189.62 173.66 196.92"/></g><g class="cls-2"><polygon class="cls-5" points="190.86 197.74 182.98 202.31 175.06 197.73 182.94 193.15 190.86 197.74"/><polygon class="cls-7" points="190.86 197.74 190.85 198.97 182.98 203.55 182.98 202.31 190.86 197.74"/><polygon class="cls-5" points="182.98 202.31 182.98 203.55 175.06 198.97 175.06 197.73 182.98 202.31"/></g><g class="cls-2"><polygon class="cls-5" points="200.18 203.11 192.31 207.68 184.38 203.11 192.26 198.54 200.18 203.11"/><polygon class="cls-7" points="200.18 203.11 200.18 204.35 192.3 208.93 192.31 207.68 200.18 203.11"/><polygon class="cls-5" points="192.31 207.68 192.3 208.93 184.38 204.35 184.38 203.11 192.31 207.68"/></g><g class="cls-2"><polygon class="cls-5" points="209.5 208.49 201.62 213.06 193.7 208.49 201.57 203.92 209.5 208.49"/><polygon class="cls-7" points="209.5 208.49 209.49 209.74 201.62 214.31 201.62 213.06 209.5 208.49"/><polygon class="cls-5" points="201.62 213.06 201.62 214.31 193.7 209.73 193.7 208.49 201.62 213.06"/></g><g class="cls-2"><polygon class="cls-5" points="218.82 213.87 210.94 218.45 203.01 213.87 210.89 209.3 218.82 213.87"/><polygon class="cls-7" points="218.82 213.87 218.81 215.12 210.94 219.69 210.94 218.45 218.82 213.87"/><polygon class="cls-5" points="210.94 218.45 210.94 219.69 203.01 215.12 203.01 213.87 210.94 218.45"/></g><g class="cls-2"><polygon class="cls-5" points="228.13 219.26 220.25 223.83 212.34 219.25 220.21 214.69 228.13 219.26"/><polygon class="cls-7" points="228.13 219.26 228.13 220.5 220.25 225.07 220.25 223.83 228.13 219.26"/><polygon class="cls-5" points="220.25 223.83 220.25 225.07 212.34 220.5 212.34 219.25 220.25 223.83"/></g><g class="cls-2"><polygon class="cls-5" points="176.93 200.43 169.06 205 151.82 195.03 159.7 190.46 176.93 200.43"/><polygon class="cls-7" points="176.93 200.43 176.93 201.66 169.05 206.24 169.06 205 176.93 200.43"/><polygon class="cls-5" points="169.06 205 169.05 206.24 151.81 196.28 151.82 195.03 169.06 205"/></g><g class="cls-2"><polygon class="cls-5" points="163.01 203.11 155.14 207.68 142.5 200.38 150.37 195.81 163.01 203.11"/><polygon class="cls-7" points="163.01 203.11 163.01 204.35 155.13 208.92 155.14 207.68 163.01 203.11"/><polygon class="cls-5" points="155.14 207.68 155.13 208.92 142.49 201.63 142.5 200.38 155.14 207.68"/></g><g class="cls-2"><polygon class="cls-5" points="186.26 205.8 178.38 210.38 170.46 205.8 178.34 201.23 186.26 205.8"/><polygon class="cls-7" points="186.26 205.8 186.25 207.05 178.37 211.62 178.38 210.38 186.26 205.8"/><polygon class="cls-5" points="178.38 210.38 178.37 211.62 170.45 207.05 170.46 205.8 178.38 210.38"/></g><g class="cls-2"><polygon class="cls-5" points="172.33 208.49 164.46 213.06 156.53 208.49 164.4 203.91 172.33 208.49"/><polygon class="cls-7" points="172.33 208.49 172.33 209.73 164.45 214.31 164.46 213.06 172.33 208.49"/><polygon class="cls-5" points="164.46 213.06 164.45 214.31 156.53 209.72 156.53 208.49 164.46 213.06"/></g><g class="cls-2"><polygon class="cls-5" points="195.57 211.19 187.69 215.76 179.77 211.19 187.65 206.6 195.57 211.19"/><polygon class="cls-7" points="195.57 211.19 195.57 212.43 187.69 217.01 187.69 215.76 195.57 211.19"/><polygon class="cls-5" points="187.69 215.76 187.69 217.01 179.77 212.43 179.77 211.19 187.69 215.76"/></g><g class="cls-2"><polygon class="cls-5" points="181.65 213.87 173.78 218.45 165.85 213.87 173.73 209.3 181.65 213.87"/><polygon class="cls-7" points="181.65 213.87 181.64 215.12 173.76 219.69 173.78 218.45 181.65 213.87"/><polygon class="cls-5" points="173.78 218.45 173.76 219.69 165.85 215.12 165.85 213.87 173.78 218.45"/></g><g class="cls-2"><polygon class="cls-5" points="204.89 216.56 197.01 221.14 189.09 216.57 196.97 211.99 204.89 216.56"/><polygon class="cls-7" points="204.89 216.56 204.88 217.81 197.01 222.38 197.01 221.14 204.89 216.56"/><polygon class="cls-5" points="197.01 221.14 197.01 222.38 189.09 217.81 189.09 216.57 197.01 221.14"/></g><g class="cls-2"><polygon class="cls-5" points="190.97 219.26 183.09 223.83 175.17 219.25 183.04 214.67 190.97 219.26"/><polygon class="cls-7" points="190.97 219.26 190.96 220.5 183.09 225.07 183.09 223.83 190.97 219.26"/><polygon class="cls-5" points="183.09 223.83 183.09 225.07 175.17 220.5 175.17 219.25 183.09 223.83"/></g><g class="cls-2"><polygon class="cls-5" points="214.21 221.95 206.33 226.52 198.41 221.96 206.29 217.37 214.21 221.95"/><polygon class="cls-7" points="214.21 221.95 214.2 223.19 206.32 227.77 206.33 226.52 214.21 221.95"/><polygon class="cls-5" points="206.33 226.52 206.32 227.77 198.41 223.2 198.41 221.96 206.33 226.52"/></g><g class="cls-2"><polygon class="cls-5" points="200.28 224.64 192.4 229.21 184.49 224.64 192.36 220.06 200.28 224.64"/><polygon class="cls-7" points="200.28 224.64 200.28 225.87 192.4 230.45 192.4 229.21 200.28 224.64"/><polygon class="cls-5" points="192.4 229.21 192.4 230.45 184.48 225.88 184.49 224.64 192.4 229.21"/></g><g class="cls-2"><polygon class="cls-5" points="258.09 218.05 254.16 220.33 246.24 215.76 250.17 213.48 258.09 218.05"/><polygon class="cls-7" points="258.09 218.05 258.08 219.29 254.15 221.58 254.16 220.33 258.09 218.05"/><polygon class="cls-5" points="254.16 220.33 254.15 221.58 246.23 217 246.24 215.76 254.16 220.33"/></g><g class="cls-2"><polygon class="cls-5" points="251.38 221.94 243.5 226.52 235.58 221.95 243.45 217.38 251.38 221.94"/><polygon class="cls-7" points="251.38 221.94 251.37 223.19 243.49 227.77 243.5 226.52 251.38 221.94"/><polygon class="cls-5" points="243.5 226.52 243.49 227.77 235.58 223.19 235.58 221.95 243.5 226.52"/></g><g class="cls-2"><polygon class="cls-5" points="226.32 227.33 226.31 228.57 221.65 225.88 221.66 224.64 226.32 227.33"/><polygon class="cls-7" points="242.11 227.33 242.1 228.57 234.23 233.14 234.24 231.9 242.11 227.33"/><polygon class="cls-5" points="215.65 231.91 215.64 233.14 207.72 228.57 207.73 227.33 215.65 231.91"/><polygon class="cls-5" points="223.53 227.33 215.65 231.91 207.73 227.33 215.61 222.75 223.53 227.33"/><polygon class="cls-7" points="223.53 227.33 223.52 228.57 215.64 233.14 215.65 231.91 223.53 227.33"/><polygon class="cls-5" points="242.11 227.33 234.24 231.9 224.97 237.29 217.04 232.71 226.32 227.33 221.66 224.64 229.53 220.07 234.19 222.76 238.15 225.05 242.11 227.33"/><polygon class="cls-7" points="234.24 231.9 234.23 233.14 224.96 238.53 224.97 237.29 234.24 231.9"/><polygon class="cls-5" points="224.97 237.29 224.96 238.53 217.04 233.96 217.04 232.71 224.97 237.29"/></g><g class="cls-2"><polygon class="cls-5" points="209.6 230.02 201.73 234.59 193.81 230.02 201.68 225.44 209.6 230.02"/><polygon class="cls-7" points="209.6 230.02 209.6 231.26 201.73 235.83 201.73 234.59 209.6 230.02"/><polygon class="cls-5" points="201.73 234.59 201.73 235.83 193.81 231.26 193.81 230.02 201.73 234.59"/></g><g class="cls-2"><polygon class="cls-5" points="223.55 238.08 215.68 242.65 203.12 235.4 211 230.83 223.55 238.08"/><polygon class="cls-7" points="223.55 238.08 223.54 239.32 215.68 243.9 215.68 242.65 223.55 238.08"/><polygon class="cls-5" points="215.68 242.65 215.68 243.9 203.12 236.64 203.12 235.4 215.68 242.65"/></g><g class="cls-2"><polygon class="cls-5" points="158.4 211.18 150.53 215.75 133.29 205.79 141.17 201.22 158.4 211.18"/><polygon class="cls-7" points="158.4 211.18 158.4 212.43 150.52 217 150.53 215.75 158.4 211.18"/><polygon class="cls-5" points="150.53 215.75 150.52 217 133.29 207.04 133.29 205.79 150.53 215.75"/></g><g class="cls-2"><polygon class="cls-5" points="205 238.09 197.12 242.66 151.92 216.56 159.8 211.99 205 238.09"/><polygon class="cls-7" points="205 238.09 204.99 239.33 197.11 243.91 197.12 242.66 205 238.09"/><polygon class="cls-5" points="197.12 242.66 197.11 243.91 151.92 217.8 151.92 216.56 197.12 242.66"/></g><g class="cls-2"><polygon class="cls-5" points="214.31 243.47 206.43 248.05 198.51 243.48 206.4 238.9 214.31 243.47"/><polygon class="cls-7" points="214.31 243.47 214.31 244.71 206.43 249.29 206.43 248.05 214.31 243.47"/><polygon class="cls-5" points="206.43 248.05 206.43 249.29 198.51 244.71 198.51 243.48 206.43 248.05"/></g><g class="cls-2"><polygon class="cls-5" points="275.79 228.28 271.86 230.56 263.94 225.98 267.88 223.7 275.79 228.28"/><polygon class="cls-7" points="275.79 228.28 275.79 229.52 271.86 231.8 271.86 230.56 275.79 228.28"/><polygon class="cls-5" points="271.86 230.56 271.86 231.8 263.94 227.23 263.94 225.98 271.86 230.56"/></g><g class="cls-2"><polygon class="cls-5" points="269.08 232.18 261.2 236.75 253.29 232.18 261.15 227.6 269.08 232.18"/><polygon class="cls-7" points="269.08 232.18 269.07 233.42 261.2 238 261.2 236.75 269.08 232.18"/><polygon class="cls-5" points="261.2 236.75 261.2 238 253.28 233.42 253.29 232.18 261.2 236.75"/></g><g class="cls-2"><polygon class="cls-5" points="285.11 233.66 281.18 235.94 273.26 231.37 277.19 229.09 285.11 233.66"/><polygon class="cls-7" points="285.11 233.66 285.11 234.9 281.17 237.18 281.18 235.94 285.11 233.66"/><polygon class="cls-5" points="281.18 235.94 281.17 237.18 273.25 232.61 273.26 231.37 281.18 235.94"/></g><g class="cls-2"><polygon class="cls-5" points="278.39 237.56 270.52 242.13 262.6 237.55 270.47 232.99 278.39 237.56"/><polygon class="cls-7" points="278.39 237.56 278.39 238.8 270.51 243.37 270.52 242.13 278.39 237.56"/><polygon class="cls-5" points="270.52 242.13 270.51 243.37 262.6 238.8 262.6 237.55 270.52 242.13"/></g><g class="cls-2"><polygon class="cls-5" points="259.81 237.56 251.94 242.13 244.02 237.56 251.89 232.98 259.81 237.56"/><polygon class="cls-7" points="259.81 237.56 259.81 238.8 251.94 243.38 251.94 242.13 259.81 237.56"/><polygon class="cls-5" points="251.94 242.13 251.94 243.38 244.02 238.8 244.02 237.56 251.94 242.13"/></g><g class="cls-2"><polygon class="cls-5" points="269.13 242.94 261.26 247.51 253.33 242.94 261.21 238.37 269.13 242.94"/><polygon class="cls-7" points="269.13 242.94 269.13 244.18 261.25 248.75 261.26 247.51 269.13 242.94"/><polygon class="cls-5" points="261.26 247.51 261.25 248.75 253.33 244.18 253.33 242.94 261.26 247.51"/></g><g class="cls-2"><polygon class="cls-5" points="300.48 242.54 296.55 244.83 288.63 240.24 292.56 237.97 300.48 242.54"/><polygon class="cls-7" points="300.48 242.54 300.48 243.78 296.55 246.06 296.55 244.83 300.48 242.54"/><polygon class="cls-5" points="296.55 244.83 296.55 246.06 288.63 241.49 288.63 240.24 296.55 244.83"/></g><g class="cls-2"><polygon class="cls-5" points="293.77 246.44 285.9 251.01 277.98 246.43 285.85 241.87 293.77 246.44"/><polygon class="cls-7" points="293.77 246.44 293.76 247.69 285.89 252.24 285.9 251.01 293.77 246.44"/><polygon class="cls-5" points="285.9 251.01 285.89 252.24 277.97 247.68 277.98 246.43 285.9 251.01"/></g><g class="cls-2"><polygon class="cls-5" points="309.81 247.92 305.87 250.2 297.95 245.63 301.88 243.35 309.81 247.92"/><polygon class="cls-7" points="309.81 247.92 309.8 249.16 305.87 251.45 305.87 250.2 309.81 247.92"/><polygon class="cls-5" points="305.87 250.2 305.87 251.45 297.94 246.87 297.95 245.63 305.87 250.2"/></g><g class="cls-2"><polygon class="cls-5" points="303.09 251.82 295.21 256.39 287.3 251.82 295.17 247.25 303.09 251.82"/><polygon class="cls-7" points="303.09 251.82 303.09 253.06 295.21 257.64 295.21 256.39 303.09 251.82"/><polygon class="cls-5" points="295.21 256.39 295.21 257.64 287.29 253.07 287.3 251.82 295.21 256.39"/></g><g class="cls-2"><polygon class="cls-5" points="319.12 253.3 315.19 255.59 307.27 251.01 311.2 248.73 319.12 253.3"/><polygon class="cls-7" points="319.12 253.3 319.11 254.54 315.18 256.83 315.19 255.59 319.12 253.3"/><polygon class="cls-5" points="315.19 255.59 315.18 256.83 307.26 252.25 307.27 251.01 315.19 255.59"/></g><g class="cls-2"><polygon class="cls-5" points="312.4 257.2 304.53 261.78 296.61 257.2 304.49 252.63 312.4 257.2"/><polygon class="cls-7" points="312.4 257.2 312.4 258.44 304.52 263.02 304.53 261.78 312.4 257.2"/><polygon class="cls-5" points="304.53 261.78 304.52 263.02 296.61 258.44 296.61 257.2 304.53 261.78"/></g><g class="cls-2"><polygon class="cls-5" points="284.51 251.82 276.63 256.39 268.71 251.82 276.59 247.24 284.51 251.82"/><polygon class="cls-7" points="284.51 251.82 284.5 253.06 276.62 257.64 276.63 256.39 284.51 251.82"/><polygon class="cls-5" points="276.63 256.39 276.62 257.64 268.71 253.07 268.71 251.82 276.63 256.39"/></g><g class="cls-2"><polygon class="cls-5" points="293.82 257.2 285.95 261.78 278.03 257.2 285.91 252.63 293.82 257.2"/><polygon class="cls-7" points="293.82 257.2 293.82 258.44 285.95 263.01 285.95 261.78 293.82 257.2"/><polygon class="cls-5" points="285.95 261.78 285.95 263.01 278.03 258.44 278.03 257.2 285.95 261.78"/></g><g class="cls-2"><polygon class="cls-5" points="303.14 262.58 295.26 267.16 287.35 262.58 295.23 258.01 303.14 262.58"/><polygon class="cls-7" points="303.14 262.58 303.14 263.83 295.26 268.4 295.26 267.16 303.14 262.58"/><polygon class="cls-5" points="295.26 267.16 295.26 268.4 287.35 263.82 287.35 262.58 295.26 267.16"/></g><g class="cls-2"><polygon class="cls-5" points="275.24 257.2 267.36 261.77 259.44 257.2 267.32 252.63 275.24 257.2"/><polygon class="cls-7" points="275.24 257.2 275.24 258.44 267.36 263.01 267.36 261.77 275.24 257.2"/><polygon class="cls-5" points="267.36 261.77 267.36 263.01 259.44 258.44 259.44 257.2 267.36 261.77"/></g><g class="cls-2"><polygon class="cls-5" points="284.56 262.58 276.68 267.15 268.76 262.58 276.64 258.01 284.56 262.58"/><polygon class="cls-7" points="284.56 262.58 284.56 263.82 276.68 268.4 276.68 267.15 284.56 262.58"/><polygon class="cls-5" points="276.68 267.15 276.68 268.4 268.76 263.82 268.76 262.58 276.68 267.15"/></g><g class="cls-2"><polygon class="cls-5" points="293.88 267.97 286 272.54 278.08 267.96 285.96 263.39 293.88 267.97"/><polygon class="cls-7" points="293.88 267.97 293.87 269.21 285.99 273.78 286 272.54 293.88 267.97"/><polygon class="cls-5" points="286 272.54 285.99 273.78 278.07 269.21 278.08 267.96 286 272.54"/></g><g class="cls-2"><polygon class="cls-5" points="265.97 262.57 258.1 267.15 250.18 262.58 258.06 258.01 265.97 262.57"/><polygon class="cls-7" points="265.97 262.57 265.97 263.82 258.1 268.4 258.1 267.15 265.97 262.57"/><polygon class="cls-5" points="258.1 267.15 258.1 268.4 250.17 263.82 250.18 262.58 258.1 267.15"/></g><g class="cls-2"><polygon class="cls-5" points="275.29 267.96 267.42 272.54 259.5 267.96 267.37 263.39 275.29 267.96"/><polygon class="cls-7" points="275.29 267.96 275.29 269.21 267.41 273.78 267.42 272.54 275.29 267.96"/><polygon class="cls-5" points="267.42 272.54 267.41 273.78 259.5 269.2 259.5 267.96 267.42 272.54"/></g><g class="cls-2"><polygon class="cls-5" points="266.08 273.37 258.2 277.95 240.91 267.96 248.79 263.39 266.08 273.37"/><polygon class="cls-7" points="266.08 273.37 266.07 274.61 258.19 279.19 258.2 277.95 266.08 273.37"/><polygon class="cls-5" points="258.2 277.95 258.19 279.19 240.91 269.21 240.91 267.96 258.2 277.95"/></g><g class="cls-2"><polygon class="cls-5" points="284.5 273.41 267.47 283.3 259.55 278.73 276.58 268.84 284.5 273.41"/><polygon class="cls-7" points="284.5 273.41 284.49 274.65 267.47 284.55 267.47 283.3 284.5 273.41"/><polygon class="cls-5" points="267.47 283.3 267.47 284.55 259.54 279.97 259.55 278.73 267.47 283.3"/></g><g class="cls-2"><polygon class="cls-5" points="218.5 263.33 195.63 276.61 145.88 247.88 168.76 234.59 218.5 263.33"/><polygon class="cls-7" points="218.5 263.33 218.5 263.56 195.63 276.84 195.63 276.61 218.5 263.33"/><polygon class="cls-5" points="195.63 276.61 195.63 276.84 145.88 248.1 145.88 247.88 195.63 276.61"/></g><path class="cls-5" d="M195.3,48.21l-.17-.1-.22-.11-.14-.06,0,0a0,0,0,0,0,0,0l-.21-.1-.22-.08h-.06a.6.6,0,0,1-.16-.05l-.21-.06-.12,0h-.1l-.24,0-.15,0h-.63l-.32,0h0l-.1,0-.27.07,0,0a1.81,1.81,0,0,0-.4.18h0L186.08,51a2.22,2.22,0,0,1,.41-.2c.1,0,.22-.06.32-.09s.05,0,.08,0a2.71,2.71,0,0,1,.4,0,.15.15,0,0,1,.09,0,2.82,2.82,0,0,1,.41,0h0l.47.07h0c.16,0,.32.08.49.14h0c.17.06.35.13.52.21a0,0,0,0,1,0,0,4.64,4.64,0,0,1,.55.26L333,134l5.38-3.12Z"/><path class="cls-8" d="M333,138.17a4.08,4.08,0,0,1,1.79,3.12L334.44,246a1.11,1.11,0,0,1-1.81,1L189.52,164.37a4,4,0,0,1-1.79-3.12l.37-104.7a1.11,1.11,0,0,1,1.81-1Z"/><path class="cls-7" d="M343.79,140c0-.09,0-.17,0-.26a.53.53,0,0,1,0-.13v-.05a.25.25,0,0,1,0-.08l0-.26c0-.09,0-.18,0-.28h0c0-.08,0-.16,0-.25h0c0-.09,0-.18-.07-.28a.43.43,0,0,0,0-.11.13.13,0,0,1,0-.06l0-.11a1.47,1.47,0,0,0-.08-.28l-.06-.23v-.06c0-.09-.07-.19-.1-.29s-.06-.18-.1-.27a.14.14,0,0,0,0-.06v0l-.06-.19c0-.08-.07-.17-.11-.26s-.06-.14-.08-.2l0,0v0l-.12-.26c0-.1-.09-.19-.14-.29s0,0,0-.05a.14.14,0,0,1,0,0c0-.07-.07-.15-.11-.22s-.12-.19-.17-.29l-.07-.14,0-.05c-.05-.09-.11-.17-.16-.25l-.21-.35a.11.11,0,0,1,0-.05l-.31-.45,0,0h0l-.24-.31a2.54,2.54,0,0,0-.2-.24v0h0a2.2,2.2,0,0,0-.2-.23,2.57,2.57,0,0,0-.21-.24s0,0,0,0h0l-.18-.19-.22-.22-.06,0a.19.19,0,0,0-.07-.06s-.07-.08-.11-.11l-.24-.21a.26.26,0,0,1-.09-.09l-.06,0-.09-.07-.23-.19-.17-.12,0,0,0,0-.23-.15-.23-.14,0,0L333,134c.18.11.36.21.55.35h0l.5.37a.15.15,0,0,0,.06.05l.46.41,0,0c.16.14.31.29.46.45l0,0c.17.18.32.35.47.53h0c.15.18.3.36.43.55l0,0,.35.51c.08.12.16.24.23.37l.17.27.08.15.28.5s0,.05,0,.06c.1.2.2.42.29.62,0,0,0,0,0,.05.09.2.17.4.25.61l0,.05c.08.22.15.43.21.64v0c.07.22.12.43.18.64v.06c.05.21.1.43.13.63v0a4.34,4.34,0,0,1,.07.63,0,0,0,0,1,0,0c0,.23,0,.44,0,.64L338,254.29l5.37-3.12.39-110.92Z"/><path class="cls-5" d="M333,134a11.93,11.93,0,0,1,5.39,9.34L338,254.29,184.1,165.39l.39-110.92c0-3.42,2.46-4.82,5.43-3.1Zm1.41,112,.37-104.71a4.08,4.08,0,0,0-1.79-3.12L189.91,55.52a1.11,1.11,0,0,0-1.81,1l-.37,104.7a4,4,0,0,0,1.79,3.12L332.63,247a1.11,1.11,0,0,0,1.81-1Z"/><g class="cls-2"><path class="cls-9" d="M200.13,156.06l0,0,0,0v-.06Zm0-1.91-2.5-1.44v2l1.51.87,1-1.39Zm2.43.21h-1.2l-.77,1.06h.55l1.42-1Zm54.95,13-14.37-8.29-.64.58,15.88,9.17-.87-1.46Zm-20.64-12.86-2.48-1.43v1.59l-29.91-.32-1.41,1.05,31.32.35V156l2.47,1.43v-1l4.58,2.65.64-.58-5.22-3v-.94Zm50,27.87-13.36-5.91v-.78l-2.48-1.43v1l-12.37-7.15.87,1.46,11.49,6.64v1l2.48,1.43v-1.12l14.38,6.36-1-1.41Zm20.87,8.1v1.14L288.16,183l1,1.41,17.38,7.69,1.22.05v-1.6Z"/><path class="cls-10" d="M248.62,152.61l-6.52,5.89-.64.58L236,164l-1.67-1v1.36l-33.2-7.51-1,.77,34.24,7.75v.49l2.47,1.43v-2.5l5.66-5.1.64-.58,6.08-5.49-.61-1Zm11-9.89-10.47,9.44.61,1,10.5-9.47-.64-1Zm14.1-11.53-2.48-1.44v2.5l-11.11,10,.63,1L272,133.06l1.69,1v-.6l34.18,29v1.29l2.48,1.43v-2.87l-2.48-1.43v.61l-34.18-29v-1.27Z"/><path class="cls-5" d="M295.15,192.68l-.87,0,13.45,18.68v1.86l2.48,1.44v-2.88l-2.28-1.31-12.78-17.75ZM237,105.05l-2.48-1.43v2.86l0,0-34.43,47.66-1,1.39-1.51-.87v1l1.79,1,.71-.53v0l0,0,0,0,.47-.65.77-1.06,34.16-47.29,1.1.64,23,35,.64,1,10.9,16.62v2l2.28,1.31,13.52,18.8,1,1.41,5.57,7.74.87,0-5.2-7.22-1-1.41L273.6,162.73v-1.85l-2.1-1.21-10.78-16.44-.63-1L237,107v-2Z"/><polygon class="cls-11" points="236.95 129.79 234.47 128.36 234.47 130.72 202.57 154.37 201.15 155.41 200.13 156.17 199.42 156.7 197.63 155.67 197.63 157.55 197.63 158.54 200.12 159.98 200.13 157.62 201.17 156.85 203.08 155.43 204.49 154.38 235.17 131.64 236.43 132.36 248.62 152.61 249.22 153.62 257.52 167.4 258.39 168.86 271.04 189.88 271.04 192 273.52 193.43 273.52 191.86 294.28 192.64 295.15 192.68 307.78 193.15 307.78 193.38 310.26 194.81 310.27 191.94 307.79 190.51 307.78 192.11 306.56 192.06 294.38 191.59 293.51 191.56 273.52 190.79 273.53 190.57 271.56 189.43 259.6 169.55 258.72 168.09 249.73 153.16 249.12 152.16 236.94 131.92 236.95 129.79 236.95 129.79"/></g><g class="cls-2"><g class="cls-12"><g class="cls-2"><path class="cls-13" d="M185.83,26l-10.52-6.11.26-.13,10.52,6.11-.26.13Z"/><path class="cls-14" d="M186.09,25.89l-10.52-6.11.22-.07,10.51,6.11-.21.07Z"/><path class="cls-15" d="M186.3,25.82l-10.51-6.11.16,0,10.52,6.11-.17,0Z"/><path class="cls-16" d="M186.47,25.78,176,19.67h.14l10.51,6.11Z"/><path class="cls-17" d="M186.6,25.77l-10.51-6.11h.12l10.52,6.11Z"/><path class="cls-18" d="M186.73,25.77l-10.52-6.11h.11l10.52,6.11Z"/><path class="cls-19" d="M186.84,25.78l-10.52-6.11.1,0,10.52,6.11-.1,0Z"/><path class="cls-20" d="M186.94,25.81,176.42,19.7l.1,0L187,25.84l-.1,0Z"/><path class="cls-21" d="M187,25.84l-10.52-6.11.1.05,10.51,6.11-.09-.05Z"/></g></g></g><g class="cls-2"><g class="cls-22"><g class="cls-2"><path class="cls-19" d="M184.52,27.41,174,21.3l0,0,10.51,6.11s0,0,0,0Z"/><path class="cls-18" d="M184.53,27.38,174,21.27l.09-.16,10.52,6.11a1.4,1.4,0,0,1-.1.16Z"/><path class="cls-17" d="M184.63,27.22l-10.52-6.11.11-.16,10.52,6.11-.11.16Z"/><path class="cls-16" d="M184.74,27.06,174.22,21l.12-.16,10.52,6.11-.12.16Z"/><path class="cls-15" d="M184.86,26.9l-10.52-6.11c0-.06.1-.13.15-.18L185,26.72l-.15.18Z"/><path class="cls-14" d="M185,26.72l-10.52-6.11.2-.22,10.52,6.12a1.34,1.34,0,0,0-.2.21Z"/><path class="cls-13" d="M185.21,26.51l-10.52-6.12a3.34,3.34,0,0,1,.62-.48L185.83,26a3.41,3.41,0,0,0-.62.49Z"/></g></g></g><polygon class="cls-23" points="64.15 158.03 53.64 151.92 121.26 112.88 131.77 118.99 64.15 158.03"/><path class="cls-24" d="M53.64,151.92A4.83,4.83,0,0,0,52,153.28C51.49,154.07.65,242,.65,242s-1.56,2.28.18,3l10.52,6.11a1,1,0,0,1-.26-.23l-.06-.1a.91.91,0,0,1-.11-.22c0-.05,0-.1-.05-.14a2.19,2.19,0,0,1,0-.27.78.78,0,0,1,0-.16c0-.1,0-.21,0-.32s0-.1,0-.16a.13.13,0,0,1,0-.06,2.88,2.88,0,0,1,.09-.4,0,0,0,0,1,0,0,2.69,2.69,0,0,1,.16-.45h0c.07-.15,51.08-88.18,51.67-89.1A4.62,4.62,0,0,1,64.15,158Z"/><path class="cls-7" d="M185.83,26a1.32,1.32,0,0,1,1.3-.13c.73.41.74,1.76,0,3l-53.28,92.52a3.88,3.88,0,0,1-1.31,1.38l-67.63,39L14,249.66a3.67,3.67,0,0,1-1.3,1.37,1.29,1.29,0,0,1-1.31.13c-.73-.42-.72-1.77,0-3l51.5-88.75a3.74,3.74,0,0,1,1.3-1.37l67.62-39,52.75-91.58A3.76,3.76,0,0,1,185.83,26Z"/><polygon class="cls-25" points="189.77 31.38 190.79 31.96 171.98 21.1 170.96 20.51 189.77 31.38"/><path class="cls-26" d="M195.23.2c-.65-.38-1.62-.22-2.72.55L171.35,15.58c-2.22,1.56-2.4,3.78-.39,4.93L173.58,22l-52.32,90.85L131.77,119l52.34-90.88,5.66,3.26c2,1.16,3.84-.1,4.08-2.8l2.26-25.74C196.23,1.48,195.88.57,195.23.2Z"/><path class="cls-7" d="M197.13,3.42l-1-.59-2.26,25.74c0,.18,0,.35-.07.52s0,.13,0,.19a2.68,2.68,0,0,1-.07.27c0,.13-.07.26-.11.38a0,0,0,0,0,0,0l-.15.35s0,0,0,0a3.24,3.24,0,0,1-.17.32v0l-.21.28,0,0a2.39,2.39,0,0,1-.22.23l0,0a1.3,1.3,0,0,1-.23.18l0,0-.26.15-.09,0-.2.08-.11,0-.19,0-.13,0h-.32l-.21,0h-.13l-.22-.05-.12,0-.24-.08-.11-.05a3,3,0,0,1-.36-.18l1,.59a3,3,0,0,0,.36.18l.11,0,.24.08.13,0,.21,0,.14,0,.19,0h.33l.13,0,.18,0,.12,0,.2-.07.09,0h0l.2-.11,0,0,0,0a.18.18,0,0,0,.07,0l.13-.1,0,0,0,0,0,0,.1-.11.07-.08,0,0v0a.63.63,0,0,0,.1-.12l.09-.13v0h0a.75.75,0,0,1,.07-.12l.09-.17s0,0,0,0,0,0,0,0l.07-.14.08-.21h0v0a2.81,2.81,0,0,0,.1-.31.09.09,0,0,0,0-.05,2.68,2.68,0,0,0,.07-.27l0-.16v0c0-.17,0-.34.07-.52Z"/><polygon class="cls-27" points="89.2 240.81 89.18 235.27 68.29 223.13 43.09 237.68 36.69 241.33 36.73 241.35 17.47 252.47 17.49 258 38.38 270.14 57.59 259.06 57.59 259.06 69.97 252 69.97 251.91 89.2 240.81"/><polygon class="cls-28" points="88.96 240.79 88.95 235.26 68.05 223.11 42.99 237.58 36.6 241.23 36.63 241.25 17.38 252.37 17.4 257.9 38.29 270.05 57.5 258.96 57.5 258.96 69.88 251.9 69.88 251.81 88.96 240.79"/><polygon class="cls-29" points="88.73 240.78 88.71 235.24 67.82 223.1 42.9 237.48 36.5 241.13 36.54 241.15 17.29 252.27 17.3 257.81 38.2 269.95 57.41 258.86 57.41 258.86 69.79 251.8 69.79 251.71 88.73 240.78"/><polygon class="cls-30" points="88.49 240.76 88.48 235.22 67.58 223.08 42.81 237.38 36.41 241.03 36.45 241.06 17.2 252.17 17.21 257.71 38.11 269.85 57.32 258.76 57.32 258.76 69.7 251.7 69.7 251.61 88.49 240.76"/><polygon class="cls-31" points="88.26 240.74 88.24 235.21 67.35 223.06 42.72 237.28 36.32 240.93 36.36 240.96 17.11 252.07 17.12 257.61 38.02 269.75 57.22 258.66 57.22 258.67 69.61 251.6 69.61 251.51 88.26 240.74"/><polygon class="cls-32" points="88.03 240.73 88.01 235.19 67.12 223.05 42.63 237.18 36.23 240.83 36.27 240.86 17.01 251.97 17.03 257.51 37.92 269.65 57.13 258.56 57.13 258.57 69.52 251.51 69.52 251.41 88.03 240.73"/><polygon class="cls-33" points="87.79 240.71 87.78 235.17 66.88 223.03 42.53 237.08 36.14 240.73 36.17 240.76 16.92 251.87 16.94 257.41 37.83 269.55 57.04 258.46 57.04 258.47 69.42 251.41 69.42 251.31 87.79 240.71"/><polygon class="cls-34" points="87.56 240.69 87.54 235.15 66.65 223.01 42.44 236.98 36.04 240.63 36.08 240.66 16.83 251.77 16.84 257.31 37.74 269.45 56.95 258.36 56.95 258.37 69.33 251.31 69.33 251.21 87.56 240.69"/><polygon class="cls-35" points="87.32 240.68 87.31 235.14 66.41 223 42.35 236.88 35.95 240.54 35.99 240.56 16.74 251.68 16.75 257.21 37.65 269.35 56.86 258.26 56.86 258.27 69.24 251.21 69.24 251.11 87.32 240.68"/><polygon class="cls-36" points="87.09 240.66 87.07 235.12 66.18 222.98 42.26 236.78 35.86 240.44 35.9 240.46 16.64 251.58 16.66 257.11 37.56 269.25 56.76 258.16 56.76 258.17 69.15 251.11 69.15 251.01 87.09 240.66"/><polygon class="cls-37" points="86.86 240.64 86.84 235.1 65.95 222.96 42.17 236.69 35.77 240.34 35.81 240.36 16.55 251.48 16.57 257.01 37.46 269.15 56.67 258.06 56.67 258.07 69.05 251.01 69.05 250.92 86.86 240.64"/><polygon class="cls-38" points="86.62 240.63 86.61 235.09 65.71 222.94 42.07 236.59 35.68 240.24 35.71 240.26 16.46 251.38 16.48 256.91 37.37 269.05 56.58 257.96 56.58 257.97 68.96 250.91 68.96 250.82 86.62 240.63"/><polygon class="cls-39" points="86.39 240.61 86.37 235.07 65.48 222.93 41.98 236.49 35.58 240.14 35.62 240.16 16.37 251.28 16.39 256.81 37.28 268.95 56.49 257.87 56.49 257.87 68.87 250.81 68.87 250.72 86.39 240.61"/><polygon class="cls-40" points="86.15 240.59 86.14 235.05 65.24 222.91 41.89 236.39 35.49 240.04 35.53 240.06 16.28 251.18 16.29 256.71 37.19 268.86 56.4 257.77 56.4 257.77 68.78 250.71 68.78 250.62 86.15 240.59"/><polygon class="cls-41" points="85.92 240.57 85.9 235.03 65.01 222.89 41.8 236.29 35.4 239.94 35.44 239.96 16.18 251.08 16.2 256.62 37.1 268.76 56.3 257.67 56.3 257.67 68.69 250.61 68.69 250.52 85.92 240.57"/><polygon class="cls-42" points="85.69 240.56 85.67 235.02 64.78 222.88 41.71 236.19 35.31 239.84 35.35 239.86 16.09 250.98 16.11 256.52 37 268.66 56.21 257.57 56.21 257.57 68.59 250.51 68.59 250.42 85.69 240.56"/><polygon class="cls-43" points="85.45 240.54 85.44 235 64.54 222.86 41.61 236.09 35.22 239.74 35.25 239.76 16 250.88 16.02 256.42 36.91 268.56 56.12 257.47 56.12 257.48 68.5 250.41 68.5 250.32 85.45 240.54"/><polygon class="cls-44" points="85.22 240.52 85.2 234.98 64.31 222.84 41.52 235.99 35.12 239.64 35.16 239.67 15.91 250.78 15.93 256.32 36.82 268.46 56.03 257.37 56.03 257.38 68.41 250.32 68.41 250.22 85.22 240.52"/><polygon class="cls-45" points="84.98 240.51 84.97 234.97 64.07 222.82 41.43 235.89 35.03 239.54 35.07 239.57 15.82 250.68 15.83 256.22 36.73 268.36 55.94 257.27 55.94 257.28 68.32 250.22 68.32 250.12 84.98 240.51"/><polygon class="cls-46" points="84.75 240.49 84.73 234.95 63.84 222.81 41.34 235.79 34.94 239.44 34.98 239.47 15.72 250.58 15.74 256.12 36.64 268.26 55.84 257.17 55.84 257.18 68.23 250.12 68.23 250.02 84.75 240.49"/><polygon class="cls-47" points="84.51 240.47 84.5 234.93 63.6 222.79 41.25 235.69 34.85 239.35 34.89 239.37 15.63 250.49 15.65 256.02 36.54 268.16 55.75 257.07 55.75 257.08 68.13 250.02 68.13 249.92 84.51 240.47"/><polygon class="cls-48" points="84.28 240.46 84.27 234.92 63.37 222.77 41.15 235.59 34.76 239.25 34.79 239.27 15.54 250.38 15.56 255.92 36.45 268.06 55.66 256.97 55.66 256.98 68.04 249.92 68.04 249.82 84.28 240.46"/><polygon class="cls-49" points="84.05 240.44 84.03 234.9 63.14 222.76 41.06 235.5 34.66 239.15 34.7 239.17 15.45 250.29 15.46 255.82 36.36 267.96 55.57 256.87 55.57 256.88 67.95 249.82 67.95 249.73 84.05 240.44"/><polygon class="cls-50" points="83.81 240.42 83.8 234.88 62.9 222.74 40.97 235.4 34.57 239.05 34.61 239.07 15.36 250.19 15.37 255.72 36.27 267.86 55.48 256.77 55.48 256.78 67.86 249.72 67.86 249.63 83.81 240.42"/><polygon class="cls-51" points="83.58 240.4 83.56 234.87 62.67 222.72 40.88 235.3 34.48 238.95 34.52 238.97 15.27 250.09 15.28 255.62 36.18 267.76 55.38 256.67 55.38 256.68 67.77 249.62 67.77 249.53 83.58 240.4"/><polygon class="cls-52" points="83.34 240.39 83.33 234.85 62.44 222.71 40.79 235.2 34.39 238.85 34.43 238.87 15.17 249.99 15.19 255.53 36.08 267.67 55.29 256.57 55.29 256.58 67.67 249.52 67.67 249.43 83.34 240.39"/><polygon class="cls-53" points="83.11 240.37 83.09 234.83 62.2 222.69 40.69 235.1 34.3 238.75 34.33 238.77 15.08 249.89 15.1 255.43 35.99 267.57 55.2 256.48 55.2 256.48 67.58 249.42 67.58 249.33 83.11 240.37"/><polygon class="cls-54" points="82.88 240.35 82.86 234.81 61.97 222.67 40.6 235 34.2 238.65 34.24 238.67 14.99 249.79 15.01 255.33 35.9 267.47 55.11 256.38 55.11 256.38 67.49 249.32 67.49 249.23 82.88 240.35"/><polygon class="cls-55" points="82.64 240.34 82.63 234.8 61.73 222.66 40.51 234.9 34.11 238.55 34.15 238.57 14.9 249.69 14.91 255.23 35.81 267.37 55.02 256.28 55.02 256.29 67.4 249.22 67.4 249.13 82.64 240.34"/><polygon class="cls-56" points="82.41 240.32 82.39 234.78 61.5 222.64 40.42 234.8 34.02 238.45 34.06 238.47 14.8 249.59 14.82 255.13 35.72 267.27 54.92 256.18 54.92 256.19 67.31 249.13 67.31 249.03 82.41 240.32"/><polygon class="cls-57" points="82.17 240.3 82.16 234.76 61.26 222.62 40.33 234.7 33.93 238.35 33.97 238.38 14.71 249.49 14.73 255.03 35.62 267.17 54.83 256.08 54.83 256.09 67.21 249.03 67.21 248.93 82.17 240.3"/><polygon class="cls-58" points="81.94 240.28 81.92 234.75 61.03 222.6 40.23 234.6 33.84 238.25 33.87 238.28 14.62 249.39 14.64 254.93 35.53 267.07 54.74 255.98 54.74 255.99 67.12 248.93 67.12 248.83 81.94 240.28"/><path class="cls-59" d="M86.33,231.94,35.52,261.28l-20.9-12.14L65.43,219.8Z"/><path class="cls-60" d="M82.84,231.94,35.53,259.25,18.12,249.14l47.31-27.31Z"/><polygon class="cls-61" points="35.52 261.28 35.53 266.81 86.34 237.48 86.33 231.94 35.52 261.28"/><polygon class="cls-62" points="14.62 249.14 14.64 254.67 35.53 266.81 35.52 261.28 14.62 249.14"/><path class="cls-63" d="M67.11,243.08l-12.38,7.06L33.84,238l12.38-7.07Z"/><path class="cls-64" d="M67.11,243.08l-12.38,7.06v5.59l12.38-7.06Z"/><path class="cls-59" d="M41.53,251.67l1.4.81-1.45.84-1.39-.8a11.45,11.45,0,0,1-5.22,1.17l-.48-1.64a10,10,0,0,0,3.76-.65L35.71,250c-2,.69-4.28,1.35-6.37.14-1.56-.9-1.66-2.38.19-3.7l-1.44-.83,1.46-.85,1.47.85a11.26,11.26,0,0,1,4.48-1l.39,1.63a9.07,9.07,0,0,0-2.9.53L35.16,248c2-.68,4.36-1.35,6.46-.14C43.33,248.83,43.53,250.23,41.53,251.67Zm-4-2.31,2.06,1.19c.6-.52.54-1,.06-1.28a2.86,2.86,0,0,0-2.12.09Zm-6.17-.63a2.55,2.55,0,0,0,1.95-.12l-1.88-1.08c-.59.45-.59.89-.07,1.2Z"/><path class="cls-59" d="M72.28,230.6,73,231l-.7.41-.66-.39a5.54,5.54,0,0,1-2.5.57l-.23-.79a4.84,4.84,0,0,0,1.8-.31l-1.17-.67a3.61,3.61,0,0,1-3,.06c-.75-.43-.8-1.14.09-1.77l-.69-.4.7-.41.7.41a5.37,5.37,0,0,1,2.15-.49l.19.78a4.58,4.58,0,0,0-1.39.26l1,.6a3.67,3.67,0,0,1,3.09-.07C73.14,229.24,73.24,229.91,72.28,230.6Zm-1.91-1.11,1,.57c.29-.25.26-.48,0-.61a1.37,1.37,0,0,0-1,0Zm-3-.3a1.26,1.26,0,0,0,.94-.06l-.9-.52c-.29.22-.29.44,0,.58Z"/><path class="cls-59" d="M85.17,223.55,34.35,252.89,13.46,240.75l50.81-29.34Z"/><path class="cls-60" d="M81.67,223.55l-47.3,27.32L17,240.75l47.3-27.31Z"/><polygon class="cls-61" points="34.35 252.89 34.37 258.43 85.18 229.09 85.17 223.56 34.35 252.89"/><polygon class="cls-62" points="13.46 240.75 13.47 246.29 34.37 258.43 34.35 252.89 13.46 240.75"/><path class="cls-63" d="M66,234.69l-12.38,7.06-20.9-12.14,12.39-7.06Z"/><path class="cls-64" d="M66,234.69l-12.38,7.06v5.59L66,240.29Z"/><path class="cls-59" d="M40.37,243.28l1.4.81-1.45.85-1.39-.81a11.6,11.6,0,0,1-5.22,1.18l-.48-1.65A9.78,9.78,0,0,0,37,243l-2.44-1.41c-2,.69-4.28,1.35-6.38.14-1.55-.89-1.65-2.38.2-3.7l-1.44-.83,1.46-.85,1.46.85a11.48,11.48,0,0,1,4.49-1l.39,1.63a9.65,9.65,0,0,0-2.9.53L34,239.6c2-.68,4.36-1.35,6.46-.14C42.17,240.45,42.37,241.85,40.37,243.28Zm-4-2.3,2.06,1.19c.6-.53.53-1,.06-1.28a2.77,2.77,0,0,0-2.12.09Zm-6.17-.64a2.59,2.59,0,0,0,1.95-.11l-1.88-1.09c-.6.46-.59.9-.07,1.2Z"/><path class="cls-59" d="M71.12,222.21l.67.39-.7.41-.66-.39a5.52,5.52,0,0,1-2.5.56l-.23-.79a4.68,4.68,0,0,0,1.8-.31l-1.17-.67a3.61,3.61,0,0,1-3,.06c-.75-.43-.8-1.14.09-1.77l-.69-.4.7-.41.7.41a5.54,5.54,0,0,1,2.15-.49l.19.79a4.3,4.3,0,0,0-1.39.25l1,.6a3.66,3.66,0,0,1,3.09-.07C72,220.85,72.08,221.52,71.12,222.21Zm-1.92-1.1,1,.57c.29-.26.26-.48,0-.62a1.36,1.36,0,0,0-1,.05Zm-3-.31a1.27,1.27,0,0,0,.93-.05l-.89-.52c-.29.21-.29.43,0,.57Z"/><path class="cls-59" d="M84.81,215.59,34,244.92,13.1,232.78l50.82-29.34Z"/><path class="cls-60" d="M81.32,215.59,34,242.9,16.6,232.78l47.31-27.31Z"/><polygon class="cls-61" points="34 244.92 34.01 250.46 84.83 221.12 84.81 215.59 34 244.92"/><polygon class="cls-62" points="13.1 232.78 13.12 238.32 34.01 250.46 34 244.92 13.1 232.78"/><path class="cls-63" d="M65.6,226.72l-12.39,7.07L32.32,221.64l12.38-7.06Z"/><path class="cls-64" d="M65.6,226.72l-12.39,7.07v5.58l12.39-7.06Z"/><path class="cls-59" d="M40,235.31l1.41.81L40,237l-1.39-.81a11.56,11.56,0,0,1-5.21,1.18l-.49-1.65a9.72,9.72,0,0,0,3.76-.65l-2.43-1.4c-2,.68-4.29,1.34-6.38.13-1.56-.9-1.66-2.38.2-3.7l-1.44-.83,1.45-.85,1.47.85a11.47,11.47,0,0,1,4.48-1l.4,1.63a9.66,9.66,0,0,0-2.91.53l2.17,1.25c2-.68,4.36-1.35,6.46-.14C41.81,232.48,42,233.88,40,235.31ZM36,233l2.07,1.19c.59-.53.53-1,0-1.28A2.77,2.77,0,0,0,36,233Zm-6.17-.64a2.62,2.62,0,0,0,2-.11l-1.88-1.09c-.6.46-.6.9-.08,1.2Z"/><path class="cls-59" d="M70.76,214.24l.67.39-.69.4-.67-.38a5.52,5.52,0,0,1-2.5.56l-.23-.79a4.65,4.65,0,0,0,1.8-.31L68,213.44a3.63,3.63,0,0,1-3.06.06c-.74-.43-.79-1.14.09-1.77l-.68-.4.69-.4.71.4a5.68,5.68,0,0,1,2.14-.49l.19.78a4.58,4.58,0,0,0-1.39.26l1,.6a3.67,3.67,0,0,1,3.09-.07C71.62,212.88,71.72,213.55,70.76,214.24Zm-1.91-1.11,1,.58c.28-.26.25-.48,0-.62a1.37,1.37,0,0,0-1,0Zm-2.95-.3a1.22,1.22,0,0,0,.93-.05l-.9-.52c-.28.21-.28.43,0,.57Z"/><g class="cls-65"><polygon class="cls-27" points="117.07 271.76 117.06 266.22 96.16 254.08 70.96 268.63 64.56 272.28 64.6 272.3 45.35 283.42 45.37 288.95 66.26 301.1 85.47 290 85.47 290.01 97.85 282.95 97.85 282.86 117.07 271.76"/><polygon class="cls-28" points="116.23 271.74 116.21 266.2 95.32 254.06 70.26 268.53 63.86 272.18 63.9 272.2 44.65 283.32 44.66 288.86 65.56 301 84.77 289.91 84.77 289.91 97.15 282.85 97.15 282.76 116.23 271.74"/><polygon class="cls-29" points="115.39 271.73 115.37 266.19 94.48 254.04 69.56 268.43 63.16 272.08 63.2 272.1 43.95 283.22 43.96 288.76 64.86 300.9 84.07 289.81 84.07 289.81 96.45 282.75 96.45 282.66 115.39 271.73"/><polygon class="cls-30" points="114.54 271.71 114.53 266.17 93.64 254.03 68.86 268.33 62.46 271.98 62.5 272 43.25 283.12 43.26 288.66 64.16 300.8 83.37 289.71 83.37 289.71 95.75 282.65 95.75 282.56 114.54 271.71"/><polygon class="cls-31" points="113.7 271.69 113.69 266.15 92.79 254.01 68.16 268.23 61.76 271.88 61.8 271.9 42.55 283.02 42.56 288.56 63.46 300.7 82.67 289.61 82.67 289.62 95.05 282.55 95.05 282.46 113.7 271.69"/><polygon class="cls-32" points="112.86 271.68 112.84 266.14 91.95 253.99 67.46 268.13 61.06 271.78 61.1 271.81 41.85 282.92 41.86 288.46 62.76 300.6 81.97 289.51 81.97 289.52 94.35 282.45 94.35 282.36 112.86 271.68"/><polygon class="cls-33" points="112.02 271.66 112 266.12 91.11 253.98 66.76 268.03 60.36 271.68 60.4 271.7 41.15 282.82 41.16 288.36 62.06 300.5 81.27 289.41 81.27 289.42 93.65 282.36 93.65 282.26 112.02 271.66"/><polygon class="cls-34" points="111.17 271.64 111.16 266.1 90.27 253.96 66.06 267.94 59.66 271.58 59.7 271.61 40.45 282.72 40.46 288.26 61.36 300.4 80.56 289.31 80.56 289.32 92.95 282.26 92.95 282.16 111.17 271.64"/><polygon class="cls-35" points="110.33 271.63 110.32 266.09 89.42 253.94 65.36 267.83 58.96 271.49 59 271.51 39.75 282.63 39.76 288.16 60.66 300.3 79.86 289.21 79.86 289.22 92.25 282.16 92.25 282.06 110.33 271.63"/><polygon class="cls-36" points="109.49 271.61 109.47 266.07 88.58 253.93 64.66 267.74 58.26 271.39 58.3 271.41 39.05 282.52 39.06 288.06 59.96 300.2 79.17 289.11 79.17 289.12 91.55 282.06 91.55 281.96 109.49 271.61"/><polygon class="cls-37" points="108.65 271.59 108.63 266.05 87.74 253.91 63.96 267.64 57.56 271.29 57.6 271.31 38.34 282.43 38.36 287.96 59.26 300.1 78.46 289.01 78.46 289.02 90.85 281.96 90.85 281.87 108.65 271.59"/><polygon class="cls-38" points="107.81 271.57 107.79 266.04 86.9 253.89 63.26 267.54 56.86 271.19 56.9 271.21 37.65 282.33 37.66 287.86 58.56 300 77.76 288.91 77.76 288.92 90.15 281.86 90.15 281.77 107.81 271.57"/><polygon class="cls-39" points="106.96 271.56 106.95 266.02 86.05 253.88 62.56 267.44 56.16 271.09 56.2 271.11 36.95 282.23 36.96 287.76 57.85 299.9 77.06 288.81 77.06 288.82 89.45 281.76 89.45 281.67 106.96 271.56"/><polygon class="cls-40" points="106.12 271.54 106.11 266 85.21 253.86 61.86 267.34 55.46 270.99 55.5 271.01 36.24 282.13 36.26 287.67 57.16 299.81 76.36 288.71 76.36 288.72 88.75 281.66 88.75 281.57 106.12 271.54"/><polygon class="cls-41" points="105.28 271.52 105.26 265.99 84.37 253.84 61.16 267.24 54.76 270.89 54.8 270.91 35.54 282.03 35.56 287.57 56.45 299.71 75.66 288.62 75.66 288.62 88.05 281.56 88.05 281.47 105.28 271.52"/><polygon class="cls-42" points="104.44 271.51 104.42 265.97 83.53 253.82 60.46 267.14 54.06 270.79 54.1 270.81 34.84 281.93 34.86 287.47 55.75 299.61 74.96 288.52 74.96 288.52 87.34 281.46 87.34 281.37 104.44 271.51"/><polygon class="cls-43" points="103.59 271.49 103.58 265.95 82.68 253.81 59.76 267.04 53.36 270.69 53.4 270.71 34.14 281.83 34.16 287.37 55.05 299.51 74.26 288.42 74.26 288.43 86.64 281.36 86.64 281.27 103.59 271.49"/><polygon class="cls-44" points="102.75 271.47 102.74 265.93 81.84 253.79 59.06 266.94 52.66 270.59 52.7 270.61 33.44 281.73 33.46 287.27 54.35 299.41 73.56 288.32 73.56 288.33 85.94 281.26 85.94 281.17 102.75 271.47"/><polygon class="cls-45" points="101.91 271.45 101.89 265.92 81 253.77 58.36 266.84 51.96 270.49 52 270.51 32.74 281.63 32.76 287.17 53.65 299.31 72.86 288.22 72.86 288.23 85.24 281.17 85.24 281.07 101.91 271.45"/><polygon class="cls-46" points="101.07 271.44 101.05 265.9 80.16 253.76 57.66 266.75 51.26 270.39 51.3 270.42 32.04 281.53 32.06 287.07 52.95 299.21 72.16 288.12 72.16 288.13 84.54 281.07 84.54 280.97 101.07 271.44"/><polygon class="cls-47" points="100.22 271.42 100.21 265.88 79.31 253.74 56.95 266.64 50.56 270.29 50.59 270.32 31.34 281.43 31.36 286.97 52.25 299.11 71.46 288.02 71.46 288.03 83.84 280.97 83.84 280.87 100.22 271.42"/><polygon class="cls-48" points="99.38 271.4 99.37 265.87 78.47 253.72 56.26 266.55 49.86 270.19 49.9 270.22 30.64 281.33 30.66 286.87 51.55 299.01 70.76 287.92 70.76 287.93 83.14 280.87 83.14 280.77 99.38 271.4"/><polygon class="cls-49" points="98.54 271.39 98.52 265.85 77.63 253.71 55.55 266.45 49.16 270.1 49.2 270.12 29.94 281.24 29.96 286.77 50.85 298.91 70.06 287.82 70.06 287.83 82.44 280.77 82.44 280.68 98.54 271.39"/><polygon class="cls-50" points="97.7 271.37 97.68 265.83 76.79 253.69 54.85 266.35 48.46 270 48.49 270.02 29.24 281.14 29.26 286.67 50.15 298.81 69.36 287.72 69.36 287.73 81.74 280.67 81.74 280.58 97.7 271.37"/><polygon class="cls-51" points="96.86 271.35 96.84 265.82 75.94 253.67 54.15 266.25 47.76 269.9 47.79 269.92 28.54 281.04 28.56 286.57 49.45 298.71 68.66 287.63 68.66 287.63 81.04 280.57 81.04 280.48 96.86 271.35"/><polygon class="cls-52" points="96.01 271.34 96 265.8 75.1 253.66 53.45 266.15 47.06 269.8 47.09 269.82 27.84 280.94 27.86 286.47 48.75 298.62 67.96 287.52 67.96 287.53 80.34 280.47 80.34 280.38 96.01 271.34"/><polygon class="cls-53" points="95.17 271.32 95.16 265.78 74.26 253.64 52.75 266.05 46.36 269.7 46.39 269.72 27.14 280.84 27.16 286.37 48.05 298.51 67.26 287.43 67.26 287.43 79.64 280.37 79.64 280.28 95.17 271.32"/><polygon class="cls-54" points="94.33 271.3 94.31 265.76 73.42 253.62 52.05 265.95 45.66 269.6 45.69 269.62 26.44 280.74 26.46 286.27 47.35 298.42 66.56 287.33 66.56 287.33 78.94 280.27 78.94 280.18 94.33 271.3"/><polygon class="cls-55" points="93.48 271.29 93.47 265.75 72.58 253.6 51.35 265.85 44.95 269.5 44.99 269.52 25.74 280.64 25.76 286.18 46.65 298.32 65.86 287.23 65.86 287.23 78.24 280.17 78.24 280.08 93.48 271.29"/><polygon class="cls-56" points="92.64 271.27 92.63 265.73 71.73 253.59 50.65 265.75 44.26 269.4 44.29 269.42 25.04 280.54 25.06 286.08 45.95 298.22 65.16 287.13 65.16 287.13 77.54 280.07 77.54 279.98 92.64 271.27"/><polygon class="cls-57" points="91.8 271.25 91.78 265.71 70.89 253.57 49.95 265.65 43.55 269.3 43.59 269.32 24.34 280.44 24.36 285.98 45.25 298.12 64.46 287.03 64.46 287.04 76.84 279.98 76.84 279.88 91.8 271.25"/><polygon class="cls-58" points="90.96 271.24 90.94 265.7 70.05 253.55 49.25 265.56 42.85 269.2 42.89 269.23 23.64 280.34 23.66 285.88 44.55 298.02 63.76 286.93 63.76 286.94 76.14 279.88 76.14 279.78 90.96 271.24"/></g><path class="cls-59" d="M95.35,262.89,44.53,292.23,23.64,280.09l50.81-29.34Z"/><path class="cls-60" d="M91.86,262.89,44.55,290.2,27.14,280.09l47.3-27.32Z"/><polygon class="cls-61" points="44.53 292.23 44.55 297.76 95.36 268.43 95.35 262.89 44.53 292.23"/><polygon class="cls-62" points="23.64 280.09 23.66 285.62 44.55 297.76 44.53 292.23 23.64 280.09"/><path class="cls-63" d="M76.13,274l-12.38,7.06L42.85,269l12.38-7.07Z"/><path class="cls-64" d="M76.13,274l-12.38,7.06v5.59l12.38-7.06Z"/><path class="cls-59" d="M50.55,282.62l1.4.81-1.45.84-1.39-.8a11.58,11.58,0,0,1-5.22,1.17L43.41,283a9.8,9.8,0,0,0,3.76-.66l-2.44-1.4c-2,.69-4.28,1.35-6.37.14-1.56-.9-1.66-2.38.19-3.71l-1.44-.82,1.46-.85,1.47.85a11.26,11.26,0,0,1,4.48-1l.39,1.63a9.07,9.07,0,0,0-2.9.53l2.17,1.25c2-.68,4.36-1.35,6.46-.15C52.35,279.78,52.55,281.18,50.55,282.62Zm-4-2.31,2.06,1.19c.6-.52.53-1,.06-1.28a2.86,2.86,0,0,0-2.12.09Zm-6.17-.63a2.55,2.55,0,0,0,2-.12l-1.88-1.08c-.59.45-.59.89-.07,1.2Z"/><path class="cls-59" d="M81.3,261.54l.67.39-.7.41-.66-.39a5.67,5.67,0,0,1-2.5.57l-.23-.79a4.88,4.88,0,0,0,1.8-.31l-1.17-.68a3.58,3.58,0,0,1-3.05.07c-.75-.43-.8-1.14.09-1.78l-.69-.39.7-.41.7.41a5.37,5.37,0,0,1,2.15-.49l.19.78a4.3,4.3,0,0,0-1.39.26l1,.6a3.7,3.7,0,0,1,3.09-.08C82.16,260.19,82.25,260.86,81.3,261.54Zm-1.92-1.1,1,.57c.29-.25.26-.48,0-.61a1.4,1.4,0,0,0-1,0Zm-2.95-.3a1.26,1.26,0,0,0,.94-.06l-.9-.52c-.29.22-.29.44,0,.58Z"/><path class="cls-59" d="M94,255.69,43.16,285,22.27,272.89l50.81-29.34Z"/><path class="cls-60" d="M90.48,255.69,43.18,283,25.76,272.89l47.31-27.32Z"/><polygon class="cls-61" points="43.16 285.03 43.18 290.56 93.99 261.23 93.97 255.69 43.16 285.03"/><polygon class="cls-62" points="22.27 272.89 22.28 278.42 43.18 290.56 43.16 285.03 22.27 272.89"/><path class="cls-63" d="M74.76,266.83l-12.38,7.06-20.9-12.14,12.38-7.07Z"/><path class="cls-64" d="M74.76,266.83l-12.38,7.06v5.59l12.38-7.06Z"/><path class="cls-59" d="M49.18,275.42l1.4.81-1.45.84-1.39-.8a11.58,11.58,0,0,1-5.22,1.17L42,275.8a9.72,9.72,0,0,0,3.75-.66l-2.43-1.4c-2,.69-4.28,1.35-6.38.14-1.55-.9-1.66-2.38.2-3.71l-1.44-.83,1.45-.84,1.47.84a11.3,11.3,0,0,1,4.49-1l.39,1.63a9.07,9.07,0,0,0-2.9.53l2.17,1.25c2-.68,4.36-1.35,6.45-.15C51,272.58,51.18,274,49.18,275.42Zm-4-2.31,2.07,1.19c.6-.53.53-1,0-1.28a2.86,2.86,0,0,0-2.12.09ZM39,272.48a2.6,2.6,0,0,0,1.95-.12l-1.88-1.08c-.6.45-.59.89-.07,1.2Z"/><path class="cls-59" d="M79.92,254.34l.68.39-.7.41-.66-.39a5.67,5.67,0,0,1-2.5.57l-.24-.79a4.81,4.81,0,0,0,1.8-.31l-1.16-.68a3.58,3.58,0,0,1-3,.07c-.75-.43-.8-1.14.09-1.77l-.69-.4.7-.41.7.41A5.37,5.37,0,0,1,77,251l.18.78a4.7,4.7,0,0,0-1.39.25l1,.6a3.76,3.76,0,0,1,3.1-.07C80.79,253,80.88,253.66,79.92,254.34ZM78,253.24l1,.57c.29-.25.26-.48,0-.61a1.4,1.4,0,0,0-1,0Zm-3-.3a1.23,1.23,0,0,0,.93-.06l-.9-.52c-.28.22-.28.44,0,.58Z"/><path class="cls-59" d="M93.33,247.89,42.52,277.23l-20.9-12.14,50.82-29.34Z"/><path class="cls-60" d="M89.84,247.89,42.53,275.2,25.12,265.09l47.31-27.32Z"/><polygon class="cls-61" points="42.52 277.23 42.53 282.76 93.35 253.43 93.33 247.89 42.52 277.23"/><polygon class="cls-62" points="21.62 265.09 21.64 270.62 42.53 282.76 42.52 277.23 21.62 265.09"/><path class="cls-63" d="M74.12,259l-12.39,7.06L40.84,254l12.38-7.07Z"/><path class="cls-64" d="M74.12,259l-12.39,7.06v5.59l12.39-7.06Z"/><path class="cls-59" d="M48.53,267.62l1.41.8-1.46.85-1.39-.8a11.54,11.54,0,0,1-5.21,1.17L41.39,268a9.55,9.55,0,0,0,3.76-.66l-2.43-1.4c-2,.69-4.29,1.35-6.38.14-1.56-.9-1.66-2.38.2-3.71l-1.44-.83,1.45-.84,1.47.84a11.47,11.47,0,0,1,4.48-1l.4,1.64a9.36,9.36,0,0,0-2.91.52l2.17,1.26c2-.69,4.36-1.35,6.46-.15C50.33,264.78,50.54,266.18,48.53,267.62Zm-4-2.31,2.07,1.19c.6-.53.53-1,0-1.28a2.86,2.86,0,0,0-2.12.09Zm-6.17-.63a2.63,2.63,0,0,0,2-.12l-1.88-1.09c-.6.46-.6.9-.08,1.21Z"/><path class="cls-59" d="M79.28,246.54l.67.39-.69.41-.67-.39a5.49,5.49,0,0,1-2.5.56l-.23-.78a4.83,4.83,0,0,0,1.8-.32l-1.16-.67a3.6,3.6,0,0,1-3.06.07c-.74-.43-.79-1.14.1-1.78l-.69-.39.7-.41.7.41a5.32,5.32,0,0,1,2.14-.49l.19.78a4.58,4.58,0,0,0-1.39.25l1,.6a3.7,3.7,0,0,1,3.09-.07C80.14,245.19,80.24,245.86,79.28,246.54Zm-1.91-1.1,1,.57c.28-.25.25-.48,0-.61a1.35,1.35,0,0,0-1,0Zm-3-.3a1.23,1.23,0,0,0,.93-.06l-.9-.52c-.28.22-.28.43,0,.58Z"/></g></g></g></svg>