<svg width="141" height="237" viewBox="0 0 141 237" fill="none" xmlns="http://www.w3.org/2000/svg">
<path fill-rule="evenodd" clip-rule="evenodd" d="M14.8299 235.05H14.8899L126.27 170.8C130.88 168.15 134.64 161.62 134.64 156.26L134.7 34.79L109.48 15.3501C112.378 19.1819 114.352 23.6306 115.25 28.3501V56.84L104.62 50.7V29.56C104.81 19.86 93.8899 7.61004 78.8499 15.23L21.0499 48.61C18.5191 50.244 16.4131 52.4562 14.9056 55.0643C13.3982 57.6724 12.5324 60.6015 12.3799 63.61V229.5C12.5799 232.17 12.6799 233.31 14.8299 235.05Z" fill="#6FA3C6"/>
<path fill-rule="evenodd" clip-rule="evenodd" d="M88.0698 14.61C85.1284 14.6649 82.2422 15.419 79.6498 16.81L21.8998 50.15C19.6448 51.6418 17.7686 53.6386 16.4198 55.982C15.0711 58.3254 14.287 60.9508 14.1298 63.65V229.48C14.3198 231.31 14.3698 232.05 15.1298 232.9L125.41 169.3C129.47 166.95 132.93 161 132.93 156.3L133 35.7L115.3 22.1C116.083 24.037 116.673 26.0468 117.06 28.1V56.91C117.067 57.2201 116.991 57.5263 116.839 57.7971C116.688 58.0678 116.467 58.2932 116.2 58.45C115.921 58.6023 115.608 58.6821 115.29 58.6821C114.972 58.6821 114.659 58.6023 114.38 58.45L103.76 52.31C103.488 52.1544 103.262 51.9303 103.104 51.6601C102.946 51.3899 102.862 51.083 102.86 50.77V29.56C103.02 24.78 99.9998 19.56 95.6498 16.81C93.4033 15.3684 90.7891 14.6046 88.1198 14.61H88.0698ZM14.8898 236.85C14.5689 236.866 14.2509 236.782 13.9798 236.61C13.8768 236.555 13.7767 236.495 13.6798 236.43C10.9798 234.18 10.8298 232.38 10.5698 229.65L10.6298 63.59C10.7724 60.2825 11.7069 57.0576 13.3548 54.1864C15.0027 51.3151 17.3159 48.8815 20.0998 47.09L77.9998 13.68C84.9998 10.18 91.8798 10.23 97.5498 13.8C103.02 17.24 106.55 23.6 106.42 29.61V49.75L113.54 53.83V28.43C112.64 24.0702 110.771 19.9688 108.07 16.43C107.826 16.0804 107.714 15.6561 107.752 15.2317C107.79 14.8074 107.977 14.4101 108.28 14.11C108.575 13.8033 108.974 13.6172 109.399 13.5876C109.824 13.558 110.245 13.6872 110.58 13.95L135.84 33.39C136.062 33.5519 136.242 33.7641 136.365 34.0093C136.488 34.2545 136.552 34.5255 136.55 34.8L136.5 156.27C136.5 162.27 132.38 169.35 127.17 172.34L15.7398 236.61C15.487 236.773 15.1908 236.857 14.8898 236.85V236.85Z" fill="white"/>
<path fill-rule="evenodd" clip-rule="evenodd" d="M115.25 56.92L130.79 47.92C138.45 43.75 142.67 40.06 134.94 34.05L102.15 8.5L115.25 28.43V56.92Z" fill="#6FA3C6"/>
<path fill-rule="evenodd" clip-rule="evenodd" d="M109.53 16.5102L116.75 27.4502C116.949 27.7455 117.053 28.0942 117.05 28.4502V53.8502L129.92 46.4402C133.27 44.5902 137.14 42.2302 137.3 40.1302C137.45 38.5702 135.53 36.7502 133.88 35.4802L109.57 16.4802L109.53 16.5102ZM115.25 58.7002C114.929 58.6892 114.615 58.6073 114.33 58.4602C114.068 58.2994 113.852 58.0726 113.705 57.8023C113.557 57.5321 113.483 57.228 113.49 56.9202V29.0002L100.66 9.51023C100.436 9.15429 100.344 8.73068 100.401 8.31377C100.458 7.89686 100.659 7.5133 100.971 7.23044C101.282 6.94758 101.684 6.7835 102.104 6.767C102.525 6.7505 102.937 6.88265 103.27 7.14023L136 32.6602C139.41 35.3202 141 37.8402 140.77 40.4002C140.46 43.9702 136.92 46.6102 131.59 49.5002L116.11 58.5002C115.841 58.6283 115.548 58.6965 115.25 58.7002V58.7002Z" fill="white"/>
<path fill-rule="evenodd" clip-rule="evenodd" d="M14.8902 235.09L5.0002 229.36C2.8402 227.59 2.6902 226.47 2.4502 223.75L2.5002 57.8699C2.66154 54.8635 3.53097 51.9377 5.03764 49.331C6.54431 46.7243 8.64559 44.5104 11.1702 42.8699L72.2802 7.59994C81.3402 2.49994 86.2802 -0.0600657 97.0002 5.04993C105.61 9.18993 113.38 17.8299 115.29 28.4199V56.9099L104.66 50.7699V29.5599C104.85 19.8599 93.9302 7.60993 78.8902 15.2299L21.0902 48.6099C18.5594 50.2439 16.4534 52.4561 14.946 55.0642C13.4385 57.6723 12.5728 60.6014 12.4202 63.6099V229.5C12.5802 232.2 12.6802 233.31 14.8902 235.09Z" fill="#6FA3C6"/>
<path fill-rule="evenodd" clip-rule="evenodd" d="M86.7199 4.05017C82.4699 4.05017 78.7199 5.99016 73.1299 9.15016L11.9999 44.4202C9.73444 45.9065 7.85 47.9045 6.4986 50.2529C5.14719 52.6014 4.36665 55.2346 4.21991 57.9402L4.16991 223.75C4.36991 226.13 4.41991 226.65 6.02991 227.99L10.6399 230.62C10.584 230.289 10.5505 229.955 10.5399 229.62L10.5999 63.5602C10.7425 60.2527 11.677 57.0278 13.3249 54.1565C14.9728 51.2853 17.286 48.8516 20.0699 47.0602L77.9999 13.6802C84.9999 10.1802 91.8799 10.2302 97.5499 13.8002C103.02 17.2402 106.55 23.6002 106.42 29.6102V49.7502L113.54 53.8302V28.4302C111.89 19.5802 105.07 10.9002 96.1899 6.66017C92.4399 4.84017 89.4799 4.05017 86.7699 4.05017H86.7199ZM14.8899 236.85C14.569 236.866 14.251 236.783 13.9799 236.61L4.05991 230.9C1.19991 228.56 0.939902 226.9 0.649902 223.9V57.9002C0.802128 54.5976 1.74089 51.3792 3.38808 48.5127C5.03526 45.6462 7.34323 43.2146 10.1199 41.4202L71.2799 6.10018C80.1099 1.10018 85.9199 -2.11983 97.6499 3.48017C107.65 8.27017 115.1 17.7302 116.96 28.1402V56.9502C116.967 57.2602 116.891 57.5665 116.74 57.8372C116.588 58.108 116.367 58.3334 116.1 58.4902C115.821 58.6425 115.508 58.7223 115.19 58.7223C114.872 58.7223 114.559 58.6425 114.28 58.4902L103.66 52.3502C103.388 52.1946 103.162 51.9705 103.004 51.7003C102.847 51.43 102.762 51.1231 102.76 50.8102V29.5602C102.92 24.7802 99.8999 19.5602 95.5499 16.8102C92.3399 14.7602 86.9199 13.1102 79.5499 16.8102L21.8999 50.1502C19.6373 51.6339 17.7551 53.6288 16.4054 55.9738C15.0557 58.3189 14.2763 60.9484 14.1299 63.6502V229.48C14.3699 231.85 14.4299 232.38 16.0299 233.71C16.3112 233.94 16.5149 234.251 16.6132 234.601C16.7116 234.951 16.6999 235.323 16.5798 235.665C16.4597 236.008 16.2369 236.306 15.9417 236.518C15.6465 236.73 15.2933 236.846 14.9299 236.85H14.8899Z" fill="white"/>
<path fill-rule="evenodd" clip-rule="evenodd" d="M31.4802 161C31.1712 161.004 30.867 160.923 30.6008 160.766C30.3346 160.609 30.1165 160.382 29.9702 160.11C29.8528 159.908 29.7767 159.685 29.7464 159.454C29.716 159.222 29.732 158.987 29.7935 158.762C29.8549 158.537 29.9605 158.326 30.1041 158.142C30.2478 157.958 30.4266 157.804 30.6302 157.69L114.63 109.17C115.037 108.976 115.502 108.944 115.931 109.079C116.361 109.215 116.723 109.508 116.945 109.9C117.167 110.292 117.232 110.753 117.127 111.191C117.022 111.629 116.755 112.011 116.38 112.26L32.3802 160.76C32.1104 160.927 31.7973 161.011 31.4802 161V161Z" fill="white"/>
<path fill-rule="evenodd" clip-rule="evenodd" d="M40.8001 191.78C40.4089 191.777 40.0293 191.646 39.7194 191.407C39.4096 191.169 39.1865 190.835 39.0845 190.457C38.9824 190.079 39.0069 189.678 39.1542 189.316C39.3015 188.954 39.5635 188.649 39.9001 188.45L105.37 150.68C105.773 150.447 106.252 150.384 106.702 150.504C107.152 150.624 107.536 150.917 107.77 151.32C108.007 151.729 108.073 152.215 107.953 152.672C107.833 153.129 107.537 153.52 107.13 153.76L41.7001 191.54C41.4257 191.696 41.1157 191.778 40.8001 191.78Z" fill="white"/>
<path fill-rule="evenodd" clip-rule="evenodd" d="M31.4801 178.5C31.1727 178.502 30.8706 178.421 30.605 178.266C30.3394 178.111 30.1202 177.888 29.9701 177.62C29.8538 177.417 29.7786 177.193 29.7489 176.961C29.7191 176.729 29.7353 176.494 29.7966 176.268C29.8579 176.043 29.9631 175.831 30.1061 175.646C30.2491 175.461 30.4272 175.306 30.6301 175.19L114.63 126.68C115.039 126.448 115.522 126.388 115.975 126.512C116.428 126.637 116.813 126.937 117.045 127.345C117.277 127.753 117.337 128.237 117.213 128.69C117.088 129.143 116.789 129.528 116.38 129.76L32.3801 178.27C32.1057 178.425 31.7952 178.504 31.4801 178.5V178.5Z" fill="white"/>
<path fill-rule="evenodd" clip-rule="evenodd" d="M81.6001 74.1402C83.8394 70.4766 85.0837 66.2921 85.2101 62.0002C85.2101 58.0702 83.8701 55.3202 81.6001 54.0002C79.3301 52.6802 76.3001 52.9002 72.9301 54.8702C69.2826 57.134 66.2795 60.299 64.2101 64.0602C61.999 67.7326 60.7568 71.9064 60.6001 76.1902C60.6001 80.1002 62.0001 82.8602 64.2101 84.1902C69.0001 87.0002 76.8001 82.4702 81.6001 74.1402Z" fill="#6FA3C6"/>
<path fill-rule="evenodd" clip-rule="evenodd" d="M78.3998 55.0001C76.7644 55.0806 75.177 55.5799 73.7899 56.4501C70.491 58.6443 67.7438 61.5712 65.7628 65.0023C63.7818 68.4335 62.6206 72.2761 62.3698 76.2301C62.3698 79.3601 63.3698 81.6401 65.1098 82.6601C68.9698 84.9001 75.8398 80.5901 80.1098 73.2501C82.159 69.8433 83.3115 65.9729 83.4598 62.0001C83.4598 58.8701 82.5099 56.5901 80.7599 55.5801C80.0381 55.181 79.2245 54.9777 78.3998 54.9901V55.0001ZM67.3998 86.7901C65.96 86.8084 64.5413 86.4425 63.2898 85.7301C60.3898 84.0601 58.8398 80.7301 58.8398 76.2301C59.0416 71.6441 60.3424 67.1738 62.6326 63.1955C64.9228 59.2172 68.1354 55.8475 71.9998 53.3701C75.8498 51.1301 79.5698 50.8301 82.4698 52.5001C85.3698 54.1701 86.9998 57.5501 86.9998 62.0001C86.8344 66.5917 85.5026 71.0656 83.1299 75.0001C78.9999 82.3301 72.6899 86.7901 67.4099 86.7901H67.3998Z" fill="white"/>
<path fill-rule="evenodd" clip-rule="evenodd" d="M89.0699 84.0699C80.1599 78.9399 65.7199 87.2799 56.7899 102.69C53.0554 108.983 50.7923 116.039 50.1699 123.33L95.6899 97.0699C95.2899 90.7199 92.8299 86.2399 89.0699 84.0699Z" fill="#6FA3C6"/>
<path fill-rule="evenodd" clip-rule="evenodd" d="M83.2002 84.3398C75.3302 84.3398 65.0602 91.9598 58.3502 103.56C55.3675 108.64 53.3344 114.221 52.3502 120.03L93.8502 96.0798C93.3002 91.0798 91.3402 87.4198 88.1902 85.6098C86.6634 84.7573 84.9387 84.3227 83.1902 84.3498L83.2002 84.3398ZM50.2002 125.09C49.8821 125.097 49.5689 125.01 49.3002 124.84C49.0274 124.67 48.8049 124.43 48.6555 124.145C48.5061 123.86 48.4352 123.541 48.4502 123.22C49.0779 115.648 51.4314 108.321 55.3302 101.8C64.8402 85.2798 80.0902 76.7998 89.9602 82.5298C94.4202 85.0798 97.0802 90.2198 97.4802 96.9398C97.5042 97.2676 97.4364 97.5955 97.2845 97.8869C97.1326 98.1783 96.9026 98.4217 96.6202 98.5898L51.1102 124.86C50.8221 125.017 50.4982 125.096 50.1702 125.09H50.2002Z" fill="white"/>
</svg>
