<svg width="229" height="207" viewBox="0 0 229 207" fill="none" xmlns="http://www.w3.org/2000/svg">
<path fill-rule="evenodd" clip-rule="evenodd" d="M226.93 132.38V138.65C226.791 139.404 226.399 140.088 225.82 140.59C225.377 140.984 224.906 141.345 224.41 141.67L118.72 202.67C116.692 203.7 114.449 204.237 112.175 204.237C109.9 204.237 107.658 203.7 105.63 202.67L7.99982 146.18C6.83463 145.62 5.93147 144.631 5.47981 143.42L5.31982 143.17V136.91C5.80486 138.211 6.76154 139.282 7.99982 139.91L105.65 196.38C107.679 197.406 109.921 197.94 112.195 197.94C114.469 197.94 116.711 197.406 118.74 196.38L224.43 135.38C225.038 135.09 225.577 134.672 226.008 134.154C226.44 133.636 226.754 133.031 226.93 132.38V132.38Z" fill="#6FA3C6"/>
<path fill-rule="evenodd" clip-rule="evenodd" d="M7.20012 142.83C7.53806 143.609 8.15518 144.233 8.93011 144.58L106.57 201C108.307 201.875 110.225 202.332 112.17 202.332C114.115 202.332 116.033 201.875 117.77 201L223.46 140C223.856 139.775 224.228 139.51 224.57 139.21C224.751 138.877 224.959 138.559 225.19 138.26V137.02L119.67 198C117.348 199.185 114.777 199.803 112.17 199.803C109.563 199.803 106.993 199.185 104.67 198L7.20012 141.62V142.83ZM112.25 206.06C109.616 206.099 107.014 205.481 104.68 204.26L7.00012 147.77C5.45721 146.977 4.27118 145.631 3.68011 144C3.51072 143.753 3.4043 143.468 3.37012 143.17V136.91C3.40065 136.449 3.58963 136.013 3.90495 135.676C4.22028 135.339 4.64255 135.121 5.10013 135.06C5.54397 135.002 5.994 135.103 6.37086 135.344C6.74773 135.586 7.02725 135.952 7.16013 136.38C7.31013 137.14 7.78012 137.69 8.89012 138.31L106.53 194.78C108.267 195.655 110.185 196.112 112.13 196.112C114.075 196.112 115.993 195.655 117.73 194.78L223.42 133.78C224.53 133.18 225 132.63 225.15 131.87C225.299 131.453 225.582 131.097 225.955 130.858C226.328 130.619 226.769 130.511 227.21 130.55C227.652 130.607 228.057 130.825 228.347 131.163C228.637 131.501 228.791 131.935 228.78 132.38V138.65C228.579 139.9 227.971 141.05 227.05 141.92C226.511 142.417 225.928 142.865 225.31 143.26L119.63 204.26C117.368 205.49 114.825 206.111 112.25 206.06V206.06Z" fill="white"/>
<path fill-rule="evenodd" clip-rule="evenodd" d="M8.00002 132.36L113.53 71.3599C117.16 69.2999 123.16 69.2999 126.63 71.3599L224.43 127.83C228.05 129.9 228.05 133.33 224.43 135.39L118.74 196.39C116.709 197.411 114.468 197.943 112.195 197.943C109.922 197.943 107.681 197.411 105.65 196.39L8.00002 139.92C4.36002 137.83 4.36002 134.43 8.00002 132.36Z" fill="#6FA3C6"/>
<path fill-rule="evenodd" clip-rule="evenodd" d="M8.93011 134C7.82011 134.66 7.04012 135.44 7.04012 136.19C7.04012 136.94 7.82011 137.7 8.93011 138.35L106.57 194.82C108.308 195.693 110.226 196.147 112.17 196.147C114.115 196.147 116.032 195.693 117.77 194.82L223.46 133.82C224.57 133.17 225.19 132.38 225.19 131.64C225.19 130.9 224.57 130.13 223.46 129.48L125.66 73.0001C123.92 72.1366 122.003 71.6873 120.06 71.6873C118.117 71.6873 116.201 72.1366 114.46 73.0001L8.93011 134ZM112.25 199.85C109.614 199.88 107.012 199.251 104.68 198.02L7.00012 141.53C4.63012 140.18 3.37012 138.23 3.37012 136.15C3.37012 134.07 4.63012 132.07 7.00012 130.75L112.68 69.7501C114.97 68.5574 117.513 67.9346 120.095 67.9346C122.677 67.9346 125.22 68.5574 127.51 69.7501L225.31 126.22C227.52 127.55 228.94 129.52 228.94 131.6C228.94 133.68 227.52 135.67 225.31 137L119.67 198C117.394 199.234 114.838 199.857 112.25 199.81V199.85Z" fill="white"/>
<path fill-rule="evenodd" clip-rule="evenodd" d="M99.1602 174.18V178.91C101.52 189.98 128.97 190.2 131.34 178.91V174.18C128.97 185.36 102 185.12 99.3401 174.62L99.1602 174.18Z" fill="#6FA3C6"/>
<path fill-rule="evenodd" clip-rule="evenodd" d="M102.16 181.12C104.68 184.02 110.36 185.44 115.41 185.44C120.14 185.44 125.5 184.12 128.19 181.24C124.71 183.38 119.98 184.29 116.04 184.38C111.15 184.38 105.78 183.45 102.16 181.12V181.12ZM115.41 189.12C107.52 189.12 98.8502 186.06 97.4102 179.27V174.14C97.3918 173.691 97.543 173.251 97.8339 172.908C98.1248 172.566 98.534 172.345 98.9802 172.29C99.4405 172.236 99.9044 172.355 100.283 172.622C100.661 172.89 100.927 173.288 101.03 173.74L101.19 174.19C102.14 178.57 109.39 180.7 115.86 180.63C122.01 180.51 128.64 178.33 129.58 173.76C129.64 173.314 129.873 172.91 130.229 172.635C130.584 172.36 131.034 172.236 131.48 172.29C131.945 172.334 132.377 172.546 132.696 172.887C133.015 173.228 133.198 173.673 133.21 174.14V178.87C131.79 186.06 123.27 189.12 115.39 189.12H115.41Z" fill="white"/>
<path fill-rule="evenodd" clip-rule="evenodd" d="M126.76 166.68C120.46 163.04 110.2 163.04 103.89 166.68C97.5802 170.32 97.5802 176.23 103.89 179.87C110.2 183.51 120.46 183.52 126.76 179.87C133.06 176.22 133.07 170.33 126.76 166.68Z" fill="#6FA3C6"/>
<path fill-rule="evenodd" clip-rule="evenodd" d="M115.25 165.83C111.627 165.753 108.044 166.599 104.84 168.29C102.31 169.72 101.05 171.48 101.05 173.29C101.05 175.1 102.31 176.85 104.84 178.29C110.52 181.59 120.14 181.59 125.84 178.29C128.21 176.89 129.62 175.12 129.62 173.29C129.62 171.46 128.21 169.71 125.84 168.29C122.584 166.582 118.945 165.735 115.27 165.83H115.25ZM115.25 184.48C110.957 184.551 106.719 183.518 102.94 181.48C99.3198 179.37 97.2598 176.48 97.2598 173.28C97.2598 170.08 99.3198 167.19 102.94 165.08C109.89 161.08 120.77 161.08 127.55 165.08C131.34 167.19 133.39 170.08 133.39 173.3C133.39 176.52 131.34 179.38 127.71 181.48C123.877 183.518 119.59 184.55 115.25 184.48Z" fill="white"/>
<path fill-rule="evenodd" clip-rule="evenodd" d="M126.61 116.68V171.92L126.45 172.24C124.71 179.68 105.78 179.67 103.89 172.24V116.68C103.867 116.903 103.923 117.126 104.05 117.31C104.302 118.092 104.733 118.805 105.31 119.39C106.938 120.779 108.893 121.732 110.99 122.16C114.958 123.094 119.126 122.665 122.82 120.94C123.982 120.358 125.005 119.533 125.82 118.52C126.11 118.051 126.323 117.537 126.45 117L126.61 116.68Z" fill="#6FA3C6"/>
<path fill-rule="evenodd" clip-rule="evenodd" d="M105.78 122V171.91C106.26 174.18 110.36 175.91 115.25 175.91C120.14 175.91 124.08 174.14 124.71 171.73V122C124.413 122.215 124.098 122.406 123.77 122.57C119.648 124.554 114.97 125.059 110.52 124C108.843 123.62 107.242 122.965 105.78 122.06V122ZM115.25 179.66C110.05 179.66 103.42 177.83 102.16 172.66C102.16 172.52 102 172.04 102 171.9V116.68C102.009 116.237 102.172 115.81 102.46 115.473C102.748 115.135 103.144 114.908 103.58 114.83C104.038 114.771 104.502 114.891 104.874 115.165C105.246 115.439 105.499 115.845 105.58 116.3C105.779 116.979 106.16 117.591 106.68 118.07C107.971 119.224 109.55 120.008 111.25 120.34C114.838 121.219 118.617 120.867 121.98 119.34C122.844 118.894 123.599 118.262 124.19 117.49C124.5 117.21 124.5 116.88 124.66 116.59C124.763 116.13 125.025 115.721 125.4 115.436C125.775 115.151 126.239 115.007 126.71 115.03C127.158 115.044 127.586 115.225 127.907 115.538C128.229 115.85 128.423 116.272 128.45 116.72V171.96C128.45 172.09 128.29 172.53 128.29 172.66C127.08 177.84 120.46 179.67 115.25 179.67V179.66Z" fill="white"/>
<path fill-rule="evenodd" clip-rule="evenodd" d="M121.08 172.4C120.833 172.407 120.586 172.363 120.356 172.273C120.125 172.182 119.916 172.046 119.739 171.872C119.563 171.698 119.423 171.491 119.329 171.262C119.234 171.033 119.187 170.788 119.19 170.54V127.87C119.187 127.622 119.234 127.376 119.329 127.146C119.423 126.917 119.562 126.709 119.739 126.534C119.915 126.36 120.125 126.223 120.355 126.131C120.586 126.039 120.832 125.995 121.08 126C121.571 126.024 122.037 126.227 122.387 126.572C122.738 126.917 122.949 127.379 122.98 127.87V170.54C122.946 171.029 122.734 171.489 122.384 171.831C122.034 172.174 121.57 172.377 121.08 172.4Z" fill="white"/>
<path fill-rule="evenodd" clip-rule="evenodd" d="M115.25 174C115.013 173.992 114.781 173.938 114.565 173.84C114.35 173.743 114.156 173.603 113.994 173.431C113.833 173.258 113.707 173.055 113.624 172.834C113.54 172.612 113.502 172.376 113.51 172.14V130.66C113.496 130.184 113.672 129.723 113.998 129.376C114.324 129.029 114.774 128.826 115.25 128.81C115.497 128.802 115.743 128.844 115.973 128.934C116.204 129.023 116.413 129.158 116.59 129.331C116.767 129.504 116.906 129.711 117.001 129.939C117.095 130.168 117.143 130.413 117.14 130.66V172.14C117.144 172.388 117.098 172.634 117.004 172.864C116.91 173.093 116.77 173.301 116.594 173.475C116.417 173.649 116.207 173.786 115.976 173.876C115.745 173.966 115.498 174.008 115.25 174V174Z" fill="white"/>
<path fill-rule="evenodd" clip-rule="evenodd" d="M174.56 129.08V133.81C176.77 144.87 204.37 145.11 206.56 133.81V129.07C204.35 140.26 177.22 140.01 174.56 129.52V129.08Z" fill="#6FA3C6"/>
<path fill-rule="evenodd" clip-rule="evenodd" d="M177.56 136C179.92 138.89 185.56 140.32 190.65 140.32C195.54 140.32 200.9 138.98 203.43 136.13C199.71 138.182 195.529 139.255 191.28 139.25C186.39 139.33 181.19 138.34 177.56 136V136ZM190.65 144C182.76 144 174.09 140.95 172.65 134.14V129.03C172.636 128.569 172.798 128.119 173.102 127.771C173.406 127.424 173.83 127.204 174.289 127.156C174.748 127.108 175.209 127.235 175.578 127.512C175.947 127.789 176.198 128.196 176.28 128.65L176.43 129.09C177.54 133.45 184.63 135.6 191.1 135.51C197.26 135.39 203.88 133.22 204.83 128.64C204.912 128.186 205.163 127.779 205.533 127.502C205.902 127.225 206.362 127.098 206.822 127.146C207.281 127.194 207.705 127.414 208.009 127.761C208.313 128.109 208.474 128.559 208.46 129.02V133.76C207.05 141 198.53 144.05 190.65 144.05V144Z" fill="white"/>
<path fill-rule="evenodd" clip-rule="evenodd" d="M202 121.59C195.69 117.94 185.44 117.94 179.12 121.59C172.8 125.24 172.81 131.13 179.12 134.76C185.43 138.39 195.69 138.42 202 134.76C208.31 131.1 208.31 125.21 202 121.59Z" fill="#6FA3C6"/>
<path fill-rule="evenodd" clip-rule="evenodd" d="M190.65 120.72C186.973 120.631 183.334 121.485 180.08 123.2C177.71 124.6 176.3 126.38 176.3 128.2C176.3 130.02 177.71 131.76 180.08 133.2C185.76 136.5 195.38 136.49 201.08 133.2C203.45 131.78 204.87 130.02 204.87 128.2C204.87 126.38 203.45 124.62 201.08 123.2C197.877 121.503 194.294 120.649 190.67 120.72H190.65ZM190.65 139.38C186.307 139.469 182.016 138.436 178.19 136.38C174.56 134.28 172.51 131.38 172.51 128.19C172.51 125 174.56 122.09 178.19 119.98C185.13 115.98 196.01 115.98 202.95 119.98C206.58 122.09 208.63 124.98 208.63 128.19C208.63 131.4 206.58 134.28 202.95 136.38C199.174 138.416 194.939 139.449 190.65 139.38V139.38Z" fill="white"/>
<path fill-rule="evenodd" clip-rule="evenodd" d="M201.85 71.5698V127.13C199.96 134.57 181.03 134.57 179.29 127.13L179.13 126.81V71.5698C179.13 71.7998 179.29 71.9698 179.29 72.1998C179.605 72.9918 180.09 73.7051 180.71 74.2898C182.28 75.6722 184.182 76.6233 186.23 77.0498C190.252 78.003 194.479 77.5768 198.23 75.8398C199.375 75.2956 200.355 74.457 201.07 73.4098C201.413 72.9453 201.68 72.4287 201.86 71.8798L201.85 71.5698Z" fill="#6FA3C6"/>
<path fill-rule="evenodd" clip-rule="evenodd" d="M181 76.8999V126.81C181.63 129.1 185.57 130.81 190.46 130.81C195.35 130.81 199.46 129.07 199.93 126.65V76.8999C199.627 77.1149 199.31 77.3087 198.98 77.4799C194.851 79.4419 190.173 79.9256 185.73 78.8499C184.059 78.4578 182.462 77.7994 181 76.8999V76.8999ZM190.46 134.55C185.26 134.55 178.63 132.74 177.37 127.55C177.37 127.42 177.21 126.96 177.21 126.8V71.5699C177.227 71.1032 177.413 70.6585 177.733 70.3184C178.053 69.9782 178.485 69.7656 178.95 69.7199C179.398 69.6691 179.848 69.7971 180.201 70.0761C180.555 70.3551 180.785 70.7626 180.84 71.2099C181.062 71.8987 181.462 72.5163 182 72.9999C183.34 74.1824 184.98 74.9715 186.74 75.2799C190.275 76.1545 194.002 75.8019 197.31 74.2799C198.238 73.8681 199.049 73.2324 199.67 72.4299C199.846 72.1558 199.956 71.8441 199.99 71.5199C200.118 71.0744 200.387 70.6824 200.756 70.4029C201.126 70.1234 201.577 69.9714 202.04 69.9699C202.485 69.9862 202.908 70.1671 203.228 70.4774C203.547 70.7877 203.741 71.2054 203.77 71.6499V126.89C203.77 127.01 203.62 127.47 203.62 127.58C202.32 132.74 195.7 134.55 190.49 134.55H190.46Z" fill="white"/>
<path fill-rule="evenodd" clip-rule="evenodd" d="M196.33 127.28C195.837 127.27 195.366 127.072 195.015 126.726C194.663 126.38 194.458 125.913 194.44 125.42V82.7601C194.46 82.2681 194.667 81.8022 195.018 81.4568C195.369 81.1114 195.838 80.9124 196.33 80.9001C196.577 80.8934 196.824 80.9366 197.054 81.0273C197.285 81.118 197.494 81.2543 197.671 81.428C197.847 81.6016 197.987 81.8091 198.081 82.038C198.176 82.2669 198.223 82.5125 198.22 82.7601V125.42C198.224 125.668 198.178 125.914 198.084 126.144C197.99 126.373 197.851 126.581 197.674 126.755C197.497 126.929 197.287 127.066 197.056 127.156C196.825 127.246 196.578 127.288 196.33 127.28Z" fill="white"/>
<path fill-rule="evenodd" clip-rule="evenodd" d="M190.65 128.9C190.402 128.907 190.156 128.863 189.926 128.773C189.695 128.682 189.486 128.546 189.309 128.372C189.133 128.198 188.993 127.991 188.899 127.762C188.804 127.533 188.757 127.287 188.76 127.04V85.5599C188.757 85.3119 188.804 85.0658 188.899 84.8364C188.993 84.607 189.132 84.3988 189.309 84.2244C189.485 84.0499 189.694 83.9127 189.925 83.8209C190.155 83.7291 190.402 83.6845 190.65 83.6899C191.126 83.7107 191.576 83.9188 191.9 84.269C192.224 84.6192 192.396 85.0831 192.38 85.5599V127C192.393 127.239 192.359 127.478 192.279 127.703C192.199 127.929 192.075 128.136 191.914 128.313C191.753 128.49 191.558 128.633 191.341 128.734C191.124 128.834 190.889 128.891 190.65 128.9V128.9Z" fill="white"/>
<path fill-rule="evenodd" clip-rule="evenodd" d="M137.65 107.91V112.66C140.02 123.72 167.65 123.95 169.83 112.66V107.91C167.62 119.09 140.49 118.86 137.83 108.35L137.65 107.91Z" fill="#6FA3C6"/>
<path fill-rule="evenodd" clip-rule="evenodd" d="M140.65 114.85C143.17 117.75 148.85 119.19 153.9 119.19C158.63 119.19 164.15 117.85 166.67 114.98C162.951 117.028 158.776 118.108 154.53 118.12C149.64 118.26 144.43 117.19 140.65 114.85ZM153.9 122.85C146.01 122.85 137.33 119.85 135.9 112.99V107.88C135.882 107.429 136.034 106.989 136.327 106.645C136.62 106.302 137.032 106.083 137.48 106.03C137.943 105.98 138.408 106.102 138.786 106.373C139.164 106.644 139.429 107.046 139.53 107.5L139.69 107.94C140.64 112.19 147.42 114.38 153.89 114.38C154.046 114.39 154.203 114.39 154.36 114.38C160.51 114.27 167.14 112.12 168.08 107.52C168.166 107.089 168.404 106.703 168.751 106.433C169.098 106.163 169.531 106.027 169.97 106.05C170.435 106.096 170.867 106.308 171.187 106.649C171.507 106.989 171.693 107.433 171.71 107.9V112.65C170.3 119.84 161.78 122.88 153.9 122.88V122.85Z" fill="white"/>
<path fill-rule="evenodd" clip-rule="evenodd" d="M165.26 100.42C158.94 96.7701 148.69 96.7701 142.38 100.42C136.07 104.07 136.07 109.98 142.38 113.6C148.69 117.22 158.94 117.25 165.26 113.6C171.58 109.95 171.56 104.06 165.26 100.42Z" fill="#6FA3C6"/>
<path fill-rule="evenodd" clip-rule="evenodd" d="M153.74 99.5701C150.12 99.4833 146.537 100.32 143.33 102C140.8 103.42 139.54 105.19 139.54 107C139.54 108.81 140.8 110.56 143.33 112C149.01 115.28 158.63 115.27 164.33 112C166.85 110.58 168.11 108.81 168.11 107C168.11 105.19 166.85 103.41 164.33 102C161.073 100.296 157.434 99.4523 153.76 99.5501L153.74 99.5701ZM153.74 118.21C149.447 118.284 145.207 117.251 141.43 115.21C137.81 113.11 135.76 110.21 135.76 107.03C135.76 103.85 137.81 100.92 141.43 98.8101C148.38 94.8101 159.26 94.8101 166.2 98.8101C169.83 100.91 171.72 103.81 171.72 107.02C171.72 110.23 169.83 113.1 166.2 115.2C162.377 117.264 158.084 118.302 153.74 118.21Z" fill="white"/>
<path fill-rule="evenodd" clip-rule="evenodd" d="M61.6201 107.26V112C63.8201 123.06 91.4301 123.28 93.7901 112V107.25C91.4301 118.44 64.3001 118.2 61.6201 107.69V107.26Z" fill="#6FA3C6"/>
<path fill-rule="evenodd" clip-rule="evenodd" d="M64.6102 114.25C67.1402 117.01 72.6102 118.52 77.8602 118.52C82.6002 118.52 87.9602 117.2 90.4802 114.33C86.7682 116.396 82.5886 117.477 78.3402 117.47C73.4502 117.56 68.4002 116.55 64.6102 114.25V114.25ZM77.8602 122.25C69.8602 122.25 61.1402 119.25 59.7202 112.41V107.28C59.7376 106.814 59.9237 106.371 60.2439 106.032C60.564 105.694 60.9963 105.483 61.4602 105.44C61.6811 105.41 61.9056 105.425 62.1207 105.484C62.3358 105.542 62.5371 105.642 62.713 105.779C62.8889 105.916 63.0358 106.086 63.1452 106.28C63.2546 106.475 63.3243 106.688 63.3502 106.91L63.5102 107.35C64.6102 111.72 71.7102 114 78.3402 113.77C84.4902 113.66 90.9602 111.48 91.9002 106.91C91.9344 106.682 92.0133 106.463 92.1324 106.265C92.2516 106.067 92.4086 105.895 92.5945 105.759C92.7804 105.622 92.9914 105.524 93.2155 105.469C93.4396 105.414 93.6723 105.404 93.9002 105.44C94.3474 105.49 94.7589 105.708 95.0521 106.049C95.3452 106.39 95.4982 106.83 95.4802 107.28V112C94.0602 119.18 85.5402 122.22 77.8102 122.22L77.8602 122.25Z" fill="white"/>
<path fill-rule="evenodd" clip-rule="evenodd" d="M89.0602 99.77C82.7502 96.13 72.5002 96.13 66.3502 99.77C59.8802 103.41 59.8802 109.33 66.1902 112.96C72.5002 116.59 82.7502 116.6 89.0602 112.96C95.3702 109.32 95.3702 103.41 89.0602 99.77Z" fill="#6FA3C6"/>
<path fill-rule="evenodd" clip-rule="evenodd" d="M77.7102 98.9202C74.0367 98.8446 70.4028 99.6904 67.1402 101.38C64.7702 102.8 63.3502 104.56 63.3502 106.38C63.3502 108.2 64.7702 109.96 67.1402 111.38C72.8202 114.65 82.4402 114.67 88.1402 111.38C90.6602 109.96 92.0802 108.18 92.0802 106.38C92.0802 104.58 90.6602 102.82 88.1402 101.38C84.935 99.6905 81.3527 98.844 77.7302 98.9202H77.7102ZM77.7102 117.56C73.4174 117.634 69.1779 116.601 65.4002 114.56C61.6202 112.45 59.7202 109.56 59.7202 106.36C59.7202 103.16 61.6202 100.27 65.4002 98.1602C72.1902 94.1602 83.0702 94.1602 90.0102 98.1602C93.6402 100.27 95.6902 103.16 95.6902 106.36C95.6902 109.56 93.6402 112.45 90.0102 114.56C86.2355 116.599 81.9997 117.632 77.7102 117.56Z" fill="white"/>
<path fill-rule="evenodd" clip-rule="evenodd" d="M62.25 151.22V156C64.61 167.06 92.06 167.27 94.42 156V151.24C92.06 162.43 65.09 162.24 62.42 151.69L62.25 151.22Z" fill="#6FA3C6"/>
<path fill-rule="evenodd" clip-rule="evenodd" d="M65.2401 158.17C67.7701 161.07 73.4501 162.49 78.4901 162.49C83.2301 162.49 88.7501 161.16 91.2701 158.29C87.5476 160.339 83.3693 161.419 79.1201 161.43C74.1201 161.53 69.0301 160.52 65.2401 158.17ZM78.4901 166.17C70.4901 166.17 61.9301 163.11 60.4901 156.3L60.3301 151.18C60.3475 150.714 60.5336 150.271 60.8537 149.933C61.1738 149.594 61.6062 149.383 62.0701 149.34C62.5292 149.276 62.9951 149.394 63.3686 149.669C63.7421 149.944 63.9937 150.353 64.0701 150.81V151.27C65.1701 155.62 72.5901 157.86 78.9001 157.69C85.0501 157.56 91.6701 155.38 92.6201 150.81C92.6871 150.37 92.9204 149.972 93.272 149.698C93.6236 149.425 94.0667 149.297 94.5101 149.34C94.974 149.383 95.4063 149.594 95.7264 149.933C96.0466 150.271 96.2327 150.714 96.2501 151.18V156C94.9001 163.15 86.3801 166.2 78.4901 166.21V166.17Z" fill="white"/>
<path fill-rule="evenodd" clip-rule="evenodd" d="M89.8501 143.73C83.5401 140.09 73.2901 140.09 66.9801 143.73C60.6701 147.37 60.6701 153.3 66.9801 156.94C73.2901 160.58 83.5401 160.57 89.8501 156.94C96.1601 153.31 96.1601 147.38 89.8501 143.73Z" fill="#6FA3C6"/>
<path fill-rule="evenodd" clip-rule="evenodd" d="M78.3401 142.88C74.7175 142.803 71.1348 143.649 67.9301 145.34C65.4001 146.77 64.1401 148.53 64.1401 150.34C64.1401 152.15 65.4001 153.9 67.9301 155.34C73.6001 158.62 83.2301 158.62 88.9301 155.34C91.3001 153.92 92.7201 152.15 92.7201 150.34C92.7201 148.53 91.3001 146.76 88.9301 145.34C85.6704 143.652 82.0402 142.806 78.3701 142.88H78.3401ZM78.3401 161.53C74.0476 161.601 69.8089 160.568 66.0301 158.53C62.4101 156.43 60.3501 153.53 60.3501 150.35C60.3501 147.17 62.4101 144.24 66.0301 142.14C72.9701 138.14 83.8601 138.14 90.8001 142.14C94.4201 144.24 96.3201 147.14 96.3201 150.35C96.3201 153.56 94.4201 156.43 90.8001 158.53C86.9671 160.567 82.6802 161.599 78.3401 161.53V161.53Z" fill="white"/>
<path fill-rule="evenodd" clip-rule="evenodd" d="M89.7002 93.73V149.29C87.8002 156.73 68.8702 156.72 66.9802 149.29V93.73C66.9569 93.9523 67.0137 94.1757 67.1402 94.36C67.4541 95.1555 67.9388 95.8724 68.5602 96.46C70.1138 97.8628 72.0236 98.8107 74.0802 99.2C78.0456 100.152 82.2167 99.7285 85.9102 98C87.0693 97.4221 88.092 96.6039 88.9102 95.6C89.2527 95.1298 89.5224 94.6106 89.7102 94.06L89.7002 93.73Z" fill="#6FA3C6"/>
<path fill-rule="evenodd" clip-rule="evenodd" d="M68.8698 99.0599V149C69.3498 151.27 73.4498 153 78.3398 153C83.2298 153 87.1699 151.25 87.7999 148.82V99.0599C87.4965 99.269 87.1828 99.4626 86.8598 99.6399C82.7198 101.576 78.0467 102.055 73.5999 101C71.9224 100.603 70.3235 99.9266 68.8698 98.9999V99.0599ZM78.3398 156.72C73.1298 156.72 66.4999 154.89 65.2399 149.72C65.2399 149.57 65.0898 149.12 65.0898 148.96V93.7299C65.1046 93.2641 65.2882 92.8195 65.6065 92.4792C65.9248 92.1388 66.3561 91.9258 66.8199 91.8799C67.2653 91.8312 67.7122 91.9571 68.0666 92.2313C68.421 92.5055 68.6552 92.9065 68.7198 93.3499C68.9237 94.0267 69.3032 94.6374 69.8199 95.1199C71.1191 96.2662 72.6938 97.0554 74.3898 97.4099C77.9855 98.2504 81.7582 97.8777 85.1198 96.3499C85.9786 95.9045 86.7322 95.2806 87.3298 94.5199C87.6 94.2901 87.7688 93.9632 87.7999 93.6099C87.8994 93.1569 88.1534 92.7526 88.5182 92.4662C88.8831 92.1798 89.3361 92.0291 89.7999 92.0399C90.2313 92.0606 90.6377 92.2488 90.9328 92.5643C91.2278 92.8799 91.3882 93.298 91.3799 93.7299V149.66C90.1599 154.89 83.5398 156.72 78.3398 156.72Z" fill="white"/>
<path fill-rule="evenodd" clip-rule="evenodd" d="M78.3401 151.05C78.1037 151.042 77.8712 150.988 77.6557 150.89C77.4403 150.793 77.2462 150.653 77.0846 150.481C76.923 150.308 76.7971 150.105 76.7139 149.884C76.6308 149.662 76.5921 149.426 76.6002 149.19V107.72C76.5866 107.243 76.7618 106.781 77.0876 106.432C77.4134 106.084 77.8636 105.878 78.3401 105.86C78.5876 105.853 78.834 105.897 79.0643 105.987C79.2947 106.078 79.5044 106.214 79.6809 106.388C79.8574 106.562 79.997 106.769 80.0913 106.998C80.1857 107.227 80.2329 107.472 80.2301 107.72V149.19C80.2343 149.438 80.1881 149.684 80.0942 149.914C80.0003 150.143 79.8608 150.351 79.684 150.525C79.5073 150.699 79.297 150.836 79.066 150.926C78.835 151.016 78.588 151.058 78.3401 151.05V151.05Z" fill="white"/>
<path fill-rule="evenodd" clip-rule="evenodd" d="M72.6598 149.79C72.4136 149.798 72.1684 149.756 71.9387 149.667C71.709 149.578 71.4997 149.444 71.3232 149.272C71.1467 149.1 71.0067 148.895 70.9117 148.668C70.8166 148.44 70.7683 148.196 70.7698 147.95V111.57C70.7656 111.322 70.8118 111.076 70.9057 110.846C70.9996 110.617 71.1392 110.409 71.3159 110.235C71.4927 110.061 71.7029 109.925 71.934 109.834C72.165 109.744 72.4119 109.702 72.6598 109.71C73.1521 109.722 73.6212 109.921 73.9722 110.267C74.3231 110.612 74.5296 111.078 74.5498 111.57V148C74.5127 148.48 74.2988 148.928 73.9496 149.259C73.6003 149.59 73.1407 149.779 72.6598 149.79V149.79Z" fill="white"/>
<path fill-rule="evenodd" clip-rule="evenodd" d="M24.23 129.85V134.6C26.6 145.66 54.05 145.88 56.41 134.6V129.85C54.05 141.04 26.91 140.8 24.41 130.29L24.23 129.85Z" fill="#6FA3C6"/>
<path fill-rule="evenodd" clip-rule="evenodd" d="M27.23 136.79C29.75 139.68 35.43 141.11 40.48 141.11C45.21 141.11 50.57 139.79 53.25 136.92C49.79 139.05 45.05 139.98 41.11 140.06C36.22 140.15 30.85 139.13 27.23 136.79V136.79ZM40.48 144.79C32.59 144.79 23.92 141.79 22.48 134.93V129.82C22.4618 129.37 22.6144 128.929 22.9074 128.586C23.2003 128.243 23.612 128.023 24.06 127.97C24.5154 127.928 24.9705 128.055 25.339 128.326C25.7076 128.596 25.9641 128.993 26.06 129.44V129.89C27.16 134.25 34.26 136.45 40.88 136.32C47.04 136.19 53.66 134.02 54.6 129.44C54.6647 128.997 54.8988 128.596 55.2532 128.322C55.6076 128.047 56.0546 127.922 56.5 127.97C56.9629 128.018 57.393 128.232 57.7109 128.572C58.0288 128.912 58.2132 129.355 58.23 129.82V134.57C56.89 141.78 48.21 144.82 40.48 144.82V144.79Z" fill="white"/>
<path fill-rule="evenodd" clip-rule="evenodd" d="M51.83 122.36C45.53 118.72 35.27 118.72 28.96 122.36C22.65 126 22.65 131.9 28.96 135.55C35.27 139.2 45.53 139.19 51.83 135.55C58.13 131.91 58.15 126 51.83 122.36Z" fill="#6FA3C6"/>
<path fill-rule="evenodd" clip-rule="evenodd" d="M40.3199 121.51C36.6948 121.443 33.1123 122.3 29.9099 124C27.3899 125.42 25.9599 127.18 25.9599 129C25.9599 130.82 27.3899 132.58 29.9099 134C35.5899 137.26 45.2099 137.26 50.9099 134C53.2699 132.57 54.6898 130.79 54.6898 129C54.6898 127.21 53.2699 125.44 50.9099 124C47.6544 122.291 44.0154 121.444 40.3398 121.54L40.3199 121.51ZM40.3199 140.15C36.0304 140.222 31.7945 139.189 28.0199 137.15C24.3899 135.03 22.3398 132.15 22.3398 128.94C22.3398 125.73 24.3399 122.85 28.0199 120.76C34.9599 116.76 45.8399 116.76 52.6299 120.76C56.4099 122.85 58.2999 125.76 58.2999 128.94C58.2999 132.12 56.4099 135.05 52.6299 137.15C48.8507 139.186 44.6123 140.219 40.3199 140.15Z" fill="white"/>
<path fill-rule="evenodd" clip-rule="evenodd" d="M51.6699 72.3501V127.6L51.5199 127.91C49.7899 135.34 30.8499 135.34 28.9599 127.91V72.3501C28.9348 72.5726 28.9917 72.7966 29.1199 72.9801C29.3743 73.7641 29.8054 74.4791 30.3799 75.0701C32.0092 76.4559 33.9635 77.4055 36.0599 77.8301C40.028 78.7691 44.197 78.3392 47.8899 76.6101C49.0471 76.0249 50.0691 75.204 50.8899 74.2001C51.181 73.7274 51.3937 73.2107 51.5199 72.6701L51.6699 72.3501Z" fill="#6FA3C6"/>
<path fill-rule="evenodd" clip-rule="evenodd" d="M30.8501 77.6698V127.6C31.3301 129.87 35.4301 131.6 40.3201 131.6C45.2101 131.6 49.1501 129.83 49.7901 127.41V77.6698C49.4929 77.8933 49.1748 78.0875 48.8401 78.2498C44.7097 80.2052 40.0364 80.6954 35.5901 79.6398C33.9162 79.2224 32.3171 78.5477 30.8501 77.6398V77.6698ZM40.3201 135.34C35.1201 135.34 28.4901 133.51 27.2301 128.34C27.0701 128.2 27.0701 127.72 27.0701 127.59V72.3498C27.0564 71.8882 27.2177 71.4386 27.5216 71.0909C27.8255 70.7433 28.2496 70.5234 28.7088 70.4753C29.168 70.4272 29.6285 70.5545 29.9978 70.8317C30.3671 71.1089 30.618 71.5154 30.7001 71.9698C30.8995 72.6486 31.2797 73.2605 31.8001 73.7398C33.0946 74.8911 34.6717 75.678 36.3701 76.0198C39.9614 76.8944 43.7421 76.5424 47.1101 75.0198C47.9654 74.5647 48.715 73.9343 49.3101 73.1698C49.4701 72.8798 49.6301 72.5398 49.7901 72.2398C49.8643 71.7772 50.1131 71.3607 50.4851 71.0761C50.8572 70.7915 51.3243 70.6604 51.7901 70.7098C52.237 70.7237 52.6627 70.9034 52.9844 71.214C53.306 71.5245 53.5005 71.9437 53.5301 72.3898V127.6C53.5301 127.71 53.3701 128.15 53.3701 128.26C52.1501 133.51 45.5301 135.34 40.3201 135.34Z" fill="white"/>
<path fill-rule="evenodd" clip-rule="evenodd" d="M40.3202 129.68C39.8324 129.654 39.3708 129.451 39.0226 129.108C38.6744 128.766 38.4637 128.308 38.4302 127.82V86.3502C38.4478 85.8564 38.6533 85.388 39.0045 85.0405C39.3557 84.693 39.8263 84.4926 40.3202 84.4802C40.5685 84.4734 40.8157 84.517 41.0467 84.6083C41.2778 84.6996 41.488 84.8368 41.6646 85.0115C41.8412 85.1863 41.9806 85.395 42.0744 85.625C42.1681 85.8551 42.2143 86.1018 42.2102 86.3502V127.82C42.213 128.068 42.1658 128.313 42.0714 128.542C41.977 128.771 41.8374 128.979 41.6609 129.152C41.4845 129.326 41.2748 129.462 41.0444 129.553C40.814 129.644 40.5677 129.687 40.3202 129.68V129.68Z" fill="white"/>
<path fill-rule="evenodd" clip-rule="evenodd" d="M34.6398 128.42C34.3923 128.427 34.146 128.383 33.9156 128.293C33.6852 128.202 33.4755 128.066 33.299 127.892C33.1226 127.718 32.983 127.511 32.8886 127.282C32.7942 127.053 32.747 126.807 32.7498 126.56V90.1999C32.7456 89.9519 32.7918 89.7057 32.8857 89.4761C32.9796 89.2466 33.1191 89.0385 33.2959 88.8645C33.4727 88.6906 33.6829 88.5544 33.9139 88.4642C34.145 88.374 34.3919 88.3317 34.6398 88.3399C35.1338 88.3496 35.6054 88.5475 35.9585 88.8932C36.3116 89.2388 36.5195 89.7062 36.5398 90.1999V126.56C36.506 127.049 36.2939 127.508 35.9436 127.851C35.5933 128.194 35.1294 128.397 34.6398 128.42V128.42Z" fill="white"/>
<path fill-rule="evenodd" clip-rule="evenodd" d="M136.54 151.13V155.88C138.91 166.94 166.36 167.17 168.72 155.88V151.13C166.36 162.32 139.22 162.08 136.72 151.59L136.54 151.13Z" fill="#6FA3C6"/>
<path fill-rule="evenodd" clip-rule="evenodd" d="M139.54 158.09C142.06 160.97 147.54 162.41 152.79 162.41C157.52 162.41 162.89 161.07 165.57 158.2C162.1 160.34 157.36 161.26 153.42 161.34C148.53 161.43 143.17 160.42 139.54 158.09ZM152.79 166.09C144.74 166.09 136.23 163.04 134.79 156.23L134.63 151.1C134.645 150.635 134.831 150.191 135.152 149.854C135.473 149.517 135.906 149.309 136.37 149.27C136.815 149.216 137.264 149.34 137.618 149.616C137.972 149.891 138.202 150.295 138.26 150.74L138.42 151.18C139.52 155.55 146.78 157.7 153.24 157.6C159.4 157.47 166.02 155.31 166.97 150.72C167.039 150.281 167.273 149.886 167.625 149.614C167.976 149.343 168.418 149.216 168.86 149.26C169.324 149.303 169.756 149.514 170.076 149.852C170.396 150.191 170.582 150.634 170.6 151.1V155.85C169.02 163.03 160.5 166.09 152.77 166.09H152.79Z" fill="white"/>
<path fill-rule="evenodd" clip-rule="evenodd" d="M164 143.64C157.69 140.01 147.44 140.01 141.29 143.64C134.97 147.3 134.97 153.18 141.29 156.83C147.44 160.49 157.69 160.49 164 156.83C170.31 153.17 170.3 147.28 164 143.64Z" fill="#6FA3C6"/>
<path fill-rule="evenodd" clip-rule="evenodd" d="M152.64 142.79C149.014 142.712 145.428 143.559 142.22 145.25C139.7 146.67 138.28 148.45 138.28 150.25C138.28 152.05 139.7 153.81 142.06 155.25C147.74 158.53 157.52 158.53 163.2 155.25C165.57 153.83 166.99 152.06 166.99 150.25C166.99 148.44 165.57 146.67 163.2 145.25C159.934 143.578 156.308 142.733 152.64 142.79V142.79ZM152.64 161.45C148.347 161.523 144.108 160.49 140.33 158.45C136.54 156.36 134.65 153.45 134.65 150.27C134.65 147.09 136.54 144.16 140.33 142.07C147.27 138.07 158 138.07 164.94 142.07C168.72 144.16 170.62 147.07 170.62 150.27C170.62 153.47 168.72 156.36 164.94 158.45C161.165 160.489 156.929 161.522 152.64 161.45V161.45Z" fill="white"/>
<path fill-rule="evenodd" clip-rule="evenodd" d="M164 93.6299V148.88L163.84 149.19C161.95 156.63 143.18 156.62 141.29 149.19V93.6299C141.263 93.8511 141.316 94.0746 141.44 94.2599C141.689 95.0484 142.125 95.7653 142.71 96.3499C144.293 97.7136 146.19 98.6621 148.23 99.1099C152.251 100.068 156.478 99.6451 160.23 97.9099C161.388 97.3167 162.409 96.4891 163.23 95.4799C163.529 95.011 163.742 94.4931 163.86 93.9499L164 93.6299Z" fill="#6FA3C6"/>
<path fill-rule="evenodd" clip-rule="evenodd" d="M143 99.0001V148.91C143.63 151.19 147.57 152.91 152.63 152.91C157.51 152.91 161.46 151.16 162.09 148.74V99.0001C161.735 99.2147 161.368 99.4084 160.99 99.5801C156.909 101.524 152.285 102.008 147.89 100.95C146.158 100.593 144.502 99.9333 143 99.0001V99.0001ZM152.63 156.65C147.26 156.65 140.79 154.82 139.53 149.65C139.37 149.49 139.37 149.03 139.37 148.88V93.6301C139.356 93.1744 139.517 92.7305 139.82 92.39C140.123 92.0495 140.546 91.8383 141 91.8001C141.232 91.7573 141.47 91.7617 141.699 91.813C141.929 91.8644 142.146 91.9616 142.338 92.0988C142.529 92.2361 142.691 92.4106 142.813 92.6119C142.936 92.8131 143.016 93.037 143.05 93.2701C143.26 93.9409 143.643 94.5445 144.16 95.0201C145.451 96.1788 147.029 96.9696 148.73 97.3101C152.36 98.1601 156.62 97.7401 159.3 96.2501C160.228 95.8488 161.04 95.2193 161.66 94.4201C161.82 94.1401 161.98 93.7902 162.14 93.4902C162.237 93.0389 162.492 92.637 162.858 92.3566C163.225 92.0761 163.679 91.9356 164.14 91.9602C164.568 91.9784 164.972 92.1633 165.265 92.4753C165.559 92.7874 165.718 93.2019 165.71 93.6301V149.58C164.31 154.79 157.84 156.62 152.64 156.62L152.63 156.65Z" fill="white"/>
<path fill-rule="evenodd" clip-rule="evenodd" d="M158.32 149.35C157.843 149.332 157.393 149.126 157.067 148.778C156.741 148.429 156.566 147.967 156.58 147.49V104.82C156.569 104.345 156.745 103.885 157.071 103.539C157.396 103.192 157.845 102.988 158.32 102.97C158.566 102.963 158.811 103.006 159.04 103.096C159.269 103.187 159.478 103.322 159.654 103.495C159.829 103.668 159.968 103.874 160.062 104.102C160.156 104.329 160.203 104.574 160.2 104.82V147.49C160.203 147.737 160.156 147.981 160.062 148.21C159.968 148.438 159.829 148.645 159.654 148.818C159.479 148.992 159.27 149.128 159.041 149.22C158.812 149.311 158.567 149.355 158.32 149.35V149.35Z" fill="white"/>
<path fill-rule="evenodd" clip-rule="evenodd" d="M152.64 151C152.148 150.991 151.678 150.794 151.325 150.451C150.972 150.107 150.763 149.642 150.74 149.15V107.63C150.761 107.137 150.968 106.669 151.322 106.324C151.675 105.978 152.146 105.78 152.64 105.77C152.888 105.763 153.134 105.807 153.364 105.897C153.595 105.988 153.805 106.124 153.981 106.298C154.157 106.472 154.297 106.679 154.391 106.908C154.486 107.137 154.533 107.383 154.53 107.63V149.11C154.539 149.361 154.495 149.61 154.403 149.843C154.311 150.076 154.172 150.288 153.995 150.465C153.818 150.642 153.606 150.781 153.373 150.873C153.14 150.965 152.891 151.009 152.64 151Z" fill="white"/>
<path fill-rule="evenodd" clip-rule="evenodd" d="M219.83 62.6098L115.25 2.24977C114.882 1.99396 114.436 1.877 113.99 1.91977L60.99 5.75977C60.4402 5.84526 59.9091 6.02453 59.42 6.28977C58.8306 6.65678 58.2983 7.10826 57.84 7.62978L4.37 66.3798C2.96374 67.7944 2.17 69.7051 2.16 71.6998L2 74.4098C2.16 74.7998 2.16 74.9798 2.47 75.2398L106.9 135.58C106.58 135.31 106.58 135.15 106.58 134.74V132.06C106.717 130.059 107.557 128.172 108.95 126.73L162.25 67.9998C162.871 67.3988 163.563 66.8751 164.31 66.4398C164.713 66.276 165.137 66.1683 165.57 66.1198L218.57 62.2798C219.016 62.2352 219.463 62.3523 219.83 62.6098Z" fill="#6FA3C6"/>
<path fill-rule="evenodd" clip-rule="evenodd" d="M3.88014 73.9998L104.68 132.19V132C104.787 129.553 105.799 127.233 107.52 125.49L161 66.7398C161.687 65.8998 162.546 65.2176 163.52 64.7398C164.069 64.4744 164.656 64.2988 165.26 64.2198L213.05 60.7698L114.46 3.81977L61.1401 7.57977C60.808 7.61366 60.4872 7.71944 60.2001 7.88977C59.8801 8.15977 59.5701 8.41977 59.0901 8.88977L5.78013 67.5898C4.67358 68.7315 4.00142 70.2244 3.88014 71.8098V73.9998V73.9998ZM106.88 137.45C106.549 137.453 106.223 137.374 105.93 137.22L1.52013 76.8298C1.12813 76.5884 0.805176 76.2498 0.58265 75.8468C0.360124 75.4438 0.245579 74.9901 0.250131 74.5298V71.6898C0.374353 69.2786 1.32415 66.9836 2.94013 65.1898L56.4101 6.37977C56.9715 5.76162 57.6062 5.21424 58.3001 4.74977C59.0282 4.32257 59.8337 4.04386 60.6701 3.92976L113.83 0.0797683C114.657 0.0240492 115.482 0.215497 116.2 0.629771L220.78 60.9998C220.997 61.1106 221.191 61.2636 221.348 61.4498C221.506 61.636 221.625 61.8517 221.698 62.0844C221.772 62.317 221.799 62.562 221.776 62.805C221.754 63.048 221.684 63.2841 221.57 63.4998C221.321 63.921 220.92 64.2311 220.45 64.3668C219.98 64.5025 219.475 64.4535 219.04 64.2298L218.72 64.1198L165.72 67.9498C165.456 67.9931 165.195 68.0566 164.94 68.1398C164.497 68.4937 164.076 68.8744 163.68 69.2798L110.2 128C109.644 128.545 109.204 129.198 108.906 129.918C108.609 130.638 108.461 131.411 108.47 132.19V134.49C108.698 134.802 108.822 135.178 108.822 135.565C108.822 135.951 108.698 136.328 108.47 136.64C108.293 136.892 108.056 137.095 107.78 137.231C107.504 137.367 107.198 137.432 106.89 137.42L106.88 137.45Z" fill="white"/>
<path fill-rule="evenodd" clip-rule="evenodd" d="M218.57 62.2702L165.57 66.1102C164.263 66.2887 163.075 66.9616 162.25 67.9902L108.94 126.73C107.541 128.169 106.701 130.058 106.57 132.06V134.74C106.57 135.58 107.2 135.9 107.84 135.47L219.36 69.9202C219.766 69.6816 220.108 69.3474 220.355 68.9465C220.603 68.5456 220.749 68.0903 220.78 67.6202V64.9402C220.78 63.1802 220 62.1802 218.57 62.2702Z" fill="#6FA3C6"/>
<path fill-rule="evenodd" clip-rule="evenodd" d="M218.72 64.0902L165.72 67.9202C164.929 68.1127 164.226 68.5631 163.72 69.2002L110.2 128C109.154 129.114 108.541 130.564 108.47 132.09V133L218.47 68.3202C218.7 68.1373 218.865 67.8847 218.94 67.6002V64.9202C218.937 64.632 218.879 64.347 218.77 64.0802L218.72 64.0902ZM107.2 137.52C106.762 137.496 106.333 137.384 105.94 137.19C105.536 136.923 105.209 136.556 104.988 136.125C104.767 135.694 104.661 135.214 104.68 134.73V132C104.801 129.539 105.81 127.205 107.52 125.43L161 66.7402C161.53 66.0509 162.194 65.4759 162.952 65.0497C163.709 64.6235 164.546 64.355 165.41 64.2602L218.41 60.4302C218.926 60.3722 219.45 60.432 219.94 60.6052C220.43 60.7784 220.874 61.0605 221.24 61.4302C221.718 61.8889 222.093 62.445 222.338 63.0609C222.583 63.6768 222.693 64.3381 222.66 65.0002V67.6702C222.636 68.4698 222.405 69.2496 221.99 69.9332C221.575 70.6169 220.989 71.1809 220.29 71.5702L108.78 137.08C108.31 137.385 107.759 137.538 107.2 137.52V137.52Z" fill="white"/>
<path fill-rule="evenodd" clip-rule="evenodd" d="M205 71.1899L122.35 119.72L163.83 74.1499L205 71.1899Z" fill="#6FA3C6"/>
<path fill-rule="evenodd" clip-rule="evenodd" d="M164.78 75.9999L131.97 112L197.28 73.6699L164.78 75.9999ZM122.35 121.62C121.806 121.588 121.296 121.344 120.93 120.94C120.687 120.576 120.57 120.142 120.597 119.705C120.624 119.267 120.794 118.851 121.08 118.52L162.41 72.9599C162.742 72.6058 163.196 72.3913 163.68 72.3599L204.85 69.3599C205.263 69.358 205.666 69.4838 206.004 69.7202C206.343 69.9565 206.6 70.2917 206.74 70.6799C206.858 71.074 206.844 71.4957 206.702 71.8816C206.56 72.2675 206.296 72.5968 205.95 72.8199L123.29 121.36C123.016 121.55 122.679 121.625 122.35 121.57V121.62Z" fill="white"/>
<path fill-rule="evenodd" clip-rule="evenodd" d="M219.83 62.6098L115.25 2.24977C114.882 1.99396 114.436 1.877 113.99 1.91977L60.9899 5.75977C60.4401 5.84526 59.9091 6.02453 59.4199 6.28977L164.32 66.4298C164.723 66.266 165.147 66.1583 165.58 66.1098L218.58 62.2698C219.024 62.2306 219.467 62.3511 219.83 62.6098V62.6098Z" fill="#6FA3C6"/>
<path fill-rule="evenodd" clip-rule="evenodd" d="M64.9301 7.33976L164.46 64.4098L165.26 64.2598L213.05 60.8098L114.46 3.85977L64.9301 7.33976V7.33976ZM164.31 68.2798C163.978 68.2723 163.653 68.1867 163.36 68.0298L58.4601 7.89976C58.1556 7.74609 57.9003 7.50992 57.7235 7.21818C57.5467 6.92644 57.4554 6.59087 57.4601 6.24977C57.4814 5.90715 57.5962 5.57691 57.7918 5.29486C57.9875 5.0128 58.2567 4.7897 58.5701 4.64976C59.1721 4.25823 59.8567 4.01176 60.5701 3.92976L113.73 0.0797683C114.557 0.0240492 115.382 0.215497 116.1 0.629771L220.78 60.9998C220.997 61.1106 221.191 61.2636 221.348 61.4498C221.506 61.636 221.625 61.8517 221.698 62.0844C221.772 62.317 221.798 62.562 221.776 62.805C221.754 63.048 221.684 63.2841 221.57 63.4998C221.321 63.921 220.92 64.2311 220.45 64.3668C219.98 64.5025 219.475 64.4535 219.04 64.2298L218.72 64.1198L165.72 67.9498C165.456 67.9931 165.195 68.0566 164.94 68.1398C164.75 68.2502 164.53 68.299 164.31 68.2798V68.2798Z" fill="white"/>
</svg>
