<svg width="194" height="235" viewBox="0 0 194 235" fill="none" xmlns="http://www.w3.org/2000/svg">
<path fill-rule="evenodd" clip-rule="evenodd" d="M55.73 93.3301L7.36002 121.25C5.94166 122.168 4.7621 123.411 3.91878 124.875C3.07545 126.339 2.59256 127.983 2.51001 129.67V182.49C2.66001 184.02 2.73002 184.59 3.94002 185.63L31.66 201.63C30.45 200.63 30.37 200.01 30.24 198.49V145.66C30.331 143.977 30.8164 142.339 31.6572 140.878C32.4979 139.417 33.6704 138.174 35.08 137.25L83.45 109.32V53.4601C83.5442 51.7834 84.0325 50.1526 84.8752 48.7C85.7179 47.2475 86.8913 46.0141 88.3 45.1001L134 18.6801C135.4 18.0401 136 17.8101 137.44 18.3401L109.72 2.34006C108.24 1.75006 107.67 2.00006 106.28 2.64006L60.58 29.0001C59.17 29.9271 57.9968 31.1716 57.1546 32.6338C56.3123 34.096 55.8244 35.7353 55.73 37.4201V93.2901V93.3301ZM138.91 77.3301L111.17 61.3301L159.55 33.4101C160.93 32.7801 161.55 32.5201 162.98 33.0701L190.7 49.0701C189.24 48.5401 188.7 48.7901 187.27 49.4301L138.91 77.3501V77.3301ZM84.91 232.33L57.18 216.33C55.97 215.33 55.91 214.72 55.76 213.2V157.35L83.48 173.35V229.22C83.63 230.74 83.7 231.37 84.91 232.34V232.33Z" fill="#6FA3C6"/>
<path fill-rule="evenodd" clip-rule="evenodd" d="M114.65 61.3301L138.91 75.3301L185.81 48.2301L162.11 34.5301C161.55 34.3801 161.54 34.3801 160.27 34.9701L114.65 61.3301V61.3301ZM138.91 79.0001C138.608 79.0147 138.308 78.9491 138.04 78.8101L110.3 62.8101C110.036 62.6585 109.817 62.44 109.665 62.1766C109.512 61.9133 109.432 61.6144 109.432 61.3101C109.432 61.0058 109.512 60.7069 109.665 60.4435C109.817 60.1802 110.036 59.9617 110.3 59.8101L158.69 31.8901C160.29 31.1501 161.45 30.6201 163.59 31.4501L191.59 47.5501C191.963 47.7704 192.242 48.1215 192.371 48.5354C192.5 48.9492 192.472 49.3963 192.29 49.7901C192.108 50.1901 191.779 50.5046 191.371 50.6685C190.963 50.8323 190.508 50.8329 190.1 50.6701C189.29 50.3801 189.28 50.3801 188.02 50.9701L139.78 78.8501C139.518 78.987 139.225 79.0526 138.93 79.0401L138.91 79.0001ZM108.42 3.67008C108.58 3.68829 108.738 3.72521 108.89 3.78008L132.58 17.4701L87.32 43.6501C85.6782 44.7181 84.3135 46.1608 83.3382 47.8593C82.3629 49.5579 81.8048 51.4637 81.71 53.4201V108.3L34.09 135.8C32.4503 136.881 31.0893 138.333 30.1178 140.04C29.1464 141.747 28.592 143.659 28.5 145.62V197.77L4.99998 184.25C4.33998 183.73 4.33999 183.73 4.21999 182.49V129.8C4.29654 128.403 4.69795 127.042 5.39232 125.827C6.08669 124.612 7.05489 123.576 8.21999 122.8L56.58 94.8801C56.8437 94.7232 57.0624 94.5008 57.2149 94.2345C57.3673 93.9682 57.4483 93.6669 57.45 93.3601V37.6101C57.5211 36.2114 57.9202 34.849 58.6151 33.633C59.3099 32.417 60.281 31.3815 61.45 30.6101L107.05 4.27008C107.469 4.01558 107.929 3.83622 108.41 3.74009L108.42 3.67008ZM31.66 203.33C31.357 203.346 31.0555 203.277 30.79 203.13L3.06999 187.13C2.34544 186.64 1.75589 185.976 1.35568 185.198C0.955475 184.42 0.757486 183.554 0.779983 182.68V129.68C0.871408 127.714 1.42859 125.797 2.40565 124.088C3.38272 122.379 4.75174 120.926 6.39998 119.85L54 92.3501V37.4601C54.099 35.4965 54.6584 33.5837 55.6329 31.8762C56.6074 30.1686 57.9698 28.7141 59.61 27.6301L105.48 1.16008C107.22 0.340084 108.31 -0.109914 110.37 0.740086L138.37 16.8201C138.754 17.0354 139.042 17.3883 139.176 17.8075C139.31 18.2268 139.28 18.6814 139.093 19.0795C138.905 19.4777 138.573 19.79 138.165 19.9534C137.756 20.1168 137.3 20.1192 136.89 19.9601C136.09 19.6601 136.06 19.6601 134.79 20.2601L89.2 46.5601C88.0283 47.3405 87.0561 48.3849 86.3614 49.6093C85.6667 50.8337 85.2689 52.204 85.2 53.6101V109.32C85.2016 109.626 85.1219 109.927 84.969 110.193C84.8162 110.458 84.5956 110.678 84.33 110.83L36 138.77C34.8327 139.555 33.8638 140.601 33.1696 141.824C32.4755 143.047 32.0751 144.415 32 145.82V198.48C32.12 199.71 32.12 199.71 32.78 200.3C33.0408 200.527 33.2267 200.827 33.3133 201.162C33.3999 201.497 33.3831 201.85 33.265 202.174C33.147 202.499 32.9333 202.781 32.6522 202.982C32.371 203.183 32.0355 203.294 31.69 203.3L31.66 203.33ZM57.46 160.33V213.2C57.59 214.43 57.59 214.47 58.26 215.02L81.73 228.51V174.37L57.48 160.37L57.46 160.33ZM84.88 234.08C85.1558 234.075 85.4269 234.008 85.6729 233.884C85.9189 233.759 86.1333 233.58 86.3 233.36C86.5543 233 86.6646 232.559 86.6091 232.122C86.5536 231.685 86.3362 231.285 86 231C85.34 230.47 85.34 230.42 85.22 229.2V173.34C85.2182 173.043 85.1365 172.751 84.9835 172.496C84.8304 172.241 84.6116 172.032 84.35 171.89L56.62 155.84C56.3558 155.697 56.0602 155.623 55.76 155.623C55.4597 155.623 55.1642 155.697 54.9 155.84C54.6345 155.993 54.4137 156.213 54.2593 156.478C54.105 156.743 54.0225 157.044 54.02 157.35V213.35C54.0018 214.231 54.2012 215.102 54.6007 215.887C55.0002 216.672 55.5873 217.346 56.31 217.85L84.02 233.85C84.2831 233.998 84.5781 234.081 84.88 234.09V234.08Z" fill="white"/>
<path fill-rule="evenodd" clip-rule="evenodd" d="M134 205.63L88.3 232C85.63 233.56 83.45 232.29 83.45 229.21V173.34L35.08 201.34C32.41 202.9 30.24 201.62 30.24 198.53V145.66C30.3333 143.977 30.8197 142.34 31.6602 140.88C32.5008 139.419 33.672 138.176 35.08 137.25L83.45 109.32V53.4599C83.5395 51.7821 84.0257 50.1495 84.8689 48.6962C85.712 47.2429 86.8879 46.0104 88.3 45.0999L134 18.6799C136.68 17.1199 138.87 18.3799 138.87 21.4699V77.3299L187.24 49.4099C189.91 47.8399 192.08 49.1099 192.08 52.1899V105C191.984 106.682 191.497 108.318 190.657 109.778C189.816 111.239 188.646 112.482 187.24 113.41L138.87 141.35V197.2C138.775 198.888 138.285 200.531 137.439 201.995C136.593 203.459 135.415 204.704 134 205.63Z" fill="#6FA3C6"/>
<path fill-rule="evenodd" clip-rule="evenodd" d="M83.45 171.63C83.7616 171.611 84.0699 171.703 84.32 171.89C84.5816 172.031 84.8004 172.241 84.9534 172.496C85.1065 172.751 85.1882 173.042 85.19 173.34V229.21C85.1484 229.512 85.1763 229.819 85.2716 230.109C85.3669 230.398 85.5272 230.662 85.74 230.88C86.0337 230.953 86.3402 230.959 86.6364 230.897C86.9326 230.834 87.2108 230.705 87.45 230.52L133.19 204.12C134.333 203.345 135.286 202.322 135.978 201.127C136.671 199.932 137.085 198.597 137.19 197.22V141.37C137.183 141.061 137.261 140.757 137.414 140.489C137.567 140.221 137.791 140 138.06 139.85L186.43 111.91C187.578 111.142 188.535 110.122 189.228 108.928C189.921 107.734 190.332 106.397 190.43 105.02V52.1899C190.47 51.8966 190.441 51.5981 190.348 51.3173C190.254 51.0365 190.098 50.7809 189.89 50.5699C189.597 50.4861 189.288 50.4751 188.99 50.5379C188.692 50.6006 188.414 50.7352 188.18 50.9299L139.8 78.8499C139.536 78.9926 139.24 79.0673 138.94 79.0673C138.64 79.0673 138.344 78.9926 138.08 78.8499C137.816 78.693 137.598 78.4706 137.445 78.2043C137.293 77.938 137.212 77.6368 137.21 77.3299V21.4699C137.21 20.6399 137 20.0499 136.64 19.8599C136.355 19.774 136.054 19.7554 135.761 19.8058C135.468 19.8561 135.19 19.9739 134.95 20.1499L89.21 46.5599C88.0626 47.3303 87.106 48.3521 86.4128 49.5478C85.7197 50.7434 85.3083 52.0814 85.21 53.4599V109.32C85.2116 109.626 85.1319 109.927 84.979 110.192C84.8262 110.458 84.6056 110.678 84.34 110.83L36 138.77C34.8539 139.539 33.898 140.56 33.2049 141.753C32.5119 142.947 32.0998 144.283 32 145.66V198.48C31.9615 198.775 31.992 199.075 32.0892 199.356C32.1864 199.637 32.3475 199.892 32.56 200.1C32.8428 200.189 33.1429 200.209 33.4352 200.159C33.7274 200.108 34.0034 199.989 34.24 199.81L82.61 171.89C82.8624 171.708 83.169 171.616 83.48 171.63H83.45ZM86.14 234.38C85.3939 234.41 84.6548 234.226 84.01 233.85C83.2495 233.35 82.6357 232.657 82.2315 231.841C81.8273 231.026 81.6473 230.118 81.71 229.21V176.38L36 202.79C35.2458 203.296 34.3716 203.593 33.4657 203.653C32.5597 203.713 31.6539 203.532 30.84 203.13C30.0783 202.629 29.4643 201.934 29.0616 201.117C28.659 200.299 28.4823 199.389 28.55 198.48V145.66C28.6402 143.677 29.2061 141.746 30.1999 140.028C31.1937 138.31 32.5863 136.856 34.26 135.79L81.76 108.34V53.4599C81.8609 51.475 82.4344 49.5429 83.4328 47.8244C84.4312 46.1059 85.8256 44.6507 87.5 43.5799L133.24 17.1799C133.968 16.6158 134.847 16.2812 135.766 16.2185C136.685 16.1559 137.602 16.3681 138.4 16.8281C139.198 17.2882 139.84 17.9752 140.246 18.8019C140.653 19.6285 140.803 20.5572 140.68 21.4699V74.3499L186.46 47.8899C187.191 47.3317 188.071 47.0022 188.989 46.9431C189.906 46.8839 190.821 47.0977 191.618 47.5575C192.414 48.0172 193.057 48.7024 193.465 49.5268C193.873 50.3511 194.028 51.2777 193.91 52.1899V105C193.822 106.985 193.256 108.92 192.26 110.641C191.264 112.361 189.868 113.815 188.19 114.88L140.68 142.32V197.2C140.58 199.181 140.01 201.111 139.015 202.827C138.02 204.544 136.63 205.998 134.96 207.07L89.22 233.5C88.2874 234.056 87.2257 234.36 86.14 234.38V234.38Z" fill="white"/>
<path fill-rule="evenodd" clip-rule="evenodd" d="M30.31 144.64L2.60002 128.64L2.51001 129.64V182.46C2.66001 183.99 2.73002 184.56 3.94002 185.6L31.66 201.6C30.45 200.6 30.37 199.98 30.24 198.46V145.66L30.31 144.64Z" fill="#6FA3C6"/>
<path fill-rule="evenodd" clip-rule="evenodd" d="M4.22998 131.62V182.49C4.34998 183.73 4.34998 183.73 5.00998 184.25L28.48 197.81V145.61L4.20999 131.61L4.22998 131.62ZM31.66 203.33C31.357 203.346 31.0555 203.277 30.79 203.13L3.06999 187.13C2.34544 186.64 1.75589 185.976 1.35568 185.198C0.955475 184.42 0.757486 183.554 0.779983 182.68V129.68L0.86998 128.5C0.891535 128.212 0.987665 127.934 1.14894 127.694C1.31022 127.453 1.5311 127.259 1.78998 127.13C2.04575 126.982 2.3382 126.909 2.63364 126.919C2.92907 126.93 3.21551 127.024 3.45999 127.19L31.2 143.19C31.4789 143.356 31.7061 143.597 31.8562 143.885C32.0064 144.172 32.0734 144.496 32.05 144.82L31.96 145.82V198.48C32.08 199.71 32.08 199.71 32.74 200.3C33.0008 200.527 33.1867 200.827 33.2733 201.162C33.3599 201.497 33.3431 201.85 33.225 202.174C33.107 202.499 32.8933 202.781 32.6122 202.982C32.331 203.183 31.9955 203.294 31.65 203.3L31.66 203.33Z" fill="white"/>
<path fill-rule="evenodd" clip-rule="evenodd" d="M32.07 201.81V145.66L30.3 144.66C30.2608 144.992 30.2408 145.326 30.24 145.66V198.48C30.24 200.25 31 201.42 32.07 201.81Z" fill="#6FA3C6"/>
<path fill-rule="evenodd" clip-rule="evenodd" d="M32.07 203.53C31.8766 203.549 31.682 203.51 31.51 203.42C29.62 202.79 28.51 200.93 28.51 198.48V145.66C28.5119 145.235 28.542 144.811 28.6 144.39C28.6542 144.108 28.7725 143.842 28.9459 143.613C29.1194 143.384 29.3432 143.198 29.6 143.07C29.8568 142.951 30.1388 142.898 30.4212 142.913C30.7036 142.929 30.9779 143.014 31.22 143.16L32.99 144.16C33.2499 144.317 33.4648 144.539 33.6137 144.803C33.7627 145.068 33.8406 145.366 33.84 145.67V201.82C33.8385 202.096 33.7726 202.369 33.6476 202.615C33.5227 202.861 33.342 203.075 33.12 203.24C32.8068 203.439 32.4411 203.54 32.07 203.53Z" fill="white"/>
<path fill-rule="evenodd" clip-rule="evenodd" d="M32.07 201.81V145.66L30.3 144.66C30.2608 144.992 30.2408 145.326 30.24 145.66V198.48C30.24 200.25 31 201.42 32.07 201.81Z" fill="#6FA3C6"/>
<path fill-rule="evenodd" clip-rule="evenodd" d="M32.07 203.53C31.8766 203.549 31.682 203.51 31.51 203.42C29.62 202.79 28.51 200.93 28.51 198.48V145.66C28.5119 145.235 28.542 144.811 28.6 144.39C28.6542 144.108 28.7725 143.842 28.9459 143.613C29.1194 143.384 29.3432 143.198 29.6 143.07C29.8568 142.951 30.1388 142.898 30.4212 142.913C30.7036 142.929 30.9779 143.014 31.22 143.16L32.99 144.16C33.2499 144.317 33.4648 144.539 33.6137 144.803C33.7627 145.068 33.8406 145.366 33.84 145.67V201.82C33.8385 202.096 33.7726 202.369 33.6476 202.615C33.5227 202.861 33.342 203.075 33.12 203.24C32.8068 203.439 32.4411 203.54 32.07 203.53Z" fill="white"/>
<path fill-rule="evenodd" clip-rule="evenodd" d="M55.73 93.3299L83.45 109.33V53.4599C83.5239 52.2317 83.8045 51.0247 84.28 49.8899L56.56 33.8899C56.0789 35.0194 55.798 36.2241 55.73 37.4499V93.3299Z" fill="#6FA3C6"/>
<path fill-rule="evenodd" clip-rule="evenodd" d="M57.46 92.3299L81.71 106.33V53.4599C81.7667 52.515 81.9277 51.5793 82.19 50.6699L57.59 36.4899C57.5261 36.8605 57.4827 37.2344 57.46 37.6099V92.3399V92.3299ZM83.46 111.07C83.154 111.058 82.8555 110.972 82.59 110.82L54.88 94.8199C54.6151 94.6635 54.3949 94.4415 54.2408 94.1752C54.0866 93.909 54.0037 93.6075 54 93.2999V37.4599C54.0725 36.0156 54.3939 34.5947 54.95 33.2599C55.0405 33.0343 55.1758 32.8294 55.3477 32.6576C55.5195 32.4857 55.7244 32.3504 55.95 32.2599C56.187 32.182 56.4379 32.1551 56.686 32.1809C56.9342 32.2068 57.1741 32.2848 57.39 32.4099L85.12 48.4099C85.4737 48.6169 85.7435 48.9415 85.8824 49.3271C86.0213 49.7127 86.0205 50.1349 85.88 50.5199C85.4715 51.5167 85.2316 52.5744 85.17 53.6499V109.36C85.1716 109.666 85.0919 109.967 84.939 110.232C84.7862 110.498 84.5657 110.718 84.3 110.87C84.0389 111.01 83.7465 111.083 83.45 111.08L83.46 111.07Z" fill="white"/>
<path fill-rule="evenodd" clip-rule="evenodd" d="M84.88 232.33L57.15 216.33C55.94 215.33 55.87 214.72 55.73 213.2V157.35L83.45 173.35V229.22C83.6 230.73 83.67 231.36 84.88 232.33Z" fill="#6FA3C6"/>
<path fill-rule="evenodd" clip-rule="evenodd" d="M57.46 160.34V213.21C57.58 214.39 57.59 214.44 58.26 215.03L81.73 228.52V174.38L57.48 160.38L57.46 160.34ZM84.88 234.09C84.5748 234.082 84.2761 234 84.01 233.85L56.3 217.85C55.5741 217.349 54.9846 216.676 54.5847 215.89C54.1848 215.104 53.9873 214.231 54.01 213.35V157.35C54.0125 157.043 54.095 156.743 54.2493 156.478C54.4037 156.213 54.6245 155.993 54.89 155.84C55.1542 155.697 55.4497 155.623 55.75 155.623C56.0503 155.623 56.3458 155.697 56.61 155.84L84.34 171.89C84.6016 172.031 84.8204 172.241 84.9735 172.496C85.1265 172.751 85.2082 173.042 85.21 173.34V229.21C85.33 230.43 85.33 230.48 85.99 231.01C86.3309 231.29 86.554 231.688 86.6152 232.126C86.6763 232.563 86.5709 233.007 86.32 233.37C86.1513 233.592 85.9336 233.773 85.6839 233.898C85.4342 234.023 85.1592 234.088 84.88 234.09Z" fill="white"/>
<path fill-rule="evenodd" clip-rule="evenodd" d="M134 205.63L88.3 232C85.63 233.56 83.45 232.29 83.45 229.21V173.34L35.08 201.34C32.41 202.9 30.24 201.62 30.24 198.53V145.66C30.3333 143.977 30.8197 142.34 31.6602 140.88C32.5008 139.419 33.672 138.176 35.08 137.25L83.45 109.32V53.4599C83.5395 51.7821 84.0257 50.1495 84.8689 48.6962C85.712 47.2429 86.8879 46.0104 88.3 45.0999L134 18.6799C136.68 17.1199 138.87 18.3799 138.87 21.4699V77.3299L187.24 49.4099C189.91 47.8399 192.08 49.1099 192.08 52.1899V105C191.984 106.682 191.497 108.318 190.657 109.778C189.816 111.239 188.646 112.482 187.24 113.41L138.87 141.35V197.2C138.775 198.888 138.285 200.531 137.439 201.995C136.593 203.459 135.415 204.704 134 205.63Z" fill="#6FA3C6"/>
<path fill-rule="evenodd" clip-rule="evenodd" d="M83.45 171.63C83.7616 171.611 84.0699 171.703 84.32 171.89C84.5816 172.031 84.8004 172.241 84.9534 172.496C85.1065 172.751 85.1882 173.042 85.19 173.34V229.21C85.1484 229.512 85.1763 229.819 85.2716 230.109C85.3669 230.398 85.5272 230.662 85.74 230.88C86.0337 230.953 86.3402 230.959 86.6364 230.897C86.9326 230.834 87.2108 230.705 87.45 230.52L133.19 204.12C134.333 203.345 135.286 202.322 135.978 201.127C136.671 199.932 137.085 198.597 137.19 197.22V141.37C137.183 141.061 137.261 140.757 137.414 140.489C137.567 140.221 137.791 140 138.06 139.85L186.43 111.91C187.578 111.142 188.535 110.122 189.228 108.928C189.921 107.734 190.332 106.397 190.43 105.02V52.1899C190.47 51.8966 190.441 51.5981 190.348 51.3173C190.254 51.0365 190.098 50.7809 189.89 50.5699C189.597 50.4861 189.288 50.4751 188.99 50.5379C188.692 50.6006 188.414 50.7352 188.18 50.9299L139.8 78.8499C139.536 78.9926 139.24 79.0673 138.94 79.0673C138.64 79.0673 138.344 78.9926 138.08 78.8499C137.816 78.693 137.598 78.4706 137.445 78.2043C137.293 77.938 137.212 77.6368 137.21 77.3299V21.4699C137.21 20.6399 137 20.0499 136.64 19.8599C136.355 19.774 136.054 19.7554 135.761 19.8058C135.468 19.8561 135.19 19.9739 134.95 20.1499L89.21 46.5599C88.0626 47.3303 87.106 48.3521 86.4128 49.5478C85.7197 50.7434 85.3083 52.0814 85.21 53.4599V109.32C85.2116 109.626 85.1319 109.927 84.979 110.192C84.8262 110.458 84.6056 110.678 84.34 110.83L36 138.77C34.8539 139.539 33.898 140.56 33.2049 141.753C32.5119 142.947 32.0998 144.283 32 145.66V198.48C31.9615 198.775 31.992 199.075 32.0892 199.356C32.1864 199.637 32.3475 199.892 32.56 200.1C32.8428 200.189 33.1429 200.209 33.4352 200.159C33.7274 200.108 34.0034 199.989 34.24 199.81L82.61 171.89C82.8624 171.708 83.169 171.616 83.48 171.63H83.45ZM86.14 234.38C85.3939 234.41 84.6548 234.226 84.01 233.85C83.2495 233.35 82.6357 232.657 82.2315 231.841C81.8273 231.026 81.6473 230.118 81.71 229.21V176.38L36 202.79C35.2458 203.296 34.3716 203.593 33.4657 203.653C32.5597 203.713 31.6539 203.532 30.84 203.13C30.0783 202.629 29.4643 201.934 29.0616 201.117C28.659 200.299 28.4823 199.389 28.55 198.48V145.66C28.6402 143.677 29.2061 141.746 30.1999 140.028C31.1937 138.31 32.5863 136.856 34.26 135.79L81.76 108.34V53.4599C81.8609 51.475 82.4344 49.5429 83.4328 47.8244C84.4312 46.1059 85.8256 44.6507 87.5 43.5799L133.24 17.1799C133.968 16.6158 134.847 16.2812 135.766 16.2185C136.685 16.1559 137.602 16.3681 138.4 16.8281C139.198 17.2882 139.84 17.9752 140.246 18.8019C140.653 19.6285 140.803 20.5572 140.68 21.4699V74.3499L186.46 47.8899C187.191 47.3317 188.071 47.0022 188.989 46.9431C189.906 46.8839 190.821 47.0977 191.618 47.5575C192.414 48.0172 193.057 48.7024 193.465 49.5268C193.873 50.3511 194.028 51.2777 193.91 52.1899V105C193.822 106.985 193.256 108.92 192.26 110.641C191.264 112.361 189.868 113.815 188.19 114.88L140.68 142.32V197.2C140.58 199.181 140.01 201.111 139.015 202.827C138.02 204.544 136.63 205.998 134.96 207.07L89.22 233.5C88.2874 234.056 87.2257 234.36 86.14 234.38V234.38Z" fill="white"/>
</svg>
