<svg width="404" height="364" viewBox="0 0 404 364" fill="none" xmlns="http://www.w3.org/2000/svg">
<path fill-rule="evenodd" clip-rule="evenodd" d="M400.15 234.05V245.11C399.903 246.437 399.216 247.642 398.2 248.53C397.416 249.225 396.58 249.86 395.7 250.43L209.43 357.9C203.03 361.6 193.02 361.57 186.35 357.9L14.2603 258.37C12.3103 257.24 10.3703 255.67 9.81027 253.5L9.53027 253.06V242C10.3735 244.307 12.0652 246.206 14.2603 247.31L186.35 346.84C193.02 350.51 203.03 350.51 209.43 346.84L395.7 239.36C397.92 238.05 399.6 236.52 400.15 234.05Z" fill="url(#paint0_linear)"/>
<path fill-rule="evenodd" clip-rule="evenodd" d="M12.8702 252.48C13.4841 253.843 14.5712 254.937 15.9302 255.56L188 355.07C193.56 358.18 202.18 358.21 207.74 355.07L394 247.58C394.715 247.194 395.386 246.731 396 246.2C396.321 245.612 396.692 245.053 397.11 244.53V242.34L211.1 349.7C203.59 353.93 192.19 353.93 184.68 349.7L12.8702 250.34V252.48ZM198 363.91C193.356 363.977 188.768 362.888 184.65 360.74L12.5902 261.18C9.87236 259.782 7.78551 257.406 6.75018 254.53C6.44766 254.093 6.25866 253.588 6.2002 253.06V242C6.24375 241.185 6.57345 240.411 7.13132 239.814C7.68919 239.218 8.43948 238.838 9.25018 238.74C10.033 238.638 10.8268 238.817 11.4899 239.245C12.1529 239.674 12.6421 240.324 12.8702 241.08C13.1402 242.41 13.9802 243.38 15.9302 244.47L188 344C193.56 347.12 202.18 347.15 207.74 344L394 236.52C396 235.46 396.78 234.52 397.06 233.16C397.31 232.418 397.804 231.782 398.461 231.357C399.119 230.932 399.901 230.743 400.68 230.82C401.458 230.923 402.171 231.31 402.682 231.906C403.193 232.502 403.467 233.265 403.45 234.05V245.11C403.092 247.312 402.021 249.336 400.4 250.87C399.456 251.748 398.432 252.534 397.34 253.22L211.1 360.74C207.085 362.921 202.569 364.014 198 363.91V363.91Z" fill="white"/>
<path fill-rule="evenodd" clip-rule="evenodd" d="M14.26 234L200.26 126.46C206.66 122.81 217.26 122.81 223.34 126.46L395.7 226C402.09 229.64 402.09 235.68 395.7 239.32L209.43 346.87C203.03 350.5 192.75 350.5 186.35 346.87L14.26 247.37C7.85996 243.66 7.85996 237.66 14.26 234Z" fill="url(#paint1_linear)"/>
<path fill-rule="evenodd" clip-rule="evenodd" d="M15.9302 236.83C13.9802 237.99 12.5902 239.38 12.5902 240.69C12.5902 242 13.9802 243.36 15.9302 244.5L188 344C193.28 347.12 202.45 347.12 207.74 344L394 236.52C396 235.38 397.06 233.99 397.06 232.68C397.06 231.37 396 230 394 228.87L221.67 129.35C216.38 126.23 207.48 126.25 201.92 129.35L15.9202 236.86L15.9302 236.83ZM198 352.9C193.352 352.949 188.765 351.843 184.65 349.68L12.5902 250.17C8.42018 247.81 6.2002 244.36 6.2002 240.69C6.2002 237.02 8.42018 233.51 12.5902 231.18L198.86 123.67C206.1 119.39 217.77 119.39 225 123.67L397.37 223.2C401.26 225.54 403.76 229.01 403.76 232.68C403.76 236.35 401.26 239.86 397.37 242.19L211.1 349.7C207.084 351.882 202.57 352.984 198 352.9V352.9Z" fill="white"/>
<path fill-rule="evenodd" clip-rule="evenodd" d="M175 307.72V316.06C179.17 335.58 227.55 335.97 231.72 316.06V307.72C227.55 327.43 180.01 327.01 175.28 308.5L175 307.72Z" fill="url(#paint2_linear)"/>
<path fill-rule="evenodd" clip-rule="evenodd" d="M180.24 320C184.68 325.11 194.69 327.61 203.59 327.61C211.93 327.61 221.39 325.28 226.11 320.21C219.99 323.97 211.661 325.59 204.701 325.75C196.081 325.75 186.62 324.11 180.24 320ZM203.59 334.17C189.69 334.17 174.4 328.78 171.9 316.8V307.8C171.872 307.007 172.142 306.233 172.656 305.629C173.171 305.026 173.893 304.637 174.68 304.54C175.491 304.45 176.307 304.662 176.972 305.133C177.638 305.605 178.107 306.305 178.29 307.1L178.57 307.89C180.24 315.61 193.021 319.37 204.421 319.25C215.271 319.03 226.94 315.19 228.61 307.13C228.713 306.345 229.121 305.632 229.747 305.147C230.373 304.662 231.165 304.444 231.951 304.54C232.769 304.618 233.531 304.992 234.093 305.592C234.654 306.193 234.977 306.978 235 307.8V316.14C232.5 328.82 217.49 334.21 203.59 334.21V334.17Z" fill="white"/>
<path fill-rule="evenodd" clip-rule="evenodd" d="M223.61 294.51C212.49 288.09 194.41 288.09 183.3 294.51C172.19 300.93 172.17 311.33 183.3 317.76C194.43 324.19 212.49 324.18 223.61 317.76C234.73 311.34 234.72 300.94 223.61 294.51Z" fill="url(#paint3_linear)"/>
<path fill-rule="evenodd" clip-rule="evenodd" d="M203.31 293C196.64 293 189.97 294.44 184.96 297.34C180.51 299.85 178.29 302.96 178.29 306.12C178.29 309.28 180.51 312.41 184.96 314.91C194.96 320.72 211.96 320.72 221.96 314.91C226.13 312.44 228.63 309.32 228.63 306.16C228.63 303 226.13 299.85 221.96 297.34C216.96 294.44 210.28 293 203.33 293H203.31ZM203.31 325.87C195.53 325.87 187.74 324.11 181.62 320.59C175.23 316.86 171.62 311.75 171.62 306.12C171.62 300.49 175.24 295.39 181.62 291.67C193.86 284.67 213.04 284.67 225 291.67C231.67 295.39 235.28 300.51 235.28 306.16C235.28 311.81 231.67 316.88 225.28 320.59C219.16 324.12 211.1 325.88 203.31 325.88V325.87Z" fill="white"/>
<path fill-rule="evenodd" clip-rule="evenodd" d="M223.33 206.39V303.74L223.05 304.3C219.99 317.42 186.62 317.4 183.3 304.3V206.39C183.261 206.78 183.356 207.172 183.57 207.5C184.019 208.874 184.779 210.127 185.79 211.16C188.656 213.605 192.097 215.281 195.79 216.03C202.18 217.58 210.52 217.03 216.64 213.89C218.686 212.867 220.487 211.413 221.92 209.63C222.441 208.807 222.816 207.901 223.03 206.95L223.33 206.39Z" fill="url(#paint4_linear)"/>
<path fill-rule="evenodd" clip-rule="evenodd" d="M186.62 215.78V303.78C187.46 307.78 194.69 310.9 203.31 310.9C211.93 310.9 218.88 307.79 219.99 303.53V215.78C219.461 216.157 218.902 216.491 218.32 216.78C211.93 220.15 202.75 221.09 194.97 219.2C192.019 218.521 189.199 217.366 186.62 215.78V215.78ZM203.31 317.4C194.14 317.4 182.46 314.17 180.24 305.08C180.24 304.83 179.96 304 179.96 303.74V206.39C179.972 205.608 180.256 204.854 180.763 204.259C181.27 203.664 181.97 203.265 182.74 203.13C183.147 203.063 183.563 203.076 183.965 203.17C184.367 203.264 184.747 203.436 185.082 203.677C185.417 203.917 185.702 204.221 185.919 204.572C186.137 204.923 186.283 205.313 186.35 205.72C186.705 206.914 187.38 207.99 188.3 208.83C189.97 210.58 193.02 212.05 196.36 212.83C202.75 214.34 210.26 213.64 215.27 211C216.784 210.203 218.111 209.091 219.16 207.74C219.71 207.25 219.71 206.66 219.99 206.16C220.156 205.34 220.615 204.608 221.281 204.102C221.947 203.595 222.775 203.349 223.61 203.41C224.403 203.436 225.157 203.759 225.724 204.314C226.29 204.87 226.628 205.618 226.67 206.41V303.76C226.67 303.99 226.39 304.76 226.39 304.99C224.16 314.17 212.49 317.4 203.31 317.4Z" fill="white"/>
<path fill-rule="evenodd" clip-rule="evenodd" d="M213.6 304.58C213.163 304.591 212.729 304.514 212.323 304.353C211.917 304.193 211.547 303.953 211.236 303.647C210.924 303.341 210.677 302.976 210.51 302.573C210.342 302.169 210.257 301.737 210.26 301.3V226.1C210.256 225.663 210.34 225.23 210.507 224.826C210.674 224.422 210.921 224.056 211.233 223.75C211.544 223.444 211.915 223.204 212.322 223.044C212.728 222.884 213.163 222.808 213.6 222.82C214.468 222.84 215.296 223.19 215.915 223.8C216.534 224.409 216.897 225.232 216.93 226.1V301.3C216.892 302.167 216.528 302.987 215.91 303.595C215.292 304.204 214.467 304.556 213.6 304.58V304.58Z" fill="white"/>
<path fill-rule="evenodd" clip-rule="evenodd" d="M203.31 307.42C202.47 307.389 201.676 307.026 201.103 306.412C200.529 305.797 200.223 304.98 200.25 304.14V231C200.225 230.163 200.534 229.35 201.107 228.739C201.68 228.128 202.472 227.769 203.31 227.74C203.746 227.725 204.18 227.799 204.587 227.956C204.993 228.114 205.364 228.352 205.676 228.657C205.988 228.961 206.235 229.326 206.403 229.729C206.57 230.132 206.654 230.564 206.65 231V304.12C206.659 304.56 206.579 304.996 206.415 305.404C206.25 305.811 206.003 306.181 205.691 306.49C205.378 306.799 205.006 307.041 204.596 307.201C204.187 307.361 203.749 307.435 203.31 307.42V307.42Z" fill="white"/>
<path fill-rule="evenodd" clip-rule="evenodd" d="M307.84 228.23V236.58C311.74 256.06 360.39 256.48 364.29 236.58V228.21C360.39 247.95 312.58 247.5 307.84 229.01V228.23Z" fill="url(#paint5_linear)"/>
<path fill-rule="evenodd" clip-rule="evenodd" d="M313.13 240.47C317.3 245.55 327.31 248.09 336.21 248.09C344.82 248.09 354.27 245.73 358.73 240.69C352.61 244.42 344.55 246.06 337.32 246.2C328.7 246.34 319.53 244.58 313.13 240.47ZM336.21 254.62C322.3 254.62 307.02 249.25 304.51 237.25V228.25C304.5 227.443 304.791 226.662 305.328 226.06C305.864 225.458 306.606 225.078 307.408 224.995C308.211 224.912 309.015 225.133 309.663 225.613C310.311 226.093 310.756 226.798 310.91 227.59L311.19 228.37C313.13 236.04 325.64 239.84 337.04 239.68C347.89 239.46 359.56 235.68 361.23 227.56C361.384 226.767 361.83 226.061 362.479 225.581C363.128 225.101 363.934 224.881 364.737 224.965C365.54 225.049 366.282 225.431 366.818 226.035C367.353 226.639 367.643 227.422 367.63 228.23V236.6C365.12 249.25 350.1 254.62 336.21 254.62Z" fill="white"/>
<path fill-rule="evenodd" clip-rule="evenodd" d="M356.22 215C345.1 208.58 327.04 208.58 315.91 215C304.78 221.42 304.79 231.82 315.91 238.21C327.03 244.6 345.1 244.66 356.22 238.21C367.34 231.76 367.34 221.42 356.22 215Z" fill="url(#paint6_linear)"/>
<path fill-rule="evenodd" clip-rule="evenodd" d="M336.21 213.5C329.21 213.5 322.58 214.98 317.58 217.87C313.41 220.34 310.91 223.48 310.91 226.65C310.91 229.82 313.41 232.93 317.58 235.43C327.58 241.25 344.58 241.22 354.58 235.43C358.75 232.93 361.25 229.82 361.25 226.65C361.25 223.48 358.75 220.34 354.58 217.87C349.58 214.98 342.9 213.5 336.23 213.5H336.21ZM336.21 246.39C328.14 246.39 320.36 244.61 314.21 241.08C307.81 237.38 304.21 232.24 304.21 226.65C304.21 221.06 307.82 215.89 314.21 212.19C326.45 205.13 345.63 205.13 357.86 212.19C364.26 215.89 367.86 221.04 367.86 226.65C367.86 232.26 364.25 237.38 357.86 241.08C351.78 244.61 344 246.39 336.21 246.39Z" fill="white"/>
<path fill-rule="evenodd" clip-rule="evenodd" d="M355.94 126.87V224.79C352.61 237.91 319.25 237.91 316.19 224.79L315.91 224.23V126.87C315.91 127.29 316.19 127.59 316.19 127.99C316.744 129.388 317.597 130.648 318.69 131.68C321.19 134.16 325.08 135.74 328.42 136.54C335.09 138.08 343.42 137.54 349.55 134.41C351.563 133.442 353.287 131.963 354.55 130.12C355.151 129.303 355.617 128.395 355.93 127.43L355.94 126.87Z" fill="url(#paint7_linear)"/>
<path fill-rule="evenodd" clip-rule="evenodd" d="M319.25 136.26V224.26C320.36 228.26 327.31 231.37 335.93 231.37C344.55 231.37 351.78 228.3 352.61 224.04V136.26C352.078 136.632 351.52 136.966 350.94 137.26C344.55 140.62 335.65 141.54 327.59 139.67C324.644 138.973 321.828 137.808 319.25 136.22V136.26ZM335.93 237.88C326.76 237.88 315.08 234.69 312.85 225.57C312.85 225.32 312.58 224.51 312.58 224.23V126.87C312.602 126.057 312.918 125.28 313.47 124.682C314.022 124.084 314.771 123.707 315.58 123.62C316.369 123.524 317.164 123.745 317.79 124.234C318.416 124.724 318.823 125.441 318.92 126.23C319.29 127.41 319.958 128.474 320.86 129.32C322.53 131.06 325.59 132.54 329.21 133.32C335.6 134.82 342.83 134.1 347.84 131.48C349.474 130.758 350.904 129.641 352 128.23C352.309 127.744 352.501 127.193 352.56 126.62C353.11 125 354.78 123.62 356.17 123.89C356.956 123.911 357.706 124.225 358.273 124.771C358.839 125.317 359.18 126.055 359.23 126.84V224.2C359.23 224.42 358.96 225.2 358.96 225.42C356.78 234.69 345.1 237.88 335.93 237.88Z" fill="white"/>
<path fill-rule="evenodd" clip-rule="evenodd" d="M346.21 225.07C345.34 225.05 344.51 224.698 343.891 224.087C343.272 223.475 342.91 222.65 342.88 221.78V146.61C342.913 145.741 343.275 144.917 343.894 144.306C344.512 143.695 345.341 143.342 346.21 143.32C346.648 143.306 347.084 143.382 347.492 143.542C347.9 143.702 348.272 143.943 348.584 144.25C348.896 144.558 349.143 144.925 349.309 145.331C349.475 145.737 349.557 146.172 349.55 146.61V221.78C349.557 222.218 349.475 222.653 349.309 223.059C349.143 223.464 348.896 223.832 348.584 224.14C348.272 224.447 347.9 224.688 347.492 224.848C347.084 225.008 346.648 225.083 346.21 225.07V225.07Z" fill="white"/>
<path fill-rule="evenodd" clip-rule="evenodd" d="M336.21 227.92C335.773 227.934 335.338 227.858 334.93 227.699C334.523 227.54 334.152 227.3 333.84 226.993C333.528 226.687 333.281 226.32 333.114 225.916C332.948 225.511 332.865 225.077 332.87 224.64V151.52C332.866 151.083 332.95 150.65 333.117 150.246C333.284 149.842 333.531 149.476 333.843 149.17C334.155 148.864 334.525 148.624 334.932 148.464C335.339 148.304 335.774 148.228 336.21 148.24C337.039 148.289 337.816 148.659 338.376 149.271C338.936 149.884 339.235 150.69 339.21 151.52V224.64C339.238 225.47 338.939 226.278 338.379 226.891C337.818 227.504 337.04 227.873 336.21 227.92V227.92Z" fill="white"/>
<path fill-rule="evenodd" clip-rule="evenodd" d="M242.79 190.93V199.29C246.97 218.78 295.62 219.2 299.51 199.29V190.93C295.62 210.64 247.8 210.22 243.07 191.7L242.79 190.93Z" fill="url(#paint8_linear)"/>
<path fill-rule="evenodd" clip-rule="evenodd" d="M248.07 203.16C252.52 208.27 262.53 210.8 271.43 210.8C279.77 210.8 289.5 208.44 293.95 203.38C287.83 207.13 279.49 208.77 272.54 208.91C263.92 209.16 254.74 207.27 248.07 203.16V203.16ZM271.43 217.31C257.52 217.31 242.23 211.94 239.73 199.93V190.93C239.699 190.137 239.968 189.361 240.483 188.757C240.998 188.153 241.722 187.765 242.51 187.67C243.327 187.577 244.149 187.79 244.818 188.268C245.487 188.747 245.954 189.456 246.13 190.26L246.41 191.03C248.07 198.51 260.02 202.38 271.41 202.38C271.686 202.395 271.963 202.395 272.24 202.38C283.08 202.19 294.76 198.38 296.43 190.29C296.577 189.528 296.995 188.845 297.608 188.368C298.22 187.892 298.985 187.654 299.76 187.7C300.58 187.775 301.345 188.149 301.908 188.749C302.472 189.35 302.796 190.136 302.82 190.96V199.32C300.34 211.94 285.33 217.31 271.43 217.31Z" fill="white"/>
<path fill-rule="evenodd" clip-rule="evenodd" d="M291.45 177.73C280.32 171.3 262.25 171.3 251.13 177.73C240.01 184.16 240.01 194.57 251.13 200.96C262.25 207.35 280.32 207.38 291.45 200.96C302.58 194.54 302.56 184.14 291.45 177.73Z" fill="url(#paint9_linear)"/>
<path fill-rule="evenodd" clip-rule="evenodd" d="M271.15 176.22C264.48 176.22 257.8 177.66 252.8 180.55C248.35 183.05 246.13 186.17 246.13 189.37C246.13 192.57 248.35 195.65 252.8 198.15C262.8 203.94 279.8 203.91 289.8 198.15C294.25 195.65 296.47 192.53 296.47 189.37C296.47 186.21 294.25 183.05 289.8 180.55C284.8 177.66 278.12 176.22 271.17 176.22H271.15ZM271.15 209.08C263.37 209.08 255.58 207.33 249.46 203.8C243.07 200.1 239.46 194.96 239.46 189.37C239.46 183.78 243.07 178.6 249.46 174.88C261.7 167.88 280.88 167.88 293.11 174.88C299.51 178.57 302.84 183.73 302.84 189.34C302.84 194.95 299.51 200.07 293.11 203.77C287 207.33 279.22 209.08 271.15 209.08V209.08Z" fill="white"/>
<path fill-rule="evenodd" clip-rule="evenodd" d="M108.79 189.78V198.15C112.67 217.65 161.33 218.03 165.5 198.15V189.78C161.33 209.5 113.5 209.08 108.79 190.56V189.78Z" fill="url(#paint10_linear)"/>
<path fill-rule="evenodd" clip-rule="evenodd" d="M114.06 202.1C118.52 206.97 128.25 209.63 137.42 209.63C145.76 209.63 155.21 207.3 159.67 202.24C153.54 206 145.48 207.64 138.26 207.77C129.63 207.94 120.74 206.16 114.06 202.1V202.1ZM137.42 216.17C123.24 216.17 107.95 210.8 105.42 198.82V189.82C105.448 189 105.772 188.219 106.333 187.621C106.894 187.023 107.654 186.65 108.47 186.57C109.256 186.474 110.048 186.692 110.673 187.177C111.299 187.662 111.708 188.375 111.81 189.16L112.09 189.94C114.03 197.64 126.55 201.67 138.23 201.25C149.07 201.06 160.46 197.25 162.13 189.16C162.192 188.749 162.335 188.355 162.552 188.001C162.768 187.647 163.054 187.34 163.392 187.099C163.729 186.857 164.112 186.686 164.517 186.595C164.922 186.504 165.341 186.496 165.75 186.57C166.538 186.66 167.263 187.046 167.779 187.649C168.294 188.251 168.563 189.027 168.53 189.82V198.19C166.03 210.84 151.02 216.19 137.39 216.19L137.42 216.17Z" fill="white"/>
<path fill-rule="evenodd" clip-rule="evenodd" d="M157.16 176.58C146.04 170.16 127.97 170.16 117.16 176.58C105.77 183 105.77 193.43 116.89 199.82C128.01 206.21 146.08 206.24 157.2 199.82C168.32 193.4 168.28 183 157.16 176.58Z" fill="url(#paint11_linear)"/>
<path fill-rule="evenodd" clip-rule="evenodd" d="M137.14 175.08C130.47 175.08 123.52 176.52 118.52 179.41C114.34 181.91 111.84 185.02 111.84 188.2C111.84 191.38 114.34 194.51 118.52 197.01C128.52 202.77 145.52 202.8 155.52 197.01C159.97 194.51 162.47 191.37 162.47 188.2C162.47 185.03 159.97 181.91 155.52 179.41C150.52 176.52 143.85 175.08 137.17 175.08H137.14ZM137.14 207.94C129.35 207.94 121.57 206.19 115.46 202.65C108.79 198.93 105.46 193.81 105.46 188.2C105.46 182.59 108.8 177.47 115.46 173.75C127.46 166.75 146.6 166.75 158.83 173.75C165.22 177.47 168.83 182.62 168.83 188.2C168.83 193.78 165.21 198.93 158.83 202.65C152.71 206.19 144.92 207.94 137.14 207.94Z" fill="white"/>
<path fill-rule="evenodd" clip-rule="evenodd" d="M109.9 267.27V275.64C114.06 295.13 162.44 295.52 166.61 275.64V267.27C162.44 286.98 114.9 286.57 110.18 268.05L109.9 267.27Z" fill="url(#paint12_linear)"/>
<path fill-rule="evenodd" clip-rule="evenodd" d="M115.18 279.51C119.63 284.61 129.63 287.12 138.53 287.12C146.87 287.12 156.6 284.78 161.05 279.72C154.93 283.48 146.6 285.12 139.64 285.26C130.75 285.43 121.85 283.65 115.18 279.51ZM138.53 293.68C124.35 293.68 109.34 288.29 106.83 276.28L106.56 267.28C106.588 266.459 106.914 265.676 107.477 265.078C108.04 264.48 108.802 264.107 109.62 264.03C110.026 263.961 110.442 263.974 110.844 264.066C111.246 264.159 111.625 264.33 111.961 264.57C112.296 264.81 112.581 265.113 112.799 265.463C113.016 265.813 113.163 266.203 113.23 266.61V267.42C115.18 275.09 128.23 279.04 139.36 278.74C150.21 278.51 161.88 274.67 163.56 266.61C163.664 265.829 164.072 265.12 164.696 264.637C165.319 264.154 166.107 263.936 166.89 264.03C167.707 264.107 168.469 264.48 169.032 265.078C169.596 265.676 169.922 266.459 169.95 267.28V275.65C167.45 288.29 152.43 293.65 138.53 293.68V293.68Z" fill="white"/>
<path fill-rule="evenodd" clip-rule="evenodd" d="M158.56 254.06C147.43 247.64 129.35 247.64 118.24 254.06C107.13 260.48 107.11 270.92 118.24 277.34C129.37 283.76 147.43 283.73 158.56 277.34C169.69 270.95 169.67 260.48 158.56 254.06Z" fill="url(#paint13_linear)"/>
<path fill-rule="evenodd" clip-rule="evenodd" d="M138.26 252.56C131.58 252.56 124.91 254.01 119.9 256.9C115.46 259.41 113.23 262.52 113.23 265.72C113.23 268.92 115.46 272 119.9 274.5C129.9 280.28 146.9 280.28 156.9 274.5C161.07 272 163.58 268.88 163.58 265.72C163.58 262.56 161.07 259.41 156.9 256.9C151.9 254.01 144.9 252.56 138.28 252.56H138.26ZM138.26 285.43C130.47 285.43 122.68 283.67 116.57 280.15C110.18 276.44 106.57 271.3 106.57 265.72C106.57 260.14 110.19 254.95 116.57 251.26C128.8 244.19 147.99 244.19 160.22 251.26C166.61 254.95 169.95 260.1 169.95 265.72C169.95 271.34 166.61 276.44 160.22 280.15C154.1 283.67 146 285.43 138.26 285.43Z" fill="white"/>
<path fill-rule="evenodd" clip-rule="evenodd" d="M158.28 165.93V263.85C154.93 276.97 121.57 276.95 118.28 263.85V165.93C118.238 166.325 118.337 166.722 118.56 167.05C119.111 168.449 119.965 169.71 121.06 170.74C123.799 173.214 127.165 174.888 130.79 175.58C137.18 177.14 145.52 176.58 151.64 173.44C153.676 172.418 155.474 170.981 156.92 169.22C157.519 168.385 157.991 167.464 158.32 166.49L158.28 165.93Z" fill="url(#paint14_linear)"/>
<path fill-rule="evenodd" clip-rule="evenodd" d="M121.57 175.33V263.33C122.41 267.33 129.63 270.45 138.26 270.45C146.87 270.45 153.83 267.37 154.93 263.08V175.33C154.397 175.696 153.843 176.029 153.27 176.33C145.98 179.748 137.748 180.605 129.91 178.76C126.955 178.091 124.135 176.924 121.57 175.31V175.33ZM138.26 277C129.08 277 117.4 273.77 115.18 264.68C115.18 264.43 114.9 263.62 114.9 263.34V165.93C114.926 165.108 115.252 164.324 115.815 163.726C116.379 163.127 117.142 162.755 117.96 162.68C118.746 162.584 119.538 162.802 120.164 163.287C120.79 163.772 121.198 164.485 121.3 165.27C121.659 166.461 122.329 167.534 123.24 168.38C124.91 170.13 127.97 171.58 131.3 172.38C137.7 173.85 145.2 173.13 150.21 170.52C151.723 169.738 153.05 168.64 154.1 167.3C154.579 166.89 154.877 166.308 154.93 165.68C155.092 164.855 155.551 164.118 156.22 163.609C156.89 163.101 157.722 162.855 158.56 162.92C159.323 162.959 160.039 163.295 160.557 163.855C161.075 164.416 161.352 165.157 161.33 165.92V264.51C159.1 273.72 147.43 277 138.26 277Z" fill="white"/>
<path fill-rule="evenodd" clip-rule="evenodd" d="M138.26 267C137.418 266.969 136.623 266.605 136.05 265.988C135.476 265.371 135.171 264.552 135.2 263.71V190.59C135.178 189.751 135.487 188.938 136.059 188.324C136.632 187.711 137.422 187.346 138.26 187.31C138.697 187.299 139.131 187.376 139.537 187.537C139.943 187.697 140.313 187.937 140.624 188.243C140.936 188.549 141.183 188.914 141.35 189.318C141.518 189.721 141.603 190.153 141.6 190.59V263.68C141.611 264.121 141.532 264.559 141.368 264.968C141.204 265.377 140.958 265.749 140.645 266.06C140.333 266.37 139.96 266.614 139.55 266.776C139.14 266.937 138.701 267.014 138.26 267V267Z" fill="white"/>
<path fill-rule="evenodd" clip-rule="evenodd" d="M128.25 264.74C127.816 264.754 127.383 264.679 126.977 264.522C126.572 264.364 126.203 264.127 125.891 263.824C125.579 263.521 125.332 263.158 125.163 262.757C124.995 262.356 124.909 261.925 124.91 261.49V197.38C124.905 196.942 124.988 196.508 125.154 196.103C125.321 195.698 125.567 195.331 125.879 195.024C126.191 194.716 126.562 194.475 126.97 194.315C127.377 194.154 127.813 194.078 128.25 194.09C129.119 194.115 129.946 194.468 130.564 195.079C131.182 195.689 131.545 196.512 131.58 197.38V261.49C131.538 262.352 131.171 263.166 130.553 263.769C129.936 264.371 129.113 264.718 128.25 264.74Z" fill="white"/>
<path fill-rule="evenodd" clip-rule="evenodd" d="M42.8896 229.6V238C47.0696 257.48 95.4396 257.87 99.6096 238V229.6C95.4396 249.31 47.6096 248.89 43.1696 230.37L42.8896 229.6Z" fill="url(#paint15_linear)"/>
<path fill-rule="evenodd" clip-rule="evenodd" d="M48.1795 241.83C52.6295 246.91 62.6395 249.45 71.5295 249.45C79.8695 249.45 89.3195 247.12 94.0495 242.05C87.9295 245.81 79.5895 247.45 72.6395 247.58C64.0195 247.75 54.5695 245.94 48.1795 241.83ZM71.5295 256C57.6295 256 42.3395 250.64 39.8395 238.62V229.62C39.8016 228.825 40.0679 228.046 40.5843 227.44C41.1007 226.834 41.8285 226.448 42.6195 226.36C44.5595 226.14 45.6795 227.36 46.2295 228.95V229.73C48.1795 237.43 60.6895 241.29 72.3595 241.07C83.2095 240.85 94.8895 237.01 96.5495 228.95C96.6518 228.165 97.0603 227.452 97.686 226.967C98.3116 226.482 99.1037 226.264 99.8895 226.36C100.714 226.428 101.485 226.795 102.058 227.391C102.631 227.988 102.966 228.774 103 229.6V238C100.45 250.62 85.1595 256 71.5295 256Z" fill="white"/>
<path fill-rule="evenodd" clip-rule="evenodd" d="M91.5396 216.4C80.4296 209.97 62.3597 209.97 51.2297 216.4C40.0997 222.83 40.1197 233.21 51.2297 239.64C62.3397 246.07 80.4296 246.06 91.5396 239.64C102.65 233.22 102.67 222.82 91.5396 216.4Z" fill="url(#paint16_linear)"/>
<path fill-rule="evenodd" clip-rule="evenodd" d="M71.2496 214.89C64.5796 214.89 57.9096 216.33 52.9096 219.23C48.4496 221.73 45.9096 224.84 45.9096 228.01C45.9096 231.18 48.4096 234.32 52.9096 236.83C62.9096 242.58 79.9096 242.58 89.9096 236.83C94.0796 234.32 96.5796 231.18 96.5796 228.01C96.5796 224.84 94.0796 221.73 89.9096 219.23C84.9096 216.33 78.2396 214.89 71.2796 214.89H71.2496ZM71.2496 247.75C63.4696 247.75 55.6796 246 49.5596 242.47C43.1696 238.75 39.5596 233.63 39.5596 228.01C39.5596 222.39 43.1696 217.27 49.5596 213.58C61.7996 206.52 80.9796 206.52 92.9396 213.58C99.6096 217.27 102.94 222.43 102.94 228.01C102.94 233.59 99.5996 238.77 92.9396 242.47C86.8196 246 78.9996 247.75 71.2496 247.75Z" fill="white"/>
<path fill-rule="evenodd" clip-rule="evenodd" d="M91.2598 128.26V225.63L90.9898 226.18C87.9298 239.27 54.5698 239.27 51.2298 226.18V128.26C51.1886 128.651 51.2878 129.045 51.5098 129.37C51.9627 130.748 52.7255 132.003 53.7398 133.04C56.6073 135.483 60.0481 137.159 63.7398 137.91C70.1398 139.46 78.4798 138.91 84.5998 135.77C86.6372 134.733 88.4356 133.282 89.8798 131.51C90.3917 130.678 90.7665 129.77 90.9898 128.82L91.2598 128.26Z" fill="url(#paint17_linear)"/>
<path fill-rule="evenodd" clip-rule="evenodd" d="M54.5701 137.63V225.63C55.4101 229.63 62.6401 232.74 71.2501 232.74C79.8701 232.74 86.82 229.63 87.93 225.37V137.63C87.4038 138.012 86.845 138.346 86.2601 138.63C79.8701 142 70.6901 142.91 62.9101 141.08C59.9657 140.362 57.1517 139.188 54.5701 137.6V137.63ZM71.2501 239.27C62.0801 239.27 50.4 236.05 48.18 226.95C47.9 226.7 47.9 225.87 47.9 225.63V128.26C47.8621 127.465 48.1284 126.685 48.6449 126.08C49.1613 125.474 49.889 125.088 50.68 125C51.0879 124.926 51.5065 124.935 51.911 125.025C52.3155 125.116 52.6975 125.288 53.0343 125.53C53.3711 125.771 53.6559 126.078 53.8716 126.432C54.0874 126.786 54.2297 127.18 54.2901 127.59C54.6518 128.782 55.325 129.855 56.24 130.7C57.91 132.46 60.97 133.9 64.3 134.7C70.69 136.22 78.21 135.48 83.21 132.87C84.7255 132.075 86.0522 130.963 87.1001 129.61C87.3801 129.11 87.66 128.5 87.93 127.98C88.0658 127.15 88.5174 126.404 89.1901 125.899C89.8629 125.394 90.7049 125.169 91.5401 125.27C92.3333 125.299 93.0874 125.622 93.6551 126.176C94.2228 126.731 94.5633 127.478 94.61 128.27V225.64C94.61 225.83 94.33 226.64 94.33 226.8C92.1 236.05 80.4301 239.27 71.2501 239.27Z" fill="white"/>
<path fill-rule="evenodd" clip-rule="evenodd" d="M71.2499 229.29C70.383 229.266 69.5576 228.914 68.9397 228.305C68.3219 227.696 67.9575 226.876 67.9199 226.01V152.92C67.9527 152.051 68.3152 151.227 68.9338 150.616C69.5524 150.005 70.3806 149.652 71.2499 149.63C71.6875 149.616 72.1233 149.692 72.5309 149.852C72.9384 150.012 73.3092 150.253 73.6206 150.561C73.9321 150.868 74.1777 151.236 74.3426 151.642C74.5075 152.047 74.5882 152.482 74.5799 152.92V226C74.5868 226.437 74.5051 226.872 74.3397 227.276C74.1743 227.681 73.9286 228.049 73.6175 228.356C73.3063 228.663 72.9361 228.905 72.5292 229.065C72.1223 229.226 71.6871 229.302 71.2499 229.29V229.29Z" fill="white"/>
<path fill-rule="evenodd" clip-rule="evenodd" d="M61.2396 227.07C60.8036 227.081 60.3698 227.004 59.9643 226.843C59.5587 226.683 59.1895 226.443 58.8788 226.137C58.5681 225.83 58.3221 225.465 58.1556 225.062C57.9891 224.659 57.9054 224.226 57.9096 223.79V159.7C57.9026 159.264 57.9844 158.83 58.15 158.426C58.3156 158.023 58.5616 157.657 58.8731 157.351C59.1846 157.045 59.5549 156.806 59.9618 156.647C60.3686 156.489 60.8033 156.415 61.2396 156.43C62.1081 156.447 62.9373 156.795 63.558 157.403C64.1787 158.011 64.5441 158.832 64.5796 159.7V223.79C64.5395 224.657 64.173 225.478 63.5535 226.086C62.9341 226.694 62.1075 227.046 61.2396 227.07V227.07Z" fill="white"/>
<path fill-rule="evenodd" clip-rule="evenodd" d="M240.84 267.1V275.47C245.01 294.96 293.39 295.38 297.56 275.47V267.1C293.39 286.81 245.56 286.39 241.12 267.91L240.84 267.1Z" fill="url(#paint18_linear)"/>
<path fill-rule="evenodd" clip-rule="evenodd" d="M246.13 279.36C250.57 284.45 260.3 286.98 269.48 286.98C277.82 286.98 287.28 284.61 292 279.56C285.89 283.34 277.54 284.95 270.59 285.09C261.97 285.26 252.52 283.48 246.13 279.36V279.36ZM269.48 293.51C255.3 293.51 240.29 288.15 237.79 276.14L237.51 267.14C237.536 266.322 237.86 265.542 238.422 264.947C238.984 264.351 239.745 263.983 240.56 263.91C241.349 263.811 242.145 264.029 242.773 264.516C243.401 265.004 243.81 265.721 243.91 266.51L244.18 267.28C246.13 274.99 258.92 278.77 270.31 278.6C281.16 278.37 292.83 274.6 294.51 266.47C294.629 265.695 295.041 264.996 295.66 264.516C296.28 264.036 297.06 263.812 297.84 263.89C298.657 263.969 299.417 264.342 299.98 264.94C300.543 265.538 300.87 266.319 300.9 267.14V275.51C298.11 288.16 283.1 293.51 269.48 293.51V293.51Z" fill="white"/>
<path fill-rule="evenodd" clip-rule="evenodd" d="M289.22 253.9C278.1 247.5 260.02 247.5 249.22 253.9C238.1 260.35 238.1 270.72 249.22 277.14C260.06 283.59 278.14 283.59 289.22 277.14C300.3 270.69 300.34 260.32 289.22 253.9Z" fill="url(#paint19_linear)"/>
<path fill-rule="evenodd" clip-rule="evenodd" d="M269.21 252.39C262.53 252.39 255.86 253.84 250.85 256.73C246.41 259.23 243.91 262.37 243.91 265.55C243.91 268.73 246.41 271.83 250.57 274.33C260.57 280.11 277.82 280.11 287.83 274.33C292 271.83 294.51 268.71 294.51 265.55C294.51 262.39 292 259.23 287.83 256.73C282.071 253.782 275.678 252.292 269.21 252.39V252.39ZM269.21 285.29C261.42 285.29 253.64 283.51 247.52 279.97C240.84 276.28 237.52 271.13 237.52 265.55C237.52 259.97 240.85 254.79 247.52 251.09C259.75 244.03 278.66 244.03 290.88 251.09C297.56 254.79 300.88 259.93 300.88 265.55C300.88 271.17 297.54 276.28 290.88 279.97C284.78 283.51 277 285.29 269.21 285.29Z" fill="white"/>
<path fill-rule="evenodd" clip-rule="evenodd" d="M289.22 165.76V263.13L288.94 263.68C285.61 276.8 252.52 276.78 249.18 263.68V165.76C249.132 166.152 249.232 166.547 249.46 166.87C249.899 168.257 250.663 169.519 251.69 170.55C254.484 172.946 257.826 174.615 261.42 175.41C268.09 176.97 276.42 176.47 282.54 173.3C284.583 172.258 286.385 170.8 287.83 169.02C288.341 168.185 288.716 167.273 288.94 166.32L289.22 165.76Z" fill="url(#paint20_linear)"/>
<path fill-rule="evenodd" clip-rule="evenodd" d="M252.24 175.16V263.16C253.36 267.16 260.3 270.28 269.24 270.28C277.85 270.28 284.81 267.19 285.92 262.91V175.16C285.289 175.53 284.638 175.863 283.97 176.16C277.57 179.49 268.68 180.43 260.89 178.56C257.834 177.94 254.914 176.774 252.27 175.12L252.24 175.16ZM269.24 276.78C259.78 276.78 248.38 273.55 246.16 264.5C245.88 264.21 245.88 263.41 245.88 263.13V165.76C245.85 164.971 246.12 164.2 246.636 163.603C247.152 163.005 247.875 162.625 248.66 162.54C249.068 162.463 249.486 162.469 249.891 162.558C250.296 162.647 250.679 162.818 251.016 163.059C251.354 163.3 251.639 163.607 251.854 163.961C252.07 164.315 252.211 164.709 252.27 165.12C252.649 166.31 253.34 167.377 254.27 168.21C255.93 169.96 258.99 171.43 262.32 172.21C268.72 173.71 276.22 172.95 280.95 170.34C282.587 169.631 284.02 168.524 285.12 167.12C285.4 166.62 285.68 166 285.96 165.47C286.132 164.66 286.594 163.94 287.258 163.445C287.923 162.949 288.744 162.713 289.57 162.78C290.324 162.811 291.036 163.136 291.554 163.686C292.072 164.235 292.354 164.965 292.34 165.72V264.34C289.78 273.55 278.38 276.78 269.21 276.78H269.24Z" fill="white"/>
<path fill-rule="evenodd" clip-rule="evenodd" d="M279.22 264C278.379 263.969 277.584 263.606 277.009 262.992C276.434 262.378 276.125 261.561 276.15 260.72V185.47C276.133 184.634 276.446 183.825 277.02 183.217C277.594 182.609 278.384 182.251 279.22 182.22C279.653 182.208 280.084 182.283 280.488 182.441C280.892 182.6 281.26 182.837 281.569 183.141C281.879 183.444 282.125 183.806 282.291 184.207C282.458 184.607 282.543 185.036 282.54 185.47V260.68C282.551 261.119 282.472 261.556 282.309 261.963C282.146 262.371 281.902 262.742 281.592 263.052C281.281 263.363 280.911 263.607 280.503 263.77C280.095 263.933 279.659 264.011 279.22 264Z" fill="white"/>
<path fill-rule="evenodd" clip-rule="evenodd" d="M269.21 266.8C268.343 266.786 267.515 266.442 266.892 265.838C266.27 265.234 265.901 264.416 265.86 263.55V190.43C265.896 189.56 266.262 188.735 266.885 188.126C267.507 187.516 268.339 187.167 269.21 187.15C269.647 187.138 270.081 187.214 270.487 187.374C270.894 187.534 271.263 187.774 271.574 188.081C271.885 188.387 272.131 188.753 272.297 189.157C272.463 189.561 272.546 189.994 272.54 190.43V263.55C272.543 263.985 272.458 264.415 272.291 264.816C272.124 265.217 271.877 265.58 271.566 265.883C271.256 266.187 270.887 266.424 270.482 266.582C270.077 266.739 269.645 266.814 269.21 266.8V266.8Z" fill="white"/>
<path fill-rule="evenodd" clip-rule="evenodd" d="M387.64 111.08L203.31 4.71023C202.666 4.2524 201.877 4.04288 201.09 4.12023L107.67 10.8802C106.695 11.0287 105.753 11.3504 104.89 11.8302C103.849 12.4707 102.911 13.2665 102.11 14.1902L7.86041 117.73C5.37041 120.67 3.97043 123.25 3.97043 127.11L3.69043 131.87C3.97043 132.56 3.97043 132.87 4.53043 133.35L188.58 239.69C188.02 239.22 188.02 238.94 188.02 238.22V233.49C188.3 229.57 189.69 227.05 192.19 224.09L286.19 120.56C287.282 119.502 288.498 118.578 289.81 117.81C290.523 117.529 291.269 117.341 292.03 117.25L385.44 110.49C386.22 110.42 387 110.629 387.64 111.08V111.08Z" fill="url(#paint21_linear)"/>
<path fill-rule="evenodd" clip-rule="evenodd" d="M6.99992 131.1L184.68 233.66V233.46C184.96 228.27 186.9 225.15 189.68 221.98L283.93 118.36C285.155 116.914 286.667 115.74 288.37 114.91C289.339 114.445 290.375 114.134 291.44 113.99L375.68 107.91L201.92 7.53998L107.92 14.16C107.329 14.2202 106.758 14.4115 106.25 14.72C105.7 15.19 105.14 15.64 104.3 16.46L10.2999 119.92C8.35639 121.929 7.17511 124.553 6.95992 127.34V131.1H6.99992ZM188.58 242.94C187.994 242.947 187.416 242.806 186.9 242.53L2.89992 136.15C0.899918 134.65 0.669922 133.3 0.669922 132.15V127.15C0.884184 122.901 2.55848 118.857 5.40993 115.7L99.6099 12C100.617 10.8985 101.756 9.92453 103 9.09998C104.278 8.34911 105.692 7.85646 107.16 7.64996L200.86 0.869966C202.318 0.781389 203.77 1.12954 205.03 1.86997L389.36 108.27C389.743 108.467 390.083 108.739 390.361 109.068C390.638 109.398 390.848 109.779 390.977 110.19C391.106 110.601 391.153 111.034 391.114 111.463C391.075 111.892 390.951 112.309 390.75 112.69C390.309 113.428 389.604 113.97 388.778 114.208C387.951 114.446 387.066 114.361 386.3 113.97L385.74 113.78L292.32 120.53C291.847 120.6 291.382 120.714 290.93 120.87C290.151 121.493 289.41 122.16 288.71 122.87L194.41 226.29C192.19 228.87 191.36 230.79 191.36 233.68V237.74C191.764 238.287 191.983 238.95 191.983 239.63C191.983 240.31 191.764 240.973 191.36 241.52C191.054 241.972 190.638 242.339 190.152 242.587C189.666 242.835 189.125 242.957 188.58 242.94V242.94Z" fill="white"/>
<path fill-rule="evenodd" clip-rule="evenodd" d="M385.41 110.49L292 117.25C290 117.36 288.11 118.5 286.16 120.56L192.16 224.09C189.66 226.84 187.99 230.37 187.99 233.49V238.22C187.99 239.69 189.1 240.22 190.22 239.5L386.8 124C387.516 123.579 388.118 122.99 388.555 122.285C388.992 121.579 389.251 120.778 389.31 119.95V115.22C389.31 112.08 387.91 110.33 385.41 110.49Z" fill="url(#paint22_linear)"/>
<path fill-rule="evenodd" clip-rule="evenodd" d="M385.69 113.69V113.75L292.27 120.5C291.16 120.59 290.05 121.39 288.66 122.75L194.41 226.29C192.566 228.257 191.485 230.817 191.36 233.51V235.16L385.14 121.16C385.55 120.836 385.841 120.386 385.97 119.88V115.15C385.964 114.647 385.87 114.15 385.69 113.68V113.69ZM189.13 243.11C188.355 243.068 187.597 242.871 186.9 242.53C186.19 242.056 185.614 241.409 185.225 240.649C184.837 239.889 184.649 239.043 184.68 238.19V233.46C184.68 229.54 186.62 225.2 189.68 221.87L283.93 118.36C284.868 117.147 286.039 116.135 287.376 115.385C288.713 114.634 290.187 114.16 291.71 113.99L385.13 107.24C386.038 107.13 386.958 107.226 387.824 107.52C388.689 107.814 389.478 108.3 390.13 108.94C390.969 109.748 391.626 110.727 392.055 111.81C392.485 112.894 392.678 114.056 392.62 115.22V119.94C392.576 121.348 392.169 122.72 391.438 123.923C390.708 125.127 389.678 126.121 388.45 126.81L191.91 242.34C191.082 242.87 190.113 243.138 189.13 243.11V243.11Z" fill="white"/>
<path fill-rule="evenodd" clip-rule="evenodd" d="M361.5 126.21L215.82 211.75L288.94 131.43L361.5 126.21Z" fill="url(#paint23_linear)"/>
<path fill-rule="evenodd" clip-rule="evenodd" d="M290.61 134.6L232.78 198L347.89 130.45L290.61 134.59V134.6ZM215.82 215C214.866 214.937 213.971 214.511 213.32 213.81C212.889 213.165 212.682 212.396 212.733 211.622C212.784 210.848 213.089 210.113 213.6 209.53L286.44 129.24C287.017 128.615 287.812 128.236 288.66 128.18L361.23 122.92C361.959 122.907 362.673 123.123 363.272 123.537C363.871 123.952 364.325 124.544 364.57 125.23C364.779 125.927 364.755 126.672 364.502 127.354C364.25 128.036 363.782 128.617 363.17 129.01L217.49 214.55C217.257 214.734 216.988 214.869 216.701 214.946C216.414 215.023 216.115 215.042 215.82 215V215Z" fill="white"/>
<path fill-rule="evenodd" clip-rule="evenodd" d="M387.64 111.08L203.31 4.71023C202.665 4.2524 201.877 4.04288 201.09 4.12023L107.67 10.8802C106.694 11.0287 105.752 11.3504 104.89 11.8302L289.78 117.83C290.493 117.549 291.239 117.361 292 117.27L385.41 110.51C386.197 110.427 386.988 110.63 387.64 111.08V111.08Z" fill="url(#paint24_linear)"/>
<path fill-rule="evenodd" clip-rule="evenodd" d="M114.62 13.6599L290.05 114.25C290.61 114.14 290.88 114.08 291.45 113.99L375.69 107.91L201.92 7.53995L114.62 13.6599ZM289.78 121.08C289.197 121.067 288.624 120.917 288.11 120.64L103.23 14.64C102.707 14.3567 102.273 13.9336 101.976 13.418C101.68 12.9024 101.532 12.3145 101.55 11.7199C101.587 11.1192 101.789 10.5403 102.133 10.0464C102.477 9.55256 102.95 9.16286 103.5 8.91995C104.583 8.20799 105.821 7.76566 107.11 7.62994L200.81 0.849946C202.269 0.761369 203.721 1.10952 204.98 1.84995L389.31 108.25C389.693 108.447 390.033 108.719 390.311 109.048C390.589 109.378 390.798 109.759 390.927 110.17C391.057 110.581 391.103 111.014 391.064 111.443C391.025 111.872 390.901 112.289 390.7 112.67C390.259 113.408 389.554 113.95 388.728 114.188C387.902 114.426 387.016 114.341 386.25 113.95L385.69 113.76L292.27 120.51C291.797 120.58 291.332 120.694 290.88 120.85C290.546 121.038 290.162 121.118 289.78 121.08V121.08Z" fill="white"/>
<defs>
<linearGradient id="paint0_linear" x1="9.53027" y1="297.36" x2="400.15" y2="297.36" gradientUnits="userSpaceOnUse">
<stop stop-color="#F1F4FE"/>
<stop offset="0.58" stop-color="#F7F9FE"/>
<stop offset="1" stop-color="white"/>
</linearGradient>
<linearGradient id="paint1_linear" x1="103422" y1="112307" x2="256331" y2="112307" gradientUnits="userSpaceOnUse">
<stop stop-color="#F1F4FE"/>
<stop offset="0.58" stop-color="#F7F9FE"/>
<stop offset="1" stop-color="white"/>
</linearGradient>
<linearGradient id="paint2_linear" x1="24561.8" y1="13704.5" x2="27778.9" y2="13704.5" gradientUnits="userSpaceOnUse">
<stop stop-color="#F1F4FE"/>
<stop offset="0.58" stop-color="#F7F9FE"/>
<stop offset="1" stop-color="white"/>
</linearGradient>
<linearGradient id="paint3_linear" x1="24676.2" y1="18906.5" x2="27923.8" y2="18906.5" gradientUnits="userSpaceOnUse">
<stop stop-color="#F1F4FE"/>
<stop offset="0.58" stop-color="#F7F9FE"/>
<stop offset="1" stop-color="white"/>
</linearGradient>
<linearGradient id="paint4_linear" x1="17732.2" y1="56260.5" x2="19334.9" y2="56260.5" gradientUnits="userSpaceOnUse">
<stop stop-color="#F1F4FE"/>
<stop offset="0.58" stop-color="#F7F9FE"/>
<stop offset="1" stop-color="white"/>
</linearGradient>
<linearGradient id="paint5_linear" x1="32080.1" y1="11792.1" x2="35266.7" y2="11792.1" gradientUnits="userSpaceOnUse">
<stop stop-color="#F1F4FE"/>
<stop offset="0.58" stop-color="#F7F9FE"/>
<stop offset="1" stop-color="white"/>
</linearGradient>
<linearGradient id="paint6_linear" x1="32370.5" y1="16191.8" x2="35618.6" y2="16191.8" gradientUnits="userSpaceOnUse">
<stop stop-color="#F1F4FE"/>
<stop offset="0.58" stop-color="#F7F9FE"/>
<stop offset="1" stop-color="white"/>
</linearGradient>
<linearGradient id="paint7_linear" x1="23169.5" y1="47622.1" x2="24771.9" y2="47622.1" gradientUnits="userSpaceOnUse">
<stop stop-color="#F1F4FE"/>
<stop offset="0.58" stop-color="#F7F9FE"/>
<stop offset="1" stop-color="white"/>
</linearGradient>
<linearGradient id="paint8_linear" x1="28477.4" y1="10891.1" x2="31694.6" y2="10891.1" gradientUnits="userSpaceOnUse">
<stop stop-color="#F1F4FE"/>
<stop offset="0.58" stop-color="#F7F9FE"/>
<stop offset="1" stop-color="white"/>
</linearGradient>
<linearGradient id="paint9_linear" x1="28616.8" y1="14936.5" x2="31865.3" y2="14936.5" gradientUnits="userSpaceOnUse">
<stop stop-color="#F1F4FE"/>
<stop offset="0.58" stop-color="#F7F9FE"/>
<stop offset="1" stop-color="white"/>
</linearGradient>
<linearGradient id="paint10_linear" x1="20739.3" y1="10864.4" x2="23955.3" y2="10864.4" gradientUnits="userSpaceOnUse">
<stop stop-color="#F1F4FE"/>
<stop offset="0.58" stop-color="#F7F9FE"/>
<stop offset="1" stop-color="white"/>
</linearGradient>
<linearGradient id="paint11_linear" x1="20807.3" y1="14899.1" x2="24050.4" y2="14899.1" gradientUnits="userSpaceOnUse">
<stop stop-color="#F1F4FE"/>
<stop offset="0.58" stop-color="#F7F9FE"/>
<stop offset="1" stop-color="white"/>
</linearGradient>
<linearGradient id="paint12_linear" x1="20803.4" y1="12732.6" x2="24019.4" y2="12732.6" gradientUnits="userSpaceOnUse">
<stop stop-color="#F1F4FE"/>
<stop offset="0.58" stop-color="#F7F9FE"/>
<stop offset="1" stop-color="white"/>
</linearGradient>
<linearGradient id="paint13_linear" x1="20908.6" y1="17543.8" x2="24157.6" y2="17543.8" gradientUnits="userSpaceOnUse">
<stop stop-color="#F1F4FE"/>
<stop offset="0.58" stop-color="#F7F9FE"/>
<stop offset="1" stop-color="white"/>
</linearGradient>
<linearGradient id="paint14_linear" x1="15066.3" y1="51866.7" x2="16669.9" y2="51866.7" gradientUnits="userSpaceOnUse">
<stop stop-color="#F1F4FE"/>
<stop offset="0.58" stop-color="#F7F9FE"/>
<stop offset="1" stop-color="white"/>
</linearGradient>
<linearGradient id="paint15_linear" x1="16939.2" y1="11834.8" x2="20156.4" y2="11834.8" gradientUnits="userSpaceOnUse">
<stop stop-color="#F1F4FE"/>
<stop offset="0.58" stop-color="#F7F9FE"/>
<stop offset="1" stop-color="white"/>
</linearGradient>
<linearGradient id="paint16_linear" x1="17019.6" y1="16258.3" x2="20268.1" y2="16258.3" gradientUnits="userSpaceOnUse">
<stop stop-color="#F1F4FE"/>
<stop offset="0.58" stop-color="#F7F9FE"/>
<stop offset="1" stop-color="white"/>
</linearGradient>
<linearGradient id="paint17_linear" x1="12312.4" y1="47762.2" x2="13915.2" y2="47762.2" gradientUnits="userSpaceOnUse">
<stop stop-color="#F1F4FE"/>
<stop offset="0.58" stop-color="#F7F9FE"/>
<stop offset="1" stop-color="white"/>
</linearGradient>
<linearGradient id="paint18_linear" x1="28364.9" y1="12734.8" x2="31582" y2="12734.8" gradientUnits="userSpaceOnUse">
<stop stop-color="#F1F4FE"/>
<stop offset="0.58" stop-color="#F7F9FE"/>
<stop offset="1" stop-color="white"/>
</linearGradient>
<linearGradient id="paint19_linear" x1="28337.6" y1="17527.5" x2="31551.7" y2="17527.5" gradientUnits="userSpaceOnUse">
<stop stop-color="#F1F4FE"/>
<stop offset="0.58" stop-color="#F7F9FE"/>
<stop offset="1" stop-color="white"/>
</linearGradient>
<linearGradient id="paint20_linear" x1="20442.4" y1="51848.2" x2="22046.1" y2="51848.2" gradientUnits="userSpaceOnUse">
<stop stop-color="#F1F4FE"/>
<stop offset="0.58" stop-color="#F7F9FE"/>
<stop offset="1" stop-color="white"/>
</linearGradient>
<linearGradient id="paint21_linear" x1="99327.7" y1="89976.7" x2="246745" y2="89976.7" gradientUnits="userSpaceOnUse">
<stop stop-color="#F1F4FE"/>
<stop offset="0.58" stop-color="#F7F9FE"/>
<stop offset="1" stop-color="white"/>
</linearGradient>
<linearGradient id="paint22_linear" x1="89376.8" y1="56392.3" x2="129900" y2="56392.3" gradientUnits="userSpaceOnUse">
<stop stop-color="#F1F4FE"/>
<stop offset="0.58" stop-color="#F7F9FE"/>
<stop offset="1" stop-color="white"/>
</linearGradient>
<linearGradient id="paint23_linear" x1="68804.9" y1="36821.2" x2="90027.5" y2="36821.2" gradientUnits="userSpaceOnUse">
<stop stop-color="#F1F4FE"/>
<stop offset="0.58" stop-color="#F7F9FE"/>
<stop offset="1" stop-color="white"/>
</linearGradient>
<linearGradient id="paint24_linear" x1="101864" y1="36506.7" x2="181811" y2="36506.7" gradientUnits="userSpaceOnUse">
<stop stop-color="#F1F4FE"/>
<stop offset="0.58" stop-color="#F7F9FE"/>
<stop offset="1" stop-color="white"/>
</linearGradient>
</defs>
</svg>
