<svg width="248" height="418" viewBox="0 0 248 418" fill="none" xmlns="http://www.w3.org/2000/svg">
<path fill-rule="evenodd" clip-rule="evenodd" d="M24.9996 413.84L25.1096 413.9L221.41 300.66C229.54 295.99 236.18 284.49 236.18 275.04L236.28 60.9401L191.83 26.6901C196.947 33.4703 200.428 41.3419 202 49.6901V99.8901L183.25 89.08V51.6701C183.6 34.5701 164.34 12.9801 137.85 26.4001L35.9996 85.2301C31.5412 88.1063 27.83 92.0007 25.1717 96.5923C22.5134 101.184 20.984 106.342 20.7096 111.64L20.6396 404C21.0696 408.76 21.2496 410.76 24.9996 413.84Z" fill="url(#paint0_linear)"/>
<path fill-rule="evenodd" clip-rule="evenodd" d="M154.12 25.3102C148.936 25.4132 143.85 26.7428 139.28 29.1902L37.4895 87.9402C33.5175 90.5746 30.2135 94.0977 27.839 98.2304C25.4646 102.363 24.085 106.992 23.8095 111.75L23.7296 404C24.0696 407.22 24.1495 408.53 25.4895 410L219.85 298C227.01 293.87 233.12 283.37 233.12 275.09L233.21 62.5302L202.03 38.5302C203.413 41.9506 204.449 45.5019 205.12 49.1302V99.8902C205.134 100.437 205.002 100.978 204.736 101.456C204.47 101.935 204.081 102.333 203.61 102.61C203.119 102.885 202.567 103.03 202.005 103.03C201.442 103.03 200.89 102.885 200.4 102.61L181.68 91.8001C181.203 91.5217 180.806 91.1251 180.528 90.6487C180.249 90.1722 180.098 89.632 180.09 89.0801V51.6702C180.39 43.2302 175.09 34.0402 167.39 29.1902C163.432 26.6466 158.824 25.2993 154.12 25.3102V25.3102ZM25.1396 417C24.5753 417.032 24.0155 416.885 23.5396 416.58C23.3596 416.5 23.1996 416.37 23.0096 416.26C18.2396 412.26 18.0095 409.12 17.5195 404.26L17.6195 111.59C17.8716 105.759 19.521 100.074 22.429 95.0128C25.337 89.9521 29.4184 85.6642 34.3295 82.5102L136.28 23.6302C148.55 17.4502 160.75 17.5302 170.74 23.8402C180.39 29.8902 186.64 41.1002 186.37 51.7002V87.2002L198.91 94.3902V49.6702C197.325 42.0042 194.029 34.7949 189.27 28.5801C188.842 27.9606 188.646 27.2106 188.716 26.4612C188.785 25.7118 189.116 25.0106 189.65 24.4802C190.168 23.936 190.872 23.6063 191.622 23.5563C192.372 23.5063 193.113 23.7396 193.7 24.2102L238.22 58.4602C238.61 58.7451 238.928 59.1183 239.147 59.5493C239.366 59.9802 239.48 60.4568 239.48 60.9402L239.4 275C239.4 285.6 232.12 298.06 222.94 303.33L26.6295 416.59C26.1862 416.875 25.6664 417.018 25.1396 417V417Z" fill="white"/>
<path fill-rule="evenodd" clip-rule="evenodd" d="M202 99.8698L229.38 84.0598C242.88 76.7098 250.32 70.1998 236.71 59.6098L178.91 14.5498L202 49.6698V99.8698Z" fill="url(#paint1_linear)"/>
<path fill-rule="evenodd" clip-rule="evenodd" d="M191.94 28.6602L204.67 47.9402C205.011 48.4529 205.196 49.0542 205.2 49.6702L205.12 94.4402L227.81 81.3702C233.72 78.1102 240.54 73.9602 240.81 70.2602C241.08 67.5102 237.69 64.2602 234.81 62.0502L191.96 28.6602H191.94ZM202 103C201.432 102.985 200.874 102.842 200.37 102.58C199.903 102.299 199.519 101.899 199.257 101.421C198.996 100.944 198.865 100.405 198.88 99.8602V50.6002L176.3 16.2502C175.899 15.6207 175.734 14.8699 175.834 14.1305C175.934 13.3911 176.292 12.7109 176.846 12.2103C177.399 11.7097 178.111 11.4211 178.857 11.3954C179.603 11.3698 180.333 11.6088 180.92 12.0702L238.67 57.1302C244.67 61.8202 247.44 66.2602 247.07 70.7602C246.53 77.0502 240.28 81.7102 230.9 86.7602L203.61 102.55C203.116 102.826 202.565 102.98 202 103V103Z" fill="white"/>
<path fill-rule="evenodd" clip-rule="evenodd" d="M25.1396 413.9L7.63965 403.8C3.83965 400.69 3.55965 398.72 3.13965 393.92L3.21964 101.56C3.51396 96.2633 5.05157 91.1105 7.70795 86.5187C10.3643 81.927 14.0648 78.0254 18.5096 75.1299L126.21 12.9999C142.21 3.99992 150.95 -0.500075 169.78 8.48992C185 15.7699 198.66 30.9999 202 49.6699V99.8699L183.25 89.0599V51.6699C183.6 34.5699 164.34 12.9799 137.85 26.3999L35.9996 85.2299C31.5412 88.1062 27.83 92.0005 25.1717 96.5922C22.5134 101.184 20.984 106.341 20.7096 111.64L20.6396 404C21.0696 408.81 21.2496 410.76 25.1396 413.9Z" fill="url(#paint2_linear)"/>
<path fill-rule="evenodd" clip-rule="evenodd" d="M151.75 6.69013C144.24 6.69013 137.69 10.1301 127.75 15.6901L20.1098 77.8501C16.1124 80.4659 12.7872 83.9864 10.4036 88.1264C8.01998 92.2665 6.64495 96.9097 6.38983 101.68L6.2998 393.92C6.6598 398.11 6.7298 399.04 9.5798 401.39L17.7098 406.02C17.5983 405.457 17.5347 404.884 17.5198 404.31L17.6198 111.64C17.8718 105.809 19.5213 100.123 22.4293 95.0628C25.3373 90.0021 29.4187 85.7142 34.3298 82.5601L136.28 23.6801C148.55 17.5001 160.75 17.5801 170.74 23.8901C180.39 29.9401 186.64 41.1501 186.37 51.7501V87.2501L198.91 94.4401V49.6701C196.01 34.0701 184 18.7801 168.34 11.3001C161.73 8.10012 156.52 6.69013 151.75 6.69013ZM25.1398 417C24.5756 417.032 24.0158 416.885 23.5398 416.58L6.0498 406.51C1.0498 402.39 0.559805 399.45 0.0498047 394.21L0.139832 101.55C0.409129 95.7278 2.0639 90.0538 4.96671 84.9996C7.86951 79.9453 11.9365 75.6567 16.8298 72.4901L124.61 10.2501C140.17 1.51013 150.41 -4.23987 171.09 5.63013C188.77 14.0801 201.85 30.7501 205.09 49.1001V99.8601C205.104 100.407 204.972 100.948 204.706 101.426C204.441 101.905 204.052 102.303 203.58 102.58C203.09 102.855 202.537 103 201.975 103C201.413 103 200.86 102.855 200.37 102.58L181.65 91.7701C181.173 91.4917 180.777 91.0951 180.498 90.6186C180.22 90.1422 180.069 89.6019 180.06 89.0501V51.6701C180.36 43.2301 175.06 34.0401 167.36 29.1901C161.7 25.5701 152.14 22.6701 139.25 29.1901L37.4898 87.9401C33.5024 90.5584 30.1867 94.0776 27.8103 98.2137C25.4339 102.35 24.0635 106.987 23.8098 111.75L23.7298 404C24.1498 408.18 24.2598 409.11 27.0798 411.46C27.6737 411.963 28.0635 412.665 28.1758 413.435C28.2882 414.205 28.1153 414.989 27.6898 415.64C27.406 416.056 27.0258 416.396 26.5818 416.633C26.1378 416.87 25.643 416.996 25.1398 417V417Z" fill="white"/>
<path fill-rule="evenodd" clip-rule="evenodd" d="M54.3804 283.24C53.8363 283.244 53.3013 283.1 52.8328 282.823C52.3642 282.547 51.9797 282.148 51.7204 281.67C51.5143 281.314 51.381 280.921 51.3283 280.513C51.2756 280.105 51.3046 279.691 51.4134 279.295C51.5223 278.898 51.709 278.528 51.9625 278.204C52.2161 277.88 52.5315 277.61 52.8904 277.41L201 191.89C201.72 191.48 202.574 191.373 203.373 191.593C204.172 191.812 204.851 192.34 205.26 193.06C205.67 193.78 205.777 194.633 205.558 195.432C205.338 196.231 204.81 196.91 204.09 197.32L56.0004 282.81C55.5169 283.115 54.9516 283.265 54.3804 283.24V283.24Z" fill="white"/>
<path fill-rule="evenodd" clip-rule="evenodd" d="M70.8101 337.57C70.1161 337.577 69.4393 337.354 68.8856 336.935C68.3319 336.517 67.9324 335.927 67.7496 335.257C67.5667 334.588 67.6109 333.876 67.8752 333.235C68.1394 332.593 68.6089 332.057 69.2101 331.71L184.62 265.13C185.333 264.724 186.178 264.615 186.97 264.829C187.762 265.042 188.438 265.56 188.85 266.27C189.056 266.627 189.19 267.022 189.244 267.43C189.298 267.839 189.271 268.255 189.164 268.653C189.057 269.052 188.873 269.425 188.622 269.752C188.371 270.079 188.057 270.354 187.7 270.56L72.3902 337.14C71.9123 337.424 71.3661 337.573 70.8101 337.57V337.57Z" fill="white"/>
<path fill-rule="evenodd" clip-rule="evenodd" d="M54.3797 314.16C53.8376 314.166 53.304 314.025 52.8357 313.752C52.3673 313.479 51.9816 313.085 51.7197 312.61C51.5131 312.253 51.3795 311.858 51.3266 311.449C51.2736 311.04 51.3024 310.624 51.4112 310.226C51.52 309.828 51.7067 309.455 51.9605 309.13C52.2143 308.804 52.5301 308.533 52.8897 308.33L201 222.84C201.72 222.43 202.573 222.323 203.372 222.543C204.171 222.762 204.85 223.29 205.26 224.01C205.669 224.73 205.776 225.583 205.557 226.382C205.337 227.181 204.81 227.86 204.09 228.27L55.9997 313.76C55.5084 314.044 54.9466 314.183 54.3797 314.16V314.16Z" fill="white"/>
<path fill-rule="evenodd" clip-rule="evenodd" d="M142.72 130.24C146.72 123.44 149.09 115.78 149.09 108.85C149.09 101.92 146.71 97.0802 142.72 94.8502C138.73 92.6202 133.38 92.9102 127.43 96.3802C121.48 99.8502 115.95 105.77 112.07 112.57C108.19 119.37 105.7 127 105.7 133.91C105.7 140.82 108.18 145.68 112.07 147.91C120.57 152.85 134.25 144.91 142.72 130.24Z" fill="url(#paint3_linear)"/>
<path fill-rule="evenodd" clip-rule="evenodd" d="M137.07 96.4901C134.19 96.6408 131.396 97.5218 128.95 99.0501C123.65 102.11 118.59 107.46 114.81 114.1C111.03 120.74 108.81 127.76 108.81 133.91C108.81 139.43 110.56 143.45 113.65 145.26C120.45 149.2 132.56 141.6 140.08 128.66C143.87 122 146 115 146 108.85C146 103.34 144.32 99.3101 141.23 97.5301C139.952 96.8467 138.52 96.5024 137.07 96.5301V96.4901ZM117.71 152.49C115.176 152.521 112.679 151.883 110.47 150.64C105.35 147.64 102.61 141.73 102.61 133.88C102.61 126.63 105.01 118.49 109.32 110.88C113.63 103.27 119.58 97.1601 125.86 93.5401C132.65 89.5901 139.21 89.0601 144.32 92.0201C149.43 94.9801 152.32 100.92 152.32 108.77C152.32 116.02 149.83 124.14 145.49 131.77C138.06 144.68 127 152.52 117.71 152.52V152.49Z" fill="white"/>
<path fill-rule="evenodd" clip-rule="evenodd" d="M155.87 147.73C140.17 138.68 114.74 153.39 98.9901 180.54C92.3601 192.08 88.0001 205 87.3301 216.93L167.54 170.64C166.85 159.45 162.51 151.57 155.87 147.73Z" fill="url(#paint4_linear)"/>
<path fill-rule="evenodd" clip-rule="evenodd" d="M145.54 148.21C131.67 148.21 113.54 161.63 101.74 182.09C96.4777 191.034 92.8859 200.861 91.1403 211.09L164.29 168.88C163.29 160.11 159.87 153.61 154.29 150.42C151.609 148.933 148.586 148.171 145.52 148.21H145.54ZM87.3302 220C86.7643 220.011 86.2078 219.854 85.7303 219.55C85.2484 219.252 84.8552 218.831 84.5914 218.33C84.3276 217.829 84.2029 217.266 84.2303 216.7C84.9503 204.7 89.2302 191.26 96.3602 178.93C113.13 149.82 140 134.93 157.36 144.93C165.22 149.43 169.9 158.48 170.62 170.34C170.659 170.915 170.537 171.49 170.269 172C170 172.51 169.596 172.936 169.1 173.23L88.8903 219.53C88.4172 219.814 87.8811 219.975 87.3302 220V220Z" fill="white"/>
<defs>
<linearGradient id="paint0_linear" x1="20.6396" y1="218.05" x2="236.31" y2="218.05" gradientUnits="userSpaceOnUse">
<stop stop-color="#1a8fca"/>
<stop offset="0.58" stop-color="#F7F9FE"/>
<stop offset="1" stop-color="white"/>
</linearGradient>
<linearGradient id="paint1_linear" x1="33401" y1="25884.4" x2="37628.7" y2="25884.4" gradientUnits="userSpaceOnUse">
<stop stop-color="#1a8fca"/>
<stop offset="0.58" stop-color="#F7F9FE"/>
<stop offset="1" stop-color="white"/>
</linearGradient>
<linearGradient id="paint2_linear" x1="66649.1" y1="186587" x2="106200" y2="186587" gradientUnits="userSpaceOnUse">
<stop stop-color="#1a8fca"/>
<stop offset="0.58" stop-color="#F7F9FE"/>
<stop offset="1" stop-color="white"/>
</linearGradient>
<linearGradient id="paint3_linear" x1="19097.5" y1="20650.2" x2="20980.2" y2="20650.2" gradientUnits="userSpaceOnUse">
<stop stop-color="#1a8fca"/>
<stop offset="0.58" stop-color="#F7F9FE"/>
<stop offset="1" stop-color="white"/>
</linearGradient>
<linearGradient id="paint4_linear" x1="33721.8" y1="30833.3" x2="40155.4" y2="30833.3" gradientUnits="userSpaceOnUse">
<stop stop-color="#1a8fca"/>
<stop offset="0.58" stop-color="#F7F9FE"/>
<stop offset="1" stop-color="white"/>
</linearGradient>
</defs>
</svg>
