<svg width="341" height="414" viewBox="0 0 341 414" fill="none" xmlns="http://www.w3.org/2000/svg">
<path fill-rule="evenodd" clip-rule="evenodd" d="M96.9104 164.42L11.6504 213.64C9.15144 215.258 7.07361 217.448 5.58862 220.029C4.10364 222.609 3.25413 225.506 3.11035 228.48V321.56C3.37035 324.26 3.50036 325.28 5.62036 327.1L54.4804 355.3C52.3504 353.55 52.2204 352.43 51.9904 349.76V256.65C52.143 253.685 52.9943 250.797 54.475 248.224C55.9556 245.65 58.0236 243.463 60.5104 241.84L145.77 192.62V94.16C145.932 91.203 146.791 88.3261 148.277 85.7644C149.763 83.2027 151.834 81.0288 154.32 79.42L234.93 32.86C237.4 31.73 238.41 31.32 240.98 32.26L192.13 4.05999C189.53 3.05999 188.52 3.46999 186.07 4.57999L105.46 51.12C102.968 52.7555 100.895 54.9547 99.4096 57.5397C97.9243 60.1246 97.0682 63.0229 96.9104 66V164.46V164.42ZM243.5 136.23L194.62 108L279.89 58.78C282.33 57.67 283.37 57.23 285.94 58.19L334.79 86.36C332.22 85.42 331.21 85.86 328.79 86.98L243.5 136.23ZM148.29 409.42L99.4104 381.23C97.2804 379.51 97.1804 378.4 96.9104 375.72V277.26L145.77 305.45V403.91C146.03 406.59 146.16 407.71 148.29 409.42V409.42Z" fill="url(#paint0_linear)"/>
<path fill-rule="evenodd" clip-rule="evenodd" d="M200.76 108L243.5 132.7L326.17 84.93L284.41 60.79C283.41 60.53 283.41 60.53 281.16 61.57L200.76 108ZM243.5 139.22C242.968 139.241 242.44 139.12 241.97 138.87L193.09 110.6C192.616 110.342 192.221 109.961 191.945 109.498C191.669 109.034 191.524 108.504 191.524 107.965C191.524 107.426 191.669 106.896 191.945 106.432C192.221 105.969 192.616 105.588 193.09 105.33L278.38 56.11C281.19 54.81 283.24 53.87 287 55.33L336.33 83.71C336.99 84.0966 337.482 84.7166 337.708 85.4478C337.934 86.179 337.877 86.9683 337.55 87.66C337.233 88.3666 336.656 88.9234 335.939 89.2142C335.221 89.5049 334.419 89.507 333.7 89.22C332.27 88.69 332.25 88.69 330.04 89.73L245 138.9C244.536 139.147 244.015 139.268 243.49 139.25L243.5 139.22ZM189.77 6.48003C190.052 6.50971 190.331 6.57008 190.6 6.66004L232.36 30.8L152.58 76.93C146.58 81.06 143.33 86.65 142.71 94.16V190.88L58.7698 239.34C55.8823 241.247 53.4854 243.809 51.7739 246.817C50.0624 249.824 49.0846 253.193 48.9199 256.65V348.56L7.54984 324.68C6.37984 323.75 6.37986 323.75 6.16986 321.56V228.71C6.29267 226.237 6.99461 223.827 8.21915 221.675C9.44369 219.523 11.1566 217.689 13.2198 216.32L98.4499 167.1C98.9172 166.826 99.305 166.434 99.575 165.964C99.8451 165.494 99.988 164.962 99.9898 164.42V66.22C100.102 63.7504 100.795 61.3418 102.011 59.1894C103.227 57.0369 104.933 55.2009 106.99 53.83L187.36 7.41004C188.098 6.96034 188.911 6.64543 189.76 6.48003H189.77ZM54.4799 358.31C53.9678 358.339 53.4572 358.232 52.9998 358L4.08984 329.7C0.659844 327 0.349844 324.94 0.0898438 321.85V228.48C0.709844 220.89 3.95984 215.28 9.98984 211.14L93.8998 162.69V66C94.0676 62.5391 95.0487 59.1663 96.7636 56.1554C98.4784 53.1444 100.879 50.58 103.77 48.67L184.57 2.00003C187.63 0.550033 189.57 -0.229967 193.2 1.25003L242.52 29.6C243.178 29.9926 243.667 30.6166 243.89 31.3501C244.112 32.0836 244.054 32.8739 243.725 33.5664C243.396 34.2589 242.821 34.804 242.112 35.095C241.403 35.386 240.61 35.4021 239.89 35.14C238.49 34.61 238.44 34.61 236.2 35.65L155.85 82C153.789 83.3772 152.082 85.2201 150.866 87.3795C149.65 89.5389 148.959 91.9542 148.85 94.43V192.63C148.855 193.169 148.715 193.7 148.444 194.167C148.173 194.633 147.781 195.018 147.31 195.28L61.9998 244.51C59.9511 245.899 58.2525 247.745 57.0379 249.902C55.8232 252.059 55.1256 254.468 54.9998 256.94V349.76C55.1998 351.92 55.1998 351.92 56.3698 352.95C56.8656 353.339 57.2265 353.874 57.4011 354.479C57.5758 355.084 57.5554 355.729 57.343 356.322C57.1305 356.916 56.7367 357.427 56.2174 357.784C55.6981 358.14 55.0797 358.324 54.4499 358.31H54.4799ZM99.9998 282.53V375.72C100.23 377.87 100.23 377.95 101.4 378.91L142.77 402.69V307.27L99.9998 282.53ZM148.33 412.53C148.815 412.519 149.292 412.399 149.724 412.179C150.157 411.96 150.535 411.645 150.83 411.26C151.271 410.618 151.457 409.834 151.349 409.062C151.242 408.291 150.85 407.587 150.25 407.09C149.08 406.16 149.08 406.09 148.88 403.92V305.45C148.871 304.924 148.724 304.41 148.454 303.959C148.183 303.508 147.799 303.136 147.34 302.88L98.4598 274.61C98.001 274.355 97.4847 274.222 96.9598 274.222C96.435 274.222 95.9187 274.355 95.4598 274.61C94.9968 274.882 94.6118 275.269 94.342 275.733C94.0722 276.197 93.9268 276.723 93.9199 277.26V375.98C94.2099 379.07 94.5499 381.15 97.9199 383.9L146.77 412.1C147.235 412.361 147.757 412.505 148.29 412.52L148.33 412.53Z" fill="white"/>
<path fill-rule="evenodd" clip-rule="evenodd" d="M234.93 362.36L154.32 408.83C149.61 411.58 145.77 409.34 145.77 403.91V305.45L60.5103 354.7C55.8103 357.45 51.9902 355.19 51.9902 349.76V256.65C51.9902 251.22 55.8103 244.59 60.5103 241.84L145.77 192.62V94.16C145.77 88.72 149.61 82.07 154.32 79.42L234.93 32.86C239.66 30.1 243.5 32.33 243.5 37.77V136.23L328.76 87C333.47 84.24 337.29 86.48 337.29 91.91V185C337.29 190.43 333.47 197.06 328.76 199.81L243.5 249.09V347.53C243.5 353 239.66 359.61 234.93 362.36Z" fill="url(#paint1_linear)"/>
<path fill-rule="evenodd" clip-rule="evenodd" d="M145.77 302.44C146.316 302.399 146.859 302.555 147.3 302.88C147.76 303.136 148.144 303.508 148.414 303.959C148.684 304.41 148.831 304.924 148.84 305.45V403.91C148.84 405.37 149.2 406.49 149.84 406.85C150.48 407.21 151.6 406.93 152.84 406.23L233.45 359.69C237.17 357.53 240.45 351.84 240.45 347.53V249.09C240.438 248.547 240.575 248.01 240.844 247.538C241.114 247.066 241.506 246.676 241.98 246.41L327.24 197.17C330.99 195.04 334.24 189.32 334.24 185.03V91.9202C334.24 90.5502 333.87 89.4002 333.24 89.0702C332.61 88.7402 331.47 88.9102 330.24 89.6902L245 138.9C244.541 139.154 244.025 139.287 243.5 139.287C242.975 139.287 242.459 139.154 242 138.9C241.537 138.624 241.154 138.233 240.886 137.765C240.618 137.298 240.475 136.769 240.47 136.23V37.7702C240.47 36.3102 240.1 35.2702 239.47 34.9302C238.84 34.5902 237.73 34.7502 236.47 35.4502L155.85 82.0002C152.11 84.1602 148.85 89.8502 148.85 94.1702V192.63C148.855 193.17 148.715 193.7 148.444 194.167C148.173 194.633 147.781 195.018 147.31 195.28L62.0002 244.51C58.2602 246.67 55.0002 252.36 55.0002 256.65V349.76C55.0002 351.14 55.3902 352.28 56.0002 352.62C56.5061 352.773 57.0409 352.806 57.5618 352.716C58.0827 352.626 58.5753 352.415 59.0002 352.1L144.26 302.88C144.705 302.563 145.245 302.408 145.79 302.44H145.77ZM150.5 413C149.19 413.053 147.893 412.731 146.76 412.07C144.19 410.59 142.71 407.58 142.71 403.88V310.8L62.0002 357.34C58.8002 359.17 55.4802 359.43 52.9102 357.95C50.3402 356.47 48.9102 353.48 48.9102 349.76V256.65C48.9102 250.1 53.3302 242.51 58.9702 239.27L142.7 190.88V94.1602C142.7 87.6902 147.14 80.0202 152.8 76.7502L233.41 30.2102C236.63 28.3902 239.96 28.1202 242.51 29.5802C245.06 31.0402 246.51 34.0802 246.51 37.7702V131L327.19 84.3502C330.39 82.5402 333.72 82.2802 336.29 83.7602C338.86 85.2402 340.29 88.2302 340.29 91.9402V185C340.29 191.55 335.87 199.21 330.2 202.41L246.48 250.78V347.5C246.48 353.96 242.03 361.63 236.39 364.91L155.85 411.5C154.227 412.454 152.383 412.971 150.5 413V413Z" fill="white"/>
<path fill-rule="evenodd" clip-rule="evenodd" d="M52.1104 254.86L3.26038 226.66L3.11035 228.48V321.56C3.37035 324.26 3.50036 325.28 5.62036 327.1L54.4804 355.3C52.3504 353.55 52.2204 352.43 51.9904 349.76V256.65L52.1104 254.86Z" fill="url(#paint2_linear)"/>
<path fill-rule="evenodd" clip-rule="evenodd" d="M6.13986 231.91V321.56C6.34986 323.75 6.34984 323.75 7.51984 324.68L48.8899 348.56V256.56L6.10983 231.9L6.13986 231.91ZM54.4799 358.31C53.9678 358.339 53.4572 358.232 52.9998 358L4.08984 329.7C0.659844 327 0.349844 324.94 0.0898438 321.85V228.48L0.239838 226.4C0.284135 225.89 0.458099 225.4 0.745148 224.977C1.0322 224.553 1.4228 224.21 1.87985 223.98C2.33077 223.72 2.8457 223.593 3.36566 223.612C3.88563 223.632 4.3896 223.797 4.81985 224.09L53.6999 252.26C54.192 252.55 54.5938 252.971 54.8604 253.476C55.1271 253.981 55.2481 254.55 55.2098 255.12L55.0498 256.94V349.76C55.2498 351.92 55.2499 351.92 56.4199 352.95C56.9156 353.339 57.2764 353.874 57.4511 354.479C57.6258 355.084 57.6055 355.729 57.393 356.322C57.1805 356.915 56.7867 357.427 56.2674 357.783C55.7481 358.14 55.1297 358.324 54.4998 358.31H54.4799Z" fill="white"/>
<path fill-rule="evenodd" clip-rule="evenodd" d="M55.2101 355.63V256.63L52.0901 254.84C52.0169 255.434 51.9835 256.032 51.9901 256.63V349.74C52.0001 352.88 53.2301 354.93 55.2101 355.63Z" fill="url(#paint3_linear)"/>
<path fill-rule="evenodd" clip-rule="evenodd" d="M55.2101 358.65C54.8655 358.684 54.5183 358.618 54.2101 358.46C50.8801 357.34 48.9102 354.07 48.9102 349.76V256.65C48.9119 255.904 48.9653 255.159 49.0702 254.42C49.1565 253.932 49.3525 253.469 49.6435 253.067C49.9345 252.665 50.3129 252.335 50.7502 252.1C51.2024 251.886 51.701 251.789 52.2005 251.817C52.7 251.845 53.1846 251.997 53.6101 252.26L56.7302 254C57.1896 254.273 57.5702 254.661 57.8349 255.126C58.0996 255.59 58.2392 256.115 58.2401 256.65V355.65C58.2332 356.137 58.1141 356.616 57.8921 357.05C57.6701 357.483 57.3512 357.86 56.9601 358.15C56.4354 358.478 55.8289 358.651 55.2101 358.65V358.65Z" fill="white"/>
<path fill-rule="evenodd" clip-rule="evenodd" d="M55.2101 355.63V256.63L52.0901 254.84C52.0169 255.434 51.9835 256.032 51.9901 256.63V349.74C52.0001 352.88 53.2301 354.93 55.2101 355.63Z" fill="url(#paint4_linear)"/>
<path fill-rule="evenodd" clip-rule="evenodd" d="M55.2101 358.65C54.8655 358.684 54.5183 358.618 54.2101 358.46C50.8801 357.34 48.9102 354.07 48.9102 349.76V256.65C48.9119 255.904 48.9653 255.159 49.0702 254.42C49.1565 253.932 49.3525 253.469 49.6435 253.067C49.9345 252.665 50.3129 252.335 50.7502 252.1C51.2024 251.886 51.701 251.789 52.2005 251.817C52.7 251.845 53.1846 251.997 53.6101 252.26L56.7302 254C57.1896 254.273 57.5702 254.661 57.8349 255.126C58.0996 255.59 58.2392 256.115 58.2401 256.65V355.65C58.2332 356.137 58.1141 356.616 57.8921 357.05C57.6701 357.483 57.3512 357.86 56.9601 358.15C56.4354 358.478 55.8289 358.651 55.2101 358.65V358.65Z" fill="white"/>
<path fill-rule="evenodd" clip-rule="evenodd" d="M96.9102 164.42L145.77 192.62V94.1599C145.897 91.9967 146.387 89.8703 147.22 87.8699L98.3701 59.6699C97.5257 61.6671 97.0318 63.7949 96.9102 65.9599V164.42Z" fill="url(#paint5_linear)"/>
<path fill-rule="evenodd" clip-rule="evenodd" d="M99.9996 162.69L142.75 187.34V94.1601C142.841 92.4975 143.119 90.8504 143.58 89.2501L100.23 64.2501C100.113 64.9115 100.036 65.5794 99.9996 66.2501V162.72V162.69ZM145.81 195.69C145.271 195.67 144.746 195.519 144.28 195.25L95.3896 167.1C94.9256 166.822 94.5404 166.43 94.2708 165.961C94.0012 165.491 93.8563 164.961 93.8496 164.42V66.0001C93.9704 63.4559 94.5321 60.9521 95.5096 58.6001C95.6592 58.1822 95.8997 57.8027 96.2137 57.489C96.5277 57.1753 96.9074 56.9352 97.3254 56.786C97.7435 56.6367 98.1894 56.5821 98.6311 56.6261C99.0728 56.67 99.4992 56.8114 99.8796 57.0401L148.73 85.2301C149.357 85.5914 149.837 86.1628 150.084 86.8435C150.331 87.5243 150.329 88.2704 150.08 88.9501C149.357 90.7031 148.937 92.5664 148.84 94.4601V192.66C148.845 193.199 148.705 193.73 148.434 194.197C148.163 194.663 147.771 195.048 147.3 195.31C146.832 195.572 146.305 195.71 145.77 195.71L145.81 195.69Z" fill="white"/>
<path fill-rule="evenodd" clip-rule="evenodd" d="M148.29 409.42L99.4102 381.23C97.2802 379.51 97.1502 378.4 96.9102 375.72V277.26L145.77 305.45V403.91C146 406.59 146.16 407.71 148.29 409.42Z" fill="url(#paint6_linear)"/>
<path fill-rule="evenodd" clip-rule="evenodd" d="M100 282.53V375.72C100.2 377.8 100.23 377.87 101.4 378.91L142.77 402.69V307.27L100 282.53ZM148.33 412.53C147.794 412.517 147.268 412.373 146.8 412.11L97.9502 383.91C94.5102 381.16 94.1702 379.08 93.9502 375.99V277.27C93.9572 276.733 94.1026 276.207 94.3723 275.743C94.6421 275.279 95.0271 274.892 95.4902 274.62C95.9491 274.365 96.4653 274.231 96.9902 274.231C97.5151 274.231 98.0313 274.365 98.4902 274.62L147.37 302.89C147.83 303.146 148.214 303.518 148.484 303.969C148.754 304.42 148.901 304.934 148.91 305.46V403.92C149.11 406.08 149.11 406.16 150.28 407.09C150.88 407.587 151.272 408.291 151.38 409.062C151.487 409.834 151.302 410.618 150.86 411.26C150.557 411.653 150.167 411.971 149.722 412.189C149.276 412.408 148.786 412.521 148.29 412.52L148.33 412.53Z" fill="white"/>
<path fill-rule="evenodd" clip-rule="evenodd" d="M234.93 362.36L154.32 408.83C149.61 411.58 145.77 409.34 145.77 403.91V305.45L60.5103 354.7C55.8103 357.45 51.9902 355.19 51.9902 349.76V256.65C51.9902 251.22 55.8103 244.59 60.5103 241.84L145.77 192.62V94.16C145.77 88.72 149.61 82.07 154.32 79.42L234.93 32.86C239.66 30.1 243.5 32.33 243.5 37.77V136.23L328.76 87C333.47 84.24 337.29 86.48 337.29 91.91V185C337.29 190.43 333.47 197.06 328.76 199.81L243.5 249.09V347.53C243.5 353 239.66 359.61 234.93 362.36Z" fill="url(#paint7_linear)"/>
<path fill-rule="evenodd" clip-rule="evenodd" d="M145.77 302.44C146.316 302.399 146.859 302.555 147.3 302.88C147.76 303.136 148.144 303.508 148.414 303.959C148.684 304.41 148.831 304.924 148.84 305.45V403.91C148.84 405.37 149.2 406.49 149.84 406.85C150.48 407.21 151.6 406.93 152.84 406.23L233.45 359.69C237.17 357.53 240.45 351.84 240.45 347.53V249.09C240.438 248.547 240.575 248.01 240.844 247.538C241.114 247.066 241.506 246.676 241.98 246.41L327.24 197.17C330.99 195.04 334.24 189.32 334.24 185.03V91.9202C334.24 90.5502 333.87 89.4002 333.24 89.0702C332.61 88.7402 331.47 88.9102 330.24 89.6902L245 138.9C244.541 139.154 244.025 139.287 243.5 139.287C242.975 139.287 242.459 139.154 242 138.9C241.537 138.624 241.154 138.233 240.886 137.765C240.618 137.298 240.475 136.769 240.47 136.23V37.7702C240.47 36.3102 240.1 35.2702 239.47 34.9302C238.84 34.5902 237.73 34.7502 236.47 35.4502L155.85 82.0002C152.11 84.1602 148.85 89.8502 148.85 94.1702V192.63C148.855 193.17 148.715 193.7 148.444 194.167C148.173 194.633 147.781 195.018 147.31 195.28L62.0002 244.51C58.2602 246.67 55.0002 252.36 55.0002 256.65V349.76C55.0002 351.14 55.3902 352.28 56.0002 352.62C56.5061 352.773 57.0409 352.806 57.5618 352.716C58.0827 352.626 58.5753 352.415 59.0002 352.1L144.26 302.88C144.705 302.563 145.245 302.408 145.79 302.44H145.77ZM150.5 413C149.19 413.053 147.893 412.731 146.76 412.07C144.19 410.59 142.71 407.58 142.71 403.88V310.8L62.0002 357.34C58.8002 359.17 55.4802 359.43 52.9102 357.95C50.3402 356.47 48.9102 353.48 48.9102 349.76V256.65C48.9102 250.1 53.3302 242.51 58.9702 239.27L142.7 190.88V94.1602C142.7 87.6902 147.14 80.0202 152.8 76.7502L233.41 30.2102C236.63 28.3902 239.96 28.1202 242.51 29.5802C245.06 31.0402 246.51 34.0802 246.51 37.7702V131L327.19 84.3502C330.39 82.5402 333.72 82.2802 336.29 83.7602C338.86 85.2402 340.29 88.2302 340.29 91.9402V185C340.29 191.55 335.87 199.21 330.2 202.41L246.48 250.78V347.5C246.48 353.96 242.03 361.63 236.39 364.91L155.85 411.5C154.227 412.454 152.383 412.971 150.5 413V413Z" fill="white"/>
<defs>
<linearGradient id="paint0_linear" x1="3.11035" y1="206.45" x2="334.79" y2="206.45" gradientUnits="userSpaceOnUse">
<stop stop-color="#1a8fca"/>
<stop offset="0.58" stop-color="#F7F9FE"/>
<stop offset="1" stop-color="white"/>
</linearGradient>
<linearGradient id="paint1_linear" x1="99048.2" y1="177788" x2="180444" y2="177788" gradientUnits="userSpaceOnUse">
<stop stop-color="#1a8fca"/>
<stop offset="0.58" stop-color="#F7F9FE"/>
<stop offset="1" stop-color="white"/>
</linearGradient>
<linearGradient id="paint2_linear" x1="15317" y1="69689.7" x2="17955.9" y2="69689.7" gradientUnits="userSpaceOnUse">
<stop stop-color="#1a8fca"/>
<stop offset="0.58" stop-color="#F7F9FE"/>
<stop offset="1" stop-color="white"/>
</linearGradient>
<linearGradient id="paint3_linear" x1="1169.58" y1="56116.7" x2="1179.95" y2="56116.7" gradientUnits="userSpaceOnUse">
<stop stop-color="#1a8fca"/>
<stop offset="0.58" stop-color="#F7F9FE"/>
<stop offset="1" stop-color="white"/>
</linearGradient>
<linearGradient id="paint4_linear" x1="1169.58" y1="56116.7" x2="1179.95" y2="56116.7" gradientUnits="userSpaceOnUse">
<stop stop-color="#1a8fca"/>
<stop offset="0.58" stop-color="#F7F9FE"/>
<stop offset="1" stop-color="white"/>
</linearGradient>
<linearGradient id="paint5_linear" x1="19813.9" y1="49935.9" x2="22345" y2="49935.9" gradientUnits="userSpaceOnUse">
<stop stop-color="#1a8fca"/>
<stop offset="0.58" stop-color="#F7F9FE"/>
<stop offset="1" stop-color="white"/>
</linearGradient>
<linearGradient id="paint6_linear" x1="20233.2" y1="78560.9" x2="22873.2" y2="78560.9" gradientUnits="userSpaceOnUse">
<stop stop-color="#1a8fca"/>
<stop offset="0.58" stop-color="#F7F9FE"/>
<stop offset="1" stop-color="white"/>
</linearGradient>
<linearGradient id="paint7_linear" x1="99048.2" y1="177788" x2="180444" y2="177788" gradientUnits="userSpaceOnUse">
<stop stop-color="#1a8fca"/>
<stop offset="0.58" stop-color="#F7F9FE"/>
<stop offset="1" stop-color="white"/>
</linearGradient>
</defs>
</svg>
