<svg width="389" height="443" viewBox="0 0 389 443" fill="none" xmlns="http://www.w3.org/2000/svg">
<path fill-rule="evenodd" clip-rule="evenodd" d="M376.85 175.5V223.89C376.79 218.52 375.41 214.89 373.72 215.89C254.32 284.84 191.66 321.01 72.2599 389.89C70.5699 390.89 69.1799 396.07 69.1299 401.53V353.13C69.1799 358.51 70.5699 362.13 72.2599 361.13L373.72 187.1C375.41 186.11 376.79 180.94 376.85 175.5Z" fill="url(#paint0_linear)"/>
<path fill-rule="evenodd" clip-rule="evenodd" d="M72.4501 364.54V386L372.06 213C372.515 212.746 373.008 212.567 373.52 212.47V191.05L73.9201 364C73.4745 364.282 72.9729 364.463 72.4501 364.53V364.54ZM69.1301 404.88C68.6954 404.879 68.2653 404.792 67.8642 404.624C67.4631 404.457 67.0989 404.212 66.7925 403.904C66.4861 403.595 66.2434 403.23 66.0782 402.828C65.9131 402.426 65.8288 401.995 65.8301 401.56V353.16C65.8288 352.725 65.9131 352.295 66.0782 351.893C66.2434 351.491 66.4861 351.125 66.7925 350.817C67.0989 350.508 67.4631 350.264 67.8642 350.096C68.2653 349.928 68.6954 349.842 69.1301 349.84V349.84C70.0063 349.838 70.8477 350.182 71.47 350.799C72.0924 351.416 72.4448 352.254 72.4501 353.13C72.4392 354.435 72.5564 355.738 72.8001 357.02L372.06 184.22C373.085 181.416 373.58 178.445 373.52 175.46C373.536 174.588 373.894 173.758 374.517 173.148C375.14 172.538 375.978 172.197 376.85 172.2V172.2C377.283 172.199 377.713 172.283 378.113 172.449C378.513 172.614 378.877 172.858 379.183 173.164C379.489 173.471 379.731 173.836 379.895 174.237C380.06 174.637 380.143 175.067 380.14 175.5V223.89C380.144 224.325 380.062 224.757 379.899 225.16C379.735 225.563 379.493 225.93 379.188 226.24C378.882 226.549 378.518 226.795 378.117 226.963C377.716 227.132 377.285 227.219 376.85 227.22V227.22C375.973 227.218 375.132 226.87 374.509 226.253C373.886 225.635 373.531 224.797 373.52 223.92C373.544 222.619 373.43 221.318 373.18 220.04L73.9201 392.8C72.8964 395.616 72.3982 398.595 72.4501 401.59C72.4448 402.466 72.0924 403.305 71.47 403.921C70.8477 404.538 70.0063 404.883 69.1301 404.88V404.88Z" fill="white"/>
<path fill-rule="evenodd" clip-rule="evenodd" d="M69.1302 347.71C68.205 348.319 67.4354 349.137 66.8831 350.097C66.3309 351.058 66.0114 352.134 65.9502 353.24V424.1C65.9502 437.32 75.2702 442.7 86.7102 436.1L359.29 278.72C370.71 272.13 380 256 380 242.78V171.91C380 169.91 378.56 169.05 376.82 170.06C266.26 233.93 184.78 281 69.1302 347.71Z" fill="url(#paint1_linear)"/>
<path fill-rule="evenodd" clip-rule="evenodd" d="M70.8204 350.59C70.3933 350.9 70.0358 351.296 69.7706 351.752C69.5054 352.209 69.3384 352.715 69.2804 353.24V424.1C69.2804 429.26 70.8504 433.01 73.7004 434.67C76.5504 436.33 80.6004 435.79 85.0504 433.23L357.63 275.85C368 269.85 376.73 254.72 376.73 242.78V174L70.8004 350.59H70.8204ZM77.4704 442.24C74.9888 442.271 72.5453 441.628 70.4004 440.38C65.4004 437.51 62.6504 431.74 62.6504 424.1V353.24C62.7146 351.556 63.1868 349.912 64.0264 348.451C64.8659 346.989 66.0478 345.754 67.4704 344.85V344.85L375.18 167.21C375.992 166.65 376.946 166.331 377.932 166.29C378.917 166.25 379.894 166.489 380.749 166.981C381.604 167.473 382.302 168.197 382.763 169.069C383.223 169.942 383.427 170.926 383.35 171.91V242.78C383.35 257.06 373.3 274.47 360.93 281.6L88.3804 439C85.0909 441.018 81.3283 442.136 77.4704 442.24V442.24Z" fill="white"/>
<path fill-rule="evenodd" clip-rule="evenodd" d="M385 191.69V57.9998C385 44.8198 375.7 39.4298 364.26 45.9998L91.6704 203.42C80.2304 210.01 70.9004 226.15 70.9004 239.37V373C70.9004 375 72.3704 375.88 74.1204 374.86L202.31 300.86V293.73C202.31 288.65 205.88 282.43 210.31 279.89L245.67 259.46C250.07 256.96 253.67 259.01 253.67 264.09V271.22L381.83 197.22C382.751 196.607 383.517 195.788 384.067 194.828C384.617 193.869 384.936 192.794 385 191.69Z" fill="url(#paint2_linear)"/>
<path fill-rule="evenodd" clip-rule="evenodd" d="M373.47 46.5099C370.78 46.6503 368.171 47.4765 365.89 48.9099L93.3303 206.27C82.9703 212.27 74.2303 227.42 74.2303 239.37V371L199 299V293.78C199 287.52 203.22 280.2 208.61 277.07L244 256.64C247.16 254.81 250.42 254.64 253 256.08C255.58 257.52 257 260.47 257 264.08V265.49L380.24 194.35C380.658 194.026 381.008 193.622 381.269 193.162C381.53 192.702 381.697 192.195 381.76 191.67V57.9999C381.76 52.8399 380.19 49.1299 377.31 47.4599C376.17 46.7856 374.865 46.4395 373.54 46.4599L373.47 46.5099ZM72.6803 378.63C71.8097 378.638 70.9542 378.402 70.2103 377.95C69.3696 377.442 68.6833 376.715 68.2251 375.846C67.767 374.978 67.5544 374 67.6103 373.02V239.37C67.6103 225.08 77.6703 207.67 90.0103 200.54L362.59 43.1599C369.21 39.3599 375.59 38.8499 380.59 41.7199C385.59 44.5899 388.34 50.3999 388.34 58.0099V191.69C388.274 193.376 387.8 195.021 386.959 196.484C386.118 197.947 384.934 199.184 383.51 200.09L255.3 274.09C254.801 274.38 254.233 274.532 253.655 274.532C253.078 274.532 252.51 274.38 252.01 274.09C251.498 273.808 251.072 273.391 250.778 272.886C250.484 272.38 250.333 271.805 250.34 271.22V264.1C250.34 262.8 250 262.02 249.63 261.82C249.26 261.62 248.45 261.71 247.33 262.35L211.93 282.78C208.58 284.78 205.66 289.86 205.66 293.78V300.91C205.657 301.493 205.502 302.064 205.209 302.568C204.916 303.072 204.495 303.489 203.99 303.78L75.8003 377.78C74.8563 378.34 73.7781 378.634 72.6803 378.63V378.63Z" fill="white"/>
<path fill-rule="evenodd" clip-rule="evenodd" d="M197.32 294.84C197.32 284.56 202.39 278.84 207.05 275.84L240.66 256.45C242.66 255.45 244.2 254.91 246.32 255.89L253.73 260.17C251.61 259.17 250.04 259.7 248.06 260.71L212.7 281.12C205.64 285.2 204.96 289.4 204.7 294.96V319.75C204.82 321.97 205.15 323.61 207.04 324.9L199.66 320.65C197.01 318.81 193.66 317.32 193.66 311.94V305.83L197.27 303.74L197.32 294.84Z" fill="url(#paint3_linear)"/>
<path fill-rule="evenodd" clip-rule="evenodd" d="M197.04 307.74V311.94C197.04 314.94 198.28 315.74 200.56 317.24L201.41 317.83V295C201.66 288.68 202.56 283.19 211.07 278.28L244.74 258.84L244.66 258.79C244.29 258.62 243.92 258.5 242.21 259.41L208.7 278.69C205.1 281.01 200.65 285.74 200.65 294.84V303.74C200.646 304.323 200.49 304.894 200.199 305.399C199.909 305.904 199.492 306.324 198.99 306.62L197 307.74H197.04ZM207.04 328.22C206.456 328.22 205.883 328.065 205.38 327.77L196.9 322.77C194.28 321.08 190.39 318.52 190.39 311.95V305.84C190.388 305.261 190.537 304.692 190.823 304.188C191.109 303.685 191.521 303.265 192.02 302.97L194.02 301.84V294.84C194.02 282.1 201.07 275.71 205.27 273.06L239 253.57C241.59 252.21 244.32 251.28 247.71 252.89L255.36 257.28C256.129 257.691 256.706 258.389 256.964 259.222C257.222 260.055 257.14 260.957 256.737 261.731C256.334 262.504 255.641 263.087 254.81 263.353C253.979 263.619 253.077 263.546 252.3 263.15C251.64 262.86 251.3 262.75 249.59 263.65L214.37 284C208.64 287.29 208.25 290.22 208.06 295.1V319.75C208.11 321.55 208.37 321.75 208.96 322.2C209.533 322.603 209.963 323.178 210.188 323.841C210.413 324.505 210.42 325.223 210.21 325.891C209.999 326.56 209.582 327.144 209.017 327.559C208.452 327.974 207.77 328.198 207.07 328.2L207.04 328.22Z" fill="white"/>
<path fill-rule="evenodd" clip-rule="evenodd" d="M256.07 283V290.13C256.07 295.23 252.48 301.42 248.07 303.96L212.7 324.36C208.31 326.9 204.7 324.85 204.7 319.75V295C204.7 289.9 208.28 283.69 212.7 281.16L248.06 260.73C252.48 258.19 256.06 260.28 256.06 265.35L256.07 283Z" fill="url(#paint4_linear)"/>
<path fill-rule="evenodd" clip-rule="evenodd" d="M251.61 262.92C250.941 262.985 250.296 263.207 249.73 263.57L214.37 284C212.549 285.231 211.034 286.862 209.94 288.769C208.846 290.675 208.203 292.807 208.06 295V319.79C208.06 321.11 208.4 321.9 208.73 322.1C209.138 322.167 209.556 322.151 209.958 322.053C210.36 321.955 210.738 321.778 211.07 321.53L246.43 301.13C249.78 299.13 252.74 294.06 252.74 290.13V265.33C252.793 264.919 252.759 264.502 252.642 264.104C252.525 263.706 252.327 263.337 252.06 263.02C251.918 262.961 251.764 262.934 251.61 262.94V262.92ZM209.15 328.76C207.836 328.77 206.544 328.424 205.41 327.76C202.87 326.3 201.41 323.37 201.41 319.76V295C201.41 288.74 205.64 281.41 211.07 278.28L246.43 257.86C249.55 256.05 252.83 255.86 255.36 257.32C257.89 258.78 259.36 261.71 259.36 265.32V290.12C259.36 296.37 255.13 303.72 249.73 306.82L214.37 327.24C212.794 328.198 210.994 328.722 209.15 328.76V328.76Z" fill="white"/>
<path fill-rule="evenodd" clip-rule="evenodd" d="M309.9 4.92985C305.48 3.23985 300.64 4.92986 296.72 7.04986L24.1404 164.42C12.5304 171.3 3.54039 186.88 3.40039 200.37L3.83038 392.57C3.83038 396.35 6.25039 399.36 9.49039 401.4L72.0004 437.54C67.2304 434.22 66.0004 429.85 65.9104 424.1V370.1C65.8716 370.499 65.9369 370.901 66.0999 371.267C66.2629 371.634 66.518 371.952 66.8404 372.19L71.8404 375.06C71.5123 374.825 71.2488 374.511 71.074 374.148C70.8992 373.784 70.8188 373.383 70.8404 372.98L71.0004 236.86C72.0604 224.2 80.7004 209.86 91.6504 203.42L364.25 45.9999C369.25 43.2399 373.66 42.0799 378.9 44.5699L309.9 4.92985Z" fill="url(#paint5_linear)"/>
<path fill-rule="evenodd" clip-rule="evenodd" d="M306 7.55022C303.268 7.68446 300.615 8.51026 298.29 9.95022L25.8 167.3C15.24 173.55 6.80004 188.08 6.70004 200.4L7.12003 392.55C7.12003 395.4 9.38002 397.42 11.27 398.6L63 428.47C62.7845 427.05 62.6708 425.616 62.66 424.18V370.18C62.6666 369.334 62.9963 368.521 63.5819 367.91C64.1674 367.298 64.9645 366.934 65.81 366.89C66.4533 366.877 67.0885 367.036 67.65 367.35L67.74 236.87C68.91 222.69 78.27 207.54 89.99 200.61L362.59 43.1602C363.854 42.4547 365.164 41.8333 366.51 41.3002L308.51 7.94022C307.712 7.66679 306.873 7.53481 306.03 7.55022H306ZM72 440.83C71.4222 440.835 70.8545 440.679 70.36 440.38L7.79004 404.27C3.05004 401.27 0.460022 397.14 0.460022 392.57L0.0400391 200.37C0.210039 185.69 9.81002 169.01 22.4 161.58L295.06 4.19022C301.12 0.856887 306.453 0.0702199 311.06 1.83022C311.222 1.88052 311.374 1.95832 311.51 2.06022L380.51 41.7202C381.237 42.1565 381.769 42.8541 381.997 43.67C382.226 44.486 382.134 45.3585 381.741 46.1089C381.347 46.8593 380.681 47.4307 379.88 47.7062C379.078 47.9816 378.202 47.9401 377.43 47.5902C373.81 45.8602 370.7 46.2402 365.77 48.9402L93.33 206.27C83.5 212.09 75.33 225.37 74.33 237.15L74.23 373C74.8541 373.493 75.2573 374.212 75.3511 375.002C75.4448 375.791 75.2215 376.585 74.73 377.21C74.1936 377.86 73.4392 378.292 72.6075 378.426C71.7758 378.561 70.9237 378.388 70.21 377.94L69.28 377.38V424.1C69.39 429.68 70.59 432.49 73.92 434.81C74.6246 435.29 75.1133 436.026 75.2815 436.862C75.4497 437.697 75.2841 438.565 74.82 439.28C74.5295 439.765 74.1153 440.165 73.6198 440.437C73.1243 440.709 72.5653 440.845 72 440.83V440.83Z" fill="white"/>
<path fill-rule="evenodd" clip-rule="evenodd" d="M133.08 145.88L121.81 139.35C121.81 133.35 121.28 115.71 122.24 109.85C124.13 98.0399 132.19 85.1199 142.55 78.9699L222.17 33.1299C226.29 31.2499 230.63 30.6199 234.71 32.7999L246.01 39.2999C240.77 36.8199 236.38 37.9699 231.32 40.7399L153.85 85.4799C142.24 92.3399 133.22 107.94 133.08 121.43V145.88Z" fill="url(#paint6_linear)"/>
<path fill-rule="evenodd" clip-rule="evenodd" d="M125.11 137.43L129.76 140.13V121.43C129.93 106.75 139.56 90.0698 152.16 82.6298L229.7 37.8598C230.97 37.1456 232.286 36.5176 233.64 35.9797L233.08 35.6697C230.45 34.2897 227.27 34.4297 223.55 36.1497L144.22 81.8397C135.06 87.2897 127.34 99.0298 125.5 110.39C124.8 114.67 124.97 126.7 125.08 133.91V137.43H125.11ZM133.11 149.18C132.526 149.18 131.953 149.024 131.45 148.73L120.19 142.22C119.687 141.928 119.268 141.51 118.977 141.006C118.686 140.502 118.532 139.931 118.53 139.35L118.46 133.99C118.39 125.63 118.21 114.19 119 109.31C121.11 96.1597 130.13 82.4897 140.92 76.1197L220.54 30.2498C226.48 27.5298 231.7 27.4398 236.29 29.8598L247.7 36.4197C248.426 36.858 248.957 37.5575 249.184 38.3747C249.41 39.192 249.316 40.065 248.919 40.8147C248.523 41.5644 247.854 42.1339 247.051 42.4063C246.248 42.6788 245.371 42.6335 244.6 42.2797C240.94 40.5597 237.92 40.9397 232.94 43.6397L155.52 88.3498C144.95 94.6098 136.52 109.15 136.44 121.46V145.88C136.428 146.461 136.27 147.029 135.98 147.533C135.689 148.036 135.277 148.458 134.78 148.76C134.258 149.041 133.673 149.186 133.08 149.18H133.11Z" fill="white"/>
<path fill-rule="evenodd" clip-rule="evenodd" d="M237.58 85.53L226.31 79.03V56.68L226.26 55.79L226.18 54.92L225.94 54.15L225.7 53.47L225.35 52.85L224.96 52.32L224.48 51.89L223.98 51.52L235.24 58.04L235.78 58.4L236.23 58.83L236.63 59.37L236.96 59.98L237.24 60.65L237.44 61.44L237.55 62.29L237.58 63.19V85.53Z" fill="url(#paint7_linear)"/>
<path fill-rule="evenodd" clip-rule="evenodd" d="M229.64 77.1201L234.29 79.7901L234.18 61.8901L237 60.0001L233.77 61.0001L229.68 58.6301V77.1201H229.64ZM237.58 88.8601C236.999 88.8464 236.429 88.692 235.92 88.4101L224.65 81.8701C224.145 81.5818 223.725 81.1639 223.435 80.6593C223.145 80.1548 222.995 79.582 223 79.0001L222.88 55.3601L223.42 54.9901L222.32 54.3701C221.635 53.8649 221.157 53.1286 220.973 52.2976C220.789 51.4666 220.912 50.5971 221.32 49.8501C221.728 49.1258 222.406 48.5921 223.206 48.3654C224.006 48.1388 224.863 48.2375 225.59 48.6401L236.9 55.1501L237.63 55.6501C237.77 55.8001 238.75 56.7101 238.87 56.8401C238.99 56.9701 239.43 57.6001 239.49 57.7201C239.55 57.8401 239.99 58.6201 240.05 58.7901C240.192 59.1166 240.315 59.4504 240.42 59.7901C240.529 60.162 240.619 60.5392 240.69 60.9201L240.9 63.0001V85.4801C240.904 86.0643 240.753 86.639 240.461 87.1452C240.169 87.6513 239.748 88.0707 239.24 88.3601C238.739 88.6653 238.167 88.8374 237.58 88.8601Z" fill="white"/>
<path fill-rule="evenodd" clip-rule="evenodd" d="M147.68 115.09V137.43L133.08 145.88V121.43C133.08 108.21 142.41 92.0699 153.85 85.4799L231.32 40.7399C242.77 34.1499 252.09 39.5198 252.09 52.7398V77.1899L237.58 85.5498V63.1899C237.58 58.1199 234.01 56.0599 229.58 58.5999L155.65 101.29C151.29 103.82 147.68 110 147.68 115.09Z" fill="url(#paint8_linear)"/>
<path fill-rule="evenodd" clip-rule="evenodd" d="M240.56 41.2198C237.873 41.3549 235.267 42.1778 232.99 43.6098L155.49 88.3498C145.14 94.3498 136.41 109.48 136.41 121.43V140.13L144.41 135.51V115.09C144.41 108.87 148.63 101.54 154.04 98.4098L228 55.7298C231.16 53.8898 234.39 53.7298 237 55.1598C239.61 56.5898 241 59.5598 241 63.1598V79.7598L248.89 75.2298V52.7198C248.89 47.5598 247.3 43.8098 244.43 42.1798C243.285 41.508 241.977 41.1622 240.65 41.1798L240.56 41.2198ZM133.08 149.22C132.496 149.22 131.923 149.064 131.42 148.77C130.921 148.478 130.507 148.062 130.216 147.562C129.925 147.063 129.768 146.498 129.76 145.92V121.43C129.76 107.15 139.85 89.7298 152.19 82.6098L229.7 37.8598C236.29 34.0598 242.65 33.5598 247.7 36.4198C252.75 39.2798 255.45 45.0998 255.45 52.7198V77.1698C255.445 77.7521 255.288 78.323 254.995 78.8263C254.703 79.3296 254.284 79.7478 253.78 80.0398L239.28 88.4098C238.774 88.7064 238.199 88.8639 237.613 88.8662C237.027 88.8686 236.451 88.7157 235.943 88.4232C235.435 88.1306 235.013 87.7088 234.721 87.2006C234.429 86.6924 234.277 86.1159 234.28 85.5298V63.1898C234.332 62.7834 234.298 62.3706 234.181 61.978C234.064 61.5853 233.866 61.2215 233.6 60.9098C233.26 60.7198 232.42 60.7998 231.27 61.4398L157.27 104.16C153.92 106.07 150.96 111.16 150.96 115.09V137.43C150.965 138.013 150.814 138.587 150.522 139.092C150.23 139.596 149.808 140.014 149.3 140.3L134.71 148.76C134.209 149.03 133.649 149.174 133.08 149.18V149.22Z" fill="white"/>
<path fill-rule="evenodd" clip-rule="evenodd" d="M9.26041 180.34C5.65779 186.408 3.6424 193.287 3.40039 200.34V388C3.66039 393.75 4.56039 398 9.49039 401.42L72.0004 437.54C67.0604 434.1 66.1604 429.85 65.9104 424.1V370.1C66.1104 372.1 66.7004 372.1 68.2504 372.98L71.8304 375.06C71.5023 374.825 71.2387 374.511 71.064 374.148C70.8892 373.784 70.8088 373.383 70.8304 372.98V239.37C71.0927 232.32 73.1067 225.446 76.6904 219.37L9.26041 180.34Z" fill="url(#paint9_linear)"/>
<path fill-rule="evenodd" clip-rule="evenodd" d="M10.59 184.93C8.16616 189.754 6.83786 195.053 6.70004 200.45V388C6.95004 393.19 7.70003 396.14 11.37 398.71L63 428.49C62.8 427.09 62.69 425.65 62.63 424.24V370.14C62.6366 369.293 62.9663 368.481 63.5519 367.87C64.1374 367.258 64.9345 366.893 65.78 366.85C66.4253 366.818 67.0656 366.978 67.62 367.31V239.37C67.7991 232.838 69.4249 226.428 72.38 220.6L10.6 184.93H10.59ZM72 440.83C71.4222 440.835 70.8545 440.679 70.36 440.38L7.79004 404.27C1.07004 399.64 0.290039 393.76 0.0400391 388.12V200.37C0.287133 192.747 2.44666 185.309 6.32004 178.74C6.53247 178.357 6.81859 178.021 7.1619 177.75C7.5052 177.479 7.89888 177.278 8.32013 177.16C8.74138 177.042 9.18184 177.008 9.61609 177.062C10.0503 177.115 10.4697 177.254 10.85 177.47L78.39 216.47C78.7664 216.682 79.0971 216.966 79.3629 217.307C79.6288 217.647 79.8246 218.037 79.9389 218.453C80.0533 218.87 80.084 219.305 80.0293 219.734C79.9745 220.162 79.8354 220.575 79.62 220.95C76.2871 226.556 74.4197 232.912 74.19 239.43V373C74.8112 373.492 75.2124 374.21 75.3061 374.997C75.3998 375.784 75.1783 376.576 74.69 377.2C74.1603 377.858 73.4076 378.299 72.5745 378.439C71.7414 378.579 70.8858 378.409 70.17 377.96L69.24 377.4V424.1C69.46 429.28 70.24 432.27 73.88 434.81C74.4527 435.212 74.8825 435.786 75.1075 436.449C75.3325 437.112 75.341 437.829 75.1318 438.497C74.9225 439.165 74.5063 439.749 73.9434 440.164C73.3804 440.58 72.6999 440.806 72 440.81V440.83Z" fill="white"/>
<defs>
<linearGradient id="paint0_linear" x1="69.1299" y1="288.53" x2="376.85" y2="288.53" gradientUnits="userSpaceOnUse">
<stop stop-color="#1a8fca"/>
<stop offset="0.58" stop-color="#F7F9FE"/>
<stop offset="1" stop-color="white"/>
</linearGradient>
<linearGradient id="paint1_linear" x1="103373" y1="139196" x2="202010" y2="139196" gradientUnits="userSpaceOnUse">
<stop stop-color="#1a8fca"/>
<stop offset="0.58" stop-color="#F7F9FE"/>
<stop offset="1" stop-color="white"/>
</linearGradient>
<linearGradient id="paint2_linear" x1="104949" y1="139942" x2="203605" y2="139942" gradientUnits="userSpaceOnUse">
<stop stop-color="#1a8fca"/>
<stop offset="0.58" stop-color="#F7F9FE"/>
<stop offset="1" stop-color="white"/>
</linearGradient>
<linearGradient id="paint3_linear" x1="27628.2" y1="35166.4" x2="31233.6" y2="35166.4" gradientUnits="userSpaceOnUse">
<stop stop-color="#1a8fca"/>
<stop offset="0.58" stop-color="#F7F9FE"/>
<stop offset="1" stop-color="white"/>
</linearGradient>
<linearGradient id="paint4_linear" x1="24232" y1="33458.3" x2="26869.3" y2="33458.3" gradientUnits="userSpaceOnUse">
<stop stop-color="#1a8fca"/>
<stop offset="0.58" stop-color="#F7F9FE"/>
<stop offset="1" stop-color="white"/>
</linearGradient>
<linearGradient id="paint5_linear" x1="100037" y1="187575" x2="241037" y2="187575" gradientUnits="userSpaceOnUse">
<stop stop-color="#1a8fca"/>
<stop offset="0.58" stop-color="#F7F9FE"/>
<stop offset="1" stop-color="white"/>
</linearGradient>
<linearGradient id="paint6_linear" x1="47952.6" y1="34443.4" x2="63415" y2="34443.4" gradientUnits="userSpaceOnUse">
<stop stop-color="#1a8fca"/>
<stop offset="0.58" stop-color="#F7F9FE"/>
<stop offset="1" stop-color="white"/>
</linearGradient>
<linearGradient id="paint7_linear" x1="6846.9" y1="9592.35" x2="7031.86" y2="9592.35" gradientUnits="userSpaceOnUse">
<stop stop-color="#1a8fca"/>
<stop offset="0.58" stop-color="#F7F9FE"/>
<stop offset="1" stop-color="white"/>
</linearGradient>
<linearGradient id="paint8_linear" x1="47270.6" y1="32845.8" x2="61434" y2="32845.8" gradientUnits="userSpaceOnUse">
<stop stop-color="#1a8fca"/>
<stop offset="0.58" stop-color="#F7F9FE"/>
<stop offset="1" stop-color="white"/>
</linearGradient>
<linearGradient id="paint9_linear" x1="19527.9" y1="134166" x2="24904.4" y2="134166" gradientUnits="userSpaceOnUse">
<stop stop-color="#1a8fca"/>
<stop offset="0.58" stop-color="#F7F9FE"/>
<stop offset="1" stop-color="white"/>
</linearGradient>
</defs>
</svg>
