<svg width="401" height="331" viewBox="0 0 401 331" fill="none" xmlns="http://www.w3.org/2000/svg">
<path fill-rule="evenodd" clip-rule="evenodd" d="M25.1197 18.2698C40.4997 9.09982 66.7597 4.76982 82.3097 3.79982C98.4597 2.79982 109.75 14.9698 109.75 36.7398C109.75 66.2698 89.0297 102.17 63.5297 116.92C36.0697 132.75 24.2497 115.69 20.7697 108.52C12.1097 90.8298 1.38969 70.9998 3.99969 51.2498C5.72969 38.7198 14.0597 24.8298 25.1197 18.2698Z" fill="url(#paint0_linear)"/>
<path fill-rule="evenodd" clip-rule="evenodd" d="M26.6296 20.83C16.9496 26.63 8.69957 39.59 7.00957 51.66C4.62957 69.13 13.7196 87.4001 21.7196 103.54L23.4895 107.21C25.2795 110.84 29.3496 117.27 36.9096 119.59C43.9096 121.68 52.3095 119.91 61.9895 114.3C86.6495 100.06 106.78 65.3 106.78 36.74C106.78 25.83 103.78 17.2701 98.2896 12.0701C94.1996 8.23005 88.6895 6.44003 82.4895 6.80003C69.0395 7.67003 42.1896 11.56 26.6296 20.86V20.83ZM42.8796 126.45C40.2857 126.466 37.704 126.096 35.2196 125.35C25.4596 122.35 20.2195 114.35 18.0495 109.85L16.2596 106.21C7.92957 89.3 -1.58043 70.21 1.03957 50.84C3.03957 36.84 12.1796 22.4301 23.5896 15.6701C40.1596 5.80006 68.2296 1.67003 82.1296 0.770034C90.1296 0.290034 97.1296 2.67006 102.38 7.67006C109.16 14.0501 112.83 24.12 112.83 36.74C112.83 67.18 91.3296 104.31 64.9696 119.53C56.9996 124.15 49.5896 126.45 42.8796 126.45Z" fill="white"/>
<path fill-rule="evenodd" clip-rule="evenodd" d="M25.1201 18.27C40.5001 9.09997 66.7601 4.76997 82.3102 3.79997C87.1822 3.38589 92.065 4.46362 96.3102 6.88999C85.9302 16.84 75.0501 28.52 67.0501 40.57L23.6602 19.2C24.1224 18.8532 24.6105 18.5423 25.1201 18.27V18.27Z" fill="url(#paint1_linear)"/>
<path fill-rule="evenodd" clip-rule="evenodd" d="M29.9995 18.9998L65.9995 36.6998C73.4452 26.3361 81.8126 16.6667 90.9995 7.80981C88.2305 6.91144 85.3108 6.57154 82.4095 6.80981C69.9995 7.58981 45.9295 10.9998 29.9995 18.9998ZM66.9995 43.5998C66.56 43.6002 66.1283 43.4828 65.7495 43.2598L22.2995 21.8798C21.8169 21.6565 21.4044 21.3056 21.1065 20.865C20.8087 20.4245 20.6368 19.9109 20.6095 19.3798C20.5607 18.8478 20.6634 18.3129 20.9059 17.8369C21.1483 17.3609 21.5206 16.9632 21.9795 16.6898C22.4844 16.3079 23.0234 15.9732 23.5895 15.6898C40.1595 5.81981 68.2295 1.68982 82.1295 0.789819C87.6082 0.344987 93.0929 1.57233 97.8595 4.30981C98.2687 4.55249 98.619 4.8828 98.8853 5.27703C99.1516 5.67126 99.3272 6.11961 99.3995 6.58981C99.4413 7.05191 99.3786 7.5175 99.2158 7.95202C99.0531 8.38654 98.7946 8.77886 98.4595 9.09982C86.0495 20.8798 76.3695 32.0198 69.6595 42.2198C69.3742 42.6394 68.9913 42.9833 68.5435 43.2219C68.0958 43.4606 67.5968 43.5868 67.0895 43.5898L66.9995 43.5998Z" fill="white"/>
<path fill-rule="evenodd" clip-rule="evenodd" d="M67.86 13C93.45 -1.71997 114.11 10.22 114.11 39.73C114.11 69.24 93.45 105.15 67.86 119.88C42.27 134.61 21.54 122.7 21.54 93.16C21.54 63.62 42.27 27.78 67.86 13Z" fill="url(#paint2_linear)"/>
<path fill-rule="evenodd" clip-rule="evenodd" d="M88.5096 9.71007C82.7496 9.71007 76.1896 11.7101 69.3996 15.6201C44.6396 29.9001 24.6096 64.6701 24.6096 93.1601C24.6096 106.32 28.8396 116.04 36.6796 120.52C44.5196 125 54.9396 123.85 66.3496 117.29C91.0796 103.02 111.14 68.2901 111.14 39.7301C111.14 26.5901 106.88 16.8801 99.0496 12.3901C95.8452 10.5552 92.2012 9.62866 88.5096 9.71007V9.71007ZM47.2096 129.23C42.4448 129.285 37.75 128.081 33.5996 125.74C23.9196 120.14 18.5996 108.58 18.5996 93.1601C18.5996 62.7501 40.0196 25.6501 66.3796 10.4001C79.7096 2.72007 92.3796 1.56009 102.15 7.17009C111.92 12.7801 117.15 24.3401 117.15 39.7301C117.15 70.1501 95.7296 107.3 69.3896 122.5C61.5796 127 53.9996 129.24 47.2096 129.24V129.23Z" fill="white"/>
<path fill-rule="evenodd" clip-rule="evenodd" d="M77.3897 137.88L43.2897 118.17C35.2897 113.17 32.6797 105.72 31.6597 96.71C31.2706 91.0239 31.6066 85.3113 32.6597 79.71C35.7127 65.5899 41.9439 52.3513 50.8797 41C57.1497 33.15 63.0997 27.42 71.7797 22.16C80.9497 17.16 90.5697 14.22 100.32 19.34L134.5 39C120.16 31.49 104.5 41.27 93.9697 50.86C82.8481 61.4923 74.469 74.6615 69.5497 89.24C66.3497 99.24 64.8097 108.02 66.0597 118.55C67.4497 126.86 70.0597 133.26 77.3897 137.88Z" fill="url(#paint3_linear)"/>
<path fill-rule="evenodd" clip-rule="evenodd" d="M89.6397 19.6102C84.8697 19.6102 79.6397 21.2902 73.2197 24.7802C65.6597 29.3602 59.8697 34.6202 53.2197 42.8502C44.0097 54.9402 38.5797 66.4902 35.6097 80.3002C34.5896 85.6257 34.2536 91.0597 34.6097 96.4702C35.8197 106.18 38.7897 111.77 44.8197 115.64L65.2097 127.37C64.2004 124.7 63.4894 121.927 63.0897 119.1C61.8997 108.97 62.9297 100.1 66.6697 88.3503C72.2797 72.4602 80.2497 59.9102 91.8297 48.7102C101.41 40.0302 110.61 35.0102 119.19 33.7102L98.7997 21.9503C95.9836 20.4252 92.8323 19.6245 89.6297 19.6202L89.6397 19.6102ZM77.3897 140.9C76.85 140.896 76.3203 140.755 75.8497 140.49L41.7797 120.79C31.9097 114.56 29.6097 105.29 28.6797 97.0602C28.2148 91.0615 28.585 85.0272 29.7797 79.1302C32.8697 64.5202 38.7797 51.8702 48.4897 39.1302C55.6397 30.2302 61.9097 24.5702 70.2497 19.5202C78.7497 14.8802 89.8697 10.4002 101.71 16.6302L135.94 36.3802C136.633 36.7685 137.148 37.4123 137.374 38.1743C137.6 38.9364 137.519 39.7566 137.15 40.4602C136.75 41.1504 136.101 41.6603 135.335 41.8838C134.57 42.1072 133.748 42.0272 133.04 41.6602C120.23 34.9502 105.78 44.1702 95.9197 53.0902C85.1297 63.5402 77.6497 75.3602 72.3697 90.2402C68.9597 101.03 67.9397 109.15 69.0397 118.24C70.2497 125.42 72.4497 131.15 79.0397 135.33C79.7038 135.756 80.1738 136.425 80.3478 137.194C80.5219 137.964 80.386 138.77 79.9697 139.44C79.7124 139.895 79.3364 140.271 78.882 140.528C78.4275 140.785 77.9117 140.914 77.3897 140.9V140.9Z" fill="white"/>
<path fill-rule="evenodd" clip-rule="evenodd" d="M109.67 129.8L121.49 222.3C122.25 232.22 122.1 238.72 111.14 244.67C93.1402 254.5 90.5702 254.23 80.4402 249.21C73.0702 245.49 71.2702 244.9 68.8102 226.21L57.4102 136.21V136.37L57.4802 136.45V136.52L57.5801 136.63H57.6602V136.7L57.7401 136.78L57.8502 136.86L57.9202 136.94L57.9901 137.01L58.1002 137.06L58.2602 137.11L75.8502 147.34L75.9301 147.39H76.1101L76.1902 147.47H76.3701L76.4402 147.52L76.6302 147.57H76.7101L76.8802 147.62H76.9502H77.1402H77.2902H77.3902H77.5501H77.7302H77.8001H78.1402H78.3202H78.4102H78.5702H78.7502H78.8202H79.0002H79.0801L79.2602 147.57H79.4102L79.5201 147.52L79.6801 147.47H79.7802L79.8502 147.39H80.0302L80.1101 147.34L108.83 130.76L108.93 130.68L109.01 130.63L109.16 130.56V130.48L109.27 130.4L109.34 130.33L109.45 130.25L109.52 130.17V130.09L109.6 130.02V130L109.67 129.9V129.8Z" fill="url(#paint4_linear)"/>
<path fill-rule="evenodd" clip-rule="evenodd" d="M61.2199 142.36L71.8599 225.81C73.9899 242.57 75.09 243.16 81.39 246.29C90.72 250.95 92.1 251.66 109.67 242.03C119.2 236.85 119.2 231.78 118.44 222.54L107.29 135.13L81.6199 150C81.357 150.156 81.0829 150.293 80.7999 150.41L80.1099 150.63L79.26 150.82C79.17 150.82 78.5699 150.89 78.4899 150.91H77.6499C77.6499 150.91 76.95 150.91 76.88 150.84C76.81 150.77 76.2699 150.74 76.1099 150.71C75.9499 150.68 75.4199 150.51 75.3399 150.46L74.6799 150.15L61.2199 142.41V142.36ZM91.2199 255.63C87.4799 255.63 84 254.33 79.07 251.9C70.07 247.36 68.2199 244.9 65.8299 226.58L54.42 136.58C54.3051 135.811 54.4995 135.028 54.9605 134.402C55.4215 133.776 56.1116 133.358 56.88 133.24C57.524 133.136 58.1843 133.239 58.7663 133.534C59.3483 133.828 59.8221 134.299 60.1199 134.88L78.1199 144.88L107.12 128.3C107.439 127.84 107.875 127.474 108.383 127.24C108.892 127.006 109.453 126.913 110.01 126.97C110.663 127.025 111.278 127.3 111.754 127.751C112.231 128.201 112.539 128.801 112.63 129.45L124.47 221.95C125.31 232.61 124.98 240.57 112.55 247.34C102 253.07 96.43 255.63 91.23 255.63H91.2199Z" fill="white"/>
<path fill-rule="evenodd" clip-rule="evenodd" d="M109.67 129.8L121.49 222.3C122.25 232.22 122.1 238.72 111.14 244.67C98.05 252.67 91.51 250.44 89.87 237.03L79 147.77H79.08L79.26 147.72H79.41L79.52 147.67L79.68 147.62H79.78L79.85 147.54H80.03L80.11 147.49L108.83 130.91L108.93 130.83L109.01 130.78L109.16 130.71V130.63L109.27 130.55L109.34 130.48L109.45 130.4L109.52 130.32V130.24L109.6 130.17V130L109.67 129.9V129.8Z" fill="url(#paint5_linear)"/>
<path fill-rule="evenodd" clip-rule="evenodd" d="M82.2404 149.61L92.8405 236.68C93.2805 240.24 94.3705 244.68 96.8405 245.9C98.5405 246.72 102.1 246.72 109.58 242.1C119.18 236.85 119.18 231.78 118.42 222.54L107.27 135.13L82.2205 149.61H82.2404ZM98.8905 252.36C97.3033 252.39 95.7312 252.048 94.3004 251.36C90.2304 249.36 87.8405 244.84 86.8905 237.44L76.0005 148.13C75.9072 147.38 76.1006 146.622 76.5418 146.009C76.9831 145.395 77.6397 144.97 78.3805 144.82L107.11 128.27C107.429 127.81 107.866 127.444 108.374 127.21C108.882 126.977 109.444 126.883 110 126.94C110.654 126.995 111.269 127.27 111.745 127.721C112.221 128.172 112.53 128.771 112.62 129.42L124.46 221.92C125.3 232.58 124.97 240.54 112.54 247.31C107.14 250.69 102.63 252.36 98.8905 252.36Z" fill="white"/>
<path fill-rule="evenodd" clip-rule="evenodd" d="M108.42 194.12C106.96 195.52 105.42 195.99 104.17 195.6L100.32 194.45L100.07 194.37L99.8295 194.27L99.6595 194.15L99.3995 193.99L99.2195 193.84L98.9695 193.66L98.8095 193.48L98.6295 193.25L98.4595 193.02L98.2896 192.76L98.1195 192.47L97.9695 192.2L97.8595 191.86L97.7795 191.55L97.6095 191.2L97.5396 190.84L97.4496 190.45L97.3495 190.07V189.69L97.2695 189.27V187.63L97.3495 187.23V186.79L97.4496 186.35L97.5396 185.94L97.6095 185.5L97.7095 185.1L97.7795 184.69L97.9695 184.26L98.0495 183.84L98.1895 183.43L98.3795 183.02L98.5595 182.62L98.7095 182.23L98.8896 181.84L99.0495 181.49L99.3195 181.1L99.4796 180.74L99.7395 180.38L99.9095 180.05L100.17 179.72L100.68 179.1L101.02 178.82L101.27 178.54L101.53 178.31L101.79 178.08L102.12 177.87L102.38 177.67L102.63 177.51L102.96 177.36L103.22 177.26L103.47 177.16L103.73 177.08L104 177H104.33H104.59H104.84H105.1L105.36 177.06L105.61 177.11L109.35 178.26C110.099 178.551 110.755 179.041 111.246 179.677C111.738 180.313 112.047 181.071 112.14 181.87C112.546 184.061 112.42 186.317 111.773 188.448C111.125 190.58 109.975 192.525 108.42 194.12V194.12Z" fill="url(#paint6_linear)"/>
<path fill-rule="evenodd" clip-rule="evenodd" d="M100.68 190.68L98.2904 192.76L101 191.4L105 192.71C105.07 192.71 105.58 192.71 106.35 191.94C107.507 190.691 108.369 189.197 108.871 187.57C109.373 185.943 109.502 184.224 109.25 182.54C108.99 181.49 108.55 181.15 108.48 181.13L104.68 180L102.38 177.7L103.73 180.41L101 178.82L102.87 181.15L102.43 181.66L99.7204 180.38L102.02 182.38L98.8704 181.86L101.59 183.2L98.5404 182.64L101.08 184.25H97.9504L100.81 185.06H97.6904L100.49 186.16L97.3304 186.75L100.4 187.03L97.2504 187.59L100.25 188.19L97.2504 189.19L100.3 188.94L97.3004 189.99L100.37 189.86L97.8104 191.78L100.63 190.6L100.68 190.68ZM105.02 198.73C104.412 198.732 103.805 198.648 103.22 198.48L99.4804 197.32C99.1924 197.245 98.9086 197.155 98.6304 197.05C98.4188 196.906 98.1984 196.776 97.9704 196.66C97.8604 196.66 97.4504 196.27 97.3504 196.22C97.1156 195.976 96.8577 195.755 96.5804 195.56C96.5804 195.48 95.9204 194.66 95.9204 194.56C95.9204 194.46 95.4804 193.84 95.4104 193.74C95.3248 193.481 95.2108 193.233 95.0704 193C95.0704 193 94.7104 191.95 94.7104 191.9C94.7104 191.85 94.4904 191 94.4904 190.9C94.4597 190.561 94.3961 190.226 94.3004 189.9V187.83C94.2873 187.495 94.3108 187.16 94.3704 186.83C94.3704 186.76 94.4904 185.83 94.4904 185.76C94.4904 185.69 94.6404 184.76 94.6404 184.76L94.9004 183.81C94.9004 183.73 95.2204 182.81 95.2204 182.81C95.2204 182.81 95.5804 181.86 95.5804 181.81C95.5804 181.76 95.9904 180.91 95.9904 180.91C95.9904 180.91 96.4304 180.04 96.4304 179.99C96.6306 179.717 96.8048 179.426 96.9504 179.12C97.1638 178.842 97.3608 178.551 97.5404 178.25L98.3804 177.17C98.4604 177.07 99.1504 176.38 99.2204 176.3C99.4719 176.141 99.7036 175.953 99.9104 175.74C99.9904 175.69 100.59 175.23 100.68 175.15C100.77 175.07 101.68 174.64 101.68 174.64C101.83 174.56 102.53 174.28 102.6 174.25C102.67 174.22 103.44 174.05 103.6 174.02C103.76 173.99 104.35 173.92 104.53 173.92C104.53 173.92 105.38 173.97 105.53 174L106.3 174.17L110.12 175.33C112.58 176.05 114.29 178.17 115.06 181.17C116.17 186.17 114.22 192.8 110.48 196.31C109.02 197.773 107.065 198.636 105 198.73H105.02Z" fill="white"/>
<path fill-rule="evenodd" clip-rule="evenodd" d="M104.17 195.6L100.32 194.45L100.07 194.37L99.8295 194.27L99.6595 194.15L99.3995 193.99L99.2195 193.84L98.9695 193.66L98.8095 193.48L98.6295 193.25L98.4595 193.02L98.2995 192.76L98.1195 192.47L97.9695 192.2L97.8595 191.86L97.7795 191.55L97.6095 191.2L97.5396 190.83L97.4496 190.45L97.3495 190.07V189.69L97.2695 189.27V187.63L97.3495 187.23V186.79L97.4496 186.35L97.5396 185.94L97.6095 185.5L97.7095 185.1L97.7795 184.69L97.9695 184.25L98.0495 183.85L98.1895 183.43L98.3795 183.02L98.5595 182.62L98.6996 182.23L98.8896 181.85L99.0495 181.49L99.3195 181.1L99.4796 180.74L99.7395 180.38L99.9095 180.05L100.17 179.72L100.42 179.41L100.68 179.1L101.02 178.82L101.27 178.54L101.53 178.31L101.79 178.08L102.12 177.87L102.38 177.67L102.63 177.51L102.96 177.36L103.22 177.26L103.47 177.16L103.73 177.08L103.99 177L104.32 176.97L104.58 176.95H104.83L105.09 176.97L105.35 177.03L105.61 177.08L109.34 178.23L109.16 178.18L108.93 178.13L108.65 178.1H108.42L108.06 178.13L107.8 178.18L107.57 178.23L107.29 178.31L107.06 178.41L106.7 178.54L106.45 178.67L106.19 178.82L105.94 179.02L105.61 179.23L105.35 179.46L105.09 179.72L104.75 179.97L104.51 180.29L104.24 180.56L103.99 180.87L103.73 181.21L103.58 181.54L103.32 181.89L103.14 182.26L102.89 182.62L102.7 182.99L102.56 183.38L102.38 183.77L102.22 184.18L102.04 184.59L101.86 184.99L101.79 185.4L101.61 185.81L101.53 186.25L101.42 186.67L101.35 187.1L101.27 187.5L101.19 187.94V188.35L101.1 188.79V190.43L101.19 190.83V191.23L101.27 191.61L101.35 191.99L101.42 192.35L101.53 192.68L101.71 193.04L101.79 193.32L101.94 193.63L102.12 193.91L102.3 194.17L102.45 194.39L102.63 194.6L102.81 194.81L103.07 194.99L103.22 195.17L103.47 195.3L103.65 195.43L103.91 195.52L104.17 195.6Z" fill="url(#paint7_linear)"/>
<path fill-rule="evenodd" clip-rule="evenodd" d="M102.38 177.67L102.56 178C102.56 178 102.56 177.95 102.63 177.92L102.38 177.67ZM101 178.82L101.4 179.33C101.4 179.26 101.51 179.18 101.51 179.15L101 178.82ZM99.8899 180.05L100.66 180.51C100.657 180.476 100.663 180.442 100.677 180.41C100.691 180.379 100.713 180.351 100.74 180.33L99.8899 180.05V180.05ZM99.4598 180.74L100.15 181.31C100.22 181.21 100.22 181.1 100.3 181.02L99.4598 180.74ZM98.6899 182.23L99.5399 182.62C99.5399 182.56 99.6399 182.46 99.6399 182.36L98.6399 182.23H98.6899ZM98.3598 183.02L99.1999 183.48C99.1999 183.4 99.2998 183.28 99.2998 183.15L98.3598 183.02ZM98.7899 184.61L97.7899 184.69L98.7198 184.92C98.7837 184.829 98.8186 184.721 98.8199 184.61H98.7899ZM98.6098 185.48H97.6098L98.5598 185.82V185.56L98.6299 185.46L98.6098 185.48ZM98.2698 186.99L97.3298 187.23H98.2698V187V186.99ZM98.1699 187.87L97.2498 188.04L98.0999 188.2C98.0999 188.07 98.1699 187.97 98.1699 187.87V187.87ZM98.0999 189.38L97.3298 189.69L98.0999 189.59V189.38ZM98.0999 190.2L97.4298 190.45L98.0999 190.4V190.2ZM98.2698 191.96L97.9499 192.2L98.2698 192.07V192V191.96ZM103.97 198.61C103.71 198.599 103.452 198.562 103.2 198.5L99.4598 197.32C99.1719 197.246 98.8881 197.155 98.6098 197.05C98.3983 196.906 98.1778 196.776 97.9499 196.66C97.8399 196.66 97.4298 196.27 97.3298 196.22L96.6599 195.58C96.3748 195.272 96.1202 194.937 95.8998 194.58C95.8198 194.48 95.4599 193.86 95.3899 193.76C95.3043 193.502 95.1903 193.254 95.0498 193.02C95.0498 193.02 94.6899 191.97 94.6899 191.92C94.6899 191.87 94.4698 191.02 94.4698 190.92C94.4392 190.582 94.3755 190.247 94.2798 189.92V187.85C94.2668 187.515 94.2903 187.18 94.3499 186.85C94.3499 186.78 94.4698 185.85 94.4698 185.78C94.4698 185.71 94.6198 184.78 94.6198 184.78L94.8799 183.83C94.8799 183.75 95.1999 182.83 95.1999 182.83C95.1999 182.83 95.5598 181.88 95.5598 181.83C95.5598 181.78 95.9698 180.93 95.9698 180.93C95.9698 180.93 96.4099 180.06 96.4099 180.01C96.6101 179.737 96.7842 179.446 96.9298 179.14C97.1433 178.862 97.3403 178.571 97.5198 178.27C97.5898 178.19 98.0999 177.47 98.1699 177.42C98.3818 177.154 98.616 176.907 98.8698 176.68L99.5399 175.98C99.7862 175.838 100.014 175.667 100.22 175.47C100.3 175.4 101 174.98 101.08 174.94C101.16 174.9 102.08 174.47 102.08 174.47C102.08 174.47 102.77 174.22 102.85 174.19L103.85 173.99H105.03C105.21 173.99 105.88 174.1 106.03 174.14L110.18 175.38C110.93 175.621 111.56 176.139 111.941 176.828C112.322 177.518 112.426 178.327 112.23 179.09C112.019 179.854 111.515 180.503 110.828 180.897C110.14 181.29 109.325 181.396 108.56 181.19L108.48 181.06L108.41 181.17L107.56 180.89L107.71 181.4L105.85 180.4L106.97 181.98L104.15 180.6L106.28 182.81L103.23 181.93L105.77 183.47L102.77 182.66L105.23 184.44L102.1 184.22L104.9 185.32L101.74 185.03L104.46 186.37L101.3 186.71L104.3 187.29L101.17 187.54L104.07 188.39L101 189.24H104.07L101 190.08L104.07 190.34L101.51 191.49L101.76 191.59L104.22 191.39L103.3 192.13L104.22 192.49L104.58 192.36C105.358 192.656 106 193.226 106.387 193.963C106.774 194.699 106.878 195.552 106.68 196.36C106.517 196.964 106.172 197.504 105.693 197.906C105.214 198.308 104.623 198.554 104 198.61H103.97Z" fill="white"/>
<path fill-rule="evenodd" clip-rule="evenodd" d="M139.93 47.6399C168.83 30.9599 192.31 44.4899 192.31 77.8699C192.31 111.25 168.83 151.87 139.93 168.52C111.03 185.17 87.5898 171.7 87.5898 138.31C87.5898 104.92 111 64.3399 139.93 47.6399Z" fill="url(#paint8_linear)"/>
<path fill-rule="evenodd" clip-rule="evenodd" d="M163.33 43.4901C156.69 43.4901 149.21 45.7601 141.47 50.2501C113.42 66.4501 90.6401 105.93 90.6401 138.31C90.6401 153.31 95.4801 164.44 104.4 169.6C113.32 174.76 125.4 173.44 138.4 165.93C166.4 149.74 189.2 110.23 189.2 77.8701C189.2 62.8701 184.36 51.7401 175.45 46.5901C171.746 44.4984 167.553 43.4285 163.3 43.4901H163.33ZM116.57 178.72C111.266 178.778 106.04 177.437 101.42 174.83C90.5701 168.55 84.6201 155.58 84.6201 138.31C84.6201 104.03 108.75 62.1901 138.43 45.0501C153.36 36.3901 167.58 35.0501 178.43 41.3601C189.28 47.6701 195.27 60.6001 195.27 77.8701C195.27 112.16 171.14 153.99 141.46 171.13C132.74 176.18 124.23 178.72 116.57 178.72Z" fill="white"/>
<path fill-rule="evenodd" clip-rule="evenodd" d="M129.41 16.42L173.27 41.69C185.16 46.2 192.82 59.04 192.82 78.36C192.82 112.72 168.69 154.46 139.01 171.62C122.25 181.28 107.29 181.1 97.4501 172.97L53.6701 147.69C42.2701 137.55 40.7501 123.17 41.5901 108.69C42.8801 96.34 45.7501 86.58 50.5101 75.15C54.5034 66.2974 59.3815 57.8712 65.0701 50C70.6769 42.4453 77.1512 35.575 84.3601 29.53C90.1358 24.8352 96.5289 20.9556 103.36 18C112.57 14.58 120 13.3 129.41 16.42Z" fill="url(#paint9_linear)"/>
<path fill-rule="evenodd" clip-rule="evenodd" d="M119 17.6901C114.16 17.6901 109.57 18.9101 104.45 20.7901C97.9018 23.6265 91.7852 27.3698 86.2799 31.9101C79.283 37.7821 73.0059 44.4619 67.5798 51.8101C61.9798 59.4981 57.1973 67.7494 53.3099 76.4301C48.3699 88.2701 45.7999 97.7301 44.6899 109.06C43.9599 120.69 44.5399 135.47 55.6899 145.46L98.9999 170.37C108.6 178.29 122.54 177.65 137.5 169C166.33 152.35 189.88 111.69 189.88 78.3601C189.88 61.0601 183.42 48.7401 172.2 44.5401L128.2 19.2001C125.215 18.214 122.093 17.7044 118.95 17.6901H119ZM114.88 182C107.827 182.134 100.955 179.768 95.4799 175.32L52.1299 150.32C38.5199 138.25 37.7799 121.69 38.6199 108.55C39.9099 96.4801 42.5498 86.5501 47.7998 74.0301C51.8429 64.9402 56.8339 56.3024 62.6899 48.2601C68.4053 40.5077 75.018 33.4587 82.3899 27.2601C88.4227 22.376 95.0944 18.3387 102.22 15.2601C111.65 11.7801 119.98 10.1901 130.43 13.6201L130.94 13.8701L174.71 39.1701C187.97 44.0801 195.87 58.4901 195.87 78.4201C195.87 113.68 170.96 156.66 140.45 174.3C131.53 179.41 122.77 182 114.88 182Z" fill="white"/>
<path fill-rule="evenodd" clip-rule="evenodd" d="M129.41 16.4203L173.27 41.6903C176.723 43.0066 179.851 45.0533 182.44 47.6903L127.61 85.8103L65.2197 49.8103C70.7828 42.3294 77.207 35.5293 84.3597 29.5502C90.1355 24.8554 96.5285 20.9758 103.36 18.0202C112.57 14.5802 120 13.3003 129.41 16.4203Z" fill="url(#paint10_linear)"/>
<path fill-rule="evenodd" clip-rule="evenodd" d="M69.7297 48.9L127.46 82.2301L177.6 47.46C175.939 46.232 174.11 45.2486 172.17 44.5401L128.17 19.2001C119.51 16.4001 112.62 17.7601 104.37 20.7901C97.8256 23.6341 91.71 27.3768 86.1997 31.9101C80.1052 36.9678 74.5733 42.6674 69.6997 48.9101L69.7297 48.9ZM127.61 88.8101C127.1 88.8193 126.598 88.6766 126.17 88.4L63.7897 52.4C63.4158 52.1951 63.0924 51.9092 62.8432 51.5631C62.5941 51.2171 62.4255 50.8197 62.3497 50.4C62.2607 49.9844 62.261 49.5546 62.3507 49.1392C62.4403 48.7237 62.6172 48.332 62.8697 47.99C68.5561 40.3452 75.1061 33.3824 82.3897 27.24C88.4052 22.3313 95.0804 18.2918 102.22 15.24C111.65 11.76 119.98 10.1701 130.43 13.6001L130.94 13.8501L174.71 39.15C178.484 40.5384 181.901 42.7523 184.71 45.6301C185.013 45.9433 185.245 46.3177 185.392 46.7282C185.538 47.1387 185.596 47.5757 185.56 48.0101C185.435 48.8818 184.976 49.6708 184.28 50.21L129.37 88.3101C128.851 88.6597 128.235 88.8348 127.61 88.8101V88.8101Z" fill="white"/>
<path fill-rule="evenodd" clip-rule="evenodd" d="M139 47.28C168.68 30.11 192.81 44.02 192.81 78.36C192.81 112.7 168.68 154.46 139 171.62C109.32 188.78 85.1201 174.87 85.1201 140.52C85.1201 106.17 109.27 64.45 139 47.28Z" fill="url(#paint11_linear)"/>
<path fill-rule="evenodd" clip-rule="evenodd" d="M163 42.9202C156.21 42.9202 148.55 45.2802 140.48 49.9202C111.68 66.5602 88.2099 107.23 88.2099 140.54C88.2099 156.04 93.2099 167.54 102.41 172.79C111.61 178.04 124.08 176.79 137.5 169.02C166.33 152.37 189.88 111.71 189.88 78.3802C189.88 62.9002 184.78 51.4502 175.59 46.1502C171.756 43.9697 167.41 42.8545 163 42.9202V42.9202ZM115 182C109.549 182.077 104.178 180.696 99.4399 178C88.2899 171.57 82.1699 158.28 82.1699 140.52C82.1699 105.29 107 62.2902 137.51 44.6602C152.89 35.8002 167.44 34.4702 178.51 40.8902C189.58 47.3102 195.86 60.6502 195.86 78.3602C195.86 113.62 170.95 156.6 140.44 174.24C131.53 179.41 122.84 182 115 182Z" fill="white"/>
<path fill-rule="evenodd" clip-rule="evenodd" d="M299 23.4502C271.9 24.7502 198.28 47.7402 175.25 45.4502C167.43 44.6802 158.41 46.8902 148.73 52.4502C119.83 69.1502 96.3799 109.77 96.3799 143.15C96.3799 154.81 99.2499 164.03 104.2 170.44C120.42 191.34 141.33 259.44 161.13 287.22C152.21 274.46 148.98 264.16 146.45 248.92C143.55 224.92 146.01 205.67 151.88 182.3C156.542 165.719 162.742 149.609 170.4 134.18C182.65 110.91 195.05 92.7002 212.83 73.2502C224.98 60.6902 235.62 51.4502 250.22 41.7602C259.056 36.2324 268.439 31.6313 278.22 28.0302C284.979 25.8232 291.939 24.2891 299 23.4502Z" fill="url(#paint12_linear)"/>
<path fill-rule="evenodd" clip-rule="evenodd" d="M172.17 48.2801C165.46 48.2801 157.97 50.5801 150.24 55.0401C122.18 71.2301 99.3996 110.74 99.3996 143.13C99.3996 153.71 101.86 162.5 106.55 168.57C114.7 179.1 123.8 200.68 133.48 223.57C136.62 231.08 139.79 238.69 143.01 246.02C140.63 221.7 143.6 202.56 148.88 181.6C153.619 164.817 159.906 148.511 167.66 132.89C180.32 108.81 193.08 90.4101 210.5 71.2501C223.5 57.8501 234.45 48.6001 248.5 39.2501C251.9 37.2001 255.03 35.4101 258.01 33.7901L244.32 36.9001C216.7 43.2201 188.13 49.7601 174.88 48.4501C173.98 48.3503 173.075 48.3002 172.17 48.3001V48.2801ZM161.1 290.2C160.63 290.206 160.167 290.095 159.751 289.877C159.335 289.659 158.981 289.34 158.72 288.95C148.37 274.47 137.99 249.77 127.87 225.87C118.44 203.39 109.52 182.15 101.79 172.24C96.2496 165.14 93.3496 155.07 93.3496 143.13C93.3496 108.82 117.49 66.9801 147.27 49.8201C157.13 44.1201 166.89 41.5701 175.48 42.4401C187.72 43.6901 215.85 37.2301 242.96 31.0101C265.33 25.8801 286.49 21.0101 298.82 20.4501C299.598 20.4083 300.362 20.6709 300.949 21.1823C301.537 21.6937 301.903 22.4137 301.97 23.1901C302.043 23.9707 301.808 24.7489 301.314 25.3582C300.821 25.9675 300.108 26.3595 299.33 26.4501C292.452 27.2457 285.671 28.7298 279.09 30.8801C269.532 34.3997 260.363 38.8969 251.73 44.3001C238.315 53.1961 225.961 63.597 214.91 75.3001C186.524 105.906 165.894 142.873 154.75 183.1C149.39 204.34 146.42 223.63 149.39 248.54C151.77 262.68 154.75 272.83 163.56 285.48C163.799 285.796 163.971 286.157 164.067 286.542C164.163 286.927 164.181 287.327 164.118 287.718C164.055 288.109 163.914 288.484 163.703 288.82C163.492 289.155 163.215 289.444 162.89 289.67C162.365 290.033 161.737 290.218 161.1 290.2V290.2Z" fill="white"/>
<path fill-rule="evenodd" clip-rule="evenodd" d="M330.33 28.5198C306.04 18.2698 284.33 24.0098 261.59 35.1598C241.93 45.9398 228.26 57.1598 212.8 73.2298C197.685 89.6991 184.611 107.931 173.86 127.53C161.79 150.53 154.05 170.7 148.62 196.17C144.19 220.56 143.16 241.26 150.05 265.3C155.41 280.36 161.05 289.82 173.86 299.53L189.08 308.31L205.14 317.57L361.21 46.4598L330.33 28.5198Z" fill="url(#paint13_linear)"/>
<path fill-rule="evenodd" clip-rule="evenodd" d="M304.51 26.1703C289.51 26.1703 275.79 31.5502 262.84 37.8702C245.01 47.6902 231.48 58.2202 214.91 75.3402C199.984 91.6075 187.086 109.626 176.5 129C163.99 152.9 156.77 172.58 151.5 196.82C147.43 219.93 146.07 240.33 152.96 264.49C157.81 278.12 162.9 287.42 175.74 297.11L204 313.44L357.09 47.5403L329 31.2102C321.262 27.9179 312.94 26.2174 304.53 26.2102L304.51 26.1703ZM205.14 320.56C204.6 320.56 204.069 320.419 203.6 320.15L172.42 302.15C158.05 291.39 152.36 280.9 147.27 266.33C139.93 240.88 141.27 219.69 145.65 195.66C151 170.76 158.38 150.66 171.22 126.15C182.071 106.342 195.259 87.9075 210.5 71.2402C227.58 53.5802 241.5 42.7702 260.13 32.5602C280.19 22.7102 304.35 14.2502 331.54 25.7802C331.643 25.8473 331.754 25.9011 331.87 25.9402L362.74 43.8802C363.427 44.2811 363.926 44.938 364.128 45.7068C364.331 46.4755 364.22 47.2932 363.82 47.9803L207.82 319.08C207.394 319.767 206.727 320.27 205.95 320.49C205.686 320.557 205.412 320.581 205.14 320.56V320.56Z" fill="white"/>
<path fill-rule="evenodd" clip-rule="evenodd" d="M330.33 28.5198C306.04 18.2698 284.33 24.0098 261.59 35.1598C244.24 44.6598 231.66 54.4998 218.24 67.6698C203.02 85.0998 190.77 100.16 185.33 108.46V108.54L258.51 150.82L332 97.3398L361.23 46.4598L330.33 28.5198Z" fill="url(#paint14_linear)"/>
<path fill-rule="evenodd" clip-rule="evenodd" d="M189.59 107.57L258.36 147.25L329.66 95.25L357.13 47.52L329 31.21C304.19 20.79 282.6 28.21 262.86 37.87C246.86 46.69 234.47 55.97 220.39 69.8C206.18 86.06 195.39 99.34 189.61 107.57H189.59ZM258.51 153.84C257.983 153.838 257.466 153.696 257.01 153.43L183.8 111.16C183.094 110.747 182.58 110.071 182.37 109.28C182.208 108.471 182.35 107.63 182.77 106.92C188.13 98.7 199.86 84.12 216.01 65.7C230.46 51.46 243.55 41.59 260.13 32.53C280.19 22.68 304.35 14.22 331.54 25.75C331.643 25.8171 331.754 25.8708 331.87 25.91L362.74 43.85C363.427 44.2508 363.926 44.9078 364.129 45.6765C364.331 46.4453 364.22 47.2629 363.82 47.95L334.5 98.85C334.345 99.2232 334.08 99.5404 333.74 99.76L260.3 153.25C259.785 153.638 259.156 153.846 258.51 153.84V153.84Z" fill="white"/>
<path fill-rule="evenodd" clip-rule="evenodd" d="M287.24 312.18C348.37 276.87 397.93 191 397.93 120.38C397.93 49.7598 348.37 21.0899 287.24 56.3799C226.11 91.6699 176.5 177.65 176.5 248.26C176.5 318.87 226 347.49 287.24 312.18Z" fill="url(#paint15_linear)"/>
<path fill-rule="evenodd" clip-rule="evenodd" d="M336.64 44.26C322 44.26 305.64 49.19 288.69 59.01C228.51 93.78 179.47 178.69 179.47 248.26C179.47 281.26 190.47 305.83 210.47 317.34C230.47 328.85 257.12 326.09 285.76 309.57C346 274.8 395 189.94 395 120.38C395 87.33 384 62.78 364 51.25C355.662 46.5332 346.219 44.1174 336.64 44.25V44.26ZM237.64 330.35C227.02 330.473 216.556 327.786 207.31 322.56C185.48 309.93 173.41 283.56 173.41 248.26C173.41 176.77 223.81 89.53 285.68 53.78C316.21 36.16 345.11 33.41 366.96 46.05C388.81 58.69 400.96 85.05 400.96 120.38C400.96 191.84 350.64 279.05 288.68 314.77C270.76 325.15 253.41 330.35 237.68 330.35H237.64Z" fill="white"/>
<path fill-rule="evenodd" clip-rule="evenodd" d="M287.24 284.38C336.24 256.12 375.92 187.45 375.92 130.88C375.92 74.3098 336.2 51.4298 287.24 79.6898C238.28 107.95 198.61 176.69 198.61 233.24C198.61 289.79 238.3 312.64 287.24 284.38Z" fill="url(#paint16_linear)"/>
<path fill-rule="evenodd" clip-rule="evenodd" d="M326.78 70.5602C315.22 70.5602 302.3 74.5102 288.78 82.3002C240.78 110.06 201.67 177.74 201.67 233.24C201.67 259.45 210.33 278.9 226.05 288C241.77 297.1 263.05 294.89 285.73 281.77C333.73 254.05 372.85 186.38 372.85 130.88C372.85 104.67 364.19 85.2202 348.38 76.1002C341.807 72.3611 334.352 70.4483 326.79 70.5602H326.78ZM247.65 299.56C239.043 299.666 230.562 297.478 223.08 293.22C205.4 283 195.61 261.68 195.61 233.22C195.61 175.83 236.1 105.78 285.72 77.0502C310.38 62.8402 333.66 60.6502 351.42 70.8602C369.18 81.0702 378.89 102.39 378.89 130.86C378.89 188.26 338.43 258.29 288.77 286.98C274.35 295.35 260.3 299.56 247.65 299.56Z" fill="white"/>
<path fill-rule="evenodd" clip-rule="evenodd" d="M331.36 67.7697C318.36 66.6797 303.36 70.4398 287.24 79.6898C238.3 107.95 198.61 176.69 198.61 233.24C198.61 251.34 202.68 265.96 209.84 276.6C222.84 277.73 237.84 273.95 253.92 264.6C302.92 236.37 342.58 167.67 342.58 111.13C342.58 93.0898 338.5 78.4297 331.36 67.7697Z" fill="url(#paint17_linear)"/>
<path fill-rule="evenodd" clip-rule="evenodd" d="M211.52 273.7C223.93 274.36 238.04 270.37 252.39 262.07C300.39 234.32 339.53 166.65 339.53 111.18C339.53 94.95 336.12 80.99 329.66 70.69C317.35 70.03 303.14 74 288.77 82.3C240.77 110.06 201.66 177.74 201.66 233.24C201.66 249.44 205.07 263.37 211.52 273.7ZM214.32 279.8C212.7 279.8 211.09 279.72 209.55 279.59C209.105 279.555 208.675 279.416 208.293 279.185C207.911 278.954 207.588 278.637 207.35 278.26C199.61 266.86 195.61 251.26 195.61 233.26C195.61 175.87 236.1 105.82 285.72 77.09C301.79 67.85 317.72 63.62 331.62 64.8C332.066 64.8419 332.497 64.9832 332.881 65.2133C333.265 65.4435 333.593 65.7567 333.84 66.13C341.48 77.55 345.58 93.13 345.58 111.2C345.58 168.59 305.1 238.59 255.46 267.29C241.17 275.52 227.08 279.8 214.32 279.8V279.8Z" fill="white"/>
<path fill-rule="evenodd" clip-rule="evenodd" d="M255.62 200.17L209.4 178.17C217.48 156.406 229.052 136.103 243.66 118.06L287.16 145.57L286.32 145.16L285.55 144.83L284.7 144.55L283.85 144.32L282.91 144.19L281.99 144.11H281.06H280.06L279.06 144.24L278.06 144.45L277.06 144.7L275.96 145.03L274.85 145.44L273.76 145.93L272.66 146.47L271.45 147.1L270.35 147.8L269.18 148.54L268.07 149.36L266.94 150.21L265.94 151.13L264.86 152.07L263.86 153.07L262.86 154.12L261.86 155.19L260.86 156.32L259.86 157.48L259.02 158.65L258 160L257.25 161.26L256.4 162.54L255.61 163.84L254.86 165.16L254.18 166.49L253.51 167.84L252.89 169.21L252.3 170.58L251.8 172L251.29 173.39L250.88 174.77L250.45 176.18L250.11 177.58L249.78 178.97L249.6 180.36L249.34 181.75L249.27 183.1L249.16 184.45L249.08 185.82L249.16 187.12L249.27 188.35L249.34 189.58L249.6 190.73L249.78 191.81L250.11 192.86L250.45 193.86L250.88 194.81L251.29 195.68L251.8 196.5L252.31 197.27L252.9 197.98L253.52 198.63L254.19 199.24L254.87 199.76L255.62 200.17Z" fill="url(#paint18_linear)"/>
<path fill-rule="evenodd" clip-rule="evenodd" d="M213.14 176.67L246.96 192.67L246.12 187.24V185.78L247.55 175.35L253.01 162.35L261.59 151L271.1 143.86L275.79 141.96L244.32 122.06C231.305 138.622 220.8 157.009 213.14 176.63V176.67ZM255.62 203.19C255.181 203.187 254.75 203.081 254.36 202.88L208.04 180.88C207.369 180.548 206.844 179.983 206.562 179.29C206.28 178.597 206.261 177.825 206.51 177.12C214.733 155.029 226.501 134.426 241.35 116.12C241.813 115.554 242.467 115.176 243.189 115.058C243.911 114.94 244.651 115.09 245.27 115.48L288.69 143C289.025 143.196 289.318 143.458 289.551 143.77C289.784 144.081 289.952 144.436 290.045 144.814C290.138 145.191 290.155 145.584 290.094 145.968C290.033 146.352 289.895 146.72 289.69 147.05C289.301 147.722 288.668 148.217 287.922 148.431C287.176 148.646 286.376 148.563 285.69 148.2L281 147.15L274.87 148.77L266.8 154.38L258.99 164.08L253.34 177L252.14 185.87L254.03 194.32L257.26 197.68C257.906 198.092 258.37 198.737 258.556 199.481C258.742 200.225 258.636 201.012 258.26 201.68C257.987 202.138 257.601 202.518 257.138 202.782C256.676 203.047 256.153 203.187 255.62 203.19V203.19Z" fill="white"/>
<path fill-rule="evenodd" clip-rule="evenodd" d="M271.35 198.61C259.1 205.72 249.08 199.96 249.08 185.77C249.08 171.58 259.08 154.27 271.35 147.17C283.62 140.07 293.62 145.85 293.62 160.04C293.62 174.23 283.68 191.51 271.35 198.61Z" fill="url(#paint19_linear)"/>
<path fill-rule="evenodd" clip-rule="evenodd" d="M281.29 147.13C278.309 147.268 275.414 148.177 272.89 149.77C261.41 156.4 252.14 172.52 252.14 185.77C252.14 191.51 253.92 195.71 257.14 197.55C260.36 199.39 264.88 198.88 269.89 196.01C281.27 189.4 290.62 173.26 290.62 160.06C290.62 154.32 288.86 150.12 285.62 148.24C284.288 147.499 282.784 147.123 281.26 147.15L281.29 147.13ZM261.41 204.68C258.851 204.703 256.331 204.044 254.11 202.77C248.91 199.77 246.11 193.77 246.11 185.77C246.11 170.37 256.56 152.25 269.9 144.56C276.8 140.56 283.41 140.03 288.61 143.01C293.81 145.99 296.68 152.01 296.68 160.01C296.68 175.41 286.23 193.47 272.88 201.19C269.427 203.335 265.473 204.538 261.41 204.68V204.68Z" fill="white"/>
<defs>
<linearGradient id="paint0_linear" x1="3.61969" y1="63.5898" x2="109.75" y2="63.5898" gradientUnits="userSpaceOnUse">
<stop stop-color="#1a8fca"/>
<stop offset="0.58" stop-color="#F7F9FE"/>
<stop offset="1" stop-color="white"/>
</linearGradient>
<linearGradient id="paint1_linear" x1="20922.2" y1="11250.5" x2="26203.1" y2="11250.5" gradientUnits="userSpaceOnUse">
<stop stop-color="#1a8fca"/>
<stop offset="0.58" stop-color="#F7F9FE"/>
<stop offset="1" stop-color="white"/>
</linearGradient>
<linearGradient id="paint2_linear" x1="26454" y1="41765.6" x2="35023.2" y2="41765.6" gradientUnits="userSpaceOnUse">
<stop stop-color="#1a8fca"/>
<stop offset="0.58" stop-color="#F7F9FE"/>
<stop offset="1" stop-color="white"/>
</linearGradient>
<linearGradient id="paint3_linear" x1="30466" y1="43686.3" x2="41075.7" y2="43686.3" gradientUnits="userSpaceOnUse">
<stop stop-color="#1a8fca"/>
<stop offset="0.58" stop-color="#F7F9FE"/>
<stop offset="1" stop-color="white"/>
</linearGradient>
<linearGradient id="paint4_linear" x1="20739.4" y1="58375.1" x2="24880.1" y2="58375.1" gradientUnits="userSpaceOnUse">
<stop stop-color="#1a8fca"/>
<stop offset="0.58" stop-color="#F7F9FE"/>
<stop offset="1" stop-color="white"/>
</linearGradient>
<linearGradient id="paint5_linear" x1="14744.9" y1="56603.9" x2="16573.2" y2="56603.9" gradientUnits="userSpaceOnUse">
<stop stop-color="#1a8fca"/>
<stop offset="0.58" stop-color="#F7F9FE"/>
<stop offset="1" stop-color="white"/>
</linearGradient>
<linearGradient id="paint6_linear" x1="5553.62" y1="8968.6" x2="5782.29" y2="8968.6" gradientUnits="userSpaceOnUse">
<stop stop-color="#1a8fca"/>
<stop offset="0.58" stop-color="#F7F9FE"/>
<stop offset="1" stop-color="white"/>
</linearGradient>
<linearGradient id="paint7_linear" x1="4457.8" y1="8929.02" x2="4603.49" y2="8929.02" gradientUnits="userSpaceOnUse">
<stop stop-color="#1a8fca"/>
<stop offset="0.58" stop-color="#F7F9FE"/>
<stop offset="1" stop-color="white"/>
</linearGradient>
<linearGradient id="paint8_linear" x1="36906.1" y1="52899.2" x2="47872.4" y2="52899.2" gradientUnits="userSpaceOnUse">
<stop stop-color="#1a8fca"/>
<stop offset="0.58" stop-color="#F7F9FE"/>
<stop offset="1" stop-color="white"/>
</linearGradient>
<linearGradient id="paint9_linear" x1="46286.2" y1="62429" x2="69214.7" y2="62429" gradientUnits="userSpaceOnUse">
<stop stop-color="#1a8fca"/>
<stop offset="0.58" stop-color="#F7F9FE"/>
<stop offset="1" stop-color="white"/>
</linearGradient>
<linearGradient id="paint10_linear" x1="38656.4" y1="23729.2" x2="52396.9" y2="23729.2" gradientUnits="userSpaceOnUse">
<stop stop-color="#1a8fca"/>
<stop offset="0.58" stop-color="#F7F9FE"/>
<stop offset="1" stop-color="white"/>
</linearGradient>
<linearGradient id="paint11_linear" x1="37682.9" y1="54608.4" x2="49280.1" y2="54608.4" gradientUnits="userSpaceOnUse">
<stop stop-color="#1a8fca"/>
<stop offset="0.58" stop-color="#F7F9FE"/>
<stop offset="1" stop-color="white"/>
</linearGradient>
<linearGradient id="paint12_linear" x1="73110.5" y1="115642" x2="114165" y2="115642" gradientUnits="userSpaceOnUse">
<stop stop-color="#1a8fca"/>
<stop offset="0.58" stop-color="#F7F9FE"/>
<stop offset="1" stop-color="white"/>
</linearGradient>
<linearGradient id="paint13_linear" x1="88558.2" y1="133494" x2="135266" y2="133494" gradientUnits="userSpaceOnUse">
<stop stop-color="#1a8fca"/>
<stop offset="0.58" stop-color="#F7F9FE"/>
<stop offset="1" stop-color="white"/>
</linearGradient>
<linearGradient id="paint14_linear" x1="79222.5" y1="47251.4" x2="110160" y2="47251.4" gradientUnits="userSpaceOnUse">
<stop stop-color="#1a8fca"/>
<stop offset="0.58" stop-color="#F7F9FE"/>
<stop offset="1" stop-color="white"/>
</linearGradient>
<linearGradient id="paint15_linear" x1="97716.4" y1="133702" x2="146748" y2="133702" gradientUnits="userSpaceOnUse">
<stop stop-color="#1a8fca"/>
<stop offset="0.58" stop-color="#F7F9FE"/>
<stop offset="1" stop-color="white"/>
</linearGradient>
<linearGradient id="paint16_linear" x1="82224" y1="106522" x2="113663" y2="106522" gradientUnits="userSpaceOnUse">
<stop stop-color="#1a8fca"/>
<stop offset="0.58" stop-color="#F7F9FE"/>
<stop offset="1" stop-color="white"/>
</linearGradient>
<linearGradient id="paint17_linear" x1="66800.6" y1="95296.5" x2="87528" y2="95296.5" gradientUnits="userSpaceOnUse">
<stop stop-color="#1a8fca"/>
<stop offset="0.58" stop-color="#F7F9FE"/>
<stop offset="1" stop-color="white"/>
</linearGradient>
<linearGradient id="paint18_linear" x1="37021" y1="36421.4" x2="43067.6" y2="36421.4" gradientUnits="userSpaceOnUse">
<stop stop-color="#1a8fca"/>
<stop offset="0.58" stop-color="#F7F9FE"/>
<stop offset="1" stop-color="white"/>
</linearGradient>
<linearGradient id="paint19_linear" x1="23101.7" y1="26369" x2="25085.5" y2="26369" gradientUnits="userSpaceOnUse">
<stop stop-color="#1a8fca"/>
<stop offset="0.58" stop-color="#F7F9FE"/>
<stop offset="1" stop-color="white"/>
</linearGradient>
</defs>
</svg>
