<svg width="228" height="188" viewBox="0 0 228 188" fill="none" xmlns="http://www.w3.org/2000/svg">
<path fill-rule="evenodd" clip-rule="evenodd" d="M14.6798 10.1002C23.3998 4.89021 38.3098 2.44021 47.1298 1.89021C56.2898 1.31021 62.6998 8.23021 62.6998 20.5802C62.6998 37.3302 50.9398 57.7002 36.4698 66.0702C20.8898 75.0702 14.1898 65.3702 12.2098 61.3002C7.29981 51.3002 1.20981 40.0002 2.71981 28.8102C3.67981 21.7002 8.3998 13.8202 14.6798 10.1002Z" fill="#6FA3C6"/>
<path fill-rule="evenodd" clip-rule="evenodd" d="M15.5398 11.5499C10.0498 14.8399 5.36981 22.1999 4.40981 29.0399C3.04981 38.9599 8.20981 49.3199 12.7498 58.4799L13.7498 60.5599C14.7498 62.6199 17.0798 66.2699 21.3698 67.5599C25.3698 68.7499 30.1098 67.7499 35.5998 64.5599C49.5998 56.4699 61.0098 36.7299 61.0098 20.5599C61.0098 14.3699 59.3298 9.50992 56.1998 6.55992C54.9896 5.46331 53.5645 4.63033 52.0152 4.11388C50.4658 3.59742 48.826 3.40878 47.1998 3.55992C39.5698 4.04992 24.3398 6.25992 15.5098 11.5599L15.5398 11.5499ZM24.7598 71.4799C23.2865 71.4875 21.8204 71.2751 20.4098 70.8499C14.8698 69.1699 11.9198 64.6099 10.6698 62.0599L9.66981 59.9899C4.94981 50.3999 -0.450197 39.5399 1.0398 28.5799C2.1598 20.6599 7.35981 12.4599 13.8298 8.57992C23.2398 2.97992 39.1598 0.639928 47.0498 0.129928C49.1321 -0.0598232 51.231 0.190199 53.2104 0.863784C55.1898 1.53737 57.0055 2.61946 58.5398 4.03992C62.3898 7.65992 64.4698 13.3699 64.4698 20.5399C64.4698 37.8099 52.2698 58.8799 37.3098 67.5399C32.7565 70.1666 28.5731 71.4799 24.7598 71.4799V71.4799Z" fill="white"/>
<path fill-rule="evenodd" clip-rule="evenodd" d="M14.6799 10.1001C23.3999 4.89012 38.3099 2.44011 47.1299 1.89011C49.9127 1.64287 52.7045 2.25357 55.1299 3.64011C49.2399 9.28011 43.0599 15.9101 38.5199 22.7501L13.8799 10.6201C14.1342 10.4284 14.4015 10.2547 14.6799 10.1001V10.1001Z" fill="#6FA3C6"/>
<path fill-rule="evenodd" clip-rule="evenodd" d="M17.4699 10.5099L37.9099 20.5099C42.1381 14.6284 46.8873 9.13961 52.0999 4.10988C50.5287 3.6067 48.8742 3.41644 47.2299 3.54988C40.1399 3.99988 26.4899 5.93988 17.4699 10.4699V10.5099ZM38.4699 24.5099C38.221 24.5072 37.9768 24.4419 37.7599 24.3199L13.0599 12.1999C12.779 12.0777 12.5371 11.8805 12.3607 11.6301C12.1844 11.3797 12.0803 11.0855 12.0599 10.7799C12.0346 10.4775 12.0942 10.1741 12.232 9.90383C12.3698 9.63352 12.5803 9.40704 12.8399 9.24988C13.1241 9.02816 13.4288 8.83395 13.7499 8.66988C23.1599 3.06988 39.0799 0.729882 46.9699 0.219882C50.0767 -0.0265968 53.1857 0.670471 55.8899 2.21988C56.122 2.35984 56.3209 2.54859 56.4729 2.77306C56.6248 2.99753 56.7262 3.25236 56.7699 3.51988C56.7916 3.78188 56.7544 4.04541 56.661 4.29114C56.5675 4.53687 56.4202 4.75855 56.2299 4.93988C50.1401 10.5638 44.6964 16.8493 39.9999 23.6799C39.8325 23.9248 39.6069 24.1244 39.3433 24.2605C39.0798 24.3967 38.7865 24.4652 38.4899 24.4599L38.4699 24.5099Z" fill="white"/>
<path fill-rule="evenodd" clip-rule="evenodd" d="M38.9299 7.11025C53.4499 -1.23975 65.1699 5.53025 65.1699 22.2802C65.1699 39.0302 53.4499 59.4003 38.9299 67.7503C24.4099 76.1003 12.6499 69.3502 12.6499 52.5902C12.6499 35.8302 24.4099 15.4902 38.9299 7.11025Z" fill="#6FA3C6"/>
<path fill-rule="evenodd" clip-rule="evenodd" d="M50.65 5.24008C46.8041 5.4057 43.0664 6.56318 39.8 8.60008C25.8 16.7001 14.39 36.4301 14.39 52.6001C14.39 60.0701 16.79 65.6001 21.24 68.1301C25.69 70.6601 31.6 70.0201 38.07 66.3001C52.07 58.2001 63.48 38.4701 63.48 22.3001C63.48 14.8401 61.07 9.30006 56.62 6.79006C54.7973 5.74157 52.7222 5.21242 50.62 5.26006L50.65 5.24008ZM27.21 73.0601C24.5053 73.0861 21.8418 72.3961 19.49 71.0601C14 67.9001 11 61.3401 11 52.5901C11 35.3401 23.16 14.2901 38.11 5.59007C45.67 1.23007 52.87 0.59007 58.41 3.75007C63.95 6.91007 66.94 13.5001 66.94 22.2301C66.94 39.4901 54.79 60.5701 39.84 69.2301C36.0338 71.5814 31.6811 72.9014 27.21 73.0601V73.0601Z" fill="white"/>
<path fill-rule="evenodd" clip-rule="evenodd" d="M44.3401 78.0001L25.0001 66.7801C20.4801 63.9201 19.0001 59.7201 18.4001 54.6001C18.1826 51.3652 18.3775 48.1157 18.9801 44.93C20.704 36.9079 24.2333 29.3841 29.3001 22.93C32.5497 18.655 36.5768 15.0316 41.1701 12.2501C46.3701 9.39005 51.8201 7.74005 57.3601 10.65L76.7501 21.8201C68.6201 17.5601 59.7501 23.1201 53.7501 28.5501C47.4463 34.5883 42.6948 42.0603 39.9001 50.3301C38.0801 56.0101 37.2101 60.9901 37.9001 66.9601C38.7001 71.7101 40.1801 75.3401 44.3401 78.0001Z" fill="#6FA3C6"/>
<path fill-rule="evenodd" clip-rule="evenodd" d="M51.29 10.8598C48.58 10.8598 45.59 11.8098 41.97 13.7898C37.595 16.4601 33.7561 19.9225 30.65 23.9998C25.7199 30.2155 22.2971 37.489 20.65 45.2498C20.0616 48.2719 19.8633 51.3571 20.06 54.4298C20.75 59.9298 22.4301 63.1098 25.8501 65.2998L37.43 71.9998C36.858 70.4821 36.4556 68.9059 36.23 67.2998C35.56 61.5598 36.14 56.5298 38.23 49.8598C41.1145 41.3249 46.0127 33.6106 52.51 27.3698C57.94 22.4398 63.16 19.5898 68.03 18.8498L56.4601 12.1798C54.8622 11.3173 53.0758 10.8639 51.26 10.8598H51.29ZM44.34 79.6698C44.0351 79.6693 43.7354 79.5901 43.47 79.4398L24.1301 68.2698C18.5301 64.7298 17.23 59.4698 16.7 54.7998C16.4356 51.397 16.6477 47.9739 17.33 44.6298C19.0808 36.3714 22.7114 28.6276 27.94 21.9998C31.3267 17.5559 35.5114 13.7815 40.28 10.8698C45.11 8.23976 51.42 5.69976 58.14 9.22976L77.56 20.4398C77.9494 20.6628 78.2375 21.0277 78.3642 21.4581C78.4909 21.8886 78.4464 22.3513 78.2401 22.7498C78.0148 23.1423 77.6471 23.4329 77.2132 23.5614C76.7794 23.6899 76.3127 23.6463 75.91 23.4398C68.65 19.6298 60.4501 24.8598 54.8501 29.9198C48.7744 35.7764 44.1928 43.0054 41.4901 50.9998C39.5601 57.1198 38.9801 61.7298 39.6001 66.8798C40.2801 70.9498 41.54 74.1998 45.25 76.5698C45.6251 76.8121 45.8905 77.1914 45.9895 77.6268C46.0886 78.0622 46.0134 78.5191 45.78 78.8998C45.6289 79.1434 45.4162 79.3429 45.1634 79.4781C44.9106 79.6133 44.6266 79.6794 44.34 79.6698V79.6698Z" fill="white"/>
<path fill-rule="evenodd" clip-rule="evenodd" d="M62.66 73.3799L69.36 125.86C69.79 131.49 69.71 135.18 63.48 138.55C53.25 144.13 51.81 143.97 46.07 141.13C41.89 139.02 40.86 138.68 39.47 128.07L33 76.9999V77.0899L33.06 77.1499H33.11H33.17V77.1999H33.23H33.32L43.32 82.9999H43.42H43.52H43.63H43.73H43.96H44.02H44.11H44.6H44.69H44.79H44.98H45.08H45.17H45.23H45.31H45.37H45.42H45.52L61.82 73.5899H61.87H61.96H62.02L62.08 73.5399V73.4899V73.4299L62.66 73.3799Z" fill="#6FA3C6"/>
<path fill-rule="evenodd" clip-rule="evenodd" d="M35.1599 80.4998L41.1599 127.85C42.3699 137.36 42.9899 137.7 46.5699 139.47C51.8599 142.11 52.6399 142.47 62.5699 137.06C67.9699 134.12 67.9699 131.24 67.5699 125.99L61.2999 76.3998L46.7399 84.8098C46.5873 84.8945 46.4304 84.9713 46.2699 85.0398L45.8799 85.1698L45.3999 85.2698C45.3499 85.2698 45.0099 85.2698 44.9599 85.3298H44.4799H44.0499C43.9899 85.3298 43.6999 85.2698 43.6099 85.2498C43.4638 85.2122 43.3202 85.1655 43.1799 85.1098L42.7999 84.9398L35.1599 80.5398V80.4998ZM52.1599 144.77C50.0399 144.77 48.0599 144.03 45.2699 142.65C40.1499 140.08 39.1099 138.7 37.7499 128.29L31.2799 77.1998C31.2168 76.7638 31.3285 76.3206 31.5908 75.9666C31.853 75.6126 32.2445 75.3765 32.6799 75.3098C33.0442 75.2508 33.4177 75.309 33.7467 75.4762C34.0756 75.6434 34.3429 75.9108 34.5099 76.2398L44.7299 81.9198L61.1899 72.5098C61.3713 72.249 61.6187 72.0412 61.907 71.9076C62.1952 71.7741 62.5137 71.7196 62.8299 71.7498C63.2004 71.7808 63.5492 71.9375 63.8184 72.194C64.0876 72.4505 64.261 72.7913 64.3099 73.1598L71.0299 125.64C71.5099 131.69 71.3199 136.21 64.2699 140.05C58.3199 143.32 55.1399 144.77 52.1899 144.77H52.1599Z" fill="white"/>
<path fill-rule="evenodd" clip-rule="evenodd" d="M62.66 73.3799L69.36 125.86C69.79 131.49 69.71 135.18 63.48 138.55C56.06 143.11 52.35 141.82 51.42 134.22L45.25 83.5699H45.3H45.4H45.49H45.55H45.63H45.69H45.74H45.84L62.14 74.1599H62.19H62.28H62.34L62.4 74.1099V74.0599V73.9999L62.66 73.3799Z" fill="#6FA3C6"/>
<path fill-rule="evenodd" clip-rule="evenodd" d="M47.0902 84.6198L53.0902 134.02C53.3302 136.02 53.9502 138.57 55.3702 139.25C56.3702 139.72 58.3702 139.72 62.5902 137.1C68.0402 134.1 68.0402 131.24 67.5902 125.99L61.3002 76.3998L47.0902 84.6198ZM56.5402 142.91C55.6367 142.924 54.7426 142.726 53.9302 142.33C51.6202 141.23 50.2702 138.64 49.7302 134.44L43.5702 83.7798C43.5088 83.3528 43.6151 82.9185 43.8667 82.568C44.1184 82.2176 44.4959 81.9781 44.9202 81.8998L61.2202 72.5098C61.4016 72.249 61.649 72.0412 61.9373 71.9076C62.2255 71.7741 62.544 71.7196 62.8602 71.7498C63.2307 71.7808 63.5795 71.9375 63.8487 72.194C64.1179 72.4505 64.2913 72.7913 64.3402 73.1598L71.0602 125.64C71.5402 131.69 71.3502 136.21 64.3002 140.05C61.2202 142 58.6602 142.91 56.5402 142.91Z" fill="white"/>
<path fill-rule="evenodd" clip-rule="evenodd" d="M61.9402 109.87C61.6524 110.215 61.2761 110.476 60.8516 110.624C60.4271 110.772 59.9703 110.802 59.5302 110.71L57.3502 110.06L57.2002 110.01L57.0702 109.96L56.9802 109.89L56.8302 109.8L56.7302 109.71L56.5802 109.61L56.4902 109.51L56.3902 109.37L56.2902 109.25L56.2002 109.1L56.1002 108.94L56.0102 108.78L55.9502 108.59V108.41L55.8502 108.21V108.01L55.8002 107.79L55.7402 107.57V107.36V107.12V106.19V105.96V105.71L55.8002 105.46L55.8502 105.23V104.98L55.9102 104.75V104.52L56.0102 104.27L56.0602 104.04L56.1402 103.81L56.2502 103.57L56.3502 103.34L56.4302 103.12L56.5402 102.91L56.6202 102.71L56.7802 102.48L56.8702 102.28L57.0202 102.08L57.1202 101.89L57.2602 101.7L57.5502 101.35L57.7402 101.19L57.8902 101.03L58.0302 100.9L58.1802 100.77L58.3702 100.65L58.5202 100.54L58.6602 100.45L58.8502 100.36L58.9902 100.3L59.1402 100.25L59.2802 100.2H59.4302H59.6202H60.0502H60.2002H60.3502L62.4702 100.85C62.8951 101.019 63.2664 101.299 63.5446 101.662C63.8228 102.025 63.9975 102.456 64.0502 102.91C64.2843 104.154 64.2148 105.437 63.8474 106.649C63.4801 107.86 62.8259 108.965 61.9402 109.87V109.87Z" fill="#6FA3C6"/>
<path fill-rule="evenodd" clip-rule="evenodd" d="M57.5501 107.92L56.2001 109.1L57.7401 108.33L60.0101 109.07C60.0101 109.07 60.3501 109.07 60.7801 108.63C61.4372 107.922 61.9267 107.076 62.2123 106.153C62.498 105.23 62.5724 104.255 62.4301 103.3C62.2801 102.71 62.0301 102.51 61.9901 102.5L59.8201 101.84L58.5201 100.54L59.2801 102.08L57.7401 101.19L58.8101 102.51L58.5601 102.8L57.0201 102.08L58.3201 103.2L56.5401 102.91L58.0801 103.66L56.3501 103.34L57.7901 104.26H56.0001L57.6301 104.73H55.8601L57.4401 105.36L55.6501 105.69L57.4001 105.85L55.6101 106.17L57.3001 106.51L55.6101 107.1L57.3401 106.96L55.6501 107.55L57.4001 107.48L56.0001 108.59L57.6001 107.92H57.5501ZM60.0001 112.48C59.6618 112.481 59.3251 112.434 59.0001 112.34L56.8801 111.68C56.7166 111.642 56.5561 111.592 56.4001 111.53C56.2777 111.45 56.1508 111.376 56.0201 111.31C55.9601 111.31 55.7301 111.09 55.6701 111.06C55.5412 110.917 55.3931 110.792 55.2301 110.69C55.2301 110.64 54.8601 110.18 54.8601 110.14C54.8601 110.1 54.6101 109.74 54.5701 109.68C54.5218 109.534 54.4581 109.393 54.3801 109.26C54.3801 109.26 54.1801 108.66 54.1801 108.63C54.1801 108.6 54.0501 108.12 54.0501 108.08C54.0326 107.883 53.9958 107.689 53.9401 107.5V106.33C53.921 106.147 53.921 105.963 53.9401 105.78C53.9401 105.78 54.0101 105.22 54.0101 105.17C54.0101 105.12 54.0901 104.62 54.0901 104.59L54.2401 104.05C54.2401 104.05 54.4301 103.51 54.4301 103.47C54.4301 103.43 54.6301 102.93 54.6301 102.89C54.6301 102.85 54.8601 102.38 54.8601 102.38C54.8601 102.38 55.1101 101.89 55.1101 101.86C55.2193 101.704 55.3163 101.54 55.4001 101.37C55.5224 101.21 55.6359 101.043 55.7401 100.87L56.2201 100.26C56.2201 100.2 56.6501 99.8099 56.7001 99.7599C56.8395 99.669 56.9701 99.5652 57.0901 99.4499C57.0901 99.4499 57.4701 99.1599 57.5201 99.1099C57.7216 99.0232 57.9185 98.9265 58.1101 98.8199L58.6301 98.5999L59.2101 98.4699L59.7301 98.4199C59.7301 98.4199 60.2201 98.4199 60.3201 98.4199C60.4201 98.4199 60.7101 98.4999 60.7501 98.5199L62.9201 99.1699C63.639 99.4259 64.277 99.8682 64.7689 100.451C65.2608 101.035 65.5891 101.738 65.7201 102.49C65.9948 104.025 65.9025 105.604 65.4506 107.097C64.9988 108.59 64.2002 109.955 63.1201 111.08V111.08C62.294 111.923 61.1795 112.424 60.0001 112.48V112.48Z" fill="white"/>
<path fill-rule="evenodd" clip-rule="evenodd" d="M59.5301 110.71L57.3501 110.06L57.2001 110.01L57.0701 109.96L56.9701 109.89L56.8301 109.8L56.7301 109.71L56.5801 109.61L56.4901 109.51L56.3901 109.38L56.2901 109.25L56.2001 109.1L56.1001 108.94L56.0101 108.78L55.9501 108.59L55.9101 108.41L55.8101 108.21L55.7701 108.01L55.7201 107.79L55.6601 107.57V107.36L55.6201 107.12V106.19L55.6601 105.96V105.71L55.7201 105.46L55.7701 105.23L55.8101 104.98L55.8701 104.75L55.9101 104.52L56.0101 104.27L56.0601 104.04L56.1401 103.81L56.2501 103.57L56.3501 103.34L56.4301 103.12L56.5401 102.91L56.6301 102.7L56.7801 102.48L56.8701 102.28L57.0201 102.08L57.1201 101.89L57.2601 101.7L57.4101 101.53L57.5501 101.35L57.7401 101.19L57.8901 101.03L58.0301 100.9L58.1801 100.77L58.3701 100.65L58.5201 100.54L58.6601 100.45L58.8501 100.36L59.0001 100.3L59.1301 100.25L59.2801 100.2L59.4301 100.16L59.6201 100.14L59.7601 100.13H59.9101L60.0501 100.14L60.2001 100.17L60.3501 100.2L62.4701 100.86L62.3701 100.83L62.2301 100.8L62.0801 100.78H61.9401L61.7401 100.8L61.5901 100.83L61.4701 100.86L61.3001 100.9L61.1801 100.96L60.9701 101.03L60.8201 101.1L60.6801 101.19L60.5301 101.31L60.3501 101.42L60.2001 101.55L60.0501 101.7L59.8601 101.84L59.7201 102.02L59.5701 102.18L59.4301 102.36L59.2801 102.54L59.2001 102.73L59.0501 102.93L58.9501 103.14L58.8101 103.34L58.7001 103.56L58.6201 103.78L58.5201 104L58.4301 104.23L58.3201 104.46L58.2201 104.69L58.1801 104.93L58.0801 105.16L58.0301 105.41L57.9701 105.64L57.9301 105.89L57.8901 106.12L57.8401 106.37V106.6L57.7901 106.85V107.78L57.8401 108.01V108.23L57.8901 108.44L57.9301 108.66L57.9701 108.86L58.0301 109.05L58.1401 109.26L58.1801 109.42L58.2701 109.59L58.3701 109.75L58.4701 109.9L58.5601 110.03L58.6601 110.14L58.7601 110.26L58.9101 110.37L59.0001 110.46L59.1301 110.54L59.2401 110.61L59.3801 110.67L59.5301 110.71Z" fill="#6FA3C6"/>
<path fill-rule="evenodd" clip-rule="evenodd" d="M58.5199 100.54L58.6199 100.73C58.6155 100.722 58.6132 100.714 58.6132 100.705C58.6132 100.696 58.6155 100.688 58.6199 100.68L58.4799 100.54H58.5199ZM57.7399 101.19L57.9699 101.48C57.9699 101.48 58.0299 101.39 58.0299 101.38L57.7399 101.19ZM57.1199 101.89L57.5499 102.15C57.542 102.134 57.5379 102.117 57.5379 102.1C57.5379 102.083 57.542 102.065 57.5499 102.05L57.0699 101.89H57.1199ZM56.8699 102.28L57.2599 102.6C57.3099 102.54 57.3099 102.48 57.3499 102.44L56.8699 102.28V102.28ZM56.4299 103.12L56.9099 103.34C56.9099 103.34 56.9799 103.26 56.9799 103.2L56.4299 103.12V103.12ZM56.2499 103.57L56.7299 103.84C56.7299 103.84 56.7799 103.72 56.7799 103.65L56.2499 103.57ZM56.4899 104.48H55.9099L56.4299 104.61C56.4663 104.56 56.4872 104.501 56.4899 104.44V104.48ZM56.3899 104.97H55.8099L56.3499 105.16V105V104.94L56.3899 104.97ZM56.1999 105.83L55.6599 105.96H56.1999V105.8V105.83ZM56.1399 106.33L55.6199 106.42L56.0999 106.51C56.0999 106.44 56.0999 106.38 56.0999 106.33H56.1399ZM56.1399 107.18L55.6999 107.36L56.1399 107.3V107.18ZM56.1399 107.65L55.7599 107.79H56.1399V107.68V107.65ZM56.2399 108.65L56.0499 108.78L56.2399 108.71V108.65ZM59.4699 112.42C59.3221 112.41 59.1751 112.39 59.0299 112.36L56.9099 111.68C56.7463 111.642 56.5859 111.592 56.4299 111.53C56.3075 111.45 56.1806 111.376 56.0499 111.31C55.9899 111.31 55.7599 111.09 55.6999 111.06L55.3299 110.7C55.1598 110.533 55.0119 110.345 54.8899 110.14C54.8899 110.09 54.6399 109.74 54.5999 109.68C54.5516 109.534 54.4879 109.393 54.4099 109.26C54.4099 109.26 54.2099 108.66 54.2099 108.63C54.2099 108.6 54.0799 108.12 54.0799 108.08C54.0624 107.883 54.0256 107.689 53.9699 107.5V106.33C53.9508 106.147 53.9508 105.963 53.9699 105.78C53.9699 105.78 54.0399 105.22 54.0399 105.17C54.0399 105.12 54.1199 104.62 54.1199 104.59L54.2699 104.05C54.2699 104.05 54.4599 103.51 54.4599 103.47C54.4599 103.43 54.6599 102.93 54.6599 102.89C54.6599 102.85 54.8899 102.38 54.8899 102.38C54.8899 102.38 55.1399 101.89 55.1399 101.86C55.2491 101.704 55.3461 101.541 55.4299 101.37C55.5522 101.21 55.6657 101.043 55.7699 100.87C55.7699 100.87 56.0999 100.42 56.1399 100.39C56.2598 100.238 56.3938 100.097 56.5399 99.9699L56.9099 99.5799C57.0527 99.497 57.1867 99.3998 57.3099 99.2899C57.4638 99.1773 57.624 99.0738 57.7899 98.9799L58.3699 98.7199L58.8099 98.5599L59.3799 98.4399H60.0499L60.6399 98.5199L62.9899 99.2199C63.417 99.3564 63.7759 99.6508 63.9934 100.043C64.2108 100.435 64.2704 100.895 64.1599 101.33C64.0406 101.763 63.7549 102.131 63.3653 102.354C62.9756 102.577 62.5135 102.636 62.0799 102.52L62.0299 102.45V102.51L61.5499 102.35L61.6299 102.64L60.5799 102.07L61.2099 102.97L59.6099 102.19L60.8199 103.44L59.0899 102.94L60.5299 103.82L58.8499 103.35L60.2399 104.35L58.4699 104.22L60.0499 104.84L58.2599 104.68L59.7999 105.44L58.0099 105.63L59.6999 105.96L57.9299 106.11L59.5699 106.59L57.8299 107.07H59.5699L57.8299 107.55L59.5699 107.7L58.1199 108.35L58.2599 108.4L59.6599 108.29L59.1399 108.71L59.6599 108.91L59.8599 108.84C60.2904 109.016 60.6427 109.342 60.8522 109.757C61.0616 110.172 61.1141 110.649 60.9999 111.1C60.9132 111.459 60.7141 111.78 60.4317 112.018C60.1492 112.255 59.7982 112.396 59.4299 112.42H59.4699Z" fill="white"/>
<path fill-rule="evenodd" clip-rule="evenodd" d="M79.8201 26.7602C96.2201 17.3002 109.54 24.9702 109.54 43.9102C109.54 62.8502 96.2201 85.9102 79.8201 95.3502C63.4201 104.79 50.1201 97.1502 50.1201 78.2102C50.1201 59.2702 63.4301 36.2402 79.8201 26.7602Z" fill="#6FA3C6"/>
<path fill-rule="evenodd" clip-rule="evenodd" d="M93.0999 24.3998C89.3299 24.3998 85.0999 25.6998 80.6899 28.2398C64.7799 37.4298 51.8599 59.8298 51.8599 78.2398C51.8599 86.7598 54.5999 93.0598 59.6599 95.9898C64.7199 98.9198 71.5899 98.1698 78.9699 93.9098C94.8699 84.7198 107.8 62.2998 107.8 43.9098C107.8 35.3798 105.05 29.0898 99.9899 26.1598C97.8902 24.972 95.5121 24.3645 93.0999 24.3998V24.3998ZM66.5699 101.13C63.5586 101.164 60.5916 100.402 57.9699 98.9198C51.8099 95.3598 48.4399 88.0098 48.4399 78.2098C48.4399 58.7598 62.1299 35.0198 78.9699 25.2898C87.4399 20.3798 95.5099 19.6398 101.67 23.1998C107.83 26.7598 111.23 34.1098 111.23 43.9098C111.23 63.3698 97.5299 87.0998 80.6899 96.8298C75.7399 99.6898 70.9099 101.13 66.5699 101.13Z" fill="white"/>
<path fill-rule="evenodd" clip-rule="evenodd" d="M73.8502 9.04987L98.7402 23.3899C105.49 25.9499 109.83 33.2299 109.83 44.1899C109.83 63.6799 96.1402 87.3699 79.3002 97.1099C69.7902 102.59 61.3002 102.48 55.7202 97.8699L30.8802 83.5299C24.4102 77.7699 23.5502 69.6099 24.0302 61.4199C24.724 54.8629 26.431 48.4534 29.0902 42.4199C31.3531 37.3863 34.1206 32.5951 37.3502 28.1199C40.5309 23.8359 44.2026 19.9393 48.2902 16.5099C51.5745 13.8415 55.2123 11.6406 59.1002 9.96987C64.3002 7.99987 68.5002 7.27987 73.8502 9.04987Z" fill="#6FA3C6"/>
<path fill-rule="evenodd" clip-rule="evenodd" d="M67.9199 9.76978C65.0833 9.85567 62.2852 10.4519 59.6599 11.5298C55.9438 13.1321 52.4754 15.2569 49.3599 17.8398C45.3852 21.1691 41.8202 24.959 38.7399 29.1298C35.5605 33.5003 32.849 38.1927 30.6499 43.1298C28.0449 49.0001 26.3941 55.2488 25.7599 61.6398C25.3399 68.2398 25.6699 76.6398 31.9999 82.2898L56.5799 96.4198C62.0299 100.92 69.9399 100.55 78.4299 95.6498C94.7899 86.1998 108.15 63.1298 108.15 44.2198C108.15 34.4098 104.48 27.4198 98.1499 25.0298L73.2099 10.6498C71.5148 10.0953 69.7435 9.80856 67.9599 9.79978L67.9199 9.76978ZM65.6099 103C61.6116 103.07 57.7167 101.728 54.6099 99.2098L29.9999 84.9998C22.2799 78.1598 21.8499 68.7598 22.3299 61.2998C23.0355 54.5415 24.7934 47.935 27.5399 41.7198C29.8381 36.5657 32.6738 31.6686 35.9999 27.1098C39.24 22.7006 42.993 18.6924 47.1799 15.1698C50.6051 12.3993 54.3894 10.1051 58.4299 8.34978C63.7699 6.34978 68.4999 5.47977 74.4299 7.41977L74.7199 7.56978L99.5499 21.9198C107.08 24.7098 111.55 32.9198 111.55 44.1898C111.55 64.1898 97.4199 88.5798 80.0999 98.5898C75.7405 101.306 70.7432 102.827 65.6099 103Z" fill="white"/>
<path fill-rule="evenodd" clip-rule="evenodd" d="M73.8502 9.05L98.7402 23.39C100.702 24.1277 102.478 25.2885 103.94 26.79L72.8302 48.42L37.4302 28C40.5875 23.7548 44.2325 19.895 48.2902 16.5C51.5744 13.8316 55.2123 11.6307 59.1002 9.96C64.3002 8 68.5002 7.28 73.8502 9.05Z" fill="#6FA3C6"/>
<path fill-rule="evenodd" clip-rule="evenodd" d="M40 27.4698L72.75 46.3898L101.2 26.6598C100.257 25.9634 99.2201 25.4045 98.12 24.9998L73.18 10.6198C68.27 9.03977 64.35 9.80978 59.67 11.5298C55.9578 13.1398 52.4905 15.2639 49.37 17.8398C45.9117 20.7059 42.7704 23.9343 40 27.4698V27.4698ZM72.84 50.1198C72.5529 50.1268 72.2705 50.0466 72.03 49.8898L36.63 29.4498C36.4205 29.3322 36.2393 29.1701 36.0993 28.9749C35.9594 28.7796 35.864 28.556 35.82 28.3198C35.7689 28.0839 35.7683 27.8399 35.8183 27.6037C35.8683 27.3676 35.9677 27.1447 36.11 26.9498C39.3367 22.609 43.0548 18.656 47.19 15.1698C50.6042 12.3838 54.3908 10.0883 58.44 8.34978C63.78 6.34978 68.51 5.47977 74.44 7.41977L74.73 7.56978L99.56 21.9198C101.698 22.7082 103.632 23.9657 105.22 25.5998C105.389 25.7793 105.519 25.992 105.602 26.2244C105.684 26.4568 105.718 26.7038 105.7 26.9498C105.629 27.4457 105.367 27.8943 104.97 28.1998L73.82 49.8098C73.531 50.015 73.1844 50.1235 72.83 50.1198H72.84Z" fill="white"/>
<path fill-rule="evenodd" clip-rule="evenodd" d="M79.3 26.5598C96.14 16.8198 109.83 24.7098 109.83 44.1898C109.83 63.6698 96.14 87.3698 79.3 97.1098C62.46 106.85 48.73 98.9498 48.73 79.4598C48.73 59.9698 62.43 36.2998 79.3 26.5598Z" fill="#6FA3C6"/>
<path fill-rule="evenodd" clip-rule="evenodd" d="M92.8998 24.0801C89.0398 24.0801 84.6998 25.4201 80.1098 28.0801C63.7698 37.5301 50.4598 60.6001 50.4598 79.5001C50.4598 88.3001 53.3098 94.7901 58.5198 97.8001C63.7298 100.81 70.8098 100.07 78.4298 95.6601C94.7898 86.2101 108.15 63.1401 108.15 44.2301C108.15 35.4501 105.25 28.9501 100.04 25.9401C97.865 24.7068 95.3996 24.0784 92.8998 24.1201V24.0801ZM65.6498 103C62.5598 103.034 59.5162 102.247 56.8298 100.72C50.4998 97.0701 47.0298 89.5201 47.0298 79.4501C47.0298 59.4501 61.1198 35.0601 78.4298 25.0601C87.1498 20.0601 95.4298 19.2801 101.72 22.9201C108.01 26.5601 111.56 34.1301 111.56 44.1801C111.56 64.1801 97.4298 88.5701 80.1098 98.5801C75.0598 101.53 70.1298 103 65.6498 103Z" fill="white"/>
<path fill-rule="evenodd" clip-rule="evenodd" d="M170.06 13C154.68 13.74 112.91 26.78 99.8401 25.47C95.4101 25.03 90.2901 26.28 84.8401 29.47C68.4001 39 55.1001 62 55.1001 80.94C55.1001 87.56 56.7301 92.79 59.5301 96.42C68.7301 108.28 80.6001 146.91 91.8301 162.69C86.7701 155.44 84.9401 149.6 83.5001 140.95C81.8601 127.32 83.2601 116.41 86.5801 103.15C89.2327 93.7449 92.7511 84.6059 97.0901 75.85C103.52 63.2927 111.62 51.6637 121.17 41.28C127.526 34.5271 134.644 28.5338 142.38 23.42C147.388 20.2811 152.706 17.6673 158.25 15.62C162.09 14.358 166.046 13.4803 170.06 13Z" fill="#6FA3C6"/>
<path fill-rule="evenodd" clip-rule="evenodd" d="M98.1101 27.1201C94.3101 27.1201 90.0601 28.4301 85.6701 30.9601C69.7501 40.1501 56.8301 62.5701 56.8301 80.9601C56.8301 86.9601 58.2201 91.9601 60.8901 95.4001C65.5101 101.4 70.6701 113.61 76.1601 126.58C77.9501 130.84 79.7401 135.16 81.5701 139.31C80.2201 125.52 81.9001 114.66 84.9001 102.77C91.3719 79.3903 103.377 57.9119 119.9 40.1501C126.361 33.3023 133.581 27.213 141.42 22.0001C143.35 20.8401 145.13 19.8201 146.82 18.9001L139.05 20.6701C123.38 24.2501 107.17 27.9601 99.6501 27.2201C99.139 27.16 98.6248 27.1299 98.1101 27.1301V27.1201ZM91.8301 164.38C91.5635 164.385 91.2998 164.323 91.0638 164.199C90.8277 164.075 90.6269 163.893 90.4801 163.67C84.6101 155.46 78.7201 141.44 72.9801 127.88C67.6301 115.13 62.5701 103.08 58.1801 97.4601C55.0401 93.4601 53.3901 87.7201 53.3901 80.9401C53.3901 61.4701 67.0901 37.7301 83.9801 28.0001C89.5801 24.7701 95.1201 23.3101 99.9801 23.8101C106.93 24.5201 122.89 20.8601 138.27 17.3201C150.96 14.4201 162.97 11.6701 169.96 11.3201C170.404 11.2926 170.84 11.4409 171.175 11.7328C171.51 12.0248 171.717 12.437 171.75 12.8801C171.787 13.3225 171.652 13.762 171.372 14.1068C171.093 14.4516 170.691 14.6749 170.25 14.7301C166.349 15.1794 162.503 16.0203 158.77 17.2401C153.345 19.2398 148.141 21.7933 143.24 24.8601C135.627 29.9132 128.618 35.8217 122.35 42.4701C106.254 59.8321 94.5509 80.7969 88.2201 103.61C85.2201 115.66 83.4901 126.61 85.2201 140.74C86.5701 148.74 88.2201 154.52 93.2201 161.74C93.3557 161.919 93.4537 162.123 93.5081 162.341C93.5626 162.558 93.5723 162.785 93.5368 163.006C93.5013 163.228 93.4213 163.44 93.3015 163.63C93.1818 163.819 93.0248 163.983 92.8401 164.11C92.5402 164.304 92.1868 164.398 91.8301 164.38Z" fill="white"/>
<path fill-rule="evenodd" clip-rule="evenodd" d="M187.85 15.9101C174.07 10.1001 161.77 13.3501 148.85 19.6801C137.7 25.8001 129.94 32.1901 121.17 41.2801C112.593 50.6257 105.173 60.9702 99.0698 72.0901C92.4445 84.3014 87.6212 97.4072 84.7498 111C82.2398 124.84 81.6598 136.59 85.5698 150.22C88.5698 158.77 91.7898 164.14 99.0698 169.65L107.71 174.65L116.82 179.9L205.37 26.0801L187.85 15.9101Z" fill="#6FA3C6"/>
<path fill-rule="evenodd" clip-rule="evenodd" d="M173.2 14.58C164.71 14.58 156.91 17.58 149.56 21.22C139.44 26.79 131.77 32.76 122.36 42.48C113.891 51.7072 106.575 61.9287 100.57 72.92C94.0281 85.0003 89.2496 97.9551 86.3801 111.39C84.0701 124.51 83.3001 136.08 87.2101 149.79C89.9601 157.52 92.8501 162.79 100.14 168.3L116.2 177.57L203.06 26.7L187.06 17.44C182.669 15.5643 177.945 14.5916 173.17 14.58H173.2ZM116.82 181.58C116.515 181.58 116.215 181.5 115.95 181.35L98.2601 171.12C90.1001 165 86.8801 159.09 84.0001 150.82C79.8401 136.38 80.6201 124.36 83.0901 110.73C85.9868 96.9487 90.8748 83.6627 97.6001 71.29C103.755 60.0506 111.235 49.5893 119.88 40.13C129.57 30.13 137.48 23.98 148.04 18.19C159.42 12.6 173.13 7.79998 188.56 14.34C188.616 14.378 188.676 14.4083 188.74 14.43L206.26 24.61C206.456 24.7197 206.629 24.8679 206.766 25.0457C206.904 25.2236 207.004 25.4275 207.061 25.6451C207.118 25.8627 207.131 26.0895 207.098 26.312C207.065 26.5346 206.988 26.7482 206.87 26.94L118.32 180.76C118.074 181.145 117.698 181.429 117.26 181.56C117.116 181.597 116.968 181.614 116.82 181.61V181.58Z" fill="white"/>
<path fill-rule="evenodd" clip-rule="evenodd" d="M187.85 15.9101C174.07 10.1001 161.77 13.3501 148.85 19.6801C139.791 24.5927 131.503 30.8091 124.25 38.1301C115.62 48.0201 108.67 56.5601 105.58 61.2701L147.1 85.2701L188.79 55.0001L205.37 26.1301L187.85 15.9101Z" fill="#6FA3C6"/>
<path fill-rule="evenodd" clip-rule="evenodd" d="M108 60.7599L147 83.2799L187.45 53.7799L203.04 26.6999L187.04 17.4399C172.96 11.5299 160.71 15.7499 149.51 21.2199C140.635 26.0464 132.515 32.1479 125.41 39.3299C117.35 48.5599 111.22 56.0999 107.95 60.7599H108ZM147.1 86.9999C146.8 86.9967 146.507 86.9139 146.25 86.7599L104.71 62.7599C104.311 62.5266 104.02 62.1459 103.9 61.6999C103.807 61.2402 103.889 60.7623 104.13 60.3599C107.13 55.6899 113.83 47.4199 122.99 36.9699C130.352 29.5007 138.776 23.159 147.99 18.1499C159.37 12.5599 173.08 7.75995 188.51 14.2999C188.565 14.338 188.626 14.3683 188.69 14.3899L206.21 24.57C206.406 24.6796 206.578 24.8278 206.716 25.0057C206.854 25.1836 206.954 25.3874 207.011 25.605C207.068 25.8226 207.08 26.0495 207.048 26.272C207.015 26.4945 206.937 26.7081 206.82 26.8999L190.19 55.7799C190.098 55.9907 189.945 56.1686 189.75 56.2899L148.09 86.6399C147.809 86.8662 147.461 86.9928 147.1 86.9999V86.9999Z" fill="white"/>
<path fill-rule="evenodd" clip-rule="evenodd" d="M163.4 176.86C198.09 156.86 226.2 108.12 226.2 68.03C226.2 27.94 198.09 11.7 163.4 31.73C128.71 51.76 100.57 100.52 100.57 140.59C100.57 180.66 128.68 196.89 163.4 176.86Z" fill="#6FA3C6"/>
<path fill-rule="evenodd" clip-rule="evenodd" d="M191.43 24.8402C183.13 24.8402 173.87 27.6402 164.23 33.2102C130.08 52.9402 102.23 101.12 102.23 140.59C102.23 159.34 108.45 173.25 119.79 179.78C131.13 186.31 146.26 184.78 162.51 175.38C196.71 155.65 224.51 107.5 224.51 68.0302C224.51 49.2802 218.29 35.3502 206.95 28.8102C202.225 26.1199 196.867 24.7391 191.43 24.8102V24.8402ZM135.28 187.16C129.255 187.232 123.318 185.711 118.07 182.75C105.69 175.58 98.8398 160.61 98.8398 140.59C98.8398 100.03 127.44 50.5302 162.54 30.2502C179.86 20.2502 196.26 18.6902 208.66 25.8602C221.06 33.0302 227.93 48.0002 227.93 68.0002C227.93 108.55 199.38 158 164.23 178.3C154.05 184.22 144.21 187.16 135.28 187.16Z" fill="white"/>
<path fill-rule="evenodd" clip-rule="evenodd" d="M163.4 161.08C191.18 145.08 213.72 106.08 213.72 73.9898C213.72 41.8998 191.18 28.9098 163.4 44.9898C135.62 61.0698 113.12 99.9998 113.12 132.07C113.12 164.14 135.63 177.12 163.4 161.08Z" fill="#6FA3C6"/>
<path fill-rule="evenodd" clip-rule="evenodd" d="M185.83 39.7701C179.28 39.7701 171.95 42.0101 164.27 46.4301C137.03 62.1801 114.85 100.58 114.85 132.07C114.85 146.94 119.76 157.97 128.68 163.14C137.6 168.31 149.68 167.05 162.54 159.6C189.78 143.87 212 105.48 212 74.0001C212 59.1301 207.09 48.0901 198.12 42.9201C194.386 40.8004 190.153 39.7163 185.86 39.7801L185.83 39.7701ZM140.94 169.69C136.057 169.753 131.245 168.514 127 166.1C117 160.3 111.42 148.2 111.42 132.1C111.42 99.5301 134.42 59.7901 162.54 43.4901C176.54 35.4301 189.74 34.1901 199.82 39.9701C209.9 45.7501 215.4 57.8401 215.4 74.0001C215.4 106.57 192.45 146.3 164.27 162.58C156.09 167.31 148.12 169.69 140.94 169.69Z" fill="white"/>
<path fill-rule="evenodd" clip-rule="evenodd" d="M188.43 38.1801C181.06 37.5601 172.53 39.7001 163.43 44.9501C135.66 60.9501 113.15 100 113.15 132.07C113.15 142.33 115.46 150.63 119.52 156.67C126.88 157.31 135.42 155.17 144.52 149.89C172.3 133.89 194.82 94.8902 194.82 62.8202C194.8 52.5502 192.49 44.2301 188.43 38.1801Z" fill="#6FA3C6"/>
<path fill-rule="evenodd" clip-rule="evenodd" d="M120.44 155C127.44 155.38 135.49 153.11 143.63 148.4C170.89 132.66 193.07 94.2602 193.07 62.8002C193.07 53.5902 191.14 45.6702 187.47 39.8002C180.47 39.4302 172.47 41.6802 164.27 46.3902C137.03 62.1402 114.85 100.54 114.85 132.03C114.85 141.22 116.78 149.12 120.44 154.98V155ZM122.03 158.46C121.11 158.46 120.19 158.46 119.32 158.34C119.067 158.321 118.823 158.244 118.606 158.114C118.389 157.983 118.205 157.804 118.07 157.59C113.68 151.12 111.42 142.29 111.42 132.05C111.42 99.4801 134.42 59.7402 162.54 43.4402C171.66 38.2002 180.67 35.8002 188.54 36.4402C188.794 36.4618 189.041 36.5404 189.26 36.6702C189.48 36.8001 189.668 36.9778 189.81 37.1902C194.14 43.6702 196.46 52.5102 196.46 62.7702C196.46 95.3302 173.46 135.04 145.33 151.32C137.26 156.06 129.27 158.48 122 158.48L122.03 158.46Z" fill="white"/>
<path fill-rule="evenodd" clip-rule="evenodd" d="M145.46 113.3L119.24 100.84C123.821 88.4932 130.384 76.9755 138.67 66.7402L163.36 82.3502L162.88 82.1202L162.44 81.9302L161.96 81.7702L161.48 81.6402L160.94 81.5702H160.42H159.9H159.32L158.73 81.6402L158.15 81.7602L157.57 81.9002L156.95 82.0902L156.32 82.3202L155.69 82.6002L155.07 82.9002L154.39 83.2602L153.76 83.6602L153.1 84.0802L152.47 84.5402L151.83 85.0302L151.25 85.5502L150.63 86.0802L150.06 86.6602L149.48 87.2502L148.94 87.8602L148.37 88.5002L147.83 89.1602L147.35 89.8202L146.82 90.5202L146.39 91.2302L145.91 91.9602L145.46 92.7002L145.04 93.4502L144.65 94.2002L144.27 94.9702L143.92 95.7402L143.59 96.5202L143.3 97.3202L143.01 98.1102L142.77 98.8902L142.53 99.6902L142.34 100.49L142.15 101.28L142.05 102.06L141.9 102.85V103.62L141.84 104.39L141.79 105.16L141.84 105.9L141.9 106.6V107.3L142.05 107.95L142.15 108.56L142.34 109.16L142.53 109.73L142.77 110.26L143.01 110.76L143.3 111.22L143.59 111.66L143.92 112.06L144.27 112.43L144.65 112.78L145.04 113.07L145.46 113.3Z" fill="#6FA3C6"/>
<path fill-rule="evenodd" clip-rule="evenodd" d="M121.36 100L140.55 109.1L140.07 106.02V105.19L140.88 99.2701L143.98 91.8701L148.85 85.4601L154.24 81.4101L156.91 80.3301L139.05 69.0001C131.658 78.4051 125.696 88.8514 121.36 100V100ZM145.46 115C145.212 114.997 144.969 114.936 144.75 114.82L118.46 102.36C118.081 102.172 117.784 101.851 117.625 101.458C117.467 101.066 117.458 100.629 117.6 100.23C122.265 87.7038 128.939 76.0209 137.36 65.6401C137.624 65.3192 137.997 65.1057 138.407 65.0394C138.817 64.9732 139.238 65.0587 139.59 65.2801L164.23 80.8901C164.421 81.0014 164.587 81.1496 164.72 81.3262C164.853 81.5027 164.949 81.704 165.003 81.9182C165.057 82.1324 165.068 82.3552 165.035 82.5736C165.002 82.792 164.925 83.0016 164.81 83.1901C164.591 83.5733 164.231 83.8558 163.807 83.9773C163.383 84.0987 162.928 84.0495 162.54 83.8401L159.84 83.2001L156.36 84.1201L151.78 87.3001L147.35 92.8101L144.17 100.11L143.49 105.11L144.56 109.91L146.39 111.81C146.756 112.045 147.018 112.411 147.124 112.832C147.23 113.254 147.171 113.7 146.96 114.08C146.812 114.351 146.595 114.578 146.332 114.74C146.069 114.901 145.768 114.991 145.46 115Z" fill="white"/>
<path fill-rule="evenodd" clip-rule="evenodd" d="M154.39 112.42C147.44 116.42 141.75 113.18 141.75 105.13C141.75 97.0801 147.44 87.2601 154.39 83.2301C161.34 79.2001 167.02 82.4801 167.02 90.5301C167.02 98.5801 161.38 108.39 154.39 112.42Z" fill="#6FA3C6"/>
<path fill-rule="evenodd" clip-rule="evenodd" d="M160 83.2098C158.306 83.2848 156.662 83.8019 155.23 84.7098C148.72 88.4698 143.46 97.6198 143.46 105.13C143.46 108.39 144.46 110.77 146.3 111.82C148.14 112.87 150.7 112.57 153.54 110.94C160 107.19 165.3 98.0298 165.3 90.5398C165.3 87.2898 164.3 84.9098 162.47 83.8398C161.716 83.4177 160.864 83.2037 160 83.2198V83.2098ZM148.72 115.86C147.266 115.872 145.834 115.5 144.57 114.78C141.63 113.08 140.04 109.65 140.04 105.13C140.04 96.3898 145.97 86.1298 153.54 81.7498C157.45 79.4898 161.2 79.1798 164.15 80.8698C167.1 82.5598 168.74 85.9998 168.74 90.5298C168.74 99.2698 162.81 109.53 155.23 113.9C153.277 115.106 151.044 115.781 148.75 115.86H148.72Z" fill="white"/>
</svg>
