<svg width="221" height="251" viewBox="0 0 221 251" fill="none" xmlns="http://www.w3.org/2000/svg">
<path fill-rule="evenodd" clip-rule="evenodd" d="M214.1 99.6499V127.11C214.1 124.06 213.28 122.02 212.32 122.57C144.58 161.69 109.02 182.22 41.3201 221.31C40.3201 221.88 39.58 224.82 39.54 227.92V200.46C39.54 203.51 40.3601 205.54 41.3201 205L212.32 106.24C213.28 105.68 214.06 102.74 214.1 99.6499Z" fill="#6FA3C6"/>
<path fill-rule="evenodd" clip-rule="evenodd" d="M41.3899 206.91V219.09L211.39 120.94C211.649 120.798 211.929 120.696 212.22 120.64V108.48L42.2199 206.61C41.9661 206.772 41.6789 206.875 41.3799 206.91H41.3899ZM39.4999 229.8C39.003 229.797 38.5274 229.598 38.177 229.246C37.8266 228.894 37.6299 228.417 37.6299 227.92V200.46C37.6286 200.213 37.6759 199.968 37.7692 199.74C37.8624 199.511 37.9998 199.303 38.1735 199.128C38.3471 198.952 38.5536 198.813 38.7812 198.717C39.0088 198.621 39.253 198.571 39.4999 198.57V198.57C39.7468 198.569 39.9915 198.616 40.2201 198.709C40.4487 198.803 40.6567 198.94 40.8322 199.114C41.0077 199.287 41.1473 199.494 41.243 199.721C41.3387 199.949 41.3886 200.193 41.3899 200.44C41.3855 201.178 41.4525 201.915 41.5899 202.64L211.38 104.64C211.965 103.039 212.246 101.344 212.21 99.64C212.22 99.1458 212.424 98.6752 212.777 98.3294C213.131 97.9836 213.606 97.7899 214.1 97.79V97.79C214.345 97.79 214.589 97.8384 214.816 97.9324C215.042 98.0264 215.249 98.1641 215.422 98.3378C215.596 98.5114 215.734 98.7175 215.828 98.9444C215.922 99.1713 215.97 99.4145 215.97 99.66V127.12C215.97 127.617 215.773 128.094 215.423 128.446C215.072 128.798 214.597 128.997 214.1 129V129C213.603 128.997 213.127 128.8 212.773 128.451C212.42 128.101 212.218 127.627 212.21 127.13C212.222 126.392 212.159 125.655 212.02 124.93L42.2299 223C41.6417 224.6 41.3568 226.296 41.3899 228C41.3692 228.486 41.1607 228.946 40.8082 229.281C40.4557 229.617 39.9867 229.803 39.4999 229.8V229.8Z" fill="white"/>
<path fill-rule="evenodd" clip-rule="evenodd" d="M39.5002 197.37C38.9758 197.714 38.5396 198.177 38.2269 198.72C37.9143 199.264 37.7338 199.874 37.7002 200.5V240.71C37.7002 248.2 42.9902 251.26 49.4802 247.52L204.14 158.22C210.61 154.48 215.9 145.31 215.9 137.83V97.6199C215.9 96.4699 215.09 95.9899 214.1 96.5699L39.5002 197.37Z" fill="#6FA3C6"/>
<path fill-rule="evenodd" clip-rule="evenodd" d="M40.4599 199C40.2191 199.176 40.0175 199.401 39.8677 199.659C39.718 199.917 39.6234 200.203 39.5898 200.5V240.71C39.5898 243.63 40.4799 245.76 42.0999 246.71C43.7199 247.66 46.0098 247.35 48.5398 245.9L203.2 156.6C209.08 153.21 214.03 144.6 214.03 137.84V98.84L40.4498 199H40.4599ZM44.2399 251C42.835 251.017 41.4521 250.65 40.2399 249.94C37.3899 248.31 35.8398 245.04 35.8398 240.71V200.5C35.8778 199.545 36.1458 198.614 36.6212 197.785C37.0965 196.957 37.765 196.255 38.5699 195.74V195.74L213.15 95.0001C213.614 94.6961 214.153 94.5266 214.707 94.5105C215.262 94.4945 215.81 94.6324 216.29 94.9091C216.771 95.1857 217.166 95.5902 217.43 96.0776C217.695 96.565 217.82 97.1162 217.79 97.6701V137.88C217.79 145.98 212.09 155.88 205.07 159.88L50.4298 249.13C48.567 250.287 46.4318 250.932 44.2399 251V251Z" fill="white"/>
<path fill-rule="evenodd" clip-rule="evenodd" d="M218.72 108.84V33.0001C218.72 25.5201 213.44 22.4701 206.95 26.2101L52.2898 115.5C45.7998 119.23 40.5098 128.39 40.5098 135.89V211.72C40.5098 212.87 41.3498 213.36 42.3398 212.78L115.07 170.78V166.78C115.152 165.208 115.605 163.678 116.39 162.314C117.175 160.95 118.272 159.79 119.59 158.93L139.65 147.34C142.15 145.92 144.2 147.08 144.2 149.96V154L216.91 112C217.44 111.654 217.881 111.187 218.195 110.638C218.51 110.089 218.69 109.472 218.72 108.84Z" fill="#6FA3C6"/>
<path fill-rule="evenodd" clip-rule="evenodd" d="M212.18 26.4702C210.654 26.5512 209.175 27.0193 207.88 27.8302L53.24 117.11C47.36 120.52 42.4 129.11 42.4 135.89V210.57L113.2 169.7V166.7C113.288 164.8 113.828 162.949 114.776 161.3C115.724 159.651 117.052 158.252 118.65 157.22L138.71 145.65C139.431 145.102 140.297 144.779 141.201 144.721C142.104 144.663 143.005 144.873 143.79 145.324C144.575 145.776 145.209 146.449 145.613 147.26C146.016 148.07 146.172 148.982 146.06 149.88V150.68L216 110.36C216.24 110.178 216.44 109.95 216.59 109.689C216.739 109.428 216.835 109.139 216.87 108.84V33.0002C216.87 30.0802 215.97 28.0002 214.34 27.0002C213.688 26.6313 212.949 26.4447 212.2 26.4602L212.18 26.4702ZM41.52 214.9C41.027 214.907 40.5418 214.776 40.12 214.52C39.6421 214.232 39.2518 213.819 38.9911 213.326C38.7303 212.832 38.6089 212.277 38.64 211.72V135.89C38.64 127.78 44.35 117.89 51.35 113.89L206 24.5702C209.75 22.4102 213.37 22.1202 216.2 23.7502C219.03 25.3802 220.6 28.6802 220.6 32.9902V108.84C220.557 109.796 220.286 110.728 219.809 111.558C219.332 112.387 218.664 113.091 217.86 113.61L145.11 155.61C144.825 155.772 144.503 155.858 144.175 155.858C143.847 155.858 143.525 155.772 143.24 155.61C142.953 155.447 142.714 155.209 142.549 154.923C142.383 154.636 142.298 154.311 142.3 153.98V149.93C142.3 149.2 142.11 148.75 141.89 148.64C141.67 148.53 141.23 148.58 140.59 148.94L120.51 160.53C119.484 161.23 118.631 162.153 118.015 163.231C117.398 164.308 117.034 165.512 116.95 166.75V170.75C116.95 171.083 116.862 171.41 116.695 171.698C116.529 171.986 116.289 172.225 116 172.39L43.27 214.39C42.743 214.714 42.1385 214.89 41.52 214.9V214.9Z" fill="white"/>
<path fill-rule="evenodd" clip-rule="evenodd" d="M112.24 167.37C112.24 161.53 115.12 158.27 117.76 156.58L136.83 145.58C137.29 145.25 137.829 145.047 138.392 144.991C138.956 144.934 139.524 145.027 140.04 145.26L144.24 147.69C143.725 147.458 143.158 147.364 142.595 147.417C142.033 147.469 141.493 147.667 141.03 147.99L121 159.58C117 161.9 116.61 164.28 116.48 167.43V181.5C116.43 182.06 116.526 182.624 116.759 183.136C116.993 183.647 117.355 184.09 117.81 184.42L113.58 182C112.08 181 110.19 180.11 110.19 177.06V173.6L112.24 172.42V167.37Z" fill="#6FA3C6"/>
<path fill-rule="evenodd" clip-rule="evenodd" d="M112.08 174.69V177.07C112.08 178.77 112.78 179.23 114.08 180.07L114.56 180.41V167.41C114.7 163.83 115.21 160.71 120.04 157.93L139.14 146.93C138.93 146.83 138.72 146.77 137.75 147.28L118.75 158.28C116.75 159.6 114.18 162.28 114.18 167.45V172.5C114.179 172.83 114.092 173.154 113.927 173.44C113.762 173.726 113.525 173.964 113.24 174.13L112.14 174.77L112.08 174.69ZM117.77 186.31C117.439 186.311 117.114 186.221 116.83 186.05L112 183.21C110.52 182.21 108.31 180.79 108.31 177.07V173.6C108.309 173.271 108.394 172.947 108.557 172.661C108.72 172.375 108.956 172.136 109.24 171.97L110.35 171.33V167.33C110.35 160.1 114.35 156.47 116.74 154.97L135.9 144C136.622 143.52 137.455 143.233 138.32 143.165C139.184 143.097 140.051 143.25 140.84 143.61L145.18 146.11C145.58 146.362 145.871 146.755 145.994 147.212C146.117 147.669 146.064 148.155 145.844 148.574C145.625 148.993 145.255 149.314 144.81 149.472C144.364 149.631 143.875 149.616 143.44 149.43C143.07 149.27 142.87 149.21 141.9 149.72L121.9 161.26C118.65 163.13 118.43 164.79 118.32 167.56V181.56C118.32 182.56 118.5 182.72 118.83 182.95C119.23 183.223 119.508 183.64 119.607 184.113C119.706 184.587 119.617 185.08 119.36 185.49C119.182 185.746 118.944 185.955 118.667 186.098C118.39 186.241 118.082 186.314 117.77 186.31V186.31Z" fill="white"/>
<path fill-rule="evenodd" clip-rule="evenodd" d="M145.57 160.64V164.64C145.485 166.214 145.03 167.745 144.241 169.109C143.452 170.473 142.352 171.632 141.03 172.49L121 184.12C118.51 185.55 116.48 184.39 116.48 181.5V167.43C116.562 165.858 117.015 164.328 117.8 162.964C118.586 161.6 119.682 160.44 121 159.58L141 148C143.51 146.56 145.54 147.74 145.54 150.62L145.57 160.64Z" fill="#6FA3C6"/>
<path fill-rule="evenodd" clip-rule="evenodd" d="M143 149.26C142.62 149.295 142.254 149.418 141.93 149.62L121.87 161.21C120.841 161.907 119.984 162.83 119.364 163.907C118.743 164.985 118.376 166.19 118.29 167.43V181.5C118.29 182.25 118.48 182.7 118.67 182.81C119.138 182.884 119.617 182.768 120 182.49L140.06 170.91C141.088 170.209 141.944 169.284 142.564 168.205C143.184 167.126 143.552 165.921 143.64 164.68V150.61C143.669 150.377 143.65 150.141 143.585 149.916C143.519 149.691 143.409 149.481 143.26 149.3C143.174 149.282 143.086 149.282 143 149.3V149.26ZM119 186.61C118.256 186.616 117.524 186.422 116.88 186.05C116.129 185.564 115.523 184.885 115.124 184.085C114.724 183.285 114.547 182.392 114.61 181.5V167.43C114.697 165.544 115.232 163.705 116.169 162.065C117.106 160.426 118.419 159.032 120 158L140.06 146.41C140.783 145.868 141.65 145.551 142.552 145.497C143.454 145.444 144.352 145.657 145.134 146.11C145.916 146.563 146.548 147.235 146.951 148.044C147.354 148.853 147.51 149.763 147.4 150.66V164.73C147.314 166.633 146.772 168.486 145.82 170.136C144.868 171.786 143.534 173.183 141.93 174.21L121.87 185.8C120.997 186.307 120.01 186.586 119 186.61V186.61Z" fill="white"/>
<path fill-rule="evenodd" clip-rule="evenodd" d="M176.12 2.88004C173.61 1.88004 170.86 2.88004 168.64 4.08004L14 93.37C7.40998 97.27 2.30998 106.11 2.22998 113.77L2.46999 222.77C2.53359 223.809 2.8631 224.815 3.42693 225.691C3.99075 226.566 4.77 227.282 5.68999 227.77L41.17 248.27C38.47 246.38 37.8 243.91 37.72 240.65V210.09C37.6998 210.317 37.7379 210.546 37.8306 210.754C37.9234 210.962 38.0677 211.143 38.25 211.28L41.08 212.91C40.8968 212.773 40.7507 212.592 40.6547 212.385C40.5587 212.177 40.5158 211.948 40.53 211.72L40.6 134.47C41.2 127.29 46.1 119.17 52.31 115.47L207 26.2C209.86 24.63 212.34 23.97 215.31 25.38L176.12 2.88004Z" fill="#6FA3C6"/>
<path fill-rule="evenodd" clip-rule="evenodd" d="M173.93 4.35982C172.379 4.43828 170.873 4.90599 169.55 5.71982L14.9201 94.9998C8.92007 98.5498 4.16008 106.79 4.08008 113.78L4.32008 222.78C4.39183 223.504 4.64466 224.199 5.05533 224.8C5.46599 225.401 6.02128 225.89 6.67007 226.22L36.0001 243.18C35.878 242.375 35.8145 241.563 35.8101 240.75V210.09C35.8122 209.609 35.9993 209.148 36.3327 208.801C36.666 208.455 37.1198 208.25 37.6001 208.23C37.9491 208.228 38.293 208.314 38.6001 208.48L38.6501 134.48C39.3201 126.48 44.6501 117.84 51.2701 113.91L206 24.5698C206.716 24.1687 207.458 23.8146 208.22 23.5098L175.32 4.58981C174.87 4.43177 174.397 4.35393 173.92 4.35982H173.93ZM41.1501 250.2C40.8249 250.202 40.5058 250.112 40.2301 249.94L4.72008 229.45C2.03008 227.74 0.560074 225.45 0.560074 222.82L0.330078 113.82C0.420078 105.49 5.87008 96.0298 13.0201 91.8198L167.69 2.52982C171.13 0.636484 174.163 0.189821 176.79 1.18982C176.881 1.21697 176.966 1.26109 177.04 1.31983L216.21 23.8198C216.652 24.0519 216.983 24.4499 217.131 24.9262C217.279 25.4026 217.232 25.9182 217 26.3598C216.768 26.8014 216.37 27.1327 215.894 27.2809C215.417 27.429 214.902 27.3819 214.46 27.1498C212.46 26.1498 210.64 26.3798 207.84 27.9098L53.2401 117.18C47.6601 120.48 43.0201 128.02 42.4601 134.7L42.4001 211.81C42.7508 212.089 42.9778 212.495 43.0321 212.94C43.0863 213.386 42.9635 213.834 42.6901 214.19C42.3824 214.555 41.9542 214.798 41.4828 214.875C41.0114 214.952 40.528 214.858 40.1201 214.61L39.5901 214.29V240.78C39.6501 243.94 40.3401 245.54 42.2301 246.85C42.6291 247.124 42.9049 247.543 42.9984 248.018C43.0918 248.493 42.9955 248.985 42.7301 249.39C42.5592 249.65 42.3238 249.861 42.0469 250.003C41.77 250.145 41.461 250.213 41.1501 250.2V250.2Z" fill="white"/>
<path fill-rule="evenodd" clip-rule="evenodd" d="M75.7898 82.8501L69.3898 79.1401C69.3898 75.7401 69.0898 65.7301 69.6398 62.4001C70.7098 55.7101 75.2798 48.4001 81.1598 44.8801L126.34 18.8801C128.67 17.8101 131.14 17.4501 133.45 18.6901L139.86 22.3801C136.86 20.9701 134.4 21.6201 131.53 23.2001L87.5298 48.5801C80.9398 52.4701 75.8298 61.3201 75.7498 68.9701L75.7898 82.8501Z" fill="#6FA3C6"/>
<path fill-rule="evenodd" clip-rule="evenodd" d="M71.2701 78.0602L73.9101 79.5902V69.0002C74.0001 60.6802 79.4701 51.2102 86.6201 47.0002L130.62 21.6002C131.34 21.1958 132.084 20.8383 132.85 20.5302L132.54 20.3602C131.05 19.5702 129.24 19.6502 127.13 20.6302L82.1301 46.5602C76.9301 49.6402 72.5501 56.3102 71.5101 62.7502C71.1101 65.1802 71.2101 72.0102 71.2701 76.1002V78.1002V78.0602ZM75.7901 84.7202C75.4604 84.7203 75.1363 84.6341 74.8501 84.4702L68.4601 80.7702C68.1636 80.612 67.9145 80.3775 67.7388 80.091C67.563 79.8045 67.4668 79.4762 67.4601 79.1402V76.1402C67.4601 71.4002 67.3201 64.9102 67.7601 62.1402C68.9601 54.6802 74.0801 46.9202 80.2001 43.3102L125.38 17.3102C128.75 15.7602 131.71 15.7102 134.31 17.0802L140.78 20.8102C141.189 21.0588 141.488 21.4542 141.616 21.9156C141.743 22.3771 141.69 22.8698 141.467 23.2933C141.243 23.7168 140.867 24.0392 140.414 24.1947C139.962 24.3502 139.466 24.3271 139.03 24.1302C136.95 23.1302 135.24 23.3702 132.41 24.9002L88.5001 50.2102C82.5001 53.7602 77.7401 62.0102 77.6801 68.9902V82.8502C77.6746 83.1793 77.5854 83.5016 77.421 83.7868C77.2565 84.0719 77.0222 84.3105 76.7401 84.4802C76.4483 84.6377 76.1218 84.7202 75.7901 84.7202V84.7202Z" fill="white"/>
<path fill-rule="evenodd" clip-rule="evenodd" d="M135.08 48.6101L128.69 44.9201V32.2401L128.66 31.7301L128.61 31.2401L128.48 30.8001L128.34 30.4201L128.14 30.0601L127.92 29.7601L127.65 29.5201L127.36 29.3101L133.75 33.0101L134.06 33.2101L134.31 33.4601L134.54 33.7601L134.73 34.1101L134.89 34.4901L135 34.9401L135.06 35.4201L135.08 35.9401V48.6101Z" fill="#6FA3C6"/>
<path fill-rule="evenodd" clip-rule="evenodd" d="M130.58 43.8401L133.21 45.3501L133.15 35.2001L134.73 34.1101L132.89 34.6901L130.58 33.3401V43.8401ZM135.08 50.5001C134.75 50.4923 134.427 50.403 134.14 50.2401L127.74 46.5301C127.455 46.3682 127.219 46.1341 127.054 45.8514C126.889 45.5687 126.801 45.2475 126.8 44.9201L126.74 31.5101L127.04 31.3001L126.42 30.9501C126.032 30.6636 125.761 30.2469 125.657 29.7766C125.552 29.3062 125.621 28.8139 125.85 28.3901C126.081 27.9798 126.465 27.6773 126.918 27.5481C127.371 27.4189 127.857 27.4735 128.27 27.7001L134.69 31.4001L135.1 31.6801C135.18 31.7701 135.74 32.2801 135.81 32.3501C135.88 32.4201 136.13 32.7901 136.16 32.8501C136.19 32.9101 136.44 33.3601 136.48 33.4601C136.52 33.5601 136.67 33.9901 136.69 34.0501C136.71 34.1101 136.83 34.6301 136.84 34.6901L136.96 35.8801V48.6301C136.961 48.9606 136.875 49.2856 136.71 49.572C136.545 49.8583 136.307 50.0957 136.02 50.2601C135.731 50.416 135.408 50.4985 135.08 50.5001Z" fill="white"/>
<path fill-rule="evenodd" clip-rule="evenodd" d="M84.0701 65.3801V78.0601L75.79 82.8501V69.0001C75.79 61.5101 81.0901 52.3501 87.5701 48.6101L131.57 23.2301C138.06 19.4801 143.35 22.5401 143.35 30.0201V43.8901L135.12 48.6401V35.9301C135.12 33.0601 133.12 31.9301 130.6 33.3301L88.65 57.5501C87.3235 58.4018 86.2171 59.5551 85.4211 60.9159C84.6252 62.2767 84.1622 63.8063 84.0701 65.3801V65.3801Z" fill="#6FA3C6"/>
<path fill-rule="evenodd" clip-rule="evenodd" d="M136.77 23.47C135.248 23.5449 133.771 24.0098 132.48 24.82L88.4801 50.21C82.6101 53.6 77.6601 62.21 77.6601 68.97V79.59L82.2001 77V65.38C82.2907 63.4811 82.8345 61.6314 83.7861 59.9856C84.7378 58.3399 86.0695 56.9458 87.6701 55.92L129.67 31.7C130.391 31.1517 131.257 30.8283 132.161 30.7703C133.064 30.7123 133.965 30.9223 134.75 31.374C135.535 31.8257 136.169 32.4989 136.573 33.3094C136.977 34.1198 137.132 35.0315 137.02 35.93V45.35L141.49 42.78V30C141.49 27.07 140.6 24.95 138.97 24C138.316 23.6279 137.573 23.4412 136.82 23.46L136.77 23.47ZM75.7701 84.72C75.2733 84.72 74.7966 84.5233 74.4443 84.1729C74.092 83.8225 73.8928 83.3469 73.8901 82.85V69C73.8901 60.9 79.6101 51 86.6101 47L130.61 21.61C134.35 19.45 137.96 19.17 140.8 20.8C143.64 22.43 145.2 25.72 145.2 30.04V43.91C145.197 44.2395 145.108 44.5626 144.943 44.8481C144.779 45.1335 144.544 45.3718 144.26 45.54L136 50.24C135.717 50.4071 135.394 50.4953 135.065 50.4953C134.736 50.4953 134.413 50.4071 134.13 50.24C133.832 50.0843 133.581 49.8504 133.405 49.5634C133.228 49.2763 133.134 48.9468 133.13 48.61V35.93C133.158 35.7004 133.139 35.4675 133.074 35.2456C133.009 35.0237 132.898 34.8176 132.75 34.64C132.56 34.53 132.08 34.58 131.42 34.94L89.4201 59.18C88.3914 59.8733 87.5342 60.7921 86.9139 61.8664C86.2935 62.9408 85.9263 64.1424 85.8401 65.38V78.06C85.8381 78.3958 85.7438 78.7246 85.5674 79.0103C85.391 79.296 85.1394 79.5277 84.8401 79.68L76.5701 84.48C76.3294 84.6128 76.0639 84.6945 75.7901 84.72H75.7701Z" fill="white"/>
<path fill-rule="evenodd" clip-rule="evenodd" d="M5.53995 102.4C3.49048 105.849 2.3451 109.76 2.20996 113.77V220.21C2.35996 223.47 2.86995 225.89 5.66995 227.83L41.1499 248.33C38.3499 246.38 37.84 243.97 37.7 240.71V210.09C37.82 211.21 38.15 211.23 39.03 211.72L41.03 212.91C40.8468 212.773 40.7006 212.592 40.6046 212.384C40.5086 212.177 40.4658 211.948 40.4799 211.72V135.89C40.6223 131.881 41.7672 127.972 43.81 124.52L5.53995 102.4Z" fill="#6FA3C6"/>
<path fill-rule="evenodd" clip-rule="evenodd" d="M6.29007 105C4.91635 107.735 4.16183 110.74 4.08008 113.8V220.2C4.23008 223.14 4.66008 224.82 6.74008 226.28L36.0001 243.2C35.8901 242.4 35.8201 241.59 35.7901 240.79V210.09C35.7952 209.761 35.886 209.439 36.0535 209.156C36.2211 208.874 36.4595 208.639 36.7453 208.477C37.0311 208.314 37.3543 208.229 37.6831 208.229C38.0119 208.23 38.3348 208.316 38.6201 208.48V135.89C38.7205 132.186 39.6463 128.551 41.3301 125.25L6.29007 105ZM41.1501 250.2C40.8249 250.202 40.5058 250.112 40.2301 249.94L4.72008 229.45C0.910078 226.83 0.470078 223.45 0.330078 220.29V113.77C0.462472 109.442 1.68709 105.218 3.89008 101.49C4.13781 101.056 4.54639 100.737 5.02737 100.603C5.50836 100.468 6.02306 100.528 6.46008 100.77L44.7801 122.89C44.9944 123.01 45.1828 123.172 45.3342 123.366C45.4856 123.56 45.5971 123.782 45.6622 124.019C45.7273 124.256 45.7447 124.504 45.7134 124.748C45.6822 124.992 45.6029 125.227 45.4801 125.44C43.5843 128.617 42.5246 132.222 42.4001 135.92V211.72C42.7493 212.003 42.9749 212.41 43.029 212.856C43.0831 213.302 42.9616 213.752 42.6901 214.11C42.3838 214.477 41.9562 214.722 41.4847 214.801C41.0133 214.88 40.5291 214.787 40.1201 214.54L39.5901 214.22V240.71C39.7101 243.64 40.1501 245.34 42.2301 246.78C42.5577 247.009 42.8036 247.337 42.9321 247.716C43.0606 248.095 43.0649 248.505 42.9445 248.886C42.824 249.267 42.5851 249.6 42.2624 249.837C41.9397 250.073 41.55 250.2 41.1501 250.2V250.2Z" fill="white"/>
</svg>
