<?xml version="1.0" encoding="UTF-8" standalone="no"?>
<!DOCTYPE svg PUBLIC "-//W3C//DTD SVG 1.1//EN" "http://www.w3.org/Graphics/SVG/1.1/DTD/svg11.dtd">
<svg version="1.1" xmlns="http://www.w3.org/2000/svg" xmlns:xlink="http://www.w3.org/1999/xlink" preserveAspectRatio="none" viewBox="0 0 1920 1080" width="1920" height="1080"><defs><path d="M581.77 0L0 0L0 1080L1636.57 1080L581.77 0Z" id="c28pnVVnax"></path><path d="M581.77 0L0 0L0 1080L1636.57 1080L581.77 0Z" id="g49MNd2B3I"></path><linearGradient id="gradientd3GYblUxWe" gradientUnits="userSpaceOnUse" x1="0" y1="916.37" x2="1482" y2="916.37"><stop style="stop-color: #424457;stop-opacity: 1" offset="0%"></stop><stop style="stop-color: #1b8fca;stop-opacity: 1" offset="100%"></stop></linearGradient><path d="M524.06 728.18L0 728.18L0 0L1031.19 0L524.06 728.18Z" id="b4EjuzG0bN"></path><path d="M524.06 728.18L0 728.18L0 0L1031.19 0L524.06 728.18Z" id="b19LfqeSkT"></path><linearGradient id="gradienteMIiiXdfQ" gradientUnits="userSpaceOnUse" x1="1031.19" y1="372.18" x2="0" y2="378.18"><stop style="stop-color: #1b8fca;stop-opacity: 1" offset="0%"></stop><stop style="stop-color: #424457;stop-opacity: 1" offset="100%"></stop></linearGradient><path d="M1233.83 654.37L1487.38 916.37L1436.38 916.37L1188.38 654.37L1233.83 654.37Z" id="abrLZK9Wu"></path><path d="M1233.83 654.37L1487.38 916.37L1436.38 916.37L1188.38 654.37L1233.83 654.37Z" id="a3YlBpHTT"></path></defs><g><g><g><use xlink:href="#c28pnVVnax" opacity="1" fill="#ffffff" fill-opacity="1"></use><g><use xlink:href="#c28pnVVnax" opacity="1" fill-opacity="0" stroke="#000000" stroke-width="1" stroke-opacity="0"></use></g></g><g><use xlink:href="#g49MNd2B3I" opacity="1" fill="url(#gradientd3GYblUxWe)"></use><g><use xlink:href="#g49MNd2B3I" opacity="1" fill-opacity="0" stroke="#000000" stroke-width="0" stroke-opacity="1"></use></g></g><g><use xlink:href="#b4EjuzG0bN" opacity="1" fill="#1b8fca" fill-opacity="1"></use><g><use xlink:href="#b4EjuzG0bN" opacity="1" fill-opacity="0" stroke="#000000" stroke-width="1" stroke-opacity="0"></use></g></g><g><use xlink:href="#b19LfqeSkT" opacity="1" fill="url(#gradienteMIiiXdfQ)"></use><g><use xlink:href="#b19LfqeSkT" opacity="1" fill-opacity="0" stroke="#000000" stroke-width="0" stroke-opacity="1"></use></g></g><g><use xlink:href="#abrLZK9Wu" opacity="1" fill="#424457" fill-opacity="1"></use><g><use xlink:href="#abrLZK9Wu" opacity="1" fill-opacity="0" stroke="#000000" stroke-width="1" stroke-opacity="0"></use></g></g><g><use xlink:href="#a3YlBpHTT" opacity="1" fill="#000000" fill-opacity="0"></use><g><use xlink:href="#a3YlBpHTT" opacity="1" fill-opacity="0" stroke="#000000" stroke-width="0" stroke-opacity="1"></use></g></g></g></g></svg>