<svg width="366" height="398" viewBox="0 0 366 398" fill="none" xmlns="http://www.w3.org/2000/svg">
<path fill-rule="evenodd" clip-rule="evenodd" d="M10.1688 287L1.72539 281.293C0.520759 279.226 -0.0745931 276.864 0.00747137 274.477V138.773C0.270145 133.85 1.70026 129.059 4.18097 124.791C6.66169 120.523 10.1226 116.899 14.2808 114.216L206.505 3.94101C209.74 2.12338 213.103 1.16002 216.575 2.95947L225 8.68501C221.546 6.86739 218.165 7.88525 214.93 9.66652L22.779 119.924C18.6282 122.621 15.1723 126.249 12.6899 130.518C10.2075 134.786 8.76803 139.575 8.48741 144.498V280.202C8.3816 282.581 8.96519 284.941 10.1688 287V287Z" fill="white"/>
<path fill-rule="evenodd" clip-rule="evenodd" d="M6.57879 280.637L8.40977 281.912C8.42778 281.773 8.42778 281.632 8.40977 281.493V145.493C8.70281 140.095 10.2693 134.84 12.9825 130.156C15.6958 125.471 19.4796 121.487 24.0281 118.526L216.647 8.03586C217.505 7.54912 218.398 7.12909 219.321 6.77949L218.131 5.97831C216.3 5.04967 214.139 5.30457 210.916 7.07081L18.4618 117.524C14.7196 119.986 11.6104 123.286 9.38432 127.16C7.15827 131.035 5.87748 135.374 5.64497 139.83V275.703C5.58951 277.411 5.96066 279.107 6.72524 280.637H6.57879ZM12.9506 290.998C12.3876 290.998 11.8383 290.826 11.376 290.507L2.95342 284.771C2.59919 284.568 2.30787 284.272 2.11118 283.915C0.657935 281.451 -0.0715654 278.631 0.00553664 275.776V139.757C0.26775 134.357 1.82152 129.096 4.53782 124.412C7.25412 119.729 11.0546 115.757 15.6238 112.827L208.316 2.30015C211.447 0.606748 216.098 -1.34157 221.133 1.28047L229.849 7.16186C230.412 7.56464 230.803 8.16344 230.943 8.83936C231.083 9.51527 230.963 10.2189 230.605 10.8104C230.248 11.402 229.68 11.8383 229.014 12.0327C228.348 12.2271 227.633 12.1653 227.011 11.8597C224.96 10.7854 222.726 11.0403 219.522 12.8065L26.9393 123.26C23.175 125.706 20.0441 129.001 17.8011 132.877C15.5582 136.753 14.2664 141.1 14.0309 145.566V281.421C13.9494 283.333 14.4195 285.228 15.3858 286.883C15.7024 287.416 15.8259 288.041 15.736 288.654C15.6461 289.267 15.3481 289.831 14.8914 290.252C14.6358 290.501 14.3319 290.695 13.9982 290.823C13.6645 290.952 13.3081 291.011 12.9506 290.998V290.998Z" fill="#424457"/>
<path fill-rule="evenodd" clip-rule="evenodd" d="M26.277 120.304L217.796 9.92732C225.626 5.41175 232 9.10797 232 18.1209V154.08C232 163.093 225.59 174.109 217.778 178.697L26.2041 289.074C18.3737 293.589 11.9818 289.893 12 280.844V144.921C12.0547 135.908 18.4465 124.801 26.277 120.304Z" fill="white"/>
<path fill-rule="evenodd" clip-rule="evenodd" d="M223.424 10.4895C221.665 10.5701 219.958 11.1109 218.474 12.0577L26.3569 122.687C19.3612 126.68 13.4797 136.909 13.4797 144.951V281.072C13.4797 284.39 14.5025 286.888 16.2926 287.91C18.0826 288.931 20.7311 288.584 23.5988 286.943L215.716 176.296C222.694 172.284 228.612 162.073 228.612 154.032V17.8745C228.612 14.5923 227.571 12.0942 225.799 11.0731C225.08 10.6699 224.266 10.4682 223.442 10.4895H223.424ZM18.5758 294C16.7897 294.009 15.0325 293.55 13.4797 292.669C9.82656 290.59 8 286.469 8 281.072V144.951C8 135.013 15.014 122.887 23.6171 117.927L215.734 7.29851C220.429 4.61803 224.959 4.27159 228.52 6.31385C232.082 8.35612 234 12.5136 234 17.8745V154.032C233.732 159.454 232.171 164.735 229.449 169.434C226.726 174.134 222.92 178.118 218.346 181.055L26.2838 291.684C23.9624 293.117 21.3041 293.916 18.5758 294V294Z" fill="#424457"/>
<path fill-rule="evenodd" clip-rule="evenodd" d="M25.5741 129.975L76.3178 100.693L216.463 19.8947C220.125 17.8084 223 19.4921 223 23.683V156.713C222.877 158.979 222.223 161.185 221.09 163.153C219.958 165.12 218.379 166.795 216.481 168.041L58.2618 259.235L25.5192 278.121C21.8567 280.171 19 278.524 19 274.333V141.303C19.1293 139.032 19.7918 136.823 20.9339 134.855C22.076 132.887 23.6656 131.215 25.5741 129.975Z" fill="white"/>
<path fill-rule="evenodd" clip-rule="evenodd" d="M219.61 22.6538C219.071 22.7005 218.552 22.8758 218.095 23.1651L27.6652 132.973C26.1873 133.97 24.9556 135.291 24.0634 136.835C23.1711 138.378 22.6417 140.105 22.515 141.883V274.605C22.515 275.683 22.789 276.303 23.0447 276.431C23.3628 276.489 23.6897 276.481 24.0042 276.405C24.3187 276.33 24.6139 276.189 24.871 275.993L215.264 166.185C216.735 165.184 217.96 163.861 218.845 162.318C219.731 160.775 220.255 159.05 220.377 157.275V24.5527C220.377 23.512 220.103 22.8547 219.848 22.7268C219.734 22.6997 219.615 22.6997 219.501 22.7268L219.61 22.6538ZM23.3551 281.927C22.2811 281.94 21.2227 281.669 20.2869 281.142C19.2045 280.429 18.3313 279.441 17.7568 278.28C17.1823 277.118 16.9273 275.825 17.0179 274.532V141.81C17.1507 139.063 17.9396 136.388 19.3186 134.009C20.6976 131.63 22.6265 129.615 24.944 128.134L215.319 18.3448C216.365 17.5554 217.621 17.0919 218.929 17.0123C220.237 16.9327 221.54 17.2404 222.674 17.8971C223.809 18.5537 224.724 19.5301 225.306 20.7042C225.889 21.8782 226.112 23.1978 225.948 24.4979V157.22C225.815 159.965 225.029 162.638 223.653 165.017C222.277 167.396 220.353 169.412 218.04 170.896L27.5922 280.758C26.3023 281.542 24.8278 281.971 23.3186 282L23.3551 281.927Z" fill="#424457"/>
<path fill-rule="evenodd" clip-rule="evenodd" d="M54 148.115L188 72V162.885L54 239V148.115Z" fill="white"/>
<path fill-rule="evenodd" clip-rule="evenodd" d="M57.4966 149.202V233.474L184.485 160.763V76.491L57.4966 149.202ZM54.7667 241C54.2775 241.009 53.7954 240.883 53.3742 240.636C52.9535 240.395 52.6046 240.048 52.3632 239.629C52.1218 239.211 51.9965 238.737 52.0001 238.255V147.621C51.9998 147.142 52.1266 146.671 52.3678 146.256C52.609 145.841 52.9562 145.497 53.3742 145.257L185.878 69.3654C186.297 69.1252 186.773 68.9991 187.257 69C187.741 69.0009 188.216 69.1286 188.635 69.3703C189.053 69.612 189.4 69.959 189.639 70.3763C189.879 70.7936 190.003 71.2663 190 71.7466V162.344C190 162.823 189.873 163.294 189.632 163.709C189.391 164.124 189.044 164.468 188.626 164.708L56.1225 240.6C55.7164 240.855 55.2471 240.993 54.7667 241V241Z" fill="#424457"/>
<path fill-rule="evenodd" clip-rule="evenodd" d="M54 147L188 71.0781V58L54 133.94V147Z" fill="white"/>
<path fill-rule="evenodd" clip-rule="evenodd" d="M57.4966 135.676V142.445L184.485 69.2707V62.5021L57.4966 135.676ZM54.7667 150C54.0375 149.995 53.3394 149.705 52.8221 149.192C52.3048 148.679 52.0097 147.984 52.0001 147.256V134.121C51.9965 133.636 52.1218 133.159 52.3632 132.738C52.6046 132.317 52.9535 131.967 53.3742 131.725L185.878 55.3676C186.296 55.1267 186.77 54.9999 187.252 55C187.735 55.0001 188.209 55.127 188.627 55.3681C189.044 55.6091 189.391 55.9558 189.632 56.3732C189.874 56.7905 190 57.264 190 57.7458V70.8988C189.998 71.3804 189.871 71.8533 189.63 72.2704C189.389 72.6876 189.043 73.0346 188.626 73.277L56.1225 149.616C55.7142 149.865 55.2453 149.998 54.7667 150V150Z" fill="#424457"/>
<path fill-rule="evenodd" clip-rule="evenodd" d="M88.5 149.42C89.9045 148.436 91 149.245 91 151.179C90.9518 152.261 90.7003 153.314 90.2659 154.252C89.8315 155.19 89.2265 155.986 88.5 156.576C87.0955 157.561 86 156.77 86 154.818C86.0569 153.738 86.3121 152.689 86.7457 151.753C87.1793 150.817 87.7796 150.019 88.5 149.42Z" fill="white"/>
<path fill-rule="evenodd" clip-rule="evenodd" d="M87.1762 161C86.4716 161.007 85.7772 160.816 85.1586 160.445C84.4631 159.967 83.8967 159.293 83.5182 158.493C83.1398 157.693 82.963 156.796 83.0064 155.895C83.0614 154.271 83.4781 152.686 84.2197 151.28C84.9614 149.874 86.0054 148.69 87.2602 147.831C87.9313 147.324 88.7192 147.037 89.5325 147.003C90.3458 146.969 91.1512 147.19 91.8553 147.639C92.5593 148.088 93.1332 148.748 93.5102 149.541C93.8873 150.335 94.0521 151.23 93.9856 152.122C93.9247 153.747 93.5057 155.332 92.7647 156.74C92.0238 158.148 90.9829 159.337 89.7318 160.205C88.9549 160.703 88.0755 160.977 87.1762 161V161Z" fill="#424457"/>
<path fill-rule="evenodd" clip-rule="evenodd" d="M88.5 169.431C89.9045 168.43 91 169.238 91 171.187C90.9574 172.27 90.7082 173.325 90.2733 174.263C89.8384 175.201 89.2304 175.996 88.5 176.58V176.58C87.0955 177.564 86 176.756 86 174.823C86.0482 173.742 86.2997 172.69 86.7341 171.753C87.1685 170.816 87.7735 170.021 88.5 169.431Z" fill="white"/>
<path fill-rule="evenodd" clip-rule="evenodd" d="M87.1784 180C86.4693 180.008 85.7716 179.804 85.1603 179.409C84.4622 178.939 83.8933 178.27 83.5143 177.473C83.1352 176.676 82.9601 175.781 83.0076 174.884C83.0645 173.257 83.4817 171.67 84.2231 170.261C84.9645 168.851 86.0078 167.661 87.2625 166.794C87.9376 166.302 88.7248 166.028 89.5347 166.002C90.3446 165.976 91.1449 166.2 91.845 166.648C92.5452 167.095 93.1171 167.75 93.4961 168.536C93.8751 169.323 94.046 170.21 93.9894 171.098C93.9312 172.724 93.5134 174.31 92.7721 175.72C92.0308 177.129 90.9883 178.319 89.7346 179.187C88.9615 179.698 88.0803 179.978 87.1784 180V180Z" fill="#424457"/>
<path fill-rule="evenodd" clip-rule="evenodd" d="M88.5 191.373C89.9045 190.512 91 191.189 91 192.911C90.9518 193.858 90.7003 194.779 90.2659 195.599C89.8315 196.42 89.2265 197.116 88.5 197.632C87.0955 198.493 86 197.786 86 196.094C86.0493 195.148 86.3013 194.227 86.7356 193.407C87.1699 192.587 87.7743 191.89 88.5 191.373V191.373Z" fill="white"/>
<path fill-rule="evenodd" clip-rule="evenodd" d="M87.177 201C86.4695 200.995 85.7748 200.806 85.1589 200.451C84.4647 200.015 83.8985 199.396 83.5197 198.66C83.1409 197.923 82.9636 197.096 83.0062 196.266C83.0573 194.754 83.472 193.278 84.214 191.968C84.956 190.658 86.0024 189.554 87.2611 188.753C87.9338 188.291 88.7206 188.031 89.5314 188.003C90.3423 187.975 91.1445 188.18 91.8463 188.595C92.5482 189.01 93.1213 189.618 93.5 190.35C93.8788 191.082 94.048 191.908 93.9883 192.733C93.9328 194.235 93.5215 195.702 92.7893 197.007C92.0571 198.313 91.0259 199.418 89.7838 200.228C88.9973 200.716 88.0977 200.983 87.177 201V201Z" fill="#424457"/>
<path fill-rule="evenodd" clip-rule="evenodd" d="M363 261V271.345C362.543 272.759 361.807 274.067 360.835 275.192C359.863 276.317 358.675 277.237 357.34 277.897L165.171 388.606C161.077 390.772 156.52 391.923 151.886 391.964C146.603 392.226 141.347 391.059 136.673 388.588L18.6777 320.529C17.3443 319.861 16.1564 318.936 15.1821 317.809C14.2078 316.681 13.4662 315.373 13 313.959V303.614C13.9476 306.462 15.9896 308.818 18.6777 310.166L136.673 378.171C141.347 380.642 146.603 381.808 151.886 381.546C156.522 381.515 161.08 380.363 165.171 378.189L357.34 267.479C358.667 266.827 359.85 265.918 360.822 264.806C361.793 263.693 362.534 262.4 363 261V261Z" fill="white"/>
<path fill-rule="evenodd" clip-rule="evenodd" d="M14.501 313.542C15.2989 315.595 16.8647 317.26 18.8689 318.187L137.315 386.479C141.585 388.701 146.374 389.745 151.186 389.502C155.388 389.475 159.521 388.431 163.23 386.46L356.186 275.343C358.158 274.392 359.702 272.742 360.517 270.716V268.675C360.006 269.022 359.494 269.349 358.964 269.641L165.935 380.759C161.432 383.157 156.418 384.444 151.314 384.511C145.499 384.829 139.709 383.529 134.592 380.759L16.0362 312.43C15.5245 312.102 14.9945 311.775 14.4828 311.41V313.469L14.501 313.542ZM150.656 394.985C145.07 395.154 139.537 393.86 134.61 391.233L16.0545 322.886C12.7379 321.187 10.2335 318.246 9.09137 314.707C9.03288 314.456 9.00226 314.2 9.00001 313.942V303.559C8.99791 302.899 9.23547 302.261 9.66882 301.762C10.1022 301.263 10.702 300.937 11.3576 300.845C12.0104 300.761 12.6719 300.911 13.2242 301.268C13.7765 301.625 14.1836 302.166 14.3731 302.794C14.7447 303.888 15.3346 304.896 16.1072 305.757C16.8799 306.618 17.8193 307.314 18.8689 307.803L137.315 376.059C141.565 378.339 146.368 379.392 151.186 379.101C155.39 379.089 159.527 378.044 163.23 376.059L356.186 264.941C357.223 264.46 358.151 263.772 358.911 262.92C359.672 262.067 360.249 261.069 360.609 259.986C360.805 259.357 361.215 258.816 361.769 258.457C362.323 258.098 362.986 257.943 363.642 258.019C364.298 258.119 364.896 258.45 365.328 258.951C365.761 259.452 365.999 260.09 366 260.751V271.135C366.001 271.394 365.964 271.651 365.89 271.9C364.754 275.426 362.264 278.36 358.964 280.06L166.008 391.178C161.512 393.594 156.494 394.882 151.387 394.931L150.656 394.985Z" fill="#424457"/>
<path fill-rule="evenodd" clip-rule="evenodd" d="M14.8924 299.224L207.368 187.423C215.242 182.859 228.094 182.859 235.932 187.423L354.108 256.171C361.964 260.753 361.964 268.213 354.108 272.776L161.614 384.577C153.776 389.141 140.925 389.141 133.068 384.577L14.8924 315.847C7.03587 311.265 7.03587 303.787 14.8924 299.224Z" fill="white"/>
<path fill-rule="evenodd" clip-rule="evenodd" d="M19.0561 295.069C16.1907 296.751 14.5299 298.891 14.5299 300.976C14.5299 303.061 16.1725 305.201 19.0561 306.866L137.393 375.453C144.401 379.531 156.228 379.531 163.254 375.453L355.962 263.884C358.846 262.22 360.488 260.08 360.488 257.995C360.488 255.91 358.846 253.752 355.944 252.069L237.607 183.482C230.635 179.422 218.791 179.422 211.782 183.482L19.0561 295.05V295.069ZM150.314 383.994C144.854 384.098 139.457 382.801 134.637 380.226L16.3002 311.639C11.6098 308.896 9 305.146 9 300.976C9 296.806 11.5916 293.02 16.3002 290.313L209.027 178.745C217.696 173.752 231.73 173.752 240.363 178.745L358.7 247.369C363.39 250.076 366 253.862 366 258.032C366 262.202 363.408 265.951 358.7 268.676L165.973 380.245C161.156 382.807 155.767 384.098 150.314 383.994V383.994Z" fill="#424457"/>
<path fill-rule="evenodd" clip-rule="evenodd" d="M224.885 332L277 301.984L237.097 279L185 308.998L224.885 332Z" fill="white"/>
<path fill-rule="evenodd" clip-rule="evenodd" d="M189.268 309.042L224.303 329.01L271.75 301.781L236.715 281.813L189.268 309.042ZM224.303 335C223.818 335 223.343 334.869 222.928 334.619L182.375 311.365C181.954 311.129 181.605 310.786 181.363 310.371C181.121 309.956 180.996 309.485 181 309.006C181.007 308.531 181.137 308.066 181.377 307.656C181.618 307.246 181.962 306.904 182.375 306.664L235.322 276.367C235.743 276.127 236.22 276 236.706 276C237.192 276 237.669 276.127 238.09 276.367L278.643 299.584C279.057 299.827 279.4 300.172 279.638 300.586C279.875 301 280 301.468 280 301.944C280 302.423 279.875 302.893 279.637 303.31C279.4 303.726 279.057 304.075 278.643 304.322L225.697 334.601C225.274 334.844 224.792 334.969 224.303 334.964V335Z" fill="#424457"/>
<path fill-rule="evenodd" clip-rule="evenodd" d="M42.1471 297.554C100.655 263.662 159.164 229.752 217.672 195.823C220.046 194.624 222.666 194 225.324 194C227.981 194 230.602 194.624 232.976 195.823L292.873 230.571C297.042 233.011 297.042 236.993 292.873 239.433L117.349 341.164C114.981 342.371 112.362 343 109.706 343C107.05 343 104.431 342.371 102.063 341.164L42.1471 306.434C37.9418 303.994 37.9601 299.994 42.1471 297.554Z" fill="white"/>
<path fill-rule="evenodd" clip-rule="evenodd" d="M41.9777 296.956L43.3457 299.351C42.2513 299.973 41.5217 300.778 41.5217 301.381C41.5217 301.985 42.1966 302.789 43.3457 303.448L103.028 337.992C104.975 338.94 107.111 339.433 109.276 339.433C111.44 339.433 113.576 338.94 115.523 337.992L290.631 236.589C291.726 235.949 292.455 235.163 292.455 234.541C292.455 233.919 291.78 233.151 290.631 232.511L230.949 197.894C229.002 196.946 226.866 196.453 224.701 196.453C222.537 196.453 220.401 196.946 218.454 197.894L43.3457 299.296L41.9777 296.901V296.956ZM109.285 344.996C106.141 345.055 103.035 344.293 100.274 342.783L40.5914 308.184C39.2363 307.642 38.0744 306.705 37.256 305.493C36.4375 304.282 36 302.853 36 301.39C36 299.927 36.4375 298.498 37.256 297.287C38.0744 296.076 39.2363 295.139 40.5914 294.597L215.7 193.194C218.479 191.752 221.563 191 224.692 191C227.821 191 230.905 191.752 233.685 193.194L293.386 227.793C294.747 228.332 295.914 229.27 296.737 230.483C297.56 231.696 298 233.129 298 234.596C298 236.063 297.56 237.496 296.737 238.71C295.914 239.923 294.747 240.86 293.386 241.399L118.277 342.783C115.525 344.298 112.424 345.061 109.285 344.996V344.996Z" fill="#424457"/>
<path fill-rule="evenodd" clip-rule="evenodd" d="M118.296 288.056L126.857 282.796C127.827 282.273 128.899 282 129.986 282C131.074 282 132.146 282.273 133.115 282.796L141.676 288.056C142.061 288.187 142.396 288.444 142.634 288.79C142.872 289.137 143 289.555 143 289.983C143 290.412 142.872 290.83 142.634 291.176C142.396 291.522 142.061 291.78 141.676 291.91L133.115 297.19C132.151 297.722 131.081 298 129.995 298C128.909 298 127.839 297.722 126.876 297.19L118.296 291.891C117.918 291.756 117.59 291.498 117.358 291.154C117.125 290.81 117 290.397 117 289.974C117 289.55 117.125 289.137 117.358 288.793C117.59 288.449 117.918 288.192 118.296 288.056V288.056Z" fill="white"/>
<path fill-rule="evenodd" clip-rule="evenodd" d="M121.25 289.513L128.754 294.001C129.315 294.273 129.927 294.414 130.545 294.414C131.164 294.414 131.775 294.273 132.336 294.001L139.822 289.513L132.336 285.006C131.775 284.734 131.164 284.594 130.545 284.594C129.927 284.594 129.315 284.734 128.754 285.006L121.25 289.513ZM130.492 299.998C128.941 300.026 127.411 299.634 126.05 298.862L117.615 293.759C116.85 293.365 116.202 292.761 115.742 292.013C115.281 291.265 115.025 290.401 115 289.513C115.023 288.617 115.278 287.745 115.738 286.988C116.198 286.23 116.847 285.616 117.615 285.211V285.211L126.086 280.145C127.452 279.393 128.973 279 130.518 279C132.064 279 133.585 279.393 134.951 280.145L143.386 285.211C144.168 285.595 144.829 286.203 145.292 286.963C145.754 287.723 146 288.604 146 289.504C146 290.403 145.754 291.284 145.292 292.044C144.829 292.804 144.168 293.412 143.386 293.797L134.915 298.862C133.561 299.636 132.036 300.028 130.492 299.998V299.998Z" fill="#424457"/>
<path fill-rule="evenodd" clip-rule="evenodd" d="M84.4508 307.748L76.2379 312.684C75.876 312.816 75.5626 313.062 75.3408 313.387C75.1191 313.712 75 314.101 75 314.499C75 314.898 75.1191 315.286 75.3408 315.611C75.5626 315.936 75.876 316.182 76.2379 316.314L84.4857 321.251C85.4197 321.743 86.4525 322 87.5 322C88.5475 322 89.5803 321.743 90.5143 321.251L98.7621 316.314C99.124 316.182 99.4374 315.936 99.6591 315.611C99.8809 315.286 100 314.898 100 314.499C100 314.101 99.8809 313.712 99.6591 313.387C99.4374 313.062 99.124 312.816 98.7621 312.684L90.5143 307.748C89.5737 307.256 88.5354 307 87.4825 307C86.4296 307 85.3913 307.256 84.4508 307.748V307.748Z" fill="white"/>
<path fill-rule="evenodd" clip-rule="evenodd" d="M78.3734 313.987L86.0915 318.282C86.6528 318.527 87.262 318.654 87.8782 318.654C88.4945 318.654 89.1037 318.527 89.665 318.282L97.3831 313.987L89.665 309.692C89.1037 309.447 88.4945 309.32 87.8782 309.32C87.262 309.32 86.6528 309.447 86.0915 309.692L78.3734 313.987ZM87.8782 323.996C86.2909 324.013 84.7252 323.64 83.3284 322.914L74.6894 318.104C73.907 317.713 73.246 317.129 72.7736 316.413C72.3012 315.696 72.0343 314.871 72 314.022C72.0304 313.171 72.2978 312.343 72.7741 311.624C73.2504 310.906 73.9183 310.325 74.7078 309.941L83.4021 305.096C84.8222 304.376 86.4026 304 88.0072 304C89.6117 304 91.1921 304.376 92.6122 305.096L101.307 309.941C102.112 310.304 102.793 310.881 103.27 311.604C103.747 312.327 104 313.166 104 314.022C104 314.879 103.747 315.718 103.27 316.441C102.793 317.164 102.112 317.741 101.307 318.104L92.6122 322.949C91.1789 323.681 89.5732 324.041 87.9519 323.996H87.8782Z" fill="#424457"/>
<path fill-rule="evenodd" clip-rule="evenodd" d="M105.433 319.744L96.3997 324.694C95.9933 324.817 95.6387 325.059 95.3871 325.385C95.1356 325.711 95 326.104 95 326.507C95 326.91 95.1356 327.303 95.3871 327.629C95.6387 327.955 95.9933 328.197 96.3997 328.32L105.433 333.252C106.454 333.744 107.585 334 108.731 334C109.878 334 111.008 333.744 112.03 333.252L121.082 328.338C121.591 328.338 122.079 328.147 122.438 327.807C122.798 327.467 123 327.006 123 326.525C123 326.044 122.798 325.583 122.438 325.243C122.079 324.903 121.591 324.712 121.082 324.712L112.049 319.744C111.023 319.255 109.89 319 108.741 319C107.592 319 106.459 319.255 105.433 319.744V319.744Z" fill="white"/>
<path fill-rule="evenodd" clip-rule="evenodd" d="M99.4905 325.497L107.22 330.022C107.784 330.279 108.395 330.412 109.014 330.412C109.632 330.412 110.244 330.279 110.807 330.022L118.537 325.534L110.807 321.047C110.244 320.79 109.632 320.657 109.014 320.657C108.395 320.657 107.784 320.79 107.22 321.047L99.4905 325.534V325.497ZM108.995 335.999C107.403 336.023 105.831 335.639 104.428 334.882L95.6998 329.78C94.9069 329.379 94.237 328.769 93.7615 328.014C93.286 327.26 93.0228 326.39 93 325.497C93.0339 324.609 93.3018 323.746 93.7762 322.997C94.2507 322.247 94.9146 321.639 95.6998 321.233L104.428 316.15C105.853 315.395 107.44 315 109.051 315C110.661 315 112.248 315.395 113.674 316.15L122.291 321.233C123.1 321.611 123.785 322.214 124.265 322.971C124.745 323.729 125 324.608 125 325.506C125 326.405 124.745 327.284 124.265 328.041C123.785 328.799 123.1 329.402 122.291 329.78L113.544 334.882C112.14 335.613 110.576 335.978 108.995 335.943V335.999Z" fill="#424457"/>
<path fill-rule="evenodd" clip-rule="evenodd" d="M90.621 297.189L99.1855 291.925C99.6667 291.925 100.128 291.722 100.469 291.36C100.809 290.998 101 290.508 101 289.996C101 289.485 100.809 288.994 100.469 288.633C100.128 288.271 99.6667 288.068 99.1855 288.068L90.621 282.803C89.6556 282.275 88.5856 282 87.5 282C86.4144 282 85.3444 282.275 84.379 282.803L75.8145 288.068C75.3333 288.068 74.8717 288.271 74.5315 288.633C74.1912 288.994 74 289.485 74 289.996C74 290.508 74.1912 290.998 74.5315 291.36C74.8717 291.722 75.3333 291.925 75.8145 291.925L84.3427 297.189C85.3132 297.722 86.3896 298 87.4819 298C88.5741 298 89.6505 297.722 90.621 297.189V297.189Z" fill="white"/>
<path fill-rule="evenodd" clip-rule="evenodd" d="M78.5091 289.491L86.2274 294.018C86.7901 294.275 87.4007 294.408 88.0185 294.408C88.6362 294.408 89.2469 294.275 89.8095 294.018L97.5278 289.528L89.8095 285.001C89.2447 284.751 88.635 284.623 88.0185 284.623C87.402 284.623 86.7922 284.751 86.2274 285.001L78.5091 289.491ZM88.0185 299.998C86.4282 300.028 84.8571 299.643 83.4577 298.881L74.7054 293.776C73.8973 293.397 73.2133 292.794 72.734 292.036C72.2547 291.279 72 290.399 72 289.5C72 288.601 72.2547 287.721 72.734 286.964C73.2133 286.206 73.8973 285.602 74.7054 285.224L83.4392 280.138C84.8486 279.391 86.417 279 88.0092 279C89.6015 279 91.1698 279.391 92.5792 280.138L101.295 285.206C102.103 285.584 102.787 286.187 103.266 286.945C103.745 287.702 104 288.582 104 289.481C104 290.38 103.745 291.26 103.266 292.018C102.787 292.775 102.103 293.379 101.295 293.757L92.5792 298.862C91.1815 299.631 89.6104 300.023 88.0185 299.998V299.998Z" fill="#424457"/>
<path fill-rule="evenodd" clip-rule="evenodd" d="M111.76 284.239L120.629 279.318C121.027 279.195 121.374 278.953 121.621 278.628C121.867 278.303 122 277.911 122 277.508C122 277.105 121.867 276.713 121.621 276.388C121.374 276.063 121.027 275.821 120.629 275.699L111.76 270.741C110.754 270.254 109.645 270 108.519 270C107.393 270 106.283 270.254 105.278 270.741L96.4092 275.699C94.5303 276.658 94.5303 278.286 96.4092 279.318L105.278 284.257C106.283 284.749 107.394 285.003 108.521 285C109.648 284.997 110.758 284.736 111.76 284.239V284.239Z" fill="white"/>
<path fill-rule="evenodd" clip-rule="evenodd" d="M99.4426 276.985L107.148 281.291C107.709 281.536 108.319 281.663 108.935 281.663C109.552 281.663 110.162 281.536 110.723 281.291L118.465 277.003L110.76 272.697C110.18 272.45 109.552 272.323 108.917 272.323C108.282 272.323 107.654 272.45 107.074 272.697L99.3689 276.985H99.4426ZM108.935 286.997C107.352 287.023 105.789 286.65 104.401 285.916L95.7007 281.061C94.8941 280.701 94.2112 280.127 93.7327 279.407C93.2542 278.686 93 277.849 93 276.994C93 276.139 93.2542 275.302 93.7327 274.582C94.2112 273.861 94.8941 273.287 95.7007 272.928L104.401 268.108C105.819 267.381 107.402 267 109.009 267C110.617 267 112.199 267.381 113.617 268.108L122.299 272.928C123.106 273.287 123.789 273.861 124.267 274.582C124.746 275.302 125 276.139 125 276.994C125 277.849 124.746 278.686 124.267 279.407C123.789 280.127 123.106 280.701 122.299 281.061L113.599 285.916C112.171 286.666 110.562 287.039 108.935 286.997Z" fill="#424457"/>
<path fill-rule="evenodd" clip-rule="evenodd" d="M79.1157 303.317L70.2221 308.253C69.2149 308.744 68.1013 309 66.9717 309C65.8422 309 64.7286 308.744 63.7214 308.253L54.8843 303.317C54.3845 303.317 53.9052 303.127 53.5519 302.787C53.1985 302.448 53 301.988 53 301.509C53 301.029 53.1985 300.569 53.5519 300.23C53.9052 299.891 54.3845 299.701 54.8843 299.701L63.8156 294.746C64.8161 294.256 65.9236 294 67.0471 294C68.1706 294 69.2781 294.256 70.2786 294.746L79.1157 299.701C79.6155 299.701 80.0947 299.891 80.4481 300.23C80.8015 300.569 81 301.029 81 301.509C81 301.988 80.8015 302.448 80.4481 302.787C80.0947 303.127 79.6155 303.317 79.1157 303.317Z" fill="white"/>
<path fill-rule="evenodd" clip-rule="evenodd" d="M57.4696 300.977L65.2147 305.288C65.7753 305.542 66.3877 305.674 67.0077 305.674C67.6278 305.674 68.2402 305.542 68.8008 305.288L76.5274 301.013L68.8008 296.702C68.2409 296.457 67.6326 296.33 67.017 296.33C66.4014 296.33 65.793 296.457 65.2332 296.702L57.4696 300.977ZM67.0077 311C65.4092 311.014 63.8327 310.642 62.4235 309.918L53.6988 305.075C52.911 304.683 52.246 304.096 51.7718 303.377C51.2976 302.657 51.0312 301.829 51 300.977C51.0312 300.131 51.3002 299.308 51.7785 298.596C52.2568 297.884 52.9266 297.31 53.7173 296.933L62.442 292.09C63.8515 291.374 65.4222 291 67.017 291C68.6118 291 70.1825 291.374 71.592 292.09L80.3167 296.933C81.1196 297.298 81.7979 297.875 82.2729 298.595C82.7478 299.316 83 300.151 83 301.004C83 301.857 82.7478 302.692 82.2729 303.412C81.7979 304.133 81.1196 304.71 80.3167 305.075L71.592 309.847C70.1806 310.563 68.6045 310.929 67.0077 310.911V311Z" fill="#424457"/>
<path fill-rule="evenodd" clip-rule="evenodd" d="M96.3733 299.678L105.254 294.748C106.26 294.256 107.372 294 108.5 294C109.628 294 110.74 294.256 111.746 294.748L120.627 299.678C121.025 299.801 121.373 300.043 121.62 300.369C121.867 300.695 122 301.088 122 301.491C122 301.894 121.867 302.287 121.62 302.613C121.373 302.939 121.025 303.181 120.627 303.304L111.727 308.252C110.724 308.744 109.616 309 108.491 309C107.366 309 106.257 308.744 105.254 308.252L96.3733 303.304C95.9745 303.181 95.6266 302.939 95.3798 302.613C95.133 302.287 95 301.894 95 301.491C95 301.088 95.133 300.695 95.3798 300.369C95.6266 300.043 95.9745 299.801 96.3733 299.678V299.678Z" fill="white"/>
<path fill-rule="evenodd" clip-rule="evenodd" d="M99.4542 301.007L107.181 305.284C107.741 305.538 108.354 305.67 108.974 305.67C109.594 305.67 110.206 305.538 110.767 305.284L118.549 301.007L110.785 296.712C110.225 296.466 109.617 296.338 109.002 296.338C108.386 296.338 107.778 296.466 107.218 296.712L99.4542 301.007ZM108.992 310.999C107.392 311.025 105.813 310.652 104.408 309.916L95.6833 305.071C94.8804 304.705 94.2021 304.128 93.7271 303.407C93.2522 302.686 93 301.851 93 300.998C93 300.145 93.2522 299.309 93.7271 298.588C94.2021 297.867 94.8804 297.29 95.6833 296.925V296.925L104.445 292.079C105.85 291.37 107.414 291 109.002 291C110.589 291 112.153 291.37 113.558 292.079L122.301 296.942C123.09 297.324 123.757 297.904 124.232 298.619C124.706 299.334 124.972 300.159 125 301.007C124.967 301.856 124.7 302.681 124.226 303.398C123.752 304.116 123.088 304.699 122.301 305.089L113.558 309.881C112.159 310.612 110.585 310.979 108.992 310.945V310.999Z" fill="#424457"/>
<path fill-rule="evenodd" clip-rule="evenodd" d="M161.363 263.672L170.075 258.748C171.064 258.256 172.158 258 173.268 258C174.377 258 175.471 258.256 176.461 258.748L185.154 263.708C185.644 263.708 186.113 263.899 186.459 264.238C186.806 264.578 187 265.038 187 265.518C187 265.998 186.806 266.459 186.459 266.798C186.113 267.138 185.644 267.328 185.154 267.328L176.461 272.252C175.471 272.744 174.377 273 173.268 273C172.158 273 171.064 272.744 170.075 272.252L161.363 267.328C160.967 267.205 160.622 266.961 160.377 266.632C160.132 266.304 160 265.907 160 265.5C160 265.093 160.132 264.696 160.377 264.368C160.622 264.039 160.967 263.795 161.363 263.672V263.672Z" fill="white"/>
<path fill-rule="evenodd" clip-rule="evenodd" d="M163.456 265.004L171.162 269.292C171.724 269.537 172.334 269.664 172.951 269.664C173.567 269.664 174.177 269.537 174.739 269.292L182.445 265.004L174.739 260.716C174.177 260.471 173.567 260.344 172.951 260.344C172.334 260.344 171.724 260.471 171.162 260.716L163.456 265.004ZM172.951 274.998C171.355 275.02 169.781 274.648 168.378 273.917L159.676 269.062C158.876 268.697 158.199 268.121 157.725 267.401C157.251 266.681 157 265.847 157 264.995C157 264.143 157.251 263.309 157.725 262.589C158.199 261.869 158.876 261.293 159.676 260.928L168.397 256.108C169.815 255.381 171.398 255 173.006 255C174.614 255 176.197 255.381 177.615 256.108L186.299 260.946C187.106 261.306 187.789 261.88 188.267 262.6C188.746 263.321 189 264.158 189 265.013C189 265.868 188.746 266.705 188.267 267.425C187.789 268.146 187.106 268.72 186.299 269.08L177.597 273.917C176.17 274.656 174.57 275.028 172.951 274.998V274.998Z" fill="#424457"/>
<path fill-rule="evenodd" clip-rule="evenodd" d="M181.682 275.708L190.638 270.747C191.652 270.256 192.774 270 193.911 270C195.049 270 196.17 270.256 197.184 270.747L206.102 275.708C206.606 275.708 207.088 275.898 207.444 276.238C207.8 276.577 208 277.038 208 277.518C208 277.998 207.8 278.459 207.444 278.798C207.088 279.138 206.606 279.328 206.102 279.328L197.089 284.252C196.072 284.744 194.947 285 193.807 285C192.666 285 191.542 284.744 190.524 284.252L181.587 279.292C181.135 279.221 180.726 278.996 180.435 278.659C180.143 278.323 179.989 277.897 180.001 277.461C180.012 277.024 180.189 276.606 180.498 276.284C180.806 275.962 181.227 275.757 181.682 275.708Z" fill="white"/>
<path fill-rule="evenodd" clip-rule="evenodd" d="M184.439 276.997L192.148 281.306C192.71 281.551 193.32 281.677 193.937 281.677C194.554 281.677 195.164 281.551 195.726 281.306L203.472 277.032L195.744 272.705C195.163 272.46 194.535 272.334 193.9 272.334C193.265 272.334 192.637 272.46 192.056 272.705L184.347 276.997H184.439ZM193.955 286.998C192.352 287.032 190.768 286.659 189.363 285.916L180.677 281.075C179.876 280.71 179.199 280.134 178.725 279.413C178.252 278.693 178 277.858 178 277.005C178 276.153 178.252 275.318 178.725 274.598C179.199 273.877 179.876 273.301 180.677 272.936L189.382 268.095C190.803 267.376 192.386 267 193.992 267C195.599 267 197.181 267.376 198.603 268.095L207.289 272.936C208.082 273.321 208.753 273.905 209.23 274.626C209.707 275.347 209.973 276.178 210 277.032C209.971 277.879 209.703 278.702 209.226 279.414C208.748 280.126 208.079 280.7 207.289 281.075L198.584 285.916C197.166 286.654 195.568 287.015 193.955 286.962V286.998Z" fill="#424457"/>
<path fill-rule="evenodd" clip-rule="evenodd" d="M132.824 272.24L141.224 267.284C141.695 267.284 142.147 267.093 142.48 266.754C142.813 266.415 143 265.955 143 265.475C143 264.995 142.813 264.535 142.48 264.196C142.147 263.857 141.695 263.666 141.224 263.666L132.841 258.747C131.892 258.256 130.843 258 129.778 258C128.713 258 127.664 258.256 126.714 258.747L118.296 263.685C117.92 263.807 117.591 264.049 117.358 264.374C117.126 264.699 117 265.091 117 265.493C117 265.896 117.126 266.288 117.358 266.613C117.591 266.938 117.92 267.179 118.296 267.302L126.697 272.258C127.646 272.749 128.697 273.003 129.762 273C130.827 272.997 131.877 272.736 132.824 272.24Z" fill="white"/>
<path fill-rule="evenodd" clip-rule="evenodd" d="M121.25 264.997L128.75 269.299C129.291 269.544 129.879 269.671 130.473 269.671C131.068 269.671 131.656 269.544 132.196 269.299L139.661 265.015L132.196 260.713C131.65 260.476 131.06 260.354 130.464 260.354C129.868 260.354 129.278 260.476 128.732 260.713L121.232 264.997H121.25ZM130.446 274.999C128.913 275.019 127.4 274.647 126.054 273.919L117.625 269.069C116.861 268.684 116.214 268.104 115.753 267.388C115.291 266.672 115.031 265.846 115 264.997C115.027 264.149 115.285 263.325 115.748 262.611C116.21 261.897 116.859 261.321 117.625 260.943L126.054 256.093C127.43 255.375 128.962 255 130.518 255C132.073 255 133.606 255.375 134.982 256.093L143.411 260.908C144.168 261.298 144.807 261.88 145.262 262.596C145.718 263.311 145.972 264.134 146 264.98C145.971 265.827 145.712 266.651 145.25 267.365C144.788 268.078 144.14 268.655 143.375 269.034L134.964 273.884C133.58 274.635 132.024 275.019 130.446 274.999V274.999Z" fill="#424457"/>
<path fill-rule="evenodd" clip-rule="evenodd" d="M154.308 260.192L162.702 254.918C163.079 254.786 163.408 254.529 163.641 254.181C163.874 253.834 164 253.415 164 252.985C164 252.556 163.874 252.137 163.641 251.789C163.408 251.442 163.079 251.184 162.702 251.053L154.308 245.798C153.354 245.273 152.3 245 151.231 245C150.162 245 149.108 245.273 148.155 245.798L139.778 251.053C139.307 251.053 138.854 251.257 138.521 251.619C138.187 251.982 138 252.473 138 252.985C138 253.498 138.187 253.989 138.521 254.352C138.854 254.714 139.307 254.918 139.778 254.918L148.155 260.212C149.11 260.733 150.164 261.003 151.233 261C152.302 260.997 153.356 260.72 154.308 260.192Z" fill="white"/>
<path fill-rule="evenodd" clip-rule="evenodd" d="M141.285 252.476L148.749 256.994C149.29 257.26 149.882 257.398 150.481 257.398C151.08 257.398 151.671 257.26 152.213 256.994L159.676 252.513L152.213 247.996C151.669 247.739 151.078 247.606 150.481 247.606C149.883 247.606 149.293 247.739 148.749 247.996L141.285 252.476ZM150.481 262.998C148.934 263.02 147.408 262.623 146.053 261.846L137.625 256.771C136.859 256.363 136.212 255.751 135.751 254.995C135.289 254.24 135.03 253.371 135 252.476C135.03 251.589 135.29 250.727 135.752 249.981C136.214 249.235 136.861 248.632 137.625 248.238L146.053 243.163C147.426 242.399 148.959 242 150.516 242C152.073 242 153.607 242.399 154.98 243.163L163.408 248.238C164.184 248.621 164.839 249.225 165.298 249.98C165.756 250.735 166 251.61 166 252.504C166 253.398 165.756 254.273 165.298 255.028C164.839 255.783 164.184 256.388 163.408 256.771L154.962 261.846C153.591 262.632 152.046 263.03 150.481 262.998V262.998Z" fill="#424457"/>
<path fill-rule="evenodd" clip-rule="evenodd" d="M139.322 275.697L147.874 270.748C148.843 270.256 149.914 270 151 270C152.086 270 153.157 270.256 154.126 270.748L162.678 275.697C163.062 275.819 163.397 276.061 163.634 276.387C163.872 276.713 164 277.106 164 277.509C164 277.912 163.872 278.305 163.634 278.631C163.397 278.957 163.062 279.199 162.678 279.322L154.126 284.252C153.157 284.744 152.086 285 151 285C149.914 285 148.843 284.744 147.874 284.252L139.322 279.322C138.938 279.199 138.603 278.957 138.366 278.631C138.128 278.305 138 277.912 138 277.509C138 277.106 138.128 276.713 138.366 276.387C138.603 276.061 138.938 275.819 139.322 275.697V275.697Z" fill="white"/>
<path fill-rule="evenodd" clip-rule="evenodd" d="M141.238 277.004L148.733 281.31C149.278 281.552 149.868 281.676 150.464 281.676C151.061 281.676 151.651 281.552 152.195 281.31L159.673 277.022L152.195 272.733C151.65 272.496 151.06 272.374 150.464 272.374C149.868 272.374 149.279 272.496 148.733 272.733L141.238 277.022V277.004ZM150.464 286.999C148.92 287.025 147.395 286.652 146.038 285.918L137.615 281.062C136.834 280.702 136.173 280.128 135.709 279.408C135.246 278.687 135 277.85 135 276.995C135 276.14 135.246 275.303 135.709 274.583C136.173 273.862 136.834 273.288 137.615 272.928L146.038 268.108C147.411 267.381 148.944 267 150.5 267C152.056 267 153.589 267.381 154.962 268.108L163.385 272.946C164.166 273.306 164.827 273.88 165.291 274.6C165.754 275.321 166 276.158 166 277.013C166 277.868 165.754 278.705 165.291 279.425C164.827 280.146 164.166 280.72 163.385 281.08L154.979 285.918C153.595 286.661 152.037 287.028 150.464 286.981V286.999Z" fill="#424457"/>
<path fill-rule="evenodd" clip-rule="evenodd" d="M118.33 312.539L170.438 282.761C171.432 282.261 172.532 282 173.648 282C174.763 282 175.863 282.261 176.858 282.761L185.642 287.81C186.036 287.935 186.38 288.181 186.624 288.512C186.868 288.843 187 289.242 187 289.652C187 290.062 186.868 290.462 186.624 290.793C186.38 291.124 186.036 291.37 185.642 291.495L133.534 321.255C132.536 321.745 131.438 322 130.324 322C129.21 322 128.111 321.745 127.114 321.255L118.33 316.206C117.942 316.076 117.606 315.83 117.367 315.501C117.128 315.172 117 314.777 117 314.372C117 313.967 117.128 313.572 117.367 313.243C117.606 312.914 117.942 312.668 118.33 312.539V312.539Z" fill="white"/>
<path fill-rule="evenodd" clip-rule="evenodd" d="M121.389 313.717L129.007 318.147C129.563 318.399 130.166 318.529 130.775 318.529C131.385 318.529 131.988 318.399 132.543 318.147L182.538 289.272L174.92 284.842C174.368 284.589 173.768 284.459 173.161 284.459C172.554 284.459 171.954 284.589 171.402 284.842L121.389 313.717ZM130.757 323.999C129.189 324.012 127.642 323.636 126.255 322.905L117.67 317.947C116.873 317.576 116.198 316.986 115.725 316.245C115.251 315.503 115 314.642 115 313.763C115 312.884 115.251 312.022 115.725 311.281C116.198 310.54 116.873 309.949 117.67 309.579V309.579L168.705 280.121C170.094 279.385 171.643 279 173.216 279C174.788 279 176.337 279.385 177.727 280.121L186.33 285.097C187.127 285.467 187.802 286.058 188.275 286.799C188.749 287.54 189 288.401 189 289.281C189 290.16 188.749 291.021 188.275 291.763C187.802 292.504 187.127 293.094 186.33 293.464L135.295 322.923C133.896 323.654 132.336 324.024 130.757 323.999V323.999Z" fill="#424457"/>
<path fill-rule="evenodd" clip-rule="evenodd" d="M232.279 223.038L240.668 217.761C241.629 217.26 242.682 217 243.749 217C244.815 217 245.868 217.26 246.83 217.761L255.219 223.058C255.691 223.058 256.144 223.261 256.478 223.624C256.812 223.986 257 224.478 257 224.991C257 225.504 256.812 225.995 256.478 226.358C256.144 226.72 255.691 226.924 255.219 226.924L246.848 232.202C245.893 232.726 244.837 233 243.767 233C242.696 233 241.641 232.726 240.685 232.202L232.297 226.924C231.921 226.79 231.594 226.53 231.361 226.183C231.128 225.835 231.002 225.418 231 224.988C230.998 224.559 231.12 224.139 231.35 223.789C231.579 223.44 231.904 223.177 232.279 223.038V223.038Z" fill="white"/>
<path fill-rule="evenodd" clip-rule="evenodd" d="M234.242 224.008L241.754 228.704C242.299 228.973 242.89 229.112 243.488 229.112C244.087 229.112 244.678 228.973 245.223 228.704L252.699 224.008L245.223 219.253C244.674 219.002 244.084 218.873 243.488 218.873C242.893 218.873 242.303 219.002 241.754 219.253L234.242 224.008ZM243.453 234.979C241.914 235.01 240.395 234.593 239.053 233.771L230.611 228.451C229.848 228.036 229.203 227.404 228.743 226.622C228.283 225.839 228.027 224.936 228 224.008C228.03 223.073 228.288 222.163 228.747 221.372C229.206 220.581 229.849 219.937 230.611 219.506L239.071 214.206C240.433 213.414 241.953 213 243.497 213C245.041 213 246.562 213.414 247.924 214.206L256.366 219.506C257.152 219.903 257.818 220.537 258.285 221.333C258.752 222.129 259 223.053 259 223.998C259 224.942 258.752 225.867 258.285 226.663C257.818 227.459 257.152 228.093 256.366 228.49L247.96 233.771C246.583 234.605 245.028 235.029 243.453 234.998V234.979Z" fill="#424457"/>
<path fill-rule="evenodd" clip-rule="evenodd" d="M253.451 235.27L261.805 230.694C262.745 230.238 263.785 230 264.841 230C265.896 230 266.936 230.238 267.876 230.694L276.23 235.287C276.699 235.287 277.15 235.464 277.482 235.78C277.813 236.095 278 236.523 278 236.969C278 237.416 277.813 237.843 277.482 238.159C277.15 238.474 276.699 238.652 276.23 238.652L267.858 243.312C266.914 243.764 265.871 244 264.814 244C263.757 244 262.714 243.764 261.77 243.312L253.416 238.736C253.008 238.638 252.647 238.412 252.39 238.096C252.133 237.779 251.996 237.389 252 236.99C252.004 236.59 252.149 236.203 252.413 235.891C252.676 235.579 253.041 235.361 253.451 235.27V235.27Z" fill="white"/>
<path fill-rule="evenodd" clip-rule="evenodd" d="M255.273 236.513L262.72 240.6C263.269 240.828 263.862 240.946 264.462 240.946C265.061 240.946 265.655 240.828 266.203 240.6L273.668 236.529L266.203 232.425C265.653 232.201 265.061 232.085 264.462 232.085C263.863 232.085 263.27 232.201 262.72 232.425L255.273 236.513ZM264.471 245.999C262.923 246.019 261.397 245.66 260.041 244.956L251.611 240.381C250.831 240.037 250.171 239.49 249.708 238.805C249.246 238.12 249 237.324 249 236.513C249 235.701 249.246 234.906 249.708 234.22C250.171 233.535 250.831 232.988 251.611 232.644L260.023 228.052C261.397 227.361 262.931 227 264.488 227C266.046 227 267.579 227.361 268.953 228.052L277.383 232.627C278.165 232.969 278.826 233.513 279.29 234.197C279.754 234.881 280 235.676 280 236.487C280 237.299 279.754 238.093 279.29 238.777C278.826 239.461 278.165 240.006 277.383 240.348L268.936 244.923C267.599 245.629 266.092 246 264.56 245.999H264.471Z" fill="#424457"/>
<path fill-rule="evenodd" clip-rule="evenodd" d="M225.729 219.178L234.662 213.561C235.053 213.411 235.392 213.133 235.632 212.764C235.871 212.395 236 211.955 236 211.503C236 211.052 235.871 210.611 235.632 210.242C235.392 209.874 235.053 209.596 234.662 209.446L225.729 203.849C224.723 203.291 223.61 203 222.481 203C221.352 203 220.239 203.291 219.233 203.849L210.338 209.446C209.947 209.596 209.608 209.874 209.368 210.242C209.129 210.611 209 211.052 209 211.503C209 211.955 209.129 212.395 209.368 212.764C209.608 213.133 209.947 213.411 210.338 213.561L219.252 219.178C220.259 219.719 221.367 220 222.491 220C223.614 220 224.722 219.719 225.729 219.178V219.178Z" fill="white"/>
<path fill-rule="evenodd" clip-rule="evenodd" d="M213.264 210.998L220.763 215.738C221.309 216.004 221.9 216.141 222.499 216.141C223.097 216.141 223.688 216.004 224.235 215.738V215.738L231.715 211.018L224.235 206.278C223.693 206.008 223.104 205.868 222.508 205.868C221.912 205.868 221.322 206.008 220.78 206.278L213.264 210.998ZM222.499 221.999C220.956 222.02 219.434 221.611 218.078 220.809L209.613 215.484C208.853 215.059 208.21 214.422 207.751 213.637C207.292 212.852 207.033 211.948 207 211.018C207.032 210.082 207.291 209.173 207.75 208.381C208.209 207.59 208.851 206.945 209.613 206.512L218.078 201.207C219.441 200.414 220.963 200 222.508 200C224.052 200 225.574 200.414 226.937 201.207L235.402 206.512C236.179 206.914 236.836 207.548 237.296 208.34C237.756 209.133 238 210.051 238 210.989C238 211.926 237.756 212.845 237.296 213.637C236.836 214.429 236.179 215.063 235.402 215.465L226.937 220.79C225.574 221.593 224.048 222.009 222.499 221.999V221.999Z" fill="#424457"/>
<path fill-rule="evenodd" clip-rule="evenodd" d="M210.327 235.306L219.25 230.699C220.259 230.24 221.374 230 222.505 230C223.636 230 224.751 230.24 225.759 230.699L234.664 235.306C235.054 235.43 235.393 235.659 235.632 235.962C235.871 236.266 236 236.628 236 237C236 237.372 235.871 237.734 235.632 238.038C235.393 238.341 235.054 238.57 234.664 238.694L225.759 243.301C224.751 243.76 223.636 244 222.505 244C221.374 244 220.259 243.76 219.25 243.301L210.346 238.694C209.955 238.572 209.615 238.345 209.374 238.042C209.133 237.74 209.002 237.378 209 237.006C208.998 236.634 209.125 236.271 209.362 235.966C209.6 235.662 209.937 235.431 210.327 235.306V235.306Z" fill="white"/>
<path fill-rule="evenodd" clip-rule="evenodd" d="M213.268 236.497L220.772 240.557C221.314 240.802 221.908 240.93 222.509 240.93C223.11 240.93 223.704 240.802 224.246 240.557L231.732 236.497L224.246 232.403C223.698 232.178 223.107 232.061 222.509 232.061C221.911 232.061 221.32 232.178 220.772 232.403L213.268 236.497ZM222.509 245.999C220.957 246.019 219.427 245.659 218.068 244.955L209.615 240.372C208.854 240.001 208.211 239.447 207.752 238.766C207.293 238.085 207.033 237.303 207 236.497C207.028 235.69 207.285 234.905 207.745 234.224C208.205 233.542 208.85 232.989 209.615 232.622L218.086 228.023C219.454 227.351 220.974 227 222.518 227C224.061 227 225.582 227.351 226.95 228.023L235.385 232.639C236.153 232.997 236.802 233.546 237.263 234.226C237.724 234.906 237.979 235.691 238 236.497C237.97 237.306 237.711 238.092 237.247 238.773C236.784 239.455 236.135 240.007 235.367 240.372L226.95 244.955C225.591 245.659 224.061 246.019 222.509 245.999V245.999Z" fill="#424457"/>
<path fill-rule="evenodd" clip-rule="evenodd" d="M232.354 247.042L240.877 241.796C241.848 241.273 242.92 241 244.008 241C245.095 241 246.168 241.273 247.138 241.796L255.643 247.081C257.452 248.142 257.452 249.858 255.643 250.938L247.102 256.204C246.135 256.727 245.065 257 243.981 257C242.896 257 241.826 256.727 240.859 256.204L232.318 250.938C231.932 250.803 231.596 250.539 231.359 250.187C231.122 249.834 230.996 249.41 231 248.976C231.004 248.543 231.138 248.121 231.381 247.774C231.624 247.426 231.965 247.17 232.354 247.042Z" fill="white"/>
<path fill-rule="evenodd" clip-rule="evenodd" d="M234.241 248.499L241.71 253.021C242.272 253.285 242.881 253.422 243.497 253.422C244.114 253.422 244.723 253.285 245.284 253.021L252.754 248.517L245.284 243.995C244.74 243.738 244.149 243.605 243.551 243.605C242.953 243.605 242.362 243.738 241.818 243.995L234.312 248.499H234.241ZM243.444 258.995C241.911 259.022 240.397 258.637 239.048 257.878L230.613 252.779C229.832 252.398 229.171 251.793 228.709 251.035C228.246 250.277 228 249.397 228 248.499C228 247.6 228.246 246.721 228.709 245.963C229.171 245.205 229.832 244.6 230.613 244.218L239.048 239.156C240.424 238.397 241.958 238 243.515 238C245.073 238 246.606 238.397 247.983 239.156L256.382 244.237C257.164 244.615 257.826 245.218 258.29 245.974C258.754 246.731 259 247.61 259 248.508C259 249.406 258.754 250.285 258.29 251.042C257.826 251.798 257.164 252.401 256.382 252.779L247.893 257.934C246.523 258.683 244.99 259.048 243.444 258.995V258.995Z" fill="#424457"/>
<path fill-rule="evenodd" clip-rule="evenodd" d="M182.598 243.278L191.645 238.691C192.041 238.568 192.384 238.34 192.627 238.037C192.87 237.735 193 237.374 193 237.004C193 236.634 192.87 236.273 192.627 235.971C192.384 235.668 192.041 235.44 191.645 235.317L182.598 230.696C181.578 230.239 180.451 230 179.308 230C178.164 230 177.037 230.239 176.018 230.696L166.913 235.301C166.405 235.301 165.919 235.478 165.56 235.795C165.202 236.111 165 236.54 165 236.987C165 237.434 165.202 237.863 165.56 238.18C165.919 238.496 166.405 238.674 166.913 238.674L175.941 243.295C176.971 243.761 178.113 244.003 179.272 244C180.43 243.997 181.57 243.749 182.598 243.278V243.278Z" fill="white"/>
<path fill-rule="evenodd" clip-rule="evenodd" d="M169.869 236.511L178.091 240.588C178.703 240.843 179.374 240.976 180.054 240.976C180.734 240.976 181.405 240.843 182.016 240.588L190.219 236.528L182.016 232.433C181.402 232.188 180.732 232.06 180.054 232.06C179.376 232.06 178.706 232.188 178.091 232.433L169.869 236.511ZM179.975 245.997C178.283 246.019 176.614 245.665 175.128 244.969L165.846 240.386C165.015 240.018 164.313 239.467 163.813 238.789C163.313 238.11 163.032 237.33 163 236.528C163.03 235.716 163.311 234.926 163.814 234.239C164.318 233.552 165.026 232.993 165.865 232.619L175.128 228.036C176.624 227.356 178.292 227 179.985 227C181.678 227 183.346 227.356 184.842 228.036L194.125 232.636C194.983 232.978 195.71 233.523 196.22 234.209C196.729 234.894 197 235.69 197 236.502C197 237.315 196.729 238.111 196.22 238.796C195.71 239.481 194.983 240.027 194.125 240.369L184.94 244.969C183.42 245.682 181.707 246.037 179.975 245.997V245.997Z" fill="#424457"/>
<path fill-rule="evenodd" clip-rule="evenodd" d="M204.131 232.221L212.714 226.937C213.09 226.796 213.416 226.535 213.646 226.188C213.876 225.841 214 225.427 214 225.002C214 224.577 213.876 224.163 213.646 223.816C213.416 223.469 213.09 223.207 212.714 223.067L204.15 217.783C203.177 217.268 202.105 217 201.019 217C199.933 217 198.862 217.268 197.889 217.783L189.324 223.067C188.94 223.198 188.604 223.456 188.366 223.804C188.128 224.152 188 224.571 188 225.002C188 225.433 188.128 225.852 188.366 226.2C188.604 226.548 188.94 226.806 189.324 226.937L197.889 232.24C198.863 232.743 199.931 233.003 201.012 233C202.094 232.997 203.161 232.73 204.131 232.221Z" fill="white"/>
<path fill-rule="evenodd" clip-rule="evenodd" d="M192.478 223.974L200.203 228.714C200.766 228.984 201.377 229.123 201.996 229.123C202.614 229.123 203.225 228.984 203.788 228.714L211.513 224.013L203.788 219.252C203.219 218.992 202.606 218.857 201.986 218.857C201.366 218.857 200.753 218.992 200.184 219.252L192.478 223.974ZM202.014 234.997C200.411 235.032 198.829 234.615 197.431 233.787L188.708 228.461C187.899 228.065 187.214 227.433 186.735 226.639C186.255 225.846 186 224.925 186 223.983C186 223.042 186.255 222.121 186.735 221.327C187.214 220.534 187.899 219.902 188.708 219.506L197.431 214.199C198.84 213.412 200.41 213 202.005 213C203.599 213 205.17 213.412 206.579 214.199L215.302 219.506C216.093 219.933 216.761 220.576 217.236 221.369C217.711 222.162 217.975 223.075 218 224.013C217.973 224.942 217.707 225.846 217.232 226.63C216.757 227.413 216.09 228.046 215.302 228.461L206.579 233.787C205.158 234.625 203.549 235.043 201.922 234.997H202.014Z" fill="#424457"/>
<path fill-rule="evenodd" clip-rule="evenodd" d="M189.287 247.064L197.865 241.799C198.833 241.274 199.904 241 200.991 241C202.077 241 203.149 241.274 204.117 241.799L212.713 247.064C213.089 247.205 213.415 247.467 213.646 247.814C213.876 248.16 214 248.575 214 249C214 249.425 213.876 249.839 213.646 250.186C213.415 250.533 213.089 250.795 212.713 250.936L204.135 256.201C203.163 256.726 202.089 257 201 257C199.911 257 198.837 256.726 197.865 256.201L189.287 250.936C188.911 250.795 188.585 250.533 188.354 250.186C188.124 249.839 188 249.425 188 249C188 248.575 188.124 248.16 188.354 247.814C188.585 247.467 188.911 247.205 189.287 247.064V247.064Z" fill="white"/>
<path fill-rule="evenodd" clip-rule="evenodd" d="M192.477 248.492L200.208 253.017C200.775 253.275 201.39 253.408 202.011 253.408C202.633 253.408 203.248 253.275 203.815 253.017L211.545 248.492L203.815 243.986C203.25 243.732 202.639 243.601 202.021 243.601C201.402 243.601 200.791 243.732 200.227 243.986L192.477 248.511V248.492ZM202.002 258.995C200.401 259.022 198.821 258.631 197.415 257.859L188.704 252.775C187.896 252.394 187.212 251.789 186.733 251.03C186.254 250.272 186 249.391 186 248.492C186 247.594 186.254 246.713 186.733 245.955C187.212 245.196 187.896 244.591 188.704 244.21V244.21L197.434 239.145C198.844 238.393 200.416 238 202.011 238C203.607 238 205.178 238.393 206.589 239.145L215.318 244.228C216.106 244.629 216.772 245.236 217.244 245.987C217.716 246.738 217.978 247.604 218 248.492C217.971 249.384 217.706 250.252 217.231 251.005C216.756 251.758 216.089 252.37 215.3 252.775L206.607 257.933C205.189 258.683 203.603 259.048 202.002 258.995Z" fill="#424457"/>
<path fill-rule="evenodd" clip-rule="evenodd" d="M210.367 259.676L219.078 254.746C220.064 254.255 221.155 254 222.261 254C223.367 254 224.458 254.255 225.444 254.746L234.155 259.694C234.644 259.694 235.113 259.884 235.459 260.223C235.806 260.562 236 261.021 236 261.5C236 261.979 235.806 262.438 235.459 262.777C235.113 263.116 234.644 263.306 234.155 263.306L225.463 268.254C224.473 268.744 223.379 269 222.27 269C221.161 269 220.067 268.744 219.078 268.254L210.386 263.306C209.987 263.19 209.637 262.952 209.388 262.626C209.138 262.3 209.002 261.905 209 261.498C208.998 261.091 209.13 260.694 209.376 260.366C209.622 260.037 209.97 259.796 210.367 259.676V259.676Z" fill="white"/>
<path fill-rule="evenodd" clip-rule="evenodd" d="M213.242 260.977L220.766 265.287C221.312 265.532 221.905 265.659 222.504 265.659C223.103 265.659 223.696 265.532 224.242 265.287L231.73 261.012L224.242 256.702C223.698 256.448 223.105 256.316 222.504 256.316C221.903 256.316 221.31 256.448 220.766 256.702L213.242 260.977ZM222.468 270.999C220.927 271.026 219.405 270.647 218.061 269.899L209.606 265.056C208.827 264.694 208.168 264.12 207.706 263.4C207.245 262.681 207 261.847 207 260.995C207 260.142 207.245 259.308 207.706 258.589C208.168 257.869 208.827 257.295 209.606 256.933V256.933L218.079 252.09C219.445 251.374 220.967 251 222.513 251C224.059 251 225.581 251.374 226.947 252.09L235.385 256.933C236.148 257.321 236.793 257.903 237.252 258.62C237.712 259.338 237.97 260.163 238 261.012C237.972 261.859 237.712 262.683 237.248 263.395C236.784 264.107 236.134 264.681 235.367 265.056L226.947 269.899C225.577 270.646 224.032 271.026 222.468 270.999V270.999Z" fill="#424457"/>
<path fill-rule="evenodd" clip-rule="evenodd" d="M148 397.963V387.544H147.836C142.553 387.797 137.299 386.617 132.626 384.126L14.6764 315.58C13.3446 314.915 12.1572 313.99 11.1829 312.861C10.2086 311.731 9.46668 310.419 9 309V319.419C9.46522 320.843 10.2062 322.161 11.1804 323.297C12.1546 324.433 13.3428 325.363 14.6764 326.036L132.626 394.581C137.302 397.06 142.556 398.228 147.836 397.963H148Z" fill="white"/>
<path fill-rule="evenodd" clip-rule="evenodd" d="M14.424 313.702C15.2271 315.752 16.7891 317.417 18.7886 318.355L137.144 386.496C140.626 388.354 144.499 389.369 148.448 389.458V384.533C143.554 384.455 138.75 383.208 134.441 380.897L15.9763 312.721C15.4649 312.394 14.9353 312.066 14.424 311.703V313.739V313.702ZM150.475 394.984C144.893 395.163 139.361 393.871 134.441 391.239L15.9763 323.044C12.6976 321.317 10.2366 318.371 9.12804 314.847C9.04005 314.602 8.99674 314.344 9.00019 314.084V303.724C8.99865 303.067 9.23667 302.433 9.66999 301.938C10.1033 301.443 10.7025 301.122 11.356 301.034C12.0084 300.93 12.6766 301.068 13.2326 301.424C13.7885 301.779 14.1933 302.326 14.3692 302.96C14.7398 304.05 15.3292 305.054 16.1014 305.91C16.8737 306.766 17.8128 307.457 18.8616 307.941L137.217 376.063C141.469 378.325 146.265 379.375 151.078 379.098C151.828 379.127 152.547 379.401 153.123 379.88C153.392 380.13 153.607 380.431 153.758 380.764C153.908 381.098 153.99 381.459 154 381.824V392.203C154.006 392.904 153.739 393.581 153.256 394.092C152.773 394.604 152.111 394.91 151.407 394.947H150.548L150.475 394.984Z" fill="#424457"/>
<path fill-rule="evenodd" clip-rule="evenodd" d="M100.743 169C100.139 169.001 99.5522 168.798 99.0731 168.423C98.5939 168.047 98.2495 167.521 98.0933 166.925C97.9371 166.33 97.9779 165.698 98.2093 165.129C98.4407 164.559 98.8498 164.083 99.373 163.776L151.011 133.308C151.638 132.98 152.364 132.911 153.04 133.116C153.715 133.32 154.287 133.783 154.637 134.407C154.988 135.031 155.089 135.769 154.92 136.468C154.752 137.167 154.327 137.772 153.733 138.159L102.04 168.627C101.647 168.866 101.2 168.994 100.743 169V169Z" fill="#424457"/>
<path fill-rule="evenodd" clip-rule="evenodd" d="M100.78 149C100.168 149.001 99.5733 148.804 99.0876 148.441C98.602 148.077 98.2529 147.567 98.0946 146.99C97.9362 146.413 97.9776 145.801 98.2121 145.25C98.4467 144.698 98.8613 144.237 99.3916 143.939L151.73 114.425C152.047 114.228 152.402 114.095 152.772 114.036C153.143 113.976 153.522 113.991 153.887 114.079C154.252 114.166 154.595 114.325 154.895 114.546C155.195 114.767 155.446 115.045 155.632 115.363C155.819 115.681 155.938 116.033 155.981 116.397C156.025 116.762 155.992 117.131 155.885 117.483C155.778 117.834 155.599 118.161 155.359 118.443C155.119 118.725 154.823 118.957 154.489 119.124L102.095 148.62C101.698 148.857 101.245 148.988 100.78 149V149Z" fill="#424457"/>
<path fill-rule="evenodd" clip-rule="evenodd" d="M100.734 191C100.132 191.001 99.5469 190.806 99.0694 190.446C98.5919 190.086 98.2486 189.581 98.093 189.01C97.9373 188.438 97.978 187.832 98.2086 187.286C98.4392 186.739 98.8469 186.283 99.3683 185.988L140.981 162.341C141.597 161.998 142.325 161.91 143.008 162.094C143.69 162.279 144.27 162.721 144.621 163.326C144.804 163.631 144.924 163.969 144.974 164.32C145.024 164.671 145.002 165.028 144.911 165.371C144.819 165.713 144.66 166.035 144.442 166.317C144.223 166.599 143.95 166.835 143.638 167.013L102.026 190.624C101.64 190.866 101.192 190.997 100.734 191V191Z" fill="#424457"/>
</svg>
