<svg width="411" height="345" viewBox="0 0 411 345" fill="none" xmlns="http://www.w3.org/2000/svg">
<path fill-rule="evenodd" clip-rule="evenodd" d="M11 320.724C14.2363 324.607 17.9963 328.063 22.1815 331L186.633 240.274C190.231 238.015 193.225 234.978 195.373 231.408C197.521 227.838 198.763 223.835 199 219.722V48.0571L153.456 14.4876L150.002 13.8025L100.595 13L17.3777 58.725C14.9689 60.0831 12.8134 61.8163 11 63.8534V320.724Z" fill="white"/>
<path fill-rule="evenodd" clip-rule="evenodd" d="M12.2836 319.365C14.9073 322.367 17.8604 325.099 21.0937 327.515L185.535 238.04C188.766 236.019 191.457 233.32 193.397 230.154C195.337 226.989 196.474 223.444 196.718 219.795V50.4554L152.358 18.2835L149.408 17.7389L100.735 17.0192L17.3798 62.087C15.484 63.1359 13.7661 64.4473 12.2836 65.9772V319.365V319.365ZM20.908 332.981C20.3656 332.964 19.8381 332.809 19.3812 332.533C14.9723 329.464 11.0051 325.868 7.57933 321.835C7.19583 321.391 6.99123 320.833 7.00162 320.26V65.0241C6.97867 64.4308 7.20054 63.8521 7.6206 63.4097C9.63984 61.1577 12.0546 59.2497 14.7595 57.7689L98.7547 12.3315C99.1669 12.1035 99.6386 11.989 100.116 12.0008L149.882 12.7594L153.885 13.4791C154.289 13.5533 154.67 13.7129 154.999 13.9459L200.948 47.2654C201.263 47.4977 201.52 47.7922 201.702 48.1282C201.884 48.4642 201.986 48.8336 202 49.2105V219.795C201.776 224.329 200.402 228.746 197.993 232.675C195.584 236.604 192.21 239.932 188.156 242.378L22.2285 332.572C21.8415 332.832 21.3828 332.981 20.908 333V332.981Z" fill="#424457"/>
<path fill-rule="evenodd" clip-rule="evenodd" d="M170.255 81L194.231 68.2156C206.059 62.2878 212.625 56.9923 200.648 48.4562L150 12L170.255 40.3943V81Z" fill="white"/>
<path fill-rule="evenodd" clip-rule="evenodd" d="M161.78 22.7657L172.626 38.1385C172.915 38.5488 173.068 39.0294 173.065 39.5201V75.1889L192.48 64.7782C197.558 62.1901 203.347 58.9404 203.619 55.9243C203.807 53.7448 200.923 51.1567 198.498 49.386L161.8 22.7657H161.78ZM170.453 81.9996C169.979 82.008 169.514 81.8862 169.115 81.6493C168.704 81.4352 168.362 81.1213 168.126 80.741C167.891 80.3608 167.77 79.9283 167.778 79.4894V40.2596L148.446 12.8804C148.094 12.3865 147.943 11.7918 148.019 11.2033C148.096 10.6148 148.396 10.071 148.864 9.66969C149.325 9.26424 149.928 9.02723 150.561 9.00221C151.195 8.97718 151.816 9.16581 152.313 9.53346L201.8 45.4552C206.962 49.1914 209.303 52.7329 208.969 56.3329C208.551 61.3144 203.117 65.0506 195.134 69.0981L171.748 81.6688C171.359 81.8915 170.909 82.0063 170.453 81.9996V81.9996Z" fill="#424457"/>
<path fill-rule="evenodd" clip-rule="evenodd" d="M21.4166 331L6.75304 322.935C3.55373 320.41 3.34864 318.844 3 315.007V80.5739C3.23702 76.3292 4.52166 72.198 6.74916 68.5172C8.97667 64.8364 12.084 61.7102 15.8178 59.3935L106.321 9.55488C119.693 2.35119 127.076 -1.28981 142.867 5.91388C155.665 11.7865 167.17 23.9818 170 38.9765V79.2036L154.25 70.5514V40.6012C154.578 26.8985 138.376 9.57444 116.124 20.3408L30.6659 67.4585C26.9309 69.7741 23.8227 72.9 21.5951 76.581C19.3674 80.2621 18.0835 84.3938 17.8481 88.6389V323.092C18.0327 326.948 18.2173 328.494 21.4166 331Z" fill="white"/>
<path fill-rule="evenodd" clip-rule="evenodd" d="M127.973 5.01938C121.691 5.01938 116.109 7.7901 107.746 12.2389L16.9107 61.9167C13.5443 64.0115 10.7447 66.8263 8.73757 70.1343C6.73041 73.4422 5.57188 77.1506 5.3554 80.9605V314.54C5.68496 317.877 5.74676 318.618 8.15668 320.491L14.9333 324.199L14.8097 322.833V88.9019C15.0504 84.2493 16.4553 79.7175 18.9084 75.6804C21.3616 71.6432 24.7929 68.2164 28.9191 65.6825L114.997 18.6193C125.296 13.6633 135.594 13.7608 144.06 18.7949C148.041 21.167 151.333 24.4448 153.635 28.3298C155.938 32.2149 157.178 36.5837 157.243 41.0387V69.4289L167.809 75.1654V39.3997C165.379 26.8925 155.245 14.6974 142.041 8.70717C137.712 6.49131 132.91 5.23066 127.994 5.01938H127.973ZM21.1332 332.998C20.6621 332.995 20.2002 332.874 19.7943 332.647L5.08762 324.589C0.803311 321.311 0.411953 318.969 0 314.833V80.9215C0.22746 76.2633 1.6266 71.724 4.08084 67.6818C6.53508 63.6395 9.9734 60.2112 14.1094 57.6826L105.151 7.84863C119.446 0.23891 127.664 -3.39034 144.287 4.16085C151.596 7.43863 157.998 12.2866 162.982 18.3193C167.967 24.352 171.397 31.403 173 38.9119V79.4581C173.007 79.8982 172.888 80.3319 172.656 80.7132C172.424 81.0945 172.087 81.4092 171.681 81.6239C171.281 81.8451 170.826 81.9616 170.363 81.9616C169.9 81.9616 169.445 81.8451 169.045 81.6239L153.226 73.0191C152.819 72.7989 152.481 72.4809 152.246 72.0971C152.011 71.7133 151.887 71.2775 151.887 70.8337V41.0192C151.797 37.4239 150.771 33.9055 148.898 30.777C147.026 27.6485 144.366 25.007 141.156 23.0876C136.336 20.1998 128.323 17.8583 117.407 23.0876L31.5762 70.0142C28.2264 72.108 25.4441 74.9195 23.4545 78.2212C21.4649 81.5229 20.3239 85.222 20.1239 89.019V322.598C20.4741 325.935 20.5359 326.696 22.9458 328.55C23.4544 328.95 23.787 329.516 23.8784 330.137C23.9698 330.758 23.8136 331.388 23.4401 331.906C23.1825 332.256 22.8364 332.539 22.4334 332.73C22.0305 332.921 21.5835 333.013 21.1332 332.998V332.998Z" fill="#424457"/>
<path fill-rule="evenodd" clip-rule="evenodd" d="M21 331L6.66815 322.976C3.54121 320.463 3.34076 318.905 3 315.088V81.8428C3.09111 79.8646 3.42077 77.9036 3.98219 76L18.314 84.0436C17.7613 85.9484 17.4385 87.9092 17.3519 89.8864V323.151C17.6926 326.949 17.8731 328.507 21 331Z" fill="white"/>
<path fill-rule="evenodd" clip-rule="evenodd" d="M5.82094 79.3183C5.70689 80.0345 5.64185 80.7563 5.6262 81.4797V314.579C5.97242 317.908 6.03734 318.648 8.56913 320.518L15.6884 324.217L15.5586 322.854V89.4048C15.6307 87.8206 15.8479 86.2446 16.2078 84.6926L5.84257 79.3183H5.82094ZM22.2018 332.999C21.7069 332.996 21.2217 332.875 20.7952 332.649L5.34488 324.607C0.84393 321.335 0.432783 318.999 0 314.871V81.4407C0.0818349 79.213 0.467 77.0026 1.14687 74.8592C1.25347 74.4855 1.45577 74.1394 1.73758 73.8487C2.01938 73.5579 2.37287 73.3305 2.76981 73.1846C3.16311 73.0427 3.58657 72.9813 4.0095 73.0049C4.43243 73.0285 4.84422 73.1364 5.21505 73.3209L20.687 81.3629C21.2132 81.6443 21.624 82.0714 21.858 82.5803C22.092 83.0892 22.1367 83.6526 21.9854 84.1863C21.4154 85.9407 21.0955 87.7531 21.0333 89.58V322.679C21.4011 326.009 21.4661 326.749 23.9979 328.618C24.5386 329.015 24.8894 329.584 24.978 330.207C25.0665 330.83 24.8861 331.46 24.4739 331.967C24.2197 332.295 23.879 332.561 23.4825 332.741C23.0859 332.921 22.6459 333.01 22.2018 332.999V332.999Z" fill="#424457"/>
<path fill-rule="evenodd" clip-rule="evenodd" d="M155.511 189.562C151.872 191.767 148.843 194.739 146.669 198.238C144.495 201.736 143.238 205.662 143 209.698C143 217.105 148.61 220.12 155.511 216.416C159.147 214.206 162.173 211.229 164.343 207.727C166.513 204.226 167.766 200.297 168 196.261C168 188.853 162.412 185.917 155.511 189.562Z" fill="white"/>
<path fill-rule="evenodd" clip-rule="evenodd" d="M156.409 191.182C153.238 193.107 150.597 195.674 148.693 198.683C146.788 201.692 145.671 205.061 145.428 208.528C145.085 209.506 145.12 210.563 145.527 211.521C145.934 212.479 146.688 213.28 147.665 213.792C148.641 214.305 149.781 214.496 150.893 214.335C152.006 214.174 153.024 213.67 153.779 212.907C156.954 210.981 159.597 208.412 161.502 205.399C163.407 202.387 164.522 199.013 164.76 195.543C165.072 194.57 165.015 193.529 164.6 192.589C164.184 191.649 163.434 190.864 162.469 190.36C161.505 189.857 160.382 189.664 159.283 189.813C158.183 189.962 157.171 190.445 156.409 191.182V191.182ZM149.582 219C147.951 219.003 146.349 218.602 144.948 217.839C141.754 216.163 140 212.831 140 208.452C140.227 204.121 141.584 199.903 143.959 196.147C146.333 192.392 149.657 189.208 153.653 186.86V186.86C157.829 184.69 161.879 184.404 165.052 186.08C168.225 187.755 170 191.182 170 195.466C169.772 199.799 168.414 204.02 166.039 207.778C163.665 211.536 160.342 214.724 156.347 217.077C154.3 218.205 151.972 218.84 149.582 218.924V219Z" fill="#424457"/>
<path fill-rule="evenodd" clip-rule="evenodd" d="M49.652 210.999C49.0739 211.014 48.5073 210.841 48.0431 210.506C47.5788 210.172 47.2436 209.697 47.0913 209.157C46.9389 208.616 46.9781 208.042 47.2027 207.525C47.4272 207.009 47.8241 206.581 48.3298 206.309L134.111 158.342C134.405 158.176 134.729 158.067 135.067 158.023C135.404 157.978 135.746 157.999 136.075 158.083C136.404 158.167 136.713 158.314 136.983 158.514C137.253 158.714 137.48 158.963 137.651 159.249C137.822 159.536 137.933 159.853 137.978 160.182C138.022 160.511 138 160.845 137.911 161.165C137.822 161.485 137.669 161.786 137.46 162.049C137.252 162.312 136.991 162.532 136.695 162.697L50.9335 210.664C50.5457 210.886 50.1026 211.002 49.652 210.999V210.999Z" fill="#424457"/>
<path fill-rule="evenodd" clip-rule="evenodd" d="M49.6042 184.982C49.0314 184.978 48.4755 184.796 48.0216 184.462C47.5677 184.128 47.2408 183.661 47.0911 183.133C46.9413 182.604 46.977 182.043 47.1926 181.536C47.4082 181.029 47.7918 180.603 48.2846 180.324L156.959 120.34C157.581 120 158.319 119.911 159.01 120.091C159.352 120.18 159.673 120.333 159.953 120.54C160.233 120.748 160.468 121.006 160.644 121.301C160.82 121.595 160.934 121.92 160.978 122.256C161.023 122.592 160.998 122.934 160.905 123.261C160.812 123.588 160.652 123.894 160.435 124.162C160.217 124.43 159.947 124.655 159.639 124.823L50.9442 184.787C50.5248 184.969 50.061 185.036 49.6042 184.982V184.982Z" fill="#424457"/>
<path fill-rule="evenodd" clip-rule="evenodd" d="M49.6191 161C49.1582 161.006 48.704 160.894 48.3037 160.675C47.9034 160.457 47.5718 160.14 47.3431 159.757C47.0019 159.181 46.9108 158.501 47.0894 157.862C47.2681 157.222 47.7021 156.676 48.2982 156.339L157.08 96.3375C157.679 96.0053 158.39 95.9138 159.059 96.0832C159.728 96.2525 160.299 96.6688 160.647 97.2404C160.994 97.8121 161.09 98.4923 160.913 99.1314C160.736 99.7705 160.3 100.316 159.702 100.648L50.8994 160.67C50.512 160.889 50.0694 161.003 49.6191 161Z" fill="#424457"/>
<path fill-rule="evenodd" clip-rule="evenodd" d="M49.6647 259C49.0811 259.005 48.5121 258.833 48.0466 258.511C47.5812 258.189 47.2456 257.736 47.0925 257.221C46.9393 256.706 46.9772 256.159 47.2002 255.666C47.4232 255.173 47.8187 254.761 48.3248 254.495L77.0395 239.323C77.6464 239.003 78.3673 238.917 79.0439 239.083C79.7204 239.249 80.297 239.654 80.6469 240.209C80.9968 240.764 81.0913 241.423 80.9096 242.041C80.7279 242.66 80.2849 243.187 79.6781 243.507L50.9634 258.585C50.5806 258.83 50.1311 258.974 49.6647 259V259Z" fill="#424457"/>
<path fill-rule="evenodd" clip-rule="evenodd" d="M49.5536 101C48.9919 100.997 48.4468 100.814 48.0017 100.481C47.5566 100.147 47.2361 99.6805 47.0893 99.1524C46.9425 98.6244 46.9774 98.064 47.1888 97.5572C47.4002 97.0503 47.7764 96.625 48.2596 96.3463L98.0261 68.425C98.3156 68.2346 98.6423 68.1042 98.9858 68.0419C99.3293 67.9796 99.6823 67.9868 100.023 68.0631C100.363 68.1393 100.684 68.283 100.965 68.4851C101.246 68.6872 101.482 68.9435 101.657 69.238C101.832 69.5325 101.943 69.8589 101.983 70.197C102.023 70.5351 101.992 70.8776 101.89 71.2032C101.788 71.5289 101.619 71.8307 101.393 72.0899C101.166 72.3491 100.888 72.5603 100.574 72.7102L50.8077 100.651C50.4337 100.884 49.9976 101.006 49.5536 101V101Z" fill="#424457"/>
<path fill-rule="evenodd" clip-rule="evenodd" d="M156.354 182.319C146.322 187.956 138.197 201.676 138.197 212.95C138.197 217.863 139.782 221.444 142.631 223.03C145.48 224.615 149.412 224.165 153.766 221.738C163.798 216.101 171.824 202.342 171.824 191.068C171.824 186.155 170.279 182.574 167.43 180.988C164.58 179.403 160.628 179.853 156.274 182.319H156.354ZM146.322 228.999C144.1 229.024 141.912 228.47 139.982 227.394C135.508 224.85 133 219.741 133 212.95C133 199.876 142.109 184.511 153.726 177.954C159.745 174.568 165.523 174.04 170.018 176.643C174.512 179.246 177 184.296 177 191.068C177 204.162 167.891 219.526 156.294 226.063C153.311 227.871 149.893 228.884 146.383 228.999H146.322Z" fill="#424457"/>
<path fill-rule="evenodd" clip-rule="evenodd" d="M397 155V189.034C397 185.265 395.928 182.714 394.649 183.41L168.351 305.806C167.072 306.501 166.041 310.154 166 314V279.947C166 283.812 167.072 286.247 168.351 285.571L394.566 163.175C395.845 162.479 396.876 158.827 397 155Z" fill="white"/>
<path fill-rule="evenodd" clip-rule="evenodd" d="M173.973 289.376V304.604L398.892 181.858C399.233 181.681 399.603 181.556 399.986 181.488V166.279L175.067 288.986C174.741 289.197 174.365 289.331 173.973 289.376V289.376ZM171.476 318C170.818 317.995 170.188 317.744 169.724 317.302C169.26 316.86 169 316.263 169 315.641V281.303C168.997 280.994 169.059 280.688 169.183 280.402C169.306 280.115 169.488 279.855 169.718 279.636C169.948 279.417 170.222 279.242 170.524 279.124C170.826 279.005 171.149 278.944 171.476 278.944V278.944C172.135 278.944 172.767 279.19 173.235 279.628C173.702 280.066 173.968 280.661 173.973 281.284C173.968 282.205 174.051 283.125 174.221 284.033L398.933 161.521C399.701 159.529 400.072 157.42 400.027 155.301C400.038 154.684 400.306 154.096 400.774 153.665C401.242 153.234 401.871 152.995 402.524 153V153C402.85 152.997 403.173 153.056 403.475 153.173C403.776 153.29 404.05 153.462 404.281 153.68C404.511 153.897 404.694 154.156 404.817 154.441C404.941 154.726 405.003 155.032 405 155.34V189.678C405.003 189.986 404.941 190.293 404.817 190.579C404.694 190.865 404.512 191.125 404.282 191.345C404.052 191.564 403.778 191.738 403.476 191.857C403.174 191.976 402.851 192.037 402.524 192.037V192.037C401.865 192.037 401.233 191.791 400.765 191.353C400.298 190.915 400.032 190.319 400.027 189.697C400.045 188.775 399.962 187.854 399.779 186.948L175.067 309.518C174.308 311.519 173.937 313.633 173.973 315.758C173.941 316.363 173.664 316.933 173.199 317.351C172.735 317.768 172.118 318.001 171.476 318V318Z" fill="#424457"/>
<path fill-rule="evenodd" clip-rule="evenodd" d="M171.395 277.981C170.701 278.411 170.123 278.99 169.707 279.67C169.291 280.351 169.049 281.115 169 281.9V332.427C169 341.854 176 345.695 184.59 340.991L389.41 228.748C393.944 225.934 397.718 222.148 400.426 217.695C403.134 213.242 404.701 208.246 405 203.112V152.586C405 151.155 403.906 150.626 402.605 151.273L171.395 277.981Z" fill="white"/>
<path fill-rule="evenodd" clip-rule="evenodd" d="M173.107 279.887C172.782 280.118 172.511 280.411 172.313 280.747C172.114 281.084 171.993 281.456 171.955 281.84V332.172C171.955 335.842 173.127 338.498 175.266 339.689C177.404 340.88 180.427 340.47 183.758 338.654L387.709 226.841C391.833 224.248 395.269 220.783 397.748 216.718C400.228 212.654 401.682 208.1 401.999 203.412V154.603L173.086 279.887H173.107ZM178.083 344.999C176.229 345.023 174.403 344.571 172.798 343.691C169.056 341.641 167 337.541 167 332.113V281.781C167.055 280.578 167.417 279.406 168.055 278.366C168.692 277.325 169.586 276.447 170.66 275.807V275.807L400.95 149.605C401.561 149.238 402.263 149.031 402.985 149.003C403.706 148.976 404.423 149.129 405.063 149.449C405.683 149.816 406.189 150.333 406.528 150.947C406.868 151.561 407.029 152.25 406.996 152.943V203.295C406.996 213.448 399.47 225.806 390.217 230.882L186.287 342.676C183.814 344.119 180.985 344.92 178.083 344.999V344.999Z" fill="#424457"/>
<path fill-rule="evenodd" clip-rule="evenodd" d="M409 167.112V72.4714C409 63.1376 402.021 59.3263 393.43 63.9932L188.611 175.357C184.07 178.148 180.291 181.907 177.579 186.329C174.867 190.751 173.298 195.712 173 200.811V295.374C173 296.812 174.115 297.415 175.416 296.696L271.662 244.368V239.313C271.785 237.364 272.391 235.47 273.431 233.782C274.47 232.094 275.916 230.658 277.65 229.59L304.226 215.142C307.53 213.372 310.235 214.811 310.235 218.409V223.445L406.543 171.098C407.26 170.666 407.857 170.079 408.284 169.385C408.711 168.692 408.957 167.913 409 167.112V167.112Z" fill="white"/>
<path fill-rule="evenodd" clip-rule="evenodd" d="M399.829 63.732C397.804 63.8308 395.841 64.4209 394.13 65.4451L189.332 176.956C185.198 179.55 181.753 183.007 179.264 187.058C176.776 191.109 175.31 195.646 174.981 200.318V293.568L268.749 242.524V238.825C268.869 236.453 269.588 234.142 270.845 232.083C272.102 230.025 273.861 228.279 275.976 226.989L302.53 212.544C303.497 211.899 304.638 211.53 305.82 211.478C307.002 211.426 308.175 211.695 309.2 212.252C310.226 212.809 311.06 213.631 311.605 214.621C312.151 215.611 312.384 216.728 312.277 217.839V218.832L404.867 168.43C405.189 168.197 405.456 167.904 405.652 167.569C405.847 167.233 405.967 166.864 406.003 166.483V71.8306C406.003 68.1706 404.826 65.5425 402.658 64.355C401.797 63.8914 400.82 63.6559 399.829 63.6736V63.732ZM173.825 299C173.172 299.004 172.53 298.843 171.966 298.533C171.337 298.168 170.823 297.65 170.477 297.033C170.132 296.417 169.969 295.725 170.005 295.028V200.318C170.005 190.195 177.562 177.852 186.854 172.81L391.652 61.318C396.628 58.6314 401.419 58.2615 405.177 60.3057C408.935 62.3498 411 66.4575 411 71.85V166.541C410.949 167.737 410.592 168.903 409.959 169.941C409.326 170.978 408.436 171.855 407.366 172.498L311.038 224.925C310.66 225.126 310.233 225.232 309.799 225.232C309.365 225.232 308.938 225.126 308.56 224.925C308.172 224.726 307.849 224.43 307.627 224.069C307.405 223.709 307.292 223.298 307.3 222.881V217.839C307.3 216.924 307.053 216.359 306.764 216.223C306.474 216.087 305.876 216.223 305.029 216.593L278.433 231.077C277.07 231.95 275.937 233.106 275.121 234.456C274.305 235.805 273.828 237.313 273.725 238.864V243.926C273.707 244.322 273.585 244.708 273.368 245.048C273.152 245.388 272.849 245.671 272.486 245.872L176.158 298.396C175.449 298.784 174.645 298.992 173.825 299Z" fill="#424457"/>
<path fill-rule="evenodd" clip-rule="evenodd" d="M266.759 240.443C266.61 237.748 267.219 235.063 268.524 232.659C269.829 230.256 271.785 228.218 274.194 226.752L299.974 212.764C300.597 212.346 301.326 212.089 302.087 212.019C302.849 211.95 303.617 212.07 304.313 212.368L310 215.439C309.302 215.149 308.535 215.033 307.775 215.102C307.015 215.172 306.287 215.424 305.661 215.835L278.554 230.556C273.141 233.509 272.614 236.5 272.446 240.463V258.295C272.378 259.005 272.507 259.72 272.821 260.37C273.135 261.019 273.622 261.581 274.236 262L268.592 258.949C266.485 257.621 264 256.551 264 252.668V248.369L266.78 246.863L266.759 240.443Z" fill="white"/>
<path fill-rule="evenodd" clip-rule="evenodd" d="M266.964 249.482V252.464C266.964 254.588 267.89 255.153 269.599 256.225L270.237 256.634V240.421C270.422 235.939 271.102 232.041 277.484 228.553L302.703 214.776C302.435 214.659 302.147 214.581 300.871 215.224L275.755 228.865C273.774 230.1 272.173 231.808 271.114 233.817C270.054 235.825 269.574 238.063 269.723 240.304V246.618C269.724 247.031 269.611 247.438 269.394 247.797C269.178 248.156 268.865 248.455 268.487 248.664L267.026 249.463L266.964 249.482ZM274.478 264C274.045 264 273.619 263.893 273.243 263.688L266.881 260.122C265.384 259.416 264.13 258.32 263.266 256.964C262.402 255.608 261.964 254.047 262.002 252.464V248.118C262.016 247.721 262.137 247.333 262.353 246.992C262.569 246.651 262.874 246.368 263.238 246.169L264.699 245.37V240.323C264.552 237.276 265.254 234.245 266.736 231.536C268.217 228.827 270.426 226.535 273.14 224.889L298.421 211.073C299.373 210.468 300.473 210.105 301.616 210.02C302.76 209.934 303.907 210.129 304.947 210.586L310.67 213.704C311.252 213.991 311.689 214.484 311.886 215.077C312.083 215.669 312.023 216.31 311.72 216.861C311.417 217.411 310.896 217.825 310.27 218.012C309.645 218.198 308.967 218.141 308.385 217.855C307.891 217.66 307.623 217.582 306.326 218.225L279.934 232.645C275.631 234.984 275.343 237.049 275.199 240.44V257.979C275.199 259.245 275.446 259.421 275.878 259.713C276.315 259.996 276.644 260.405 276.817 260.879C276.99 261.353 276.998 261.867 276.838 262.345C276.679 262.823 276.362 263.24 275.933 263.535C275.505 263.829 274.987 263.985 274.458 263.98L274.478 264Z" fill="#424457"/>
<path fill-rule="evenodd" clip-rule="evenodd" d="M311 232.162V237.147C310.878 239.077 310.279 240.954 309.251 242.625C308.223 244.297 306.794 245.716 305.08 246.77L278.899 261.244C275.645 263.014 273 261.571 273 258.01V240.688C273.12 238.76 273.716 236.884 274.74 235.213C275.765 233.542 277.189 232.121 278.899 231.065L305.08 216.765C308.355 214.975 311 216.438 311 219.998V232.162Z" fill="white"/>
<path fill-rule="evenodd" clip-rule="evenodd" d="M308.096 218.448C307.589 218.489 307.102 218.646 306.679 218.904L279.854 233.006C278.472 233.854 277.321 234.98 276.49 236.296C275.659 237.611 275.17 239.083 275.06 240.598V257.68C275.06 258.591 275.31 259.141 275.581 259.274C275.891 259.321 276.208 259.311 276.513 259.242C276.817 259.173 277.103 259.049 277.353 258.875L304.157 244.792C305.534 243.939 306.68 242.812 307.511 241.497C308.341 240.183 308.833 238.713 308.951 237.2V220.119C308.951 219.227 308.68 218.657 308.43 218.524C308.32 218.501 308.206 218.501 308.096 218.524V218.448ZM275.894 264C274.899 264.008 273.92 263.772 273.059 263.317C272.054 262.725 271.242 261.899 270.706 260.924C270.171 259.949 269.933 258.862 270.016 257.774V240.693C270.136 238.372 270.865 236.112 272.141 234.101C273.418 232.09 275.205 230.387 277.353 229.134L304.157 215.032C305.133 214.408 306.286 214.052 307.477 214.005C308.669 213.958 309.851 214.223 310.883 214.768C311.915 215.312 312.754 216.115 313.302 217.079C313.85 218.044 314.083 219.132 313.974 220.214V237.295C313.857 239.609 313.134 241.864 311.865 243.872C310.596 245.879 308.818 247.581 306.679 248.835L279.812 262.88C278.616 263.538 277.25 263.898 275.852 263.924L275.894 264Z" fill="#424457"/>
<path fill-rule="evenodd" clip-rule="evenodd" d="M348.428 34.4097C346.765 33.9763 345.023 33.8855 343.319 34.1434C341.615 34.4013 339.99 35.0019 338.554 35.9044L134.511 147.06C129.993 149.844 126.234 153.594 123.539 158.006C120.844 162.418 119.289 167.367 119 172.451L119.309 308.222C119.387 309.519 119.818 310.776 120.56 311.871C121.302 312.966 122.331 313.862 123.546 314.473L170.366 340C166.807 337.651 165.922 334.565 165.82 330.507V292.381C165.794 292.661 165.842 292.943 165.961 293.2C166.08 293.458 166.264 293.683 166.498 293.857L170.242 295.895C170.001 295.726 169.808 295.502 169.682 295.244C169.556 294.987 169.501 294.703 169.522 294.42V198.231C170.11 193.464 171.801 188.878 174.474 184.796C177.147 180.713 180.737 177.235 184.992 174.606L389.015 63.4313C392.8 61.49 396.071 60.6747 400 62.4218L348.428 34.4097Z" fill="white"/>
<path fill-rule="evenodd" clip-rule="evenodd" d="M348.987 37.7326C346.94 37.8227 344.951 38.4043 343.208 39.4226L139.25 150.633C135.119 153.208 131.678 156.654 129.198 160.699C126.717 164.744 125.265 169.278 124.957 173.944L125.265 309.766C125.36 310.668 125.694 311.533 126.237 312.28C126.78 313.027 127.514 313.632 128.371 314.04L167.077 335.155C166.925 334.151 166.842 333.139 166.83 332.125V294.032C166.829 293.43 167.075 292.851 167.516 292.417C167.957 291.982 168.558 291.726 169.195 291.701C169.674 291.695 170.148 291.802 170.573 292.012V199.78C171.165 194.612 172.964 189.632 175.842 185.201C178.719 180.77 182.602 176.998 187.211 174.157L391.231 62.8885C392.181 62.3966 393.163 61.9619 394.172 61.587L350.776 38.0046C350.18 37.8166 349.554 37.7247 348.925 37.7326H348.987ZM173.864 343.994C173.43 343.999 173.003 343.892 172.63 343.683L125.8 318.1C124.206 317.291 122.862 316.105 121.899 314.657C120.937 313.21 120.389 311.552 120.309 309.844L120 173.983C120.295 168.486 121.966 163.134 124.876 158.365C127.786 153.597 131.853 149.549 136.741 146.554L340.761 35.3044C345.285 32.9539 349.296 32.41 352.751 33.6338C352.877 33.6726 352.995 33.7318 353.1 33.8087L404.763 61.8396C405.314 62.1486 405.719 62.6432 405.899 63.2236C406.078 63.8039 406.018 64.427 405.73 64.9671C405.428 65.5008 404.919 65.9037 404.31 66.0918C403.7 66.28 403.038 66.239 402.46 65.9772C399.745 64.7728 397.421 65.0253 393.719 66.929L189.782 178.237C185.879 180.683 182.587 183.904 180.136 187.675C177.685 191.446 176.134 195.676 175.591 200.071V296.13C175.823 296.301 176.018 296.513 176.163 296.755C176.309 296.997 176.402 297.263 176.438 297.539C176.475 297.815 176.453 298.095 176.375 298.363C176.296 298.632 176.163 298.882 175.982 299.102C175.577 299.559 175.011 299.863 174.388 299.96C173.766 300.056 173.127 299.938 172.588 299.626L171.889 299.218V332.242C171.889 336.127 172.876 338.166 175.365 339.818C175.893 340.157 176.26 340.678 176.387 341.27C176.514 341.862 176.391 342.477 176.044 342.984C175.808 343.32 175.482 343.59 175.098 343.768C174.715 343.945 174.289 344.023 173.864 343.994Z" fill="#424457"/>
<path fill-rule="evenodd" clip-rule="evenodd" d="M220.448 134L212.116 129.428C212.116 125.24 211.709 112.906 212.42 108.814C213.238 104.438 214.992 100.266 217.575 96.5532C220.157 92.8402 223.514 89.6645 227.44 87.2203L286.379 55.1758C287.794 54.4453 289.372 54.0434 290.984 54.0033C292.595 53.9632 294.194 54.2861 295.647 54.9453L304 59.4984C300.118 57.7694 296.887 58.557 293.147 60.4974L235.813 91.735C231.34 94.484 227.617 98.1928 224.947 102.559C222.277 106.926 220.735 111.827 220.448 116.863V134Z" fill="white"/>
<path fill-rule="evenodd" clip-rule="evenodd" d="M214.049 127.85L217.516 129.759V116.723C217.804 111.335 219.46 106.087 222.349 101.409C225.238 96.7309 229.277 92.7564 234.135 89.8108L292.015 58.7C292.965 58.1964 293.953 57.7563 294.97 57.383L294.56 57.173C293.432 56.692 292.196 56.4704 290.957 56.5269C289.718 56.5834 288.512 56.9163 287.44 57.4975L228.206 89.2383C224.554 91.486 221.432 94.4016 219.03 97.8076C216.627 101.214 214.996 105.039 214.233 109.05C213.812 114.487 213.709 119.941 213.925 125.388V127.85H214.049ZM219.999 136C219.56 136 219.129 135.895 218.747 135.695L210.355 131.171C209.99 130.978 209.684 130.701 209.465 130.367C209.246 130.033 209.122 129.653 209.104 129.262V125.56C208.884 119.832 209.014 114.096 209.494 108.382C210.389 103.702 212.308 99.242 215.132 95.2794C217.955 91.3167 221.623 87.9354 225.908 85.3446L285.409 53.4894C287.198 52.5635 289.202 52.0539 291.249 52.004C293.296 51.9542 295.326 52.3656 297.165 53.2031L305.68 57.7647C306.26 58.0482 306.694 58.5342 306.889 59.1159C307.083 59.6975 307.021 60.3272 306.716 60.8663C306.412 61.4054 305.889 61.8098 305.264 61.9906C304.639 62.1713 303.962 62.1136 303.382 61.8301C300.633 60.6468 298.396 60.8949 294.662 62.7845L236.618 93.7426C232.483 96.2798 229.042 99.6804 226.57 103.673C224.098 107.666 222.663 112.141 222.379 116.742V133.71C222.369 134.113 222.251 134.507 222.036 134.857C221.821 135.207 221.516 135.501 221.148 135.714C220.762 135.902 220.332 136 219.896 136H219.999Z" fill="#424457"/>
<path fill-rule="evenodd" clip-rule="evenodd" d="M297 92L289.53 87.4212V71.6281L289.494 71.0073L289.458 70.3864L289.294 69.8432L289.13 69.3775L288.911 68.9313L288.638 68.5627L288.328 68.2522L288 68L295.451 72.5982L295.816 72.8504L296.107 73.1415L296.381 73.5295L296.599 73.9564L296.781 74.4414L296.909 74.9847L296.982 75.5861L297 76.2264V92Z" fill="white"/>
<path fill-rule="evenodd" clip-rule="evenodd" d="M291.918 85.8784L295.657 87.7804V75.3983L297.855 74.0669L295.261 74.7706L291.984 73.1349V85.8784H291.918ZM298.273 94C297.812 93.9915 297.359 93.8871 296.954 93.6957L287.938 89.1689C287.547 88.976 287.219 88.7003 286.984 88.3676C286.749 88.0349 286.616 87.6562 286.597 87.2669V70.9095L287.037 70.6623L286.157 70.2248C285.606 69.88 285.218 69.3727 285.068 68.7983C284.919 68.2239 285.017 67.6219 285.344 67.1055C285.676 66.6063 286.221 66.2392 286.862 66.0828C287.503 65.9265 288.189 65.9931 288.774 66.2686L297.811 70.7764L298.405 71.1188C298.515 71.2329 299.285 71.8605 299.395 71.9366C299.505 72.0127 299.834 72.4692 299.878 72.5453C299.922 72.6214 300.296 73.1729 300.34 73.2871C300.384 73.4012 300.604 73.9337 300.626 74.0098C300.648 74.0859 300.824 74.7136 300.846 74.7896L301 76.2352V91.5844C301.004 91.9885 300.884 92.3864 300.652 92.7373C300.421 93.0881 300.085 93.3795 299.681 93.5816C299.247 93.8226 298.745 93.9544 298.229 93.962L298.273 94Z" fill="#424457"/>
<path fill-rule="evenodd" clip-rule="evenodd" d="M231.789 112.344V128.064L221 134V116.791C221.285 111.716 222.825 106.778 225.494 102.376C228.164 97.9748 231.887 94.235 236.361 91.4609L293.639 59.982C302.092 55.3414 309 59.1312 309 68.4125V85.6601L298.251 91.4609V75.7408C298.251 72.183 295.61 70.7328 292.359 72.5117L237.702 102.54C235.974 103.615 234.537 105.063 233.509 106.767C232.482 108.471 231.892 110.382 231.789 112.344Z" fill="white"/>
<path fill-rule="evenodd" clip-rule="evenodd" d="M299.898 60.6541C297.883 60.7405 295.927 61.3158 294.223 62.3233L236.244 93.5208C232.132 96.079 228.706 99.4865 226.231 103.479C223.757 107.472 222.301 111.942 221.975 116.545V129.611L227.938 126.387V112.209C228.057 109.871 228.774 107.593 230.03 105.567C231.285 103.541 233.043 101.825 235.154 100.562L290.461 70.7654C291.411 70.0936 292.552 69.6978 293.741 69.6275C294.931 69.5572 296.116 69.8156 297.149 70.3703C298.182 70.925 299.017 71.7515 299.55 72.7465C300.083 73.7415 300.289 74.861 300.144 75.965V87.477L306.148 84.3879V68.6549C306.148 65.0478 304.955 62.4384 302.817 61.2872C301.95 60.839 300.971 60.6138 299.98 60.6349L299.898 60.6541ZM219.488 136C219.162 136.002 218.839 135.945 218.537 135.83C218.236 135.716 217.961 135.546 217.73 135.332C217.499 135.118 217.315 134.864 217.19 134.583C217.064 134.302 217 134.002 217 133.698V116.621C217 106.664 224.545 94.4993 233.777 89.5299L291.756 58.2941C296.69 55.6272 301.46 55.2818 305.202 57.2772C308.944 59.2727 311 63.3402 311 68.6549V85.731C310.984 86.1219 310.863 86.5027 310.647 86.8382C310.432 87.1736 310.129 87.4527 309.766 87.6497L298.911 93.5016C298.534 93.7 298.109 93.8042 297.677 93.8042C297.245 93.8042 296.82 93.7 296.444 93.5016C296.065 93.2978 295.752 93.0039 295.535 92.6499C295.318 92.2959 295.206 91.8946 295.21 91.487V75.8883C295.244 75.6042 295.217 75.3165 295.128 75.0428C295.04 74.769 294.893 74.5149 294.696 74.2958C294.449 74.1615 293.812 74.2958 292.948 74.6603L237.622 104.496C236.258 105.353 235.123 106.491 234.303 107.821C233.484 109.151 233.001 110.639 232.893 112.17V127.769C232.883 128.163 232.762 128.548 232.542 128.885C232.321 129.222 232.01 129.499 231.639 129.688L220.742 135.597C220.366 135.827 219.935 135.965 219.488 136V136Z" fill="#424457"/>
<path fill-rule="evenodd" clip-rule="evenodd" d="M123.389 158C120.685 162.295 119.175 167.164 119 172.157V304.919C119.185 308.983 119.866 311.997 123.554 314.428L170.456 340C166.767 337.569 166.087 334.555 165.901 330.491V292.298C166.046 293.698 166.478 293.717 167.653 294.34L170.332 295.817C170.09 295.648 169.897 295.424 169.771 295.166C169.645 294.907 169.59 294.623 169.611 294.34V199.752C169.796 194.754 171.305 189.88 174 185.575L123.389 158Z" fill="white"/>
<path fill-rule="evenodd" clip-rule="evenodd" d="M127.862 161.627C126.053 165.068 125.062 168.846 124.96 172.691V306.323C125.145 310.005 125.721 312.198 128.458 313.941L167.129 335.188C166.985 334.189 166.902 333.23 166.861 332.153V293.614C166.861 293.007 167.107 292.424 167.548 291.986C167.989 291.548 168.591 291.289 169.228 291.264C169.709 291.245 170.187 291.353 170.607 291.577L170.525 200.381C170.671 195.727 171.894 191.16 174.106 187.006L127.821 161.549L127.862 161.627ZM173.9 343.98C173.466 343.986 173.038 343.877 172.665 343.667L125.804 317.877C120.782 314.587 120.185 310.396 120 306.382V172.633C120.182 167.2 121.803 161.899 124.713 157.221C124.868 156.944 125.082 156.7 125.34 156.505C125.598 156.309 125.896 156.167 126.215 156.085C126.852 155.92 127.531 155.997 128.109 156.301L178.757 184.089C179.323 184.397 179.737 184.905 179.911 185.503C180.084 186.101 180.002 186.74 179.683 187.281C177.175 191.277 175.759 195.808 175.567 200.46V295.651C175.799 295.823 175.994 296.037 176.139 296.281C176.285 296.525 176.378 296.793 176.415 297.072C176.451 297.35 176.429 297.632 176.351 297.902C176.272 298.173 176.139 298.426 175.958 298.647C175.558 299.114 174.993 299.428 174.368 299.528C173.744 299.629 173.102 299.511 172.562 299.195L171.862 298.784V332.074C172.027 335.775 172.603 337.949 175.34 339.711C175.776 339.995 176.104 340.404 176.277 340.878C176.451 341.353 176.46 341.867 176.303 342.347C176.147 342.826 175.833 343.246 175.408 343.543C174.983 343.841 174.469 344.001 173.941 344L173.9 343.98Z" fill="#424457"/>
</svg>
