<svg width="394" height="348" viewBox="0 0 394 348" fill="none" xmlns="http://www.w3.org/2000/svg">
<path fill-rule="evenodd" clip-rule="evenodd" d="M22.9139 348L10.1898 340.572C7.59919 338.79 7.14099 336.51 7 333.446V110.584C7.20937 106.771 8.30254 103.061 10.1913 99.7529C12.0801 96.4451 14.7116 93.6324 17.8736 91.5416L41.1541 77.9501L55.0413 69.8806L124.46 29.2128L136.549 22.0875L161.592 7.48056C164.271 6.09112 166.403 5.36078 169.276 6.7324L182 14.1606C179.163 12.7889 176.977 13.5193 174.316 14.9087L149.273 29.5157L137.184 36.641L67.6596 77.2019L53.9663 85.307L30.6858 98.8807C27.5261 100.97 24.896 103.78 23.0074 107.084C21.1187 110.389 20.0242 114.095 19.8122 117.905V340.91C19.865 343.939 20.3585 346.183 22.9139 348Z" fill="white"/>
<path fill-rule="evenodd" clip-rule="evenodd" d="M162.801 4.94999C161.503 5.0713 160.251 5.49982 159.149 6.20069L14.6077 90.2837C11.7368 92.1304 9.37166 94.6738 7.729 97.6807C5.99132 100.611 5.01565 103.936 4.89242 107.347V330.847C5.01652 333.724 5.49521 334.85 7.03759 335.94L12.8703 339.317C12.8703 339.031 12.8703 338.709 12.8703 338.405V114.619C13.0482 110.377 14.2664 106.246 16.416 102.594C18.4587 98.8751 21.4051 95.7397 24.9789 93.4819L169.697 9.25599L170.619 8.79142L164.609 5.21799C164.061 4.93395 163.453 4.7869 162.836 4.78919L162.801 4.94999ZM18.4548 348C18.0295 348.001 17.6123 347.884 17.2492 347.66L4.43149 340.228C2.98111 339.21 1.81375 337.835 1.04092 336.234C0.268081 334.632 -0.0844331 332.858 0.0170656 331.08V107.168C0.180057 102.929 1.39945 98.8002 3.56278 95.1614C5.61363 91.4493 8.55064 88.3113 12.108 86.0313L156.844 1.80537C159.61 0.358132 162.801 -0.964042 166.825 0.965614L179.785 8.50557C180.326 8.82046 180.727 9.33374 180.902 9.93858C181.078 10.5434 181.015 11.1932 180.727 11.7527C180.44 12.3121 179.949 12.7381 179.357 12.942C178.765 13.1459 178.118 13.112 177.551 12.8473C175.778 12.0075 174.626 12.1862 171.984 13.5441L27.4432 97.6628C24.6174 99.5498 22.2666 102.074 20.5772 105.036C18.8878 107.998 17.9062 111.315 17.7102 114.726V338.28C17.852 341.175 18.2952 342.3 19.8553 343.39C20.3742 343.743 20.7352 344.287 20.8612 344.904C20.9871 345.522 20.8679 346.165 20.529 346.696C20.3095 347.051 20.0038 347.344 19.641 347.547C19.2781 347.75 18.8699 347.857 18.4548 347.857V348Z" fill="#424457"/>
<path fill-rule="evenodd" clip-rule="evenodd" d="M171.129 260.407L26.9064 344.474C20.8964 348.044 16 345.117 16 338.12V114.726C16.2113 110.908 17.3085 107.194 19.203 103.882C21.0975 100.571 23.7362 97.756 26.9064 95.6639L50.2571 82.0454L64.1508 73.9599L133.885 33.3006L146.011 26.1612L171.129 11.5253C177.121 7.95553 182 10.8827 182 17.8972V241.398C181.783 245.204 180.687 248.905 178.799 252.206C176.911 255.507 174.285 258.315 171.129 260.407V260.407Z" fill="white"/>
<path fill-rule="evenodd" clip-rule="evenodd" d="M176.428 12.9092C175.164 12.9891 173.941 13.3871 172.872 14.0665L27.7779 97.9282C24.9653 99.8049 22.6229 102.306 20.9327 105.236C19.2425 108.167 18.2501 111.448 18.0326 114.825V337.709C17.7581 338.642 17.8044 339.64 18.1641 340.544C18.5238 341.448 19.1761 342.205 20.0166 342.693C20.857 343.182 21.8369 343.374 22.7992 343.238C23.7615 343.103 24.6505 342.648 25.3238 341.946L170.418 258.084C173.229 256.207 175.571 253.706 177.261 250.775C178.951 247.845 179.944 244.564 180.163 241.187V18.3041C180.279 17.3697 180.157 16.4212 179.808 15.5466C179.46 14.6719 178.897 13.8995 178.171 13.3009C177.663 13.0299 177.093 12.895 176.517 12.9092H176.428ZM21.536 348C20.1081 348.01 18.7031 347.641 17.4636 346.931C14.5827 345.276 13 342 13 337.709V114.825C13.2173 110.579 14.4441 106.446 16.5783 102.77C18.7125 99.0938 21.6926 95.9811 25.2705 93.6906L170.364 9.82896C174.081 7.69236 177.691 7.40748 180.536 9.08116C183.382 10.7548 185 13.9953 185 18.3041V241.187C184.79 245.423 183.575 249.547 181.457 253.219C179.339 256.891 176.377 260.005 172.818 262.304L27.7246 346.166C25.8625 347.32 23.7254 347.953 21.536 348V348Z" fill="#424457"/>
<path fill-rule="evenodd" clip-rule="evenodd" d="M35 111.441V324L168 247.559V35C123.685 60.4447 79.3513 85.9252 35 111.441Z" fill="white"/>
<path fill-rule="evenodd" clip-rule="evenodd" d="M36.9332 113.303V320.291L165.174 246.65V39.662L36.9332 113.303V113.303ZM34.4577 327C34.03 327 33.6098 326.889 33.2379 326.679C32.8592 326.468 32.5445 326.159 32.3267 325.786C32.109 325.412 31.9962 324.987 32.0001 324.555V111.893C31.9956 111.464 32.1083 111.041 32.3263 110.67C32.5442 110.3 32.8593 109.995 33.2379 109.788L166.412 33.2739C166.785 33.082 167.2 32.9882 167.619 33.0012C168.038 33.0142 168.447 33.1337 168.807 33.3484C169.167 33.563 169.465 33.8656 169.674 34.2274C169.883 34.5891 169.995 34.998 170 35.4151V248.077C170.004 248.507 169.893 248.93 169.679 249.303C169.464 249.676 169.154 249.986 168.78 250.2L35.6058 326.679C35.2548 326.877 34.8609 326.987 34.4577 327Z" fill="#424457"/>
<path fill-rule="evenodd" clip-rule="evenodd" d="M81.2555 94.664V72.6759C97.466 63.2352 113.671 53.8126 129.869 44.4079V66.3961C113.671 75.8487 97.4601 85.2954 81.2377 94.736L81.2555 94.664ZM137 69.2751V33L74 69.7069V106L137 69.2751Z" fill="white"/>
<path fill-rule="evenodd" clip-rule="evenodd" d="M83.926 73.5998V89.8992L127.074 64.3964V48.187L83.926 73.5998ZM81.4985 96.6532C81.0739 96.6502 80.6567 96.5388 80.2848 96.329C79.9237 96.1071 79.6252 95.7929 79.4185 95.4171C79.2119 95.0413 79.1043 94.6169 79.1063 94.1857V72.177C79.1021 71.7477 79.2089 71.325 79.4159 70.9517C79.6229 70.5784 79.9227 70.2679 80.2848 70.0517L128.288 41.6852C128.65 41.4648 129.063 41.3485 129.484 41.3485C129.905 41.3485 130.318 41.4648 130.68 41.6852C131.05 41.8974 131.358 42.2056 131.574 42.5787C131.79 42.9518 131.907 43.3767 131.911 43.8105V65.8192C131.91 66.2561 131.795 66.6848 131.579 67.0613C131.362 67.4379 131.052 67.7488 130.68 67.9625L82.7123 96.329C82.3412 96.541 81.9235 96.6526 81.4985 96.6532V96.6532ZM76.6965 70.574L134.163 36.6783V67.2961L76.8372 101.192V70.574H76.6965ZM74.4098 108C73.9882 107.999 73.5747 107.881 73.2137 107.658C72.845 107.446 72.5381 107.137 72.3247 106.764C72.1114 106.39 71.9993 105.965 72 105.532V69.2052C72.0011 68.7728 72.114 68.3484 72.3271 67.9751C72.5403 67.6019 72.8462 67.293 73.2137 67.08L135.359 30.3387C135.727 30.1169 136.146 30 136.573 30C136.999 30 137.418 30.1169 137.786 30.3387C138.15 30.5558 138.453 30.8656 138.666 31.238C138.879 31.6103 138.994 32.0326 139 32.4639V68.773C139 69.2081 138.888 69.6355 138.675 70.0119C138.462 70.3883 138.155 70.7003 137.786 70.9162L75.6235 107.658C75.259 107.887 74.8379 108.006 74.4098 108V108Z" fill="#424457"/>
<path fill-rule="evenodd" clip-rule="evenodd" d="M73.8049 70L137 33.0881L128.345 28.0398L123.159 25L60 61.93L73.8049 70Z" fill="white"/>
<path fill-rule="evenodd" clip-rule="evenodd" d="M65.2528 61.6377L74.0975 66.7655L131.747 33.3551L122.903 28.2627L65.2528 61.6377ZM74.0975 71.9998C73.6734 71.999 73.2576 71.8825 72.8946 71.6626L59.2207 63.7492C58.8472 63.5392 58.5369 63.2325 58.3222 62.8611C58.1074 62.4896 57.9962 62.0671 58.0001 61.6377C57.9968 61.2061 58.1081 60.7813 58.3226 60.4071C58.5371 60.0329 58.8471 59.7228 59.2207 59.5085L121.647 23.3124C122.021 23.1074 122.441 23 122.867 23C123.294 23 123.713 23.1074 124.088 23.3124L137.779 31.2436C138.145 31.463 138.448 31.7719 138.662 32.1412C138.875 32.5105 138.992 32.9282 139 33.3551C138.998 33.7833 138.885 34.2037 138.671 34.5742C138.457 34.9447 138.149 35.2524 137.779 35.4665L75.265 71.6626C74.8984 71.8891 74.4749 72.0061 74.0444 71.9998H74.0975Z" fill="#424457"/>
<path fill-rule="evenodd" clip-rule="evenodd" d="M56.0076 151.634C54.8409 152.519 53.8702 153.711 53.174 155.111C52.4778 156.512 52.0757 158.083 52 159.697V159.697C52 162.642 53.7996 163.851 56.0076 162.361C57.1695 161.475 58.136 160.286 58.8293 158.889C59.5227 157.492 59.9237 155.925 60 154.316V154.316C60 151.336 58.2155 150.161 56.0076 151.634Z" fill="white"/>
<path fill-rule="evenodd" clip-rule="evenodd" d="M57.9954 154.176C57.7024 154.239 57.4209 154.353 57.1615 154.514C56.1962 155.248 55.3922 156.203 54.8066 157.311C54.2211 158.419 53.8684 159.653 53.7737 160.926C53.7516 161.271 53.8177 161.616 53.9648 161.923C54.2524 161.824 54.5314 161.698 54.7988 161.546C55.7858 160.833 56.6111 159.888 57.2128 158.781C57.8145 157.674 58.1771 156.434 58.2734 155.153C58.2734 154.514 58.1344 154.213 58.0649 154.176H57.9954ZM53.9301 166.999C53.0945 167.014 52.2712 166.779 51.55 166.322C50.7137 165.749 50.0363 164.94 49.5898 163.984C49.1433 163.027 48.9441 161.958 49.0135 160.888C49.1049 158.708 49.6779 156.583 50.6845 154.692C51.6911 152.801 53.102 151.199 54.7988 150.02C55.6104 149.405 56.5671 149.053 57.5569 149.006C58.5467 148.958 59.5286 149.217 60.3873 149.752C61.2461 150.286 61.9462 151.075 62.4057 152.025C62.8652 152.975 63.0649 154.047 62.9815 155.116C62.8893 157.297 62.3121 159.423 61.2989 161.312C60.2857 163.201 58.8664 164.797 57.1615 165.965C56.1921 166.623 55.0744 166.981 53.9301 166.999V166.999Z" fill="#424457"/>
<path fill-rule="evenodd" clip-rule="evenodd" d="M56.0076 180.669C54.8437 181.63 53.8749 182.92 53.1789 184.437C52.483 185.954 52.0792 187.655 52 189.404V189.404C52 192.62 53.7996 193.914 56.0076 192.315C57.17 191.359 58.1372 190.072 58.8308 188.557C59.5244 187.043 59.9249 185.345 60 183.6V183.6C60 180.403 58.2155 179.09 56.0076 180.669Z" fill="white"/>
<path fill-rule="evenodd" clip-rule="evenodd" d="M57.1608 183.173C56.1978 183.864 55.3952 184.763 54.8098 185.806C54.2244 186.85 53.8707 188.012 53.7735 189.211C53.7481 189.542 53.8143 189.874 53.9646 190.17C54.2624 190.107 54.5456 189.987 54.7984 189.814C55.7849 189.145 56.61 188.255 57.2117 187.212C57.8135 186.17 58.1761 185.001 58.2725 183.795C58.2725 183.173 58.1335 182.889 58.0641 182.853C57.7711 182.913 57.4896 183.021 57.2303 183.173H57.1608ZM53.9298 195C53.0945 195.011 52.2719 194.79 51.5501 194.36C50.7125 193.815 50.0346 193.049 49.5881 192.143C49.1417 191.236 48.9433 190.223 49.014 189.211C49.1095 187.155 49.6843 185.153 50.6905 183.37C51.6967 181.588 53.1052 180.077 54.7984 178.964V178.964C55.6111 178.382 56.5695 178.049 57.5609 178.005C58.5524 177.961 59.5356 178.207 60.3949 178.714C61.2543 179.221 61.9541 179.969 62.412 180.869C62.8699 181.769 63.067 182.784 62.9799 183.795C62.8835 185.852 62.3045 187.855 61.2917 189.635C60.2789 191.415 58.8621 192.92 57.1608 194.023C56.1915 194.644 55.0739 194.982 53.9298 195V195Z" fill="#424457"/>
<path fill-rule="evenodd" clip-rule="evenodd" d="M56.0076 212.637C54.844 213.52 53.8751 214.708 53.1791 216.106C52.483 217.503 52.0791 219.071 52 220.683V220.683C52 223.635 53.7996 224.847 56.0076 223.371C57.172 222.486 58.1404 221.295 58.8341 219.894C59.5278 218.493 59.9272 216.921 60 215.307C60 212.373 58.2155 211.144 56.0076 212.637Z" fill="white"/>
<path fill-rule="evenodd" clip-rule="evenodd" d="M58.0004 213.84C57.7121 213.924 57.4327 214.037 57.166 214.177C56.2023 214.868 55.3991 215.767 54.8133 216.81C54.2275 217.853 53.8735 219.015 53.7763 220.213C53.7593 220.544 53.8251 220.874 53.9675 221.171C54.2623 221.099 54.5439 220.979 54.8019 220.816C55.7877 220.141 56.6121 219.248 57.214 218.203C57.8158 217.159 58.1796 215.989 58.2785 214.781C58.3157 214.452 58.2421 214.12 58.0699 213.84H58.0004ZM53.9327 226C53.0976 226.005 52.2759 225.785 51.5512 225.361C50.7144 224.815 50.037 224.048 49.5904 223.143C49.1438 222.237 48.9445 221.225 49.0133 220.213C49.1075 218.158 49.6821 216.155 50.6892 214.373C51.6963 212.592 53.1065 211.082 54.8019 209.97C55.6238 209.401 56.5811 209.069 57.5725 209.01C58.5639 208.95 59.5526 209.166 60.434 209.633C61.2702 210.181 61.9479 210.947 62.3971 211.852C62.8463 212.757 63.0508 213.768 62.9893 214.781C62.8942 216.84 62.3154 218.845 61.3019 220.628C60.2884 222.411 58.8699 223.918 57.166 225.024C56.1928 225.638 55.0764 225.975 53.9327 226V226Z" fill="#424457"/>
<path fill-rule="evenodd" clip-rule="evenodd" d="M20.9692 348L9.86667 340.552C9.04947 339.932 8.37827 339.085 7.91375 338.087C6.8527 335.765 7.08335 332.157 7.08335 329.567V115.897C6.84305 111.959 7.1231 108.001 7.91375 104.162C8.38992 102.353 9.05616 100.619 9.89744 99L21 106.466C19.9378 108.513 19.1643 110.744 18.7087 113.074C18.2331 115.969 18.0627 118.92 18.2013 121.862V336.64C18.0716 339.026 18.1592 341.421 18.4627 343.785C18.6188 344.645 18.9208 345.461 19.3511 346.185C19.7814 346.909 20.3315 347.526 20.9692 348V348Z" fill="white"/>
<path fill-rule="evenodd" clip-rule="evenodd" d="M6.41555 100.84C6.08632 101.641 5.79907 102.461 5.55506 103.295C4.81702 106.295 4.53232 109.4 4.71142 112.493V328.376C4.51435 330.461 4.74451 332.566 5.38632 334.549C5.71468 335.191 6.19039 335.735 6.76989 336.133L12.321 339.495C12.2197 338.161 12.321 336.791 12.321 335.546V334.176V119.058C12.1962 116.326 12.4003 113.588 12.9284 110.91C13.3075 109.152 13.8735 107.445 14.6157 105.821L6.4493 100.84H6.41555ZM17.6358 348C17.2387 348.001 16.8484 347.89 16.5054 347.679L4.28961 340.26C3.02967 339.396 1.9921 338.216 1.26939 336.827C0.231587 334.127 -0.179134 331.205 0.0714475 328.304V112.529C-0.113721 108.935 0.2393 105.332 1.11754 101.854C1.67804 99.8515 2.48945 97.9368 3.53032 96.1607C3.84528 95.6206 4.34743 95.2312 4.93021 95.0751C5.51299 94.9189 6.13052 95.0084 6.65177 95.3245L18.8507 102.726C19.3841 103.062 19.7717 103.605 19.9305 104.238C20.0066 104.556 20.0204 104.888 19.971 105.212C19.9217 105.536 19.8104 105.847 19.6437 106.124C18.6152 107.942 17.8583 109.916 17.3996 111.977C16.9732 114.291 16.809 116.65 16.9103 119.005V335.688C16.8255 337.4 16.9103 339.118 17.1634 340.812C17.2658 341.388 17.4788 341.936 17.7892 342.423C18.0997 342.909 18.5011 343.324 18.9688 343.641C19.4653 343.989 19.8124 344.529 19.9355 345.145C20.0585 345.76 19.9477 346.402 19.6268 346.932C19.4032 347.268 19.1047 347.541 18.7575 347.728C18.4104 347.914 18.0252 348.007 17.6358 348V348Z" fill="#424457"/>
<path fill-rule="evenodd" clip-rule="evenodd" d="M60 68.2534L66.2202 71.8891V101.469L74 106V69.1486L60 61V68.2534Z" fill="white"/>
<path fill-rule="evenodd" clip-rule="evenodd" d="M68.6317 99.7054L71.2768 101.296V70.9066L62.6891 65.7582V67.1883L67.4295 70.0485C67.7872 70.2613 68.0849 70.5682 68.2929 70.9384C68.5008 71.3085 68.6118 71.7291 68.6146 72.1579V99.7054H68.6317ZM73.6298 108C73.2181 107.999 72.8143 107.882 72.4619 107.66L65.0936 103.245C64.7298 103.035 64.4275 102.726 64.2188 102.352C64.0101 101.977 63.9029 101.551 63.9085 101.118V73.588L59.1853 70.7457C58.8215 70.5357 58.5192 70.227 58.3105 69.8524C58.1018 69.4778 57.9946 69.0513 58.0002 68.6184V61.4678C57.997 61.033 58.105 60.605 58.3133 60.228C58.5216 59.851 58.8225 59.5385 59.1853 59.3227C59.5441 59.1112 59.9495 59 60.3618 59C60.7742 59 61.1795 59.1112 61.5383 59.3227L74.8149 67.3313C75.1737 67.5427 75.4724 67.8493 75.6806 68.2198C75.8887 68.5903 75.9989 69.0115 76 69.4407V105.497C76.0007 105.927 75.8912 106.349 75.6829 106.72C75.4746 107.09 75.1749 107.397 74.8149 107.607C74.4571 107.829 74.0461 107.94 73.6298 107.929V108Z" fill="#424457"/>
<path fill-rule="evenodd" clip-rule="evenodd" d="M74.4393 151C74.0108 151.004 73.5892 150.89 73.2185 150.67C72.8478 150.45 72.5417 150.132 72.3322 149.75C72.1705 149.467 72.065 149.154 72.022 148.829C71.979 148.504 71.9992 148.174 72.0815 147.858C72.1638 147.541 72.3066 147.244 72.5016 146.984C72.6965 146.724 72.9399 146.506 73.2176 146.343L149.356 101.332C149.633 101.169 149.938 101.063 150.255 101.021C150.571 100.979 150.893 101.001 151.201 101.086C151.509 101.171 151.798 101.317 152.051 101.516C152.304 101.715 152.517 101.964 152.676 102.247C152.835 102.53 152.938 102.843 152.98 103.167C153.021 103.491 152.999 103.82 152.916 104.135C152.833 104.451 152.69 104.746 152.496 105.005C152.301 105.264 152.058 105.481 151.782 105.644L75.6434 150.656C75.2786 150.877 74.8633 150.996 74.4393 151Z" fill="#424457"/>
<path fill-rule="evenodd" clip-rule="evenodd" d="M74.4405 181C74.0134 181.007 73.5922 180.901 73.2214 180.693C72.8505 180.485 72.5437 180.182 72.3334 179.817C72.1712 179.544 72.0655 179.242 72.0222 178.929C71.9789 178.616 71.999 178.297 72.0813 177.992C72.1635 177.686 72.3063 177.4 72.5015 177.148C72.6967 176.897 72.9405 176.686 73.2187 176.528L149.358 133.308C149.918 132.999 150.579 132.919 151.199 133.085C151.818 133.251 152.346 133.65 152.669 134.196C152.83 134.466 152.935 134.765 152.978 135.075C153.021 135.386 153.001 135.702 152.918 136.004C152.836 136.307 152.693 136.591 152.498 136.839C152.304 137.087 152.061 137.294 151.784 137.449L75.6446 180.686C75.2752 180.886 74.8618 180.993 74.4405 181V181Z" fill="#424457"/>
<path fill-rule="evenodd" clip-rule="evenodd" d="M74.4743 212C74.0377 212.008 73.6074 211.895 73.2297 211.675C72.852 211.454 72.5413 211.134 72.3313 210.748C72.0039 210.176 71.9148 209.496 72.0835 208.857C72.2522 208.218 72.665 207.673 73.2317 207.339L128.444 175.244C129.008 174.973 129.653 174.926 130.249 175.112C130.846 175.298 131.351 175.703 131.665 176.247C131.978 176.791 132.076 177.434 131.94 178.048C131.804 178.662 131.443 179.202 130.93 179.56L75.6808 211.673C75.3172 211.894 74.899 212.008 74.4743 212V212Z" fill="#424457"/>
<path fill-rule="evenodd" clip-rule="evenodd" d="M123 49.279V61.0164L130 66V45L123 49.279Z" fill="white"/>
<path fill-rule="evenodd" clip-rule="evenodd" d="M125.016 59.9623L127.855 61.766V48.6708L125.016 50.2942V59.8721V59.9623ZM130.382 68.981C129.877 68.9836 129.385 68.8253 128.98 68.53L121.143 63.3352C120.795 63.1105 120.508 62.8054 120.309 62.4468C120.11 62.0882 120.004 61.6871 120 61.279V48.9594C120 48.5237 120.117 48.0956 120.341 47.7186C120.564 47.3417 120.886 47.0292 121.272 46.8129L129.183 42.3397C129.565 42.1173 130.001 42 130.446 42C130.891 42 131.327 42.1173 131.709 42.3397C132.097 42.5521 132.42 42.8608 132.647 43.2344C132.873 43.6081 132.995 44.0336 133 44.4681V66.5098C133 66.9612 132.872 67.4038 132.632 67.7889C132.391 68.1739 132.046 68.4866 131.635 68.6924C131.248 68.9056 130.808 69.0116 130.363 68.999L130.382 68.981Z" fill="#424457"/>
<path fill-rule="evenodd" clip-rule="evenodd" d="M82 85.1737L122.452 61L130 66.2869L82 95V85.1737Z" fill="white"/>
<path fill-rule="evenodd" clip-rule="evenodd" d="M83.9288 86.3519V90.274L125.876 66.3868L122.692 64.2572L83.9288 86.3519V86.3519ZM81.4465 97C81.0123 96.9971 80.5857 96.8873 80.2054 96.6806C79.836 96.462 79.5307 96.1523 79.3194 95.782C79.1081 95.4118 78.9981 94.9936 79.0002 94.5687V85.0209C78.995 84.593 79.1035 84.1712 79.3149 83.7976C79.5264 83.4239 79.8334 83.1115 80.2054 82.8913L121.577 59.3591C121.971 59.1242 122.422 59 122.881 59C123.341 59 123.792 59.1242 124.185 59.3591L131.902 64.5234C132.248 64.7544 132.529 65.067 132.721 65.4328C132.912 65.7986 133.008 66.2059 132.999 66.6175C132.976 67.0312 132.848 67.4327 132.629 67.7858C132.409 68.1389 132.104 68.4327 131.74 68.6407L82.6877 96.5918C82.3099 96.8069 81.8826 96.923 81.4465 96.929V97Z" fill="#424457"/>
<path fill-rule="evenodd" clip-rule="evenodd" d="M156 208.009C156 187.017 185.538 170 221.991 170C258.444 170 288 187.017 288 208.009C288 229.001 258.534 246 221.991 246C185.448 246 156 229.001 156 208.009Z" fill="white"/>
<path fill-rule="evenodd" clip-rule="evenodd" d="M221.991 172.01C186.736 172.01 158.036 187.981 158.036 207.5C158.036 227.019 186.736 242.99 221.991 242.99C257.246 242.99 285.946 227.019 285.946 207.5C285.946 187.981 257.246 172.01 221.991 172.01ZM221.991 247C184.486 247 154 229.255 154 207.5C154 185.745 184.504 168 221.991 168C259.478 168 290 185.745 290 207.5C290 229.255 259.478 247 221.991 247Z" fill="#424457"/>
<path fill-rule="evenodd" clip-rule="evenodd" d="M236.448 181.355C248.48 181.252 260.436 183.261 271.78 187.291C283.864 191.729 298.398 200.642 301.45 214.225C301.809 215.798 301.993 217.406 302 219.02V190.66C301.805 174.368 285.319 163.922 271.833 158.931C247.326 149.894 213.007 150.874 190.204 164.011C180.426 169.644 171.145 178.557 171.021 190.66V220C170.937 218.061 171.104 216.12 171.518 214.225C174.428 201.07 188.234 192.3 199.911 187.79C211.101 183.616 222.933 181.444 234.869 181.373L236.448 181.355Z" fill="white"/>
<path fill-rule="evenodd" clip-rule="evenodd" d="M222.107 171.998C205.357 171.998 188.75 175.689 176.357 182.696C169.589 186.565 158.196 194.962 158.054 207.657V222.365C164.786 211.49 178.089 205.303 184.393 202.878C195.874 198.612 208.018 196.397 220.268 196.335H222.054C234.396 196.242 246.661 198.287 258.304 202.379C264.929 204.804 279 211.08 285.982 222.365V207.657C285.768 189.828 263.679 180.289 256.911 177.811C245.744 173.887 233.981 171.926 222.143 172.016L222.107 171.998ZM156.036 239C155.771 239.002 155.508 238.952 155.262 238.853C155.016 238.754 154.793 238.608 154.604 238.422C154.415 238.237 154.264 238.016 154.16 237.773C154.057 237.529 154.002 237.268 154 237.003V207.639C154.125 196.745 161.339 186.654 174.339 179.237C196.554 166.543 231.857 164.332 258.268 173.995C265.643 176.688 289.75 187.135 290 207.621V236.058C289.995 236.591 289.781 237.101 289.404 237.478C289.026 237.854 288.516 238.068 287.982 238.073C287.454 238.068 286.949 237.86 286.573 237.49C286.196 237.121 285.978 236.62 285.964 236.094C285.958 234.613 285.796 233.137 285.482 231.69C282.196 216.945 264.393 208.958 256.911 206.212C245.703 202.254 233.888 200.287 222 200.4H220.321C208.554 200.462 196.889 202.586 185.857 206.676C178.714 209.439 161.732 217.373 158.536 231.637C158.157 233.393 158.001 235.19 158.071 236.985C158.072 237.513 157.864 238.021 157.493 238.397C157.122 238.774 156.618 238.991 156.089 239H156.036Z" fill="#424457"/>
<path fill-rule="evenodd" clip-rule="evenodd" d="M126 211V238.889C126.587 247.753 129.95 254.183 135.323 260.664C144.611 271.175 156.674 277.657 169.698 282.527C191.441 289.957 214.586 292.547 237.468 290.113C246.1 289.243 254.641 287.655 263 285.365V257.511C254.641 259.801 246.1 261.389 237.468 262.258C214.585 264.679 191.441 262.083 169.698 254.656C157.012 249.943 145.625 243.864 136.355 233.966C130.323 227.152 126.605 220.285 126 211Z" fill="white"/>
<path fill-rule="evenodd" clip-rule="evenodd" d="M129.121 223.017V236.652C129.64 244.294 132.31 250.609 138.078 257.678C146.013 266.827 156.725 273.824 171.808 279.439C193.417 286.953 216.422 289.569 239.162 287.1C247.221 286.277 255.2 284.808 263.023 282.704V258.377C255.304 260.363 247.448 261.772 239.521 262.593C216.167 265.122 192.544 262.426 170.357 254.7C155.113 248.959 144.526 242.267 135.982 232.992C133.3 229.946 130.979 226.599 129.067 223.017H129.121ZM222.27 291.997C204.579 292.102 187.004 289.141 170.322 283.243C154.558 277.304 143.308 270.021 134.871 260.297C128.494 252.493 125.556 245.478 125.001 236.795V208.091C124.984 207.553 125.182 207.031 125.55 206.639C125.917 206.247 126.426 206.018 126.962 206.001C127.499 205.984 128.021 206.182 128.412 206.55C128.804 206.919 129.033 207.428 129.049 207.965C129.605 216.2 132.632 222.874 138.991 230.265C147.052 239.02 157.155 245.389 171.737 250.896C201.639 261.174 233.941 262.174 264.42 253.767C264.722 253.677 265.041 253.659 265.351 253.715C265.661 253.771 265.953 253.9 266.205 254.09C266.456 254.281 266.659 254.528 266.797 254.811C266.935 255.095 267.004 255.407 267 255.722V284.265C267 284.709 266.855 285.141 266.586 285.494C266.317 285.848 265.94 286.103 265.513 286.221C257.005 288.595 248.309 290.234 239.521 291.118C233.735 291.692 227.985 291.997 222.306 291.997H222.27Z" fill="#424457"/>
<path fill-rule="evenodd" clip-rule="evenodd" d="M304 230.501V259C309.737 252.319 313.82 244.473 314 235.517V207C313.64 216.207 309.953 223.587 304 230.501Z" fill="white"/>
<path fill-rule="evenodd" clip-rule="evenodd" d="M309.341 231.786V253.093C313.228 248.049 315.429 242.081 315.679 235.914V223.214C313.911 226.273 311.786 229.147 309.341 231.786V231.786ZM307.19 260.998C306.927 261.01 306.664 260.968 306.421 260.875C306.006 260.733 305.648 260.479 305.394 260.146C305.14 259.814 305.003 259.419 305 259.013V231.066C305.005 230.591 305.188 230.132 305.519 229.766C312.126 222.74 315.333 215.714 315.679 207.932C315.708 207.416 315.95 206.93 316.357 206.571C316.763 206.212 317.303 206.008 317.868 206V206C318.436 206.022 318.972 206.242 319.369 206.614C319.765 206.986 319.991 207.483 320 208.003V235.967C319.789 244.363 316.044 252.531 308.784 260.295C308.587 260.508 308.343 260.681 308.068 260.802C307.794 260.923 307.494 260.99 307.19 260.998V260.998Z" fill="#424457"/>
<path fill-rule="evenodd" clip-rule="evenodd" d="M263 257V285.109C264.349 286.276 265.814 287.306 267.373 288.183L337.717 327.863C343.16 330.73 349.16 332.422 355.317 332.828C362.198 333.382 369.122 332.596 375.694 330.513C382.505 328.111 390.032 323.941 391 316.185V288.112C390.014 295.903 382.505 300.055 375.694 302.44C369.12 304.513 362.194 305.281 355.317 304.702C349.162 304.286 343.164 302.594 337.717 299.737L267.373 260.056C265.815 259.185 264.35 258.161 263 257V257Z" fill="white"/>
<path fill-rule="evenodd" clip-rule="evenodd" d="M266.048 282.52C267.111 283.382 268.243 284.155 269.434 284.829L339.706 325.014C344.893 327.79 350.618 329.415 356.49 329.776C363.086 330.375 369.736 329.657 376.051 327.663C384.578 324.638 389.271 320.307 389.952 314.829V295.444C386.453 298.956 382.148 301.562 377.413 303.033C370.567 305.207 363.362 306.022 356.204 305.432C349.763 304.992 343.488 303.199 337.789 300.169L267.428 259.967L266.102 259.125V282.61L266.048 282.52ZM360.843 334C359.321 334 357.78 334 356.15 333.821C349.705 333.395 343.426 331.595 337.736 328.541L267.374 288.284C265.698 287.326 264.125 286.199 262.681 284.919C262.466 284.727 262.295 284.493 262.178 284.231C262.061 283.969 262 283.685 262 283.397V254.973C262.011 254.592 262.129 254.221 262.342 253.905C262.554 253.588 262.852 253.338 263.2 253.183C263.554 253.02 263.947 252.965 264.332 253.022C264.717 253.079 265.077 253.247 265.368 253.505C266.614 254.615 267.978 255.587 269.434 256.405L339.706 296.518C344.888 299.308 350.615 300.939 356.49 301.297C363.097 301.834 369.745 301.062 376.051 299.024C384.578 296.017 389.271 291.667 389.952 286.19C389.972 285.932 390.043 285.68 390.162 285.45C390.28 285.219 390.444 285.015 390.642 284.848C390.841 284.682 391.07 284.556 391.318 284.479C391.565 284.402 391.825 284.375 392.083 284.4C392.6 284.431 393.085 284.658 393.441 285.033C393.797 285.409 393.996 285.905 394 286.422V314.919C393.086 322.276 387.48 327.735 377.359 331.333C372.029 333.089 366.455 333.989 360.843 334Z" fill="#424457"/>
<path fill-rule="evenodd" clip-rule="evenodd" d="M175.566 233.349C163.643 226.497 156.271 217.033 156.271 206.603C156.271 196.172 163.643 186.708 175.566 179.856C187.488 173.004 203.98 168.799 222.186 168.799C240.391 168.799 256.883 173.022 268.806 179.856C280.728 186.69 288.118 196.154 288.118 206.603C288.118 217.051 280.746 226.497 268.806 233.349C256.865 240.202 240.391 244.388 222.186 244.388C203.98 244.388 187.506 240.166 175.566 233.349ZM127 206.603C127 221.667 137.709 235.228 154.897 245.193C172.085 255.158 195.948 261.169 222.186 261.169C236.479 261.235 250.713 259.327 264.486 255.498C265.813 256.701 267.275 257.745 268.841 258.611L338.896 298.794C351.016 305.735 370.809 305.735 382.911 298.794C395.03 291.834 395.03 280.492 382.911 273.55L312.873 233.349C311.158 232.384 309.367 231.558 307.519 230.88C313.873 223.563 317.443 215.298 317.443 206.585C317.443 191.521 306.734 177.87 289.546 167.976C272.358 158.083 248.494 152 222.257 152C196.02 152 172.174 158.119 154.968 167.976C137.763 177.834 127.071 191.521 127.071 206.585L127 206.603Z" fill="white"/>
<path fill-rule="evenodd" clip-rule="evenodd" d="M176.594 232.026C188.748 238.957 204.952 242.689 222.21 242.689C239.467 242.689 255.672 238.904 267.825 232.026C279.622 225.325 286.118 216.51 286.118 207.233C286.118 197.955 279.622 189.122 267.825 182.351C255.69 175.42 239.485 171.687 222.21 171.687C204.934 171.687 188.748 175.491 176.594 182.351C164.816 189.051 158.302 197.884 158.302 207.233C158.302 216.581 164.798 225.343 176.594 232.026ZM222.21 246.795C204.274 246.795 187.338 242.814 174.595 235.545C161.478 228.08 154.268 218.021 154.268 207.233C154.268 196.445 161.407 186.385 174.595 178.921C187.338 171.652 204.274 167.671 222.21 167.671C240.145 167.671 257.1 171.652 269.824 178.921C282.941 186.385 290.169 196.445 290.169 207.233C290.169 218.021 282.941 228.08 269.824 235.545C257.082 242.814 240.181 246.795 222.21 246.795ZM264.506 253.779C264.318 253.783 264.132 253.813 263.953 253.868C250.362 257.629 236.315 259.501 222.21 259.431C197.135 259.431 173.596 253.886 155.928 243.809C138.599 233.945 129.158 220.953 129.158 207.233C129.158 193.512 138.688 180.574 155.928 170.657C173.596 160.579 197.135 155.034 222.21 155.034C247.284 155.034 270.841 160.579 288.509 170.657C305.821 180.52 315.368 193.512 315.368 207.233C315.368 215.213 312.174 222.891 305.928 230.053C305.723 230.296 305.577 230.583 305.503 230.891C305.429 231.2 305.427 231.521 305.499 231.83C305.578 232.148 305.736 232.441 305.957 232.683C306.178 232.925 306.456 233.108 306.766 233.216C308.532 233.836 310.24 234.609 311.87 235.527L381.829 275.498C387.022 278.466 389.895 282.305 389.895 286.286C389.895 290.267 387.183 294.123 381.829 297.074C370.443 303.578 351.204 303.578 339.818 297.074L269.771 257.192C268.338 256.385 266.998 255.425 265.773 254.33C265.403 253.992 264.919 253.802 264.417 253.797L264.506 253.779ZM360.877 305.978C352.867 306.134 344.947 304.269 337.855 300.557L267.808 260.675C266.466 259.892 265.184 259.013 263.971 258.045C250.345 261.708 236.287 263.532 222.174 263.466C196.422 263.466 172.204 257.725 153.893 247.31C135.244 236.647 125 222.428 125 207.233C125 192.037 135.244 177.766 153.893 167.155C172.15 156.741 196.422 151 222.174 151C247.927 151 272.144 156.741 290.473 167.155C309.104 177.819 319.366 192.037 319.366 207.233C319.192 215.744 316.15 223.95 310.728 230.533C311.797 230.991 312.84 231.507 313.851 232.079L383.881 271.996C390.395 275.693 394 280.776 394 286.215C394 291.653 390.431 296.878 383.881 300.433C376.814 304.191 368.906 306.105 360.895 305.996L360.877 305.978Z" fill="#424457"/>
<path fill-rule="evenodd" clip-rule="evenodd" d="M208.892 207C211.896 193.783 223.59 183.334 239 178.327C235.84 177.103 232.555 176.248 229.207 175.779C199.739 171.464 171.888 185.518 167 207H208.892Z" fill="white"/>
<path fill-rule="evenodd" clip-rule="evenodd" d="M169.688 204.888H207.34C210.503 193.782 219.778 184.289 232.714 178.618C231.505 178.328 230.244 178.093 228.911 177.894C201.778 173.962 175.907 185.937 169.688 204.888ZM208.903 209H167.04C166.736 209.001 166.435 208.931 166.161 208.796C165.887 208.661 165.647 208.465 165.459 208.221C165.256 207.973 165.114 207.679 165.046 207.364C164.978 207.049 164.985 206.721 165.068 206.409C170.203 183.981 199.095 169.342 229.48 173.799C232.985 174.279 236.425 175.166 239.732 176.444C240.117 176.603 240.445 176.878 240.672 177.232C240.898 177.587 241.012 178.004 240.999 178.427C240.985 178.85 240.845 179.259 240.596 179.597C240.347 179.936 240.002 180.189 239.608 180.321C224.344 185.303 213.594 195.412 210.858 207.351C210.765 207.812 210.521 208.226 210.165 208.526C209.81 208.826 209.365 208.993 208.903 209Z" fill="#424457"/>
</svg>
