<svg width="300" height="386" viewBox="0 0 300 386" fill="none" xmlns="http://www.w3.org/2000/svg">
<path fill-rule="evenodd" clip-rule="evenodd" d="M159.966 9.53836V18.6824L165.963 22.1438L172.629 18.2937C174.032 17.4571 175.636 17.0153 177.271 17.0153C178.905 17.0153 180.509 17.4571 181.912 18.2937L184.994 20.1447C185.606 20.4836 186.115 20.9803 186.468 21.5828C186.821 22.1854 187.005 22.8714 187 23.5691V261.184C187.008 261.885 186.826 262.575 186.473 263.181C186.12 263.787 185.609 264.287 184.994 264.627L60.8179 336.225C55.2478 339.483 50.0304 342.926 43.8847 345.073C34.4256 347.928 24.2869 347.603 15.0315 344.147C8.84862 341.426 3.25994 337.65 3 330.265V92.5566L3.14854 91.7422C3.37268 90.0415 4.01005 88.4212 5.00525 87.022C8.03168 82.5056 17.6123 78.0261 21.7156 75.6013L145.577 4.28147C146.979 3.44293 148.583 3 150.218 3C151.853 3 153.458 3.44293 154.86 4.28147L157.924 6.13249C158.533 6.46765 159.04 6.96152 159.39 7.56137C159.74 8.16122 159.92 8.84452 159.91 9.53836H159.966Z" fill="white"/>
<path fill-rule="evenodd" clip-rule="evenodd" d="M149.694 5.30859C148.523 5.3194 147.377 5.64621 146.376 6.25457L22.6933 77.76C21.8775 78.2237 20.8393 78.7802 19.7639 79.3552C15.4255 81.7109 8.88077 85.2537 6.78572 88.3699C6.05042 89.4216 5.58557 90.6384 5.43229 91.9127L5.22835 92.9329V330.598C5.41375 335.513 8.41728 338.889 15.6665 342.098C24.338 345.339 33.8398 345.607 42.6797 342.859C47.1457 341.137 51.4207 338.955 55.4354 336.348L58.9766 334.252L182.974 262.561C183.53 262.209 183.604 262.079 183.641 261.263V23.2267C183.648 22.9918 183.59 22.7597 183.472 22.5565C183.354 22.3533 183.181 22.1871 182.974 22.0767L179.933 20.2218C178.934 19.6123 177.785 19.2899 176.615 19.2899C175.444 19.2899 174.296 19.6123 173.296 20.2218L166.622 24.0614C166.22 24.2979 165.762 24.4226 165.296 24.4226C164.83 24.4226 164.372 24.2979 163.97 24.0614L157.982 20.6299C157.582 20.3885 157.251 20.0485 157.021 19.6425C156.79 19.2365 156.668 18.7781 156.665 18.3113V9.03688C156.672 8.80429 156.615 8.57431 156.501 8.37167C156.386 8.16904 156.219 8.00144 156.016 7.88687L152.939 6.14328C151.939 5.53235 150.792 5.20533 149.62 5.19731L149.694 5.30859ZM30.2206 350C24.5994 349.986 19.0252 348.975 13.7569 347.014C7.43465 344.213 0.333725 339.928 0 330.691L0.222474 91.0966C0.46423 89.0483 1.2095 87.0918 2.39168 85.4021C5.20981 81.2101 12.1624 77.4447 17.2239 74.6995C18.2622 74.1245 19.2448 73.6051 20.005 73.1414L143.724 1.65449C145.524 0.571934 147.585 0 149.685 0C151.785 0 153.846 0.571934 155.646 1.65449L158.705 3.50936C159.721 4.08086 160.566 4.91345 161.153 5.92107C161.739 6.9287 162.046 8.0748 162.042 9.24092V16.9757L165.361 18.8306L170.682 15.7701C172.483 14.682 174.548 14.1069 176.652 14.1069C178.756 14.1069 180.82 14.682 182.622 15.7701L185.699 17.625C186.71 18.1997 187.549 19.0341 188.129 20.0417C188.709 21.0493 189.01 22.1937 189 23.3565V261.411C189.011 262.549 188.727 263.671 188.174 264.666C187.621 265.661 186.82 266.495 185.848 267.087L58.2165 340.911C53.8396 343.734 49.179 346.09 44.3113 347.941C39.7305 349.268 34.9895 349.961 30.2206 350V350Z" fill="#424457"/>
<path fill-rule="evenodd" clip-rule="evenodd" d="M151 44.9034L166 36V275.078L151 284V44.9034Z" fill="white"/>
<path fill-rule="evenodd" clip-rule="evenodd" d="M156.372 47.0597V285.757L166.628 279.885V41.2247L156.372 47.0597V47.0597ZM153.667 293C153.198 292.993 152.738 292.865 152.334 292.629C151.928 292.399 151.591 292.066 151.357 291.667C151.123 291.267 151 290.813 151 290.351V45.5408C150.998 45.0786 151.12 44.6241 151.355 44.2239C151.589 43.8236 151.927 43.4918 152.334 43.2623L167.999 34.3524C168.405 34.1215 168.865 34 169.333 34C169.801 34 170.261 34.1216 170.666 34.3525C171.072 34.5834 171.409 34.9156 171.643 35.3155C171.877 35.7154 172 36.1691 172 36.6308V281.423C172.003 281.888 171.882 282.345 171.647 282.749C171.413 283.152 171.075 283.487 170.666 283.72L155.02 292.629C154.612 292.872 154.144 293.001 153.667 293Z" fill="#424457"/>
<path fill-rule="evenodd" clip-rule="evenodd" d="M39 62V344.613C30.7748 346.678 22.141 346.433 14.0452 343.906C7.18032 341.396 0.29686 337.399 0 329.218V90.503L0.148433 89.6849C1.02046 82.2477 9.79638 78.6407 15.5109 75.3311C23.3406 70.8316 31.0775 66.3322 39 62Z" fill="white"/>
<path fill-rule="evenodd" clip-rule="evenodd" d="M39.5728 68.2085C32.9397 71.9214 26.3819 75.6343 19.7487 79.3472L16.9221 80.8881C11.8342 83.5985 6.08668 86.6802 5.5025 91.6741L5.29522 92.6951V330.563C5.48366 335.928 9.34672 339.696 17.8078 342.741C24.8462 344.835 32.2951 345.217 39.5163 343.855V68.2085H39.5728ZM31.3945 350C26.2427 349.985 21.1204 349.235 16.1872 347.772C12.1734 346.343 0.414573 342.203 0 330.656L0.22615 90.8572C1.0553 83.32 8.46105 79.3843 14.397 76.2098C15.3392 75.7086 16.2814 75.2445 17.0917 74.7432C25.0817 70.1949 32.9397 65.7394 41.005 61.3396C41.4113 61.1169 41.8685 61 42.3335 61C42.7985 61 43.2557 61.1169 43.662 61.3396C44.0704 61.574 44.4089 61.9101 44.6438 62.3142C44.8786 62.7182 45.0015 63.176 45 63.6416V345.86C45.0025 346.426 44.8209 346.979 44.4819 347.437C44.1428 347.894 43.664 348.233 43.1156 348.403C39.3037 349.474 35.3581 350.011 31.3945 350V350Z" fill="#424457"/>
<path fill-rule="evenodd" clip-rule="evenodd" d="M24.5222 89.1047L90.9309 50.8986L158.029 12.3771L158.495 12.0431C158.637 11.9525 158.763 11.8397 158.868 11.7091C158.995 11.5877 159.113 11.4575 159.222 11.3195C159.334 11.1896 159.408 11.0597 159.502 10.9298C159.593 10.781 159.674 10.626 159.744 10.4659C159.744 10.2989 159.856 10.1505 159.893 9.9649C159.944 9.80212 159.975 9.63395 159.986 9.46389C160.005 9.3098 160.005 9.15409 159.986 9V25.0692L37.2336 95.6919C33.3382 97.9 28.1754 99.069 24.0004 96.6754C23.3881 96.293 22.8833 95.7622 22.5334 95.1325C22.1835 94.5029 22 93.7951 22 93.0756C22 92.356 22.1835 91.6482 22.5334 91.0186C22.8833 90.389 23.3881 89.8581 24.0004 89.4758C25.8642 88.4181 24.429 89.2531 24.6341 89.1603L24.5222 89.1047Z" fill="white"/>
<path fill-rule="evenodd" clip-rule="evenodd" d="M26.2405 91.8503L25.9821 92.0174C25.762 92.2244 25.5863 92.4743 25.4657 92.752C25.345 93.0296 25.282 93.3291 25.2805 93.632C25.2906 93.8465 25.3622 94.0535 25.4867 94.228C25.6112 94.4025 25.7832 94.5371 25.9821 94.6156C30.044 96.9912 35.0105 94.4672 36.4507 93.632L156.72 23.7753V16.0547L27.1268 91.3307L26.8498 91.5348C26.7147 91.6261 26.5727 91.7068 26.4252 91.7761C26.3657 91.7989 26.3 91.7989 26.2405 91.7761V91.8503ZM29.8409 100.907C27.5581 100.933 25.3093 100.35 23.3234 99.2183C22.3246 98.6739 21.4895 97.8701 20.905 96.8908C20.3204 95.9116 20.0079 94.7926 20 93.6506C20.0063 92.4278 20.313 91.2256 20.8927 90.1507C21.4725 89.0757 22.3074 88.1614 23.3234 87.4889L23.6372 87.3405C23.7095 87.2485 23.8052 87.178 23.9142 87.1363L156.073 10.3756C156.073 10.2643 156.48 10.023 156.553 9.91163C156.59 9.1775 156.888 8.48107 157.393 7.94952C157.898 7.41797 158.576 7.08677 159.304 7.01641V7.01641C159.632 6.97791 159.965 7.00733 160.281 7.10287C160.597 7.1984 160.891 7.35802 161.143 7.57189C161.396 7.78576 161.602 8.04934 161.749 8.34641C161.897 8.64348 161.982 8.96772 162 9.29918V25.3714C161.999 25.8411 161.876 26.3023 161.643 26.7093C161.409 27.1163 161.074 27.4549 160.671 27.6913L39.054 98.2161C36.277 99.9357 33.1008 100.895 29.8409 101V100.907Z" fill="#424457"/>
<path fill-rule="evenodd" clip-rule="evenodd" d="M81.6775 86.1896L55.4299 101.225C50.1767 104.25 47.3551 106.243 41.3223 107.718C31.3913 110.172 19.5854 109.139 11.1951 104.306C3.13892 99.6751 0.781471 92.2221 5.19938 86.3003C8.15084 82.3155 16.337 78.4783 20.2351 76.2092L145.477 4.26205C146.883 3.43587 148.485 3 150.118 3C151.751 3 153.353 3.43587 154.759 4.26205L157.821 6.10685C158.426 6.45795 158.928 6.96034 159.276 7.56398C159.625 8.16761 159.808 8.85143 159.808 9.54741C159.808 10.2434 159.625 10.9272 159.276 11.5309C158.928 12.1345 158.426 12.6369 157.821 12.988C118.023 35.8512 78.132 58.7513 38.1481 81.6883L25.1542 89.1966C24.1349 89.6619 23.3216 90.4809 22.867 91.5C22.4124 92.519 22.3479 93.668 22.6854 94.731C23.042 95.596 23.7013 96.3036 24.5417 96.7234C28.6997 99.1032 33.823 97.941 37.7212 95.7457L172.635 18.2641C174.04 17.4398 175.643 17.005 177.275 17.005C178.907 17.005 180.51 17.4398 181.916 18.2641L184.997 20.0167C185.606 20.3665 186.112 20.8695 186.463 21.475C186.815 22.0805 187 22.7673 187 23.4664C187 24.1655 186.815 24.8523 186.463 25.4578C186.112 26.0633 185.606 26.5663 184.997 26.9162L81.6775 86.1896Z" fill="white"/>
<path fill-rule="evenodd" clip-rule="evenodd" d="M149.873 5.36129C148.71 5.37364 147.571 5.69366 146.571 6.28918L22.1203 78.6648L19.3901 80.1865C15.7005 82.2093 9.96313 85.3271 7.95229 88.0922C7.27049 88.9687 6.78416 89.9825 6.52633 91.0648C6.26849 92.1471 6.24519 93.2726 6.45801 94.3647C6.94818 96.086 7.79277 97.6844 8.93693 99.0559C10.0811 100.428 11.4992 101.542 13.0993 102.326C20.4785 106.631 31.5473 107.893 41.1034 105.481C45.0995 104.468 48.8933 102.773 52.3197 100.47L80.4345 84.1208L183.061 24.4759C183.259 24.3553 183.424 24.1852 183.538 23.982C183.652 23.7788 183.712 23.5494 183.712 23.316C183.712 23.0827 183.652 22.8533 183.538 22.6501C183.424 22.4469 183.259 22.2767 183.061 22.1561L180.035 20.3004C179.036 19.7042 177.895 19.3897 176.733 19.3897C175.571 19.3897 174.43 19.7042 173.431 20.3004L39.3323 98.2433C33.7979 101.398 28.0053 101.788 23.5962 99.2269C22.2641 98.4845 21.2327 97.296 20.6814 95.8679C20.1076 94.2144 20.1527 92.4071 20.8081 90.7846C21.4634 89.162 22.6842 87.8353 24.2419 87.0529L37.1555 79.5185C64.9628 63.2989 92.807 47.1103 120.688 30.9526L156.2 10.3163C156.406 10.2066 156.576 10.04 156.691 9.83606C156.805 9.63214 156.859 9.39947 156.846 9.16566C156.856 8.92985 156.801 8.69588 156.687 8.48956C156.573 8.28324 156.405 8.11262 156.2 7.99653L153.138 6.23351C152.138 5.63554 150.999 5.31533 149.836 5.30562L149.873 5.36129ZM31.0123 111.995C23.8467 112.11 16.7733 110.358 10.4797 106.91C8.22498 105.756 6.23786 104.137 4.64834 102.157C3.05881 100.177 1.90271 97.8826 1.25566 95.4225C0.890211 93.6026 0.916833 91.725 1.33371 89.9163C1.7506 88.1076 2.54805 86.4098 3.67234 84.9373C6.40265 81.2258 12.4351 77.9039 16.8442 75.51C17.822 74.9718 18.689 74.4707 19.4454 74.0253L143.933 1.64972C145.721 0.57021 147.768 0 149.854 0C151.94 0 153.987 0.57021 155.776 1.64972L158.839 3.41274C159.854 3.98453 160.697 4.8201 161.281 5.83212C161.866 6.84414 162.169 7.99544 162.159 9.16566C162.162 10.3349 161.859 11.4843 161.279 12.4977C160.699 13.511 159.864 14.3525 158.857 14.9371L123.326 35.5549C95.445 51.7745 67.6131 67.9755 39.8304 84.1579L26.9168 91.711C25.8469 92.3234 25.3119 93.2327 25.5886 94.0121C25.7177 94.299 25.9385 94.5342 26.2158 94.6802C30.3297 97.0371 35.2738 94.5318 36.7127 93.6967L170.774 15.7537C172.574 14.6751 174.629 14.1057 176.724 14.1057C178.818 14.1057 180.874 14.6751 182.673 15.7537L185.717 17.6095C186.716 18.1964 187.545 19.0364 188.121 20.0457C188.697 21.0551 189 22.1986 189 23.3624C189 24.5262 188.697 25.6697 188.121 26.6791C187.545 27.6884 186.716 28.5284 185.717 29.1153L54.9947 105.11C51.124 107.668 46.8516 109.55 42.3578 110.677C38.6415 111.568 34.8328 112.011 31.0123 111.995V111.995Z" fill="#424457"/>
<path fill-rule="evenodd" clip-rule="evenodd" d="M166 22.4316L160.035 19L25 96.4768L25.2955 96.642C29.3768 99.1194 34.5293 97.8532 38.4075 95.6694L166 22.4316Z" fill="white"/>
<path fill-rule="evenodd" clip-rule="evenodd" d="M159.361 20.7091L31.2611 95.3765C32.813 95.0307 34.3038 94.4495 35.6829 93.6527L160.048 21.1963L159.361 20.8028V20.7091ZM28.976 100.998C26.6752 101.043 24.4083 100.433 22.4363 99.2363C22.0157 98.9918 21.6636 98.6434 21.4134 98.2238C21.1631 97.8042 21.0228 97.3273 21.0057 96.838C20.9751 96.3724 21.0673 95.907 21.2729 95.489C21.4784 95.0711 21.7901 94.7155 22.1762 94.4584L158.023 15.3503C158.432 15.1206 158.893 15 159.361 15C159.829 15 160.29 15.1206 160.699 15.3503L166.681 18.8541C167.085 19.0893 167.42 19.4282 167.651 19.8363C167.883 20.2444 168.003 20.7072 168 21.1775C167.998 21.6467 167.875 22.1073 167.644 22.5145C167.413 22.9216 167.081 23.2615 166.681 23.5009L38.321 98.2808C35.4924 99.9885 32.2719 100.925 28.976 100.998V100.998Z" fill="#424457"/>
<path fill-rule="evenodd" clip-rule="evenodd" d="M121.469 9L106 18.299L150.531 45L166 35.7202L121.469 9Z" fill="white"/>
<path fill-rule="evenodd" clip-rule="evenodd" d="M114.067 19.6101L153.691 42.2735L163.953 36.3985L124.33 13.7165L114.067 19.6101V19.6101ZM153.691 47.9998C153.223 47.999 152.764 47.8773 152.359 47.6465L107.332 21.8969C106.933 21.6582 106.602 21.3234 106.369 20.9235C106.136 20.5236 106.009 20.0717 106 19.6101C105.997 19.1434 106.118 18.6843 106.352 18.2793C106.586 17.8743 106.924 17.538 107.332 17.3047L122.96 8.36204C123.367 8.125 123.83 8 124.302 8C124.773 8 125.236 8.125 125.643 8.36204L170.67 34.1117C171.074 34.3459 171.41 34.6811 171.644 35.084C171.877 35.4868 172 35.9432 172 36.4078C172 36.8723 171.877 37.3288 171.644 37.7316C171.41 38.1345 171.074 38.4697 170.67 38.7039L155.042 47.6465C154.632 47.8838 154.165 48.006 153.691 47.9998V47.9998Z" fill="#424457"/>
<path fill-rule="evenodd" clip-rule="evenodd" d="M143.859 381L119.719 366.679C116.005 362.484 117.175 352.654 117.175 346.26V167.83C117.175 157.131 117.936 149.499 126.292 140.648C131.343 135.271 156.003 122.169 163.858 117.716L260.178 62.6313C261.389 62.1612 262.686 61.9496 263.985 62.0101C265.283 62.0706 266.555 62.4018 267.717 62.9824L290 75.8066C283.742 72.85 277.986 77.6544 271.431 81.498L154.443 148.742C150.108 151.564 146.504 155.364 143.922 159.834C141.341 164.303 139.856 169.316 139.588 174.464V315.974C139.588 324.492 138.845 371.65 140.256 376.048L143.859 381Z" fill="white"/>
<path fill-rule="evenodd" clip-rule="evenodd" d="M123.831 366.217L140.017 375.784C139.345 369.017 139.345 351.179 139.551 325.498C139.551 321.789 139.551 318.86 139.551 317.265V175.268C139.85 169.691 141.474 164.263 144.29 159.428C147.107 154.594 151.036 150.491 155.756 147.455L273.471 79.9605C274.535 79.3486 275.581 78.7182 276.589 78.1063C279.05 76.5031 281.657 75.1312 284.375 74.0084L269.775 65.6273C268.904 65.212 267.955 64.9841 266.99 64.9586C266.025 64.933 265.065 65.1103 264.174 65.479L167.855 120.401L161.451 123.98C151.35 129.543 134.472 138.907 130.645 142.949C122.729 151.348 122.15 158.543 122.15 168.556V347.619C122.15 348.843 122.15 350.178 122.057 351.568C121.889 356.556 121.683 363.324 123.924 366.217H123.831ZM146.477 385C146.035 385.002 145.602 384.88 145.226 384.648L120.955 370.277C120.75 370.139 120.556 369.984 120.377 369.814C116.643 365.642 116.885 358.132 117.109 351.476C117.109 350.14 117.109 348.843 117.109 347.767V168.556C117.109 157.727 117.819 149.309 126.948 139.611C130.944 135.365 144.946 127.447 158.93 119.715C161.525 118.287 163.747 117.045 165.297 116.155L262.194 60.9361C263.777 60.2689 265.487 59.9516 267.205 60.006C268.923 60.0604 270.609 60.4853 272.146 61.2513L294.68 74.2309C295.26 74.5334 295.694 75.052 295.889 75.6727C296.083 76.2934 296.021 76.9654 295.717 77.5407C295.412 78.1161 294.89 78.5478 294.265 78.7408C293.64 78.9338 292.963 78.8723 292.384 78.5699C288.501 76.7156 284.916 78.7738 279.166 82.2783L275.954 84.1325L158.239 151.589C154.25 154.215 150.93 157.726 148.542 161.845C146.154 165.964 144.763 170.579 144.48 175.324V317.284C144.48 318.897 144.48 321.808 144.48 325.572C144.368 338.292 144.069 371.612 145.021 376.508L148.456 381.013C148.799 381.468 148.973 382.026 148.95 382.594C148.926 383.162 148.705 383.704 148.326 384.129C148.096 384.394 147.813 384.609 147.495 384.759C147.176 384.909 146.83 384.991 146.477 385V385Z" fill="#424457"/>
<path fill-rule="evenodd" clip-rule="evenodd" d="M298 85.6251V283.09C298 292.541 291.29 304.141 283.13 308.885C239.617 333.901 201.346 355.935 157.87 380.97C149.636 385.714 143 381.859 143 372.372V174.925C143 165.456 149.691 153.874 157.87 149.149L283.13 77.0268C291.29 72.2829 298 76.1559 298 85.6251Z" fill="white"/>
<path fill-rule="evenodd" clip-rule="evenodd" d="M289.24 78.8689C287.316 78.9692 285.449 79.5542 283.814 80.5688L158.564 152.483C151.131 156.751 144.869 167.56 144.869 176.078V372.955C144.869 376.65 145.984 379.274 148.028 380.438C150.072 381.602 152.934 381.269 156.13 379.422L281.436 307.471C288.869 303.184 295.131 292.375 295.131 283.857V87.0358C295.131 83.3404 293.998 80.7166 291.972 79.6449C291.162 79.1715 290.236 78.9286 289.296 78.9428L289.24 78.8689ZM150.704 386C148.906 386.015 147.136 385.556 145.575 384.669C141.97 382.581 140 378.442 140 372.955V176.078C140 165.842 147.266 153.37 156.167 148.251L281.417 76.3744C286.193 73.6213 290.708 73.2517 294.425 75.3212C298.142 77.3907 300 81.5665 300 87.0358V283.931C300 294.149 292.771 306.621 283.851 311.739L158.602 383.653C156.22 385.107 153.497 385.916 150.704 386Z" fill="#424457"/>
<path fill-rule="evenodd" clip-rule="evenodd" d="M231.264 317.682L278.736 289.731C279.395 289.291 279.943 288.699 280.336 288.003C280.729 287.307 280.957 286.526 281 285.724V237.648C281 236.194 279.978 235.579 278.736 236.306L231.264 264.258C230.608 264.696 230.061 265.284 229.668 265.977C229.275 266.669 229.046 267.446 229 268.245V316.359C229.018 317.812 230.023 318.427 231.264 317.682Z" fill="white"/>
<path fill-rule="evenodd" clip-rule="evenodd" d="M278.013 240.601L230.99 267.14C230.69 267.355 230.438 267.628 230.249 267.941C230.061 268.254 229.938 268.601 229.89 268.961V314.407L276.951 287.886C277.244 287.668 277.489 287.395 277.672 287.082C277.854 286.769 277.97 286.423 278.013 286.065V240.601ZM228.735 319.999C228.08 320.013 227.435 319.849 226.871 319.526C226.264 319.154 225.771 318.63 225.443 318.008C225.115 317.387 224.965 316.69 225.007 315.992V268.961C225.066 267.759 225.419 266.588 226.035 265.546C226.651 264.503 227.512 263.62 228.548 262.969L277.006 235.646C277.604 235.25 278.304 235.027 279.025 235.002C279.747 234.977 280.461 235.152 281.086 235.506C281.71 235.859 282.22 236.378 282.557 237.002C282.894 237.626 283.043 238.331 282.989 239.034V286.029C282.942 287.234 282.595 288.409 281.978 289.453C281.361 290.498 280.492 291.379 279.448 292.021L230.99 319.344C230.305 319.741 229.53 319.967 228.735 319.999V319.999Z" fill="#424457"/>
<path fill-rule="evenodd" clip-rule="evenodd" d="M163.225 356.685L209.797 329.075C210.438 328.645 210.971 328.066 211.354 327.385C211.737 326.704 211.958 325.94 212 325.154V277.628C212 276.192 211.015 275.584 209.797 276.302L163.225 303.913C162.579 304.343 162.041 304.924 161.655 305.609C161.269 306.293 161.046 307.062 161.004 307.852V355.397C160.932 356.814 161.935 357.422 163.225 356.685Z" fill="white"/>
<path fill-rule="evenodd" clip-rule="evenodd" d="M210.961 277.889L163.116 305.013C162.807 305.229 162.548 305.506 162.355 305.827C162.162 306.148 162.04 306.504 161.997 306.874V353.322L209.88 326.179C210.182 325.96 210.435 325.682 210.621 325.361C210.807 325.04 210.923 324.685 210.961 324.318V277.777V277.889ZM160.802 359C160.143 359.003 159.492 358.85 158.906 358.553C158.281 358.154 157.776 357.599 157.442 356.944C157.109 356.29 156.96 355.56 157.009 354.83V306.8C157.06 305.574 157.412 304.377 158.036 303.314C158.661 302.251 159.538 301.351 160.593 300.694L209.899 272.769C210.494 272.321 211.212 272.056 211.96 272.008C212.709 271.96 213.456 272.131 214.106 272.5C214.755 272.869 215.279 273.418 215.61 274.079C215.942 274.74 216.066 275.483 215.967 276.213V324.281C215.927 325.507 215.578 326.704 214.953 327.766C214.328 328.828 213.445 329.722 212.383 330.368L163.078 358.293C162.394 358.717 161.61 358.96 160.802 359V359Z" fill="#424457"/>
<path fill-rule="evenodd" clip-rule="evenodd" d="M277.779 168.346L231.22 196.286C230.576 196.727 230.04 197.32 229.655 198.015C229.269 198.71 229.045 199.489 229 200.29V248.365C229 249.836 230.003 250.413 231.22 249.687L277.779 221.748C278.423 221.314 278.959 220.729 279.345 220.039C279.73 219.35 279.955 218.576 280 217.78V169.65C280 168.197 278.997 167.545 277.779 168.346Z" fill="white"/>
<path fill-rule="evenodd" clip-rule="evenodd" d="M278.068 171.62L230.997 198.493C230.693 198.707 230.438 198.982 230.248 199.3C230.059 199.618 229.939 199.971 229.896 200.337V246.356L277.005 219.575C277.301 219.356 277.548 219.08 277.731 218.762C277.914 218.445 278.029 218.094 278.068 217.73V171.62ZM228.739 252C228.083 252.007 227.437 251.835 226.874 251.502C226.265 251.132 225.77 250.605 225.441 249.978C225.113 249.351 224.963 248.647 225.008 247.942V200.337C225.061 199.121 225.411 197.936 226.029 196.882C226.646 195.829 227.512 194.938 228.553 194.288L277.061 166.621C277.664 166.242 278.359 166.029 279.074 166.003C279.789 165.977 280.498 166.139 281.128 166.474C281.733 166.847 282.226 167.374 282.555 168.001C282.883 168.627 283.034 169.329 282.993 170.034V217.73C282.942 218.947 282.592 220.133 281.975 221.187C281.357 222.241 280.491 223.131 279.449 223.78L230.941 251.446C230.262 251.802 229.507 251.992 228.739 252V252Z" fill="#424457"/>
<path fill-rule="evenodd" clip-rule="evenodd" d="M209.753 207.293L162.265 235.245C161.611 235.687 161.067 236.276 160.674 236.968C160.281 237.66 160.05 238.435 160 239.233V287.349C160 288.821 161.023 289.417 162.265 288.691L209.753 260.738C210.408 260.295 210.952 259.702 211.342 259.006C211.732 258.311 211.957 257.532 212 256.731V208.653C212 207.162 210.995 206.603 209.753 207.293Z" fill="white"/>
<path fill-rule="evenodd" clip-rule="evenodd" d="M210.964 210.652L163.112 237.515C162.805 237.73 162.547 238.005 162.355 238.323C162.162 238.64 162.039 238.993 161.993 239.358V285.45L209.883 258.606C210.18 258.384 210.429 258.107 210.614 257.79C210.8 257.474 210.919 257.124 210.964 256.763V210.652ZM160.799 291C160.134 291.004 159.48 290.839 158.902 290.521C158.289 290.14 157.791 289.609 157.457 288.981C157.124 288.353 156.968 287.65 157.005 286.944V239.34C157.065 238.127 157.422 236.946 158.045 235.895C158.668 234.843 159.541 233.951 160.59 233.292L209.902 205.637C210.513 205.243 211.226 205.023 211.959 205.002C212.692 204.981 213.416 205.16 214.05 205.519C214.684 205.878 215.202 206.402 215.545 207.032C215.887 207.663 216.042 208.374 215.99 209.085V256.652C215.946 257.87 215.596 259.06 214.972 260.117C214.347 261.174 213.466 262.067 212.406 262.718L163.093 290.373C162.4 290.777 161.607 290.994 160.799 291V291Z" fill="#424457"/>
<path fill-rule="evenodd" clip-rule="evenodd" d="M162.28 211.683L277.701 145.597C278.372 145.169 278.93 144.589 279.33 143.905C279.729 143.221 279.959 142.452 280 141.662V104.629C280 103.177 278.98 102.588 277.701 103.305L162.28 169.391C161.618 169.83 161.067 170.416 160.672 171.102C160.276 171.788 160.046 172.555 160 173.344V210.377C160 211.83 161.038 212.418 162.28 211.683Z" fill="white"/>
<path fill-rule="evenodd" clip-rule="evenodd" d="M278.147 106.665L163.085 172.645C162.788 172.866 162.539 173.145 162.352 173.464C162.166 173.783 162.046 174.136 162 174.502V210.334L277.081 144.355C277.663 143.894 278.045 143.229 278.147 142.497V106.665ZM160.747 216C160.091 216.004 159.446 215.838 158.876 215.517C158.271 215.134 157.78 214.599 157.451 213.966C157.123 213.333 156.969 212.625 157.005 211.913V174.502C157.057 173.275 157.408 172.078 158.026 171.013C158.645 169.949 159.514 169.05 160.559 168.391L277.025 101.631C277.632 101.246 278.333 101.029 279.053 101.003C279.773 100.977 280.488 101.142 281.122 101.483C281.732 101.86 282.228 102.394 282.557 103.028C282.886 103.663 283.037 104.374 282.992 105.086V142.497C282.939 143.725 282.588 144.921 281.969 145.985C281.35 147.049 280.482 147.949 279.438 148.608L162.991 215.35C162.316 215.765 161.54 215.989 160.747 216V216Z" fill="#424457"/>
<path fill-rule="evenodd" clip-rule="evenodd" d="M257.193 130.387V143.516L260.807 141.715V128.568L257.193 130.477V130.387ZM254.587 149.999C254.133 150.01 253.687 149.897 253.303 149.675C252.904 149.471 252.572 149.173 252.343 148.812C252.113 148.45 251.995 148.04 252 147.622V129C251.997 128.583 252.116 128.173 252.346 127.812C252.575 127.451 252.905 127.152 253.303 126.947L262.11 122.318C262.506 122.11 262.956 122 263.413 122C263.871 122 264.32 122.11 264.716 122.318C265.108 122.533 265.432 122.837 265.657 123.2C265.882 123.563 266 123.973 266 124.39V142.976C266.007 143.391 265.891 143.801 265.666 144.162C265.44 144.523 265.112 144.822 264.716 145.029L255.89 149.675C255.498 149.894 255.046 150.007 254.587 149.999V149.999Z" fill="#424457"/>
<path fill-rule="evenodd" clip-rule="evenodd" d="M145 158.836L122.018 146C118.953 150.632 117.221 155.969 117 161.462V358.547C117.192 362.653 117.843 365.704 121.501 368.164L144.483 381C140.806 378.54 140.155 375.451 139.963 371.382V174.335C140.185 168.828 141.923 163.477 145 158.836V158.836Z" fill="white"/>
<path fill-rule="evenodd" clip-rule="evenodd" d="M125.427 149.738C123.282 153.497 122.095 157.703 121.968 162.001V359.917C122.14 363.633 122.675 365.751 125.389 367.535L140.16 375.84C140.026 374.874 139.969 373.889 139.931 372.941V174.84C140.05 169.71 141.433 164.683 143.963 160.18L125.351 149.719L125.427 149.738ZM146.925 385C146.481 384.999 146.046 384.884 145.663 384.666L122.733 371.771C117.764 368.426 117.153 364.172 117 360.121V161.926C117.227 155.984 119.087 150.21 122.389 145.204C122.724 144.648 123.272 144.244 123.913 144.08C124.555 143.916 125.236 144.006 125.809 144.331L148.74 157.226C149.03 157.388 149.283 157.605 149.487 157.863C149.69 158.122 149.839 158.416 149.925 158.731C150.084 159.36 149.988 160.026 149.657 160.589C146.819 164.89 145.203 169.845 144.976 174.951V372.811C145.167 376.527 145.702 378.627 148.377 380.466C148.916 380.818 149.292 381.362 149.424 381.98C149.556 382.598 149.434 383.242 149.084 383.774C148.866 384.144 148.552 384.453 148.173 384.668C147.794 384.883 147.364 384.998 146.925 385V385Z" fill="#424457"/>
<path fill-rule="evenodd" clip-rule="evenodd" d="M242.523 287C242.08 287.003 241.645 286.893 241.262 286.681C240.88 286.47 240.563 286.165 240.345 285.798C240.177 285.525 240.068 285.222 240.023 284.908C239.978 284.594 239.999 284.275 240.084 283.968C240.169 283.662 240.317 283.375 240.519 283.123C240.722 282.871 240.974 282.66 241.262 282.502L265.237 269.318C265.523 269.162 265.839 269.06 266.166 269.02C266.493 268.979 266.825 269.001 267.143 269.083C267.462 269.165 267.76 269.306 268.021 269.498C268.283 269.69 268.502 269.929 268.666 270.201C268.83 270.474 268.937 270.775 268.979 271.087C269.022 271.398 268.999 271.715 268.913 272.019C268.827 272.322 268.679 272.607 268.478 272.856C268.276 273.105 268.026 273.313 267.74 273.47L243.669 286.636C243.323 286.842 242.93 286.967 242.523 287V287Z" fill="#424457"/>
<path fill-rule="evenodd" clip-rule="evenodd" d="M242.522 218C242.078 218.006 241.642 217.898 241.258 217.686C240.874 217.474 240.558 217.167 240.344 216.797C240.176 216.525 240.067 216.224 240.023 215.911C239.978 215.598 239.999 215.28 240.085 214.975C240.17 214.67 240.318 214.384 240.52 214.134C240.721 213.884 240.973 213.674 241.261 213.518L265.235 200.327C265.52 200.167 265.834 200.064 266.16 200.021C266.487 199.979 266.819 199.999 267.137 200.081C267.456 200.162 267.754 200.303 268.014 200.496C268.275 200.688 268.493 200.928 268.655 201.201C268.823 201.475 268.932 201.778 268.977 202.092C269.022 202.406 269.001 202.726 268.916 203.032C268.831 203.339 268.683 203.626 268.48 203.878C268.278 204.129 268.026 204.341 267.738 204.499L243.668 217.635C243.328 217.856 242.932 217.982 242.522 218Z" fill="#424457"/>
<path fill-rule="evenodd" clip-rule="evenodd" d="M176.355 256.997C175.942 257 175.536 256.89 175.178 256.678C174.821 256.466 174.525 256.161 174.322 255.793C174.165 255.518 174.063 255.215 174.021 254.901C173.98 254.586 173.999 254.266 174.079 253.959C174.158 253.652 174.296 253.364 174.485 253.112C174.674 252.859 174.909 252.648 175.178 252.489L197.554 239.275C198.093 238.986 198.721 238.922 199.306 239.097C199.891 239.271 200.387 239.672 200.689 240.213C200.992 240.754 201.078 241.395 200.928 241.999C200.779 242.604 200.407 243.126 199.889 243.455L177.513 256.705C177.164 256.917 176.761 257.019 176.355 256.997Z" fill="#424457"/>
<path fill-rule="evenodd" clip-rule="evenodd" d="M186.992 264C186.729 264 186.469 263.936 186.226 263.81C185.984 263.685 185.763 263.502 185.578 263.271C185.393 263.039 185.247 262.765 185.147 262.463C185.048 262.162 184.998 261.839 185 261.513V234.271C185.044 233.651 185.273 233.074 185.644 232.654C186.014 232.233 186.498 232 187 232C187.502 232 187.986 232.233 188.356 232.654C188.727 233.074 188.956 233.651 189 234.271V261.57C188.988 262.219 188.771 262.837 188.396 263.292C188.021 263.746 187.517 264 186.992 264Z" fill="#424457"/>
<path fill-rule="evenodd" clip-rule="evenodd" d="M178.435 333C178.01 332.994 177.593 332.886 177.218 332.685C176.94 332.524 176.697 332.309 176.502 332.053C176.306 331.798 176.164 331.505 176.081 331.194C175.999 330.882 175.979 330.557 176.022 330.238C176.065 329.919 176.171 329.611 176.333 329.333L192.542 301.086C192.886 300.57 193.412 300.204 194.015 300.064C194.617 299.923 195.25 300.018 195.785 300.329C196.321 300.64 196.718 301.145 196.896 301.739C197.075 302.334 197.021 302.975 196.746 303.531L180.537 331.759C180.328 332.135 180.023 332.447 179.654 332.665C179.284 332.884 178.864 332.999 178.435 333V333Z" fill="#424457"/>
<path fill-rule="evenodd" clip-rule="evenodd" d="M195.468 324C195.022 323.996 194.584 323.876 194.198 323.65L177.271 313.773C176.982 313.606 176.729 313.383 176.526 313.117C176.323 312.851 176.174 312.547 176.088 312.223C175.913 311.569 176.002 310.871 176.337 310.283C176.671 309.695 177.223 309.265 177.871 309.089C178.52 308.912 179.211 309.002 179.793 309.34L196.739 319.217C197.221 319.501 197.597 319.937 197.809 320.457C198.021 320.978 198.058 321.555 197.913 322.099C197.769 322.642 197.451 323.123 197.009 323.467C196.568 323.81 196.026 323.998 195.468 324Z" fill="#424457"/>
<path fill-rule="evenodd" clip-rule="evenodd" d="M254.005 285.841L255.154 288.047L254.005 285.841ZM253.239 293C252.684 293.002 252.138 292.842 251.655 292.536C251.133 292.178 250.704 291.672 250.414 291.071C250.123 290.469 249.981 289.793 250.002 289.111C250.039 288.009 250.319 286.933 250.816 285.979C251.314 285.024 252.014 284.22 252.856 283.636C253.368 283.248 253.967 283.029 254.586 283.003C255.204 282.977 255.817 283.145 256.353 283.488C256.889 283.832 257.327 284.337 257.617 284.944C257.907 285.552 258.037 286.239 257.991 286.925C257.962 288.024 257.688 289.099 257.192 290.051C256.697 291.003 255.997 291.804 255.154 292.381C254.575 292.769 253.915 292.982 253.239 293V293Z" fill="#424457"/>
<path fill-rule="evenodd" clip-rule="evenodd" d="M253.239 271.999C252.683 272.011 252.134 271.85 251.655 271.534C251.133 271.176 250.704 270.669 250.414 270.067C250.123 269.464 249.981 268.787 250.002 268.103C250.04 267.002 250.321 265.928 250.818 264.975C251.316 264.022 252.016 263.219 252.856 262.637V262.637C253.368 262.249 253.967 262.029 254.586 262.003C255.204 261.976 255.817 262.145 256.353 262.489C256.889 262.833 257.327 263.339 257.617 263.948C257.907 264.557 258.037 265.245 257.991 265.932C257.961 267.034 257.685 268.109 257.19 269.063C256.695 270.017 255.996 270.819 255.154 271.398C254.57 271.773 253.912 271.979 253.239 271.999Z" fill="#424457"/>
</svg>
